<svg width="24" height="24" xmlns="http://www.w3.org/2000/svg"><path d="M18.5 18.5v-6a6 6 0 1 0-12 0v6h12zm-6-13a7 7 0 0 1 7 7V19a.5.5 0 0 1-.5.5H6a.5.5 0 0 1-.5-.5v-6.5a7 7 0 0 1 7-7zm-4 8.5a.5.5 0 0 1 .5.5v3a.5.5 0 1 1-1 0v-3a.5.5 0 0 1 .5-.5zm-4 6h16a.5.5 0 1 1 0 1h-16a.5.5 0 1 1 0-1zm8-17a.5.5 0 0 1 .5.5v1a.5.5 0 1 1-1 0v-1a.5.5 0 0 1 .5-.5zM5.354 5.354a.5.5 0 0 1 .707 0l.707.707a.5.5 0 1 1-.707.707l-.707-.707a.5.5 0 0 1 0-.707zm14.414 0a.5.5 0 0 1 0 .707l-.707.707a.5.5 0 0 1-.707-.707l.707-.707a.5.5 0 0 1 .707 0z" fill="#979797" fill-rule="nonzero"/></svg>