<svg width="19" height="18" xmlns="http://www.w3.org/2000/svg"><g fill="#171A1D" fill-rule="nonzero"><path d="M12.578 7.377c.551 0 1.02.384 1.136.907l.02.124.007.12v1.532c0 .366-.31.659-.689.659a.685.685 0 0 1-.657-.464l-.023-.095-.008-.1-.001-1.366-6.966-.014.002 1.38a.648.648 0 0 1-.304.546l-.085.046-.092.036-.105.023-.103.008a.686.686 0 0 1-.657-.465l-.023-.094-.009-.1V8.527c0-.546.388-1.01.918-1.123l.124-.02.121-.007h7.394ZM9.502 1.9c.97 0 1.79.666 1.945 1.556l.02.15.006.148V5.89c0 .465-.342.859-.808.962l-.119.02-.114.005H8.264c-.972 0-1.792-.666-1.947-1.556l-.02-.15-.006-.148V2.887c0-.465.341-.858.808-.961l.119-.02.114-.006h2.17ZM7.493 3.054l.001 1.968c0 .319.239.595.565.676l.101.018.104.006h2.005V3.756c0-.319-.238-.596-.565-.676l-.1-.019-.104-.006-2.007-.001ZM5.137 11.264c.486 0 .902.319 1.013.763l.021.113.007.11v1.963c0 .465-.34.858-.807.961l-.119.02-.115.006H3.141c-.486 0-.904-.32-1.013-.764l-.021-.113-.007-.11v-1.961c0-.466.341-.86.807-.962l.12-.02.114-.006h1.996Zm-.162 1.154H3.302v1.625h1.673v-1.625ZM9.848 11.22c.486 0 .903.32 1.013.765l.02.113.007.11v1.961c0 .465-.34.859-.807.962l-.119.02-.114.005H7.85c-.486 0-.903-.32-1.013-.764l-.021-.113-.007-.11v-1.961c0-.465.341-.859.807-.962l.12-.02.114-.005h1.997Zm-.163 1.155H8.013v1.626h1.672v-1.626ZM14.56 11.18c.485 0 .903.32 1.012.765l.021.113.007.11v1.961c0 .466-.341.859-.807.962l-.12.02-.114.006h-1.996c-.487 0-.904-.32-1.014-.764l-.02-.114-.007-.11v-1.96c0-.466.34-.86.807-.962l.119-.02.115-.006h1.996Zm-.164 1.155h-1.673v1.625h1.673v-1.625Z"/></g></svg>