<svg width="60" height="60" xmlns="http://www.w3.org/2000/svg"><g fill="#FFF" fill-rule="nonzero"><path d="M13 9.2a2.8 2.8 0 0 0-2.8 2.8v10a2.8 2.8 0 0 0 2.8 2.8h10a2.8 2.8 0 0 0 2.8-2.8V12A2.8 2.8 0 0 0 23 9.2H13zm0-2.4h10a5.2 5.2 0 0 1 5.2 5.2v10a5.2 5.2 0 0 1-5.2 5.2H13A5.2 5.2 0 0 1 7.8 22V12A5.2 5.2 0 0 1 13 6.8zM13 33.2a2.8 2.8 0 0 0-2.8 2.8v10a2.8 2.8 0 0 0 2.8 2.8h10a2.8 2.8 0 0 0 2.8-2.8V36a2.8 2.8 0 0 0-2.8-2.8H13zm0-2.4h10a5.2 5.2 0 0 1 5.2 5.2v10a5.2 5.2 0 0 1-5.2 5.2H13A5.2 5.2 0 0 1 7.8 46V36a5.2 5.2 0 0 1 5.2-5.2zM37 9.2a2.8 2.8 0 0 0-2.8 2.8v10a2.8 2.8 0 0 0 2.8 2.8h10a2.8 2.8 0 0 0 2.8-2.8V12A2.8 2.8 0 0 0 47 9.2H37zm0-2.4h10a5.2 5.2 0 0 1 5.2 5.2v10a5.2 5.2 0 0 1-5.2 5.2H37a5.2 5.2 0 0 1-5.2-5.2V12A5.2 5.2 0 0 1 37 6.8zM43.98 33.363a2.8 2.8 0 0 0-3.96 0l-5.657 5.657a2.8 2.8 0 0 0 0 3.96l5.657 5.657a2.8 2.8 0 0 0 3.96 0l5.657-5.657a2.8 2.8 0 0 0 0-3.96l-5.657-5.657zm1.697-1.697l5.657 5.657a5.2 5.2 0 0 1 0 7.354l-5.657 5.657a5.2 5.2 0 0 1-7.354 0l-5.657-5.657a5.2 5.2 0 0 1 0-7.354l5.657-5.657a5.2 5.2 0 0 1 7.354 0z"/></g></svg>