<svg class="icon" viewBox="0 0 1031 1024" xmlns="http://www.w3.org/2000/svg" width="201.367" height="200"><defs><style/></defs><path d="M387.657 0H87.771C65.83 0 43.886 7.314 29.257 29.257 7.314 43.886 0 65.83 0 87.771v299.886c0 21.943 7.314 43.886 29.257 65.829 14.629 14.628 36.572 29.257 65.829 29.257H394.97c21.943 0 43.886-7.314 65.829-29.257 14.629-14.629 29.257-36.572 29.257-65.829V87.771c0-21.942-7.314-43.885-29.257-65.828C431.543 7.314 409.6 0 387.657 0zm14.629 387.657c0 7.314 0 7.314-7.315 14.629 0 0-7.314 7.314-14.628 7.314H87.77c-7.314 0-7.314 0-14.628-7.314V87.77c0-7.314 0-7.314 7.314-14.628h307.2c7.314 0 7.314 0 14.629 7.314s7.314 7.314 7.314 14.629v292.571zm-14.629 160.914H87.771c-21.942 0-43.885 7.315-65.828 29.258C7.314 592.457 0 614.4 0 636.343v299.886c0 21.942 7.314 43.885 29.257 65.828C43.886 1016.686 65.83 1024 87.771 1024h299.886c21.943 0 43.886-7.314 65.829-29.257 14.628-14.629 29.257-36.572 29.257-65.829V636.343c0-21.943-7.314-43.886-29.257-65.829-21.943-14.628-43.886-21.943-65.829-21.943zm14.629 387.658c0 7.314 0 7.314-7.315 14.628 0 0-7.314 7.314-14.628 7.314H87.77c-7.314 0-7.314 0-14.628-7.314 0 0-7.314-7.314-7.314-14.628V636.343c0-7.314 0-7.314 7.314-14.629 0 0 7.314-7.314 14.628-7.314h299.886c7.314 0 7.314 0 14.629 7.314s7.314 7.315 7.314 14.629v299.886zM936.229 548.57H636.343c-21.943 0-43.886 7.315-65.829 29.258-14.628 14.628-21.943 36.571-21.943 58.514v299.886c0 21.942 7.315 43.885 29.258 65.828C592.457 1016.686 614.4 1024 636.343 1024h299.886c21.942 0 43.885-7.314 65.828-29.257 14.629-14.629 29.257-36.572 29.257-65.829V636.343c0-21.943-7.314-43.886-29.257-65.829-21.943-14.628-43.886-21.943-65.828-21.943zm14.628 387.658c0 7.314 0 7.314-7.314 14.628 0 0-7.314 7.314-14.629 7.314H636.343c-7.314 0-7.314 0-14.629-7.314 0 0-7.314-7.314-7.314-14.628V636.343c0-7.314 0-7.314 7.314-14.629 0 0 7.315-7.314 14.629-7.314h299.886c7.314 0 7.314 0 14.628 7.314 0 0 7.314 7.315 7.314 14.629v299.886zM716.8 446.17c14.629 14.629 43.886 29.258 65.829 29.258s51.2-7.315 65.828-29.258l146.286-146.285c21.943-14.629 29.257-36.572 29.257-65.829s-7.314-51.2-29.257-65.828L848.457 21.943C833.83 7.314 811.886 0 789.943 0c-21.943 0-51.2 7.314-65.829 29.257L577.83 175.543c-36.572 36.571-36.572 95.086 0 131.657L716.8 446.171zM629.029 219.43L775.314 73.143h14.629c7.314 0 7.314 0 14.628 7.314l146.286 146.286v7.314c0 7.314 0 7.314-7.314 14.629L797.257 394.97c-7.314 7.315-21.943 7.315-29.257 0L621.714 248.686c0-7.315 0-14.629 7.315-29.257z"/></svg>