<svg xmlns="http://www.w3.org/2000/svg" viewBox="0 0 14 14"><path d="M13.9 4.2l-1.2-3C12.6.5 12 0 11.2 0H2.8c-.9 0-1.5.5-1.6 1.1L0 4.2c-.1.7 0 1.4.5 2 .5.5 1.2.8 2 .8.9 0 1.6-.5 2-1.2l.1.1C5.2 6.6 6 7 6.9 7h.2c.9 0 1.7-.4 2.3-1.1l.1-.1c.4.7 1.1 1.1 2 1.2h.2c.6 0 1.2-.4 1.7-.8.5-.6.7-1.3.5-2zm-1.4 1.2c-.3.3-.6.4-.8.4h-.1c-.8-.1-1-.5-1.1-.6-.1-.4-.5-.6-.8-.6h-.2c-.3 0-.6.1-.9.4h-.1l-.1.1c-.3.4-.8.7-1.3.7h-.2c-.5 0-1-.2-1.4-.7L5.4 5l-.1-.1c-.2-.2-.5-.3-.8-.3h-.2c-.4 0-.7.2-.9.6-.2.2-.5.6-.9.6s-.7-.1-1-.4c-.2-.2-.3-.5-.2-.9l1.2-3c0-.1 0-.1.1-.2 0 0 .1-.1.3-.1h8.5s.3 0 .3.1 0 .2.1.3L13 4.5c-.2.2-.2.5-.5.9zm-.7 7.4H2.2V8H.9v6H13V8h-1.2z"/></svg>