<svg width="16" height="16" xmlns="http://www.w3.org/2000/svg"><g fill="#8F95A2" fill-rule="nonzero"><path d="M3 2.375A.625.625 0 0 0 2.375 3v3c0 .345.28.625.625.625h3c.345 0 .625-.28.625-.625V3A.625.625 0 0 0 6 2.375H3zm0-.75h3c.76 0 1.375.616 1.375 1.375v3c0 .76-.616 1.375-1.375 1.375H3c-.76 0-1.375-.616-1.375-1.375V3c0-.76.616-1.375 1.375-1.375zM3 9.375a.625.625 0 0 0-.625.625v3c0 .345.28.625.625.625h3c.345 0 .625-.28.625-.625v-3A.625.625 0 0 0 6 9.375H3zm0-.75h3c.76 0 1.375.616 1.375 1.375v3c0 .76-.616 1.375-1.375 1.375H3c-.76 0-1.375-.616-1.375-1.375v-3c0-.76.616-1.375 1.375-1.375zM10 2.375A.625.625 0 0 0 9.375 3v3c0 .345.28.625.625.625h3c.345 0 .625-.28.625-.625V3A.625.625 0 0 0 13 2.375h-3zm0-.75h3c.76 0 1.375.616 1.375 1.375v3c0 .76-.616 1.375-1.375 1.375h-3c-.76 0-1.375-.616-1.375-1.375V3c0-.76.616-1.375 1.375-1.375zM10 9.375a.625.625 0 0 0-.625.625v3c0 .345.28.625.625.625h3c.345 0 .625-.28.625-.625v-3A.625.625 0 0 0 13 9.375h-3zm0-.75h3c.76 0 1.375.616 1.375 1.375v3c0 .76-.616 1.375-1.375 1.375h-3c-.76 0-1.375-.616-1.375-1.375v-3c0-.76.616-1.375 1.375-1.375z"/></g></svg>