<svg width="24" height="24" xmlns="http://www.w3.org/2000/svg"><path d="M5 4.5a.5.5 0 0 0-.5.5v5a.5.5 0 0 0 .5.5h5a.5.5 0 0 0 .5-.5V5a.5.5 0 0 0-.5-.5H5zm0-1h5A1.5 1.5 0 0 1 11.5 5v5a1.5 1.5 0 0 1-1.5 1.5H5A1.5 1.5 0 0 1 3.5 10V5A1.5 1.5 0 0 1 5 3.5zm0 10a.5.5 0 0 0-.5.5v5a.5.5 0 0 0 .5.5h5a.5.5 0 0 0 .5-.5v-5a.5.5 0 0 0-.5-.5H5zm0-1h5a1.5 1.5 0 0 1 1.5 1.5v5a1.5 1.5 0 0 1-1.5 1.5H5A1.5 1.5 0 0 1 3.5 19v-5A1.5 1.5 0 0 1 5 12.5zm9-8a.5.5 0 0 0-.5.5v5a.5.5 0 0 0 .5.5h5a.5.5 0 0 0 .5-.5V5a.5.5 0 0 0-.5-.5h-5zm0-1h5A1.5 1.5 0 0 1 20.5 5v5a1.5 1.5 0 0 1-1.5 1.5h-5a1.5 1.5 0 0 1-1.5-1.5V5A1.5 1.5 0 0 1 14 3.5zm0 10a.5.5 0 0 0-.5.5v5a.5.5 0 0 0 .5.5h5a.5.5 0 0 0 .5-.5v-5a.5.5 0 0 0-.5-.5h-5zm0-1h5a1.5 1.5 0 0 1 1.5 1.5v5a1.5 1.5 0 0 1-1.5 1.5h-5a1.5 1.5 0 0 1-1.5-1.5v-5a1.5 1.5 0 0 1 1.5-1.5z" fill="#979797"/></svg>