<svg width="18" height="23" xmlns="http://www.w3.org/2000/svg"><g fill="#027CF9" fill-rule="nonzero"><path d="M15.5 1.89c-1.6-.3-2.7-.6-3.2-.8-.6-.2-1.4-.5-2.4-.9-.7-.3-1.5-.2-2.1 0-1.3.6-2.2 1-2.7 1.1-.5.2-1.5.4-2.9.7-1.3.2-2.2 1.3-2.2 2.5v10.3c0 .7.3 1.3.7 1.8 1.4 1.5 2.5 2.5 3.3 3.1.9.7 2.4 1.5 4.3 2.5.1 0 .2.1.3.1.1 0 .3 0 .4-.1 2-1.1 3.5-2.1 4.4-2.7.8-.6 1.9-1.5 3.2-2.8.5-.5.8-1.2.8-1.9V4.49c.2-1.2-.7-2.3-1.9-2.6zm.5 12.9c0 .3-.1.6-.3.8-1.3 1.2-2.3 2.1-3.1 2.7-.8.6-2.1 1.4-3.9 2.4-1.7-.8-3-1.6-3.7-2.1-.8-.6-1.8-1.6-3.2-3-.2-.2-.3-.5-.3-.8V4.49c0-.5.4-1 .9-1.1 1.5-.3 2.5-.5 3.1-.7.6-.1 1.5-.5 2.9-1.1.1 0 .3-.1.4-.1.1 0 .3 0 .4.1 1.1.5 2 .8 2.6 1 .6.2 1.7.4 3.4.8.5.1.9.6.9 1.1v10.3H16z"/><path d="M8.8 4.39c-2.2 0-4 1.7-4 3.7 0 1.8 1.4 3.3 3.2 3.6v5.1c0 .4.3.8.8.8s.8-.3.8-.8v-2.1H11c.4 0 .8-.3.8-.8s-.3-.8-.8-.8H9.6v-1.5c1.8-.3 3.2-1.8 3.2-3.6 0-1.9-1.8-3.6-4-3.6zm0 6c-1.4 0-2.4-1-2.4-2.2 0-1.2 1.1-2.2 2.4-2.2 1.3 0 2.4 1 2.4 2.2 0 1.2-1 2.2-2.4 2.2z"/></g></svg>