<svg width="24" height="24" xmlns="http://www.w3.org/2000/svg"><path d="M11.307 4.155c.452-.2.967-.207 1.424-.017l.463.19.595.23.33.118.276.089.198.057.445.116.592.145 1.016.238C17.466 5.51 18 6.238 18 7.08v7.065c0 .494-.157.966-.514 1.306l-.48.452-.445.406-.21.186-.39.339-.183.152-.338.271-.156.119-.153.112-.345.24c-.124.084-.257.17-.398.262l-.45.284-.504.306-.557.328-.61.35a.517.517 0 0 1-.48.016l-.598-.295c-1.051-.53-1.847-.996-2.393-1.404-.43-.322-.966-.804-1.612-1.449l-.448-.454-.236-.245c-.32-.335-.5-.782-.5-1.246V7.112c0-.86.608-1.6 1.452-1.768l.7-.142.732-.16.396-.096.191-.053.218-.072.27-.1.321-.126.576-.242zm.73 2.481a3 3 0 0 0-.726 5.912l.001 3.287.01.084c.055.245.348.433.7.433.393 0 .711-.232.711-.517v-1.099l.064.007h1.468l.084-.009c.246-.055.433-.348.433-.701 0-.392-.231-.71-.517-.71h-1.468l-.064.006v-.774a3 3 0 0 0-.696-5.919zm-.024 1.543a1.5 1.5 0 0 1 0 3 1.5 1.5 0 0 1 0-3z" fill="#555657" fill-rule="nonzero"/></svg>