<svg width="16" height="15" xmlns="http://www.w3.org/2000/svg"><path d="M8.577.082l.154.056.463.19.595.23.33.118.276.089.198.057.445.116.592.145 1.016.238c.768.177 1.286.828 1.348 1.601L14 3.08v6.745c0 .439-.124.86-.403 1.188l-.111.118-.48.452-.55.5-.588.508-.09.075-.338.271-.231.174-.423.297-.193.128-.205.134-.45.284-.504.306-.557.327-.61.35a.517.517 0 0 1-.385.052l-.094-.035-.599-.295c-1.051-.53-1.847-.996-2.393-1.404-.376-.281-.833-.686-1.375-1.214l-.237-.235-.448-.454-.236-.245a1.803 1.803 0 0 1-.492-1.073L2 9.86V3.112c0-.81.538-1.513 1.305-1.733l.147-.035.7-.142.732-.16.396-.096.191-.053L5.69.82l.27-.1.321-.126.576-.242.45-.198A1.803 1.803 0 0 1 8.578.082zm-.693 1.139l-.095.033-.468.205-.6.252-.347.137-.31.113-.272.088-.228.063-.425.103-.749.163-.705.143a.603.603 0 0 0-.478.497l-.007.094V9.86c0 .124.038.244.107.344l.057.07.227.235.44.447c.136.135.266.263.39.382l.357.334c.282.258.529.465.738.622.43.322 1.07.704 1.914 1.14l.29.147.267.132.28-.16.544-.32.487-.296.571-.362.231-.153.33-.23.26-.192.325-.26.16-.135.576-.503.432-.395.475-.446a.504.504 0 0 0 .136-.319l.006-.118V3.08c0-.271-.135-.48-.345-.563l-.082-.026-1.03-.241-.61-.15-.47-.124-.237-.068-.31-.101-.36-.129-.616-.239-.47-.192a.602.602 0 0 0-.386-.025zm.198 1.646a2.5 2.5 0 0 1 .55 4.94l.006.073-.001.932H10a.6.6 0 0 1 .097 1.193l-.097.008-1.363-.001v1.16a.6.6 0 0 1-1.192.098l-.007-.097V7.88l.008-.095a2.5 2.5 0 0 1 .636-4.918zm0 1.2a1.3 1.3 0 1 0-.001 2.599 1.3 1.3 0 0 0 .001-2.599z" fill="#171A1D"/></svg>