<svg class="icon" viewBox="0 0 1024 1024" xmlns="http://www.w3.org/2000/svg" width="200" height="200"><defs><style/></defs><path d="M950.857 665.6c-7.314-95.086-51.2-190.171-160.914-190.171-43.886 0-80.457 14.628-109.714 43.885-29.258-21.943-58.515-36.571-95.086-51.2C658.286 424.23 702.17 343.771 702.17 256c0-138.971-117.028-256-256-256s-256 117.029-256 256c0 87.771 43.886 160.914 102.4 204.8C124.343 519.314 0 680.229 0 870.4 0 1002.057 270.629 1024 431.543 1024H599.77c7.315 0 14.629 0 21.943-7.314 7.315 7.314 21.943 7.314 29.257 7.314h263.315c58.514 0 102.4-51.2 102.4-124.343V775.314c7.314-51.2-21.943-95.085-65.829-109.714zM789.943 548.571c65.828 0 80.457 65.829 87.771 109.715H694.857c7.314-43.886 29.257-109.715 95.086-109.715zM263.314 256c0-102.4 80.457-182.857 182.857-182.857S629.03 153.6 629.03 256 548.57 438.857 446.17 438.857 263.314 358.4 263.314 256zM460.8 950.857h-29.257c-270.629 0-358.4-51.2-358.4-80.457 0-197.486 160.914-358.4 358.4-358.4 73.143 0 146.286 21.943 204.8 65.829h7.314c-14.628 29.257-14.628 58.514-21.943 87.771-43.885 14.629-73.143 58.514-73.143 117.029V906.97c0 14.629 0 36.572 7.315 51.2-29.257-7.314-65.829-7.314-95.086-7.314zm490.057-51.2c0 29.257-14.628 51.2-29.257 51.2H650.971c-14.628 0-29.257-21.943-29.257-51.2V775.314c0-29.257 14.629-51.2 29.257-51.2h263.315c14.628 0 29.257 21.943 29.257 51.2v124.343z"/></svg>