<svg width="15" height="15" xmlns="http://www.w3.org/2000/svg"><path d="m11.5 0 .013.001.135.005a1.997 1.997 0 0 1 .81.238c.004.004.009.006.014.009.572.318.972.91 1.023 1.598L13.5 2v7.17a2 2 0 0 1-1.85 1.995l-.15.005h-8c-.074 0-.344.003-.535.16-.156.13-.244.34-.265.632l-.002-.003.001 1.054c0 .405.298.74.687.795l.107.008 9.397.015a.61.61 0 0 1 .61.61.608.608 0 0 1-.608.608h-.002l-9.407-.028A2.004 2.004 0 0 1 1.5 13.013V2.008c0-.053.002-.106.006-.157L1.5 2c0-.65.31-1.226.788-1.591.009-.005.016-.011.024-.017.029-.022.059-.044.09-.064l.023-.014c.033-.022.067-.042.101-.061L2.55.24c.031-.017.063-.033.095-.048l.052-.024c.029-.013.057-.025.087-.036l.02-.007a1.745 1.745 0 0 1 .322-.09L3.2.022C3.3.008 3.398 0 3.5 0h8Zm-.001 1.205H3.5a.8.8 0 0 0-.774.596l-.02.099L2.7 2v7.17a.8.8 0 0 0 .7.794l.1.006h8a.8.8 0 0 0 .794-.7l.006-.1V2.008a.803.803 0 0 0-.7-.797l-.101-.006Zm-1 5.435a.6.6 0 0 1 .098 1.19l-.098.008H4.5a.6.6 0 0 1-.098-1.19L4.5 6.64h5.999Zm.001-3.347a.6.6 0 0 1 .097 1.19l-.097.007h-6a.6.6 0 0 1-.098-1.19l.098-.007h6Z" fill="#171A1D" fill-rule="nonzero"/></svg>