<svg width="24" height="24" xmlns="http://www.w3.org/2000/svg"><path d="M10 13V9.5a.5.5 0 111 0V13h3.5a.5.5 0 110 1H11v3.5a.5.5 0 11-1 0V14H6.5a.5.5 0 110-1H10zm6.5 4.5h-.032v-1h.032V8a.5.5 0 00-.5-.5H7.5v.021h-1V7.5H5a.5.5 0 00-.5.5v11a.5.5 0 00.5.5h11a.5.5 0 00.5-.5v-1.5zm-10-11V5A1.5 1.5 0 018 3.5h11A1.5 1.5 0 0120.5 5v11a1.5 1.5 0 01-1.5 1.5h-1.5V19a1.5 1.5 0 01-1.5 1.5H5A1.5 1.5 0 013.5 19V8A1.5 1.5 0 015 6.5h1.5zm1 0H16A1.5 1.5 0 0117.5 8v8.5H19a.5.5 0 00.5-.5V5a.5.5 0 00-.5-.5H8a.5.5 0 00-.5.5v1.5z" fill="#979797"/></svg>