<svg width="20" height="20" xmlns="http://www.w3.org/2000/svg"><path d="M16.615 16.438h-.56V8.125c0-3.054-2.48-5.568-5.67-5.9v-.557c0-.37-.321-.668-.718-.668-.398 0-.72.299-.72.668v.557c-3.19.332-5.67 2.846-5.67 5.9v8.313H2.72c-.398 0-.719.298-.719.667 0 .37.321.668.719.668h5.51v.891c0 .739.643 1.336 1.438 1.336.794 0 1.437-.597 1.437-1.336v-.89h5.51c.398 0 .72-.3.72-.669 0-.369-.322-.667-.72-.667zm-1.837-.238H4.556V8.047c0-2.494 2.287-4.514 5.11-4.514 2.824 0 5.112 2.02 5.112 4.514V16.2z" fill="#FFF" fill-rule="evenodd"/></svg>