<svg width="96" height="96" xmlns="http://www.w3.org/2000/svg"><path d="M14 96h49a3 3 0 0 1 0 6H13a5 5 0 0 1-5-5V10a5 5 0 0 1 5-5h66a5 5 0 0 1 5 5v35a3 3 0 0 1-6 0V11H14v85zm68.12-8.352c-7.253 5.529-17.655 4.98-24.281-1.646-7.225-7.225-7.225-18.938 0-26.163 7.225-7.225 18.938-7.225 26.163 0 6.383 6.383 7.126 16.27 2.23 23.469.085.068.166.14.245.219l9.9 9.9a3 3 0 1 1-4.243 4.242l-9.9-9.9c-.04-.039-.078-.08-.115-.12zm-2.36-5.889c4.88-4.881 4.88-12.796 0-17.678-4.882-4.881-12.797-4.881-17.679 0-4.881 4.882-4.881 12.797 0 17.678 4.882 4.882 12.797 4.882 17.678 0zM26 24h40a3 3 0 0 1 0 6H26a3 3 0 0 1 0-6zm0 22h40a3 3 0 0 1 0 6H26a3 3 0 0 1 0-6zm0 22h21a3 3 0 0 1 0 6H26a3 3 0 0 1 0-6z" fill="#238FF3" fill-rule="nonzero" opacity=".3"/></svg>