<svg width="24" height="24" xmlns="http://www.w3.org/2000/svg"><path d="M18.5 17.971a.5.5 0 1 1 1 0V20a.5.5 0 0 1-.5.5H3a.5.5 0 0 1-.5-.5V9a.5.5 0 0 1 .235-.424l8-5a.5.5 0 0 1 .53 0l8 5A.5.5 0 0 1 19.5 9v2.015a.5.5 0 1 1-1 0V9.277L11 4.59 3.5 9.277V19.5h15v-1.529zM6.5 13.5a2 2 0 1 1 0-4 2 2 0 0 1 0 4zm0-1a1 1 0 1 0 0-2 1 1 0 0 0 0 2zm0 6a2 2 0 1 1 0-4 2 2 0 0 1 0 4zm0-1a1 1 0 1 0 0-2 1 1 0 0 0 0 2zm5 1a2 2 0 1 1 0-4 2 2 0 0 1 0 4zm0-1a1 1 0 1 0 0-2 1 1 0 0 0 0 2zm8.208-2.667c-.866-.671-1.794-1.085-2.788-1.246a.5.5 0 0 1-.42-.494v-.886L14.707 14l1.793 1.793v-.478a.5.5 0 0 1 .603-.49 16.159 16.159 0 0 1 3.996 1.371 8.973 8.973 0 0 0-1.39-1.363zm.613-.79c1.054.816 2.01 1.955 2.87 3.412.268.453-.254.958-.698.677-1.063-.676-2.095-1.208-3.096-1.596a15.523 15.523 0 0 0-1.897-.594V17a.5.5 0 0 1-.854.354l-3-3a.5.5 0 0 1 0-.708l3-3A.5.5 0 0 1 17.5 11v1.681c1.004.229 1.946.684 2.82 1.362z" fill="#979797"/></svg>