<svg width="96" height="96" xmlns="http://www.w3.org/2000/svg"><path d="M11 94h79a3 3 0 0 1 0 6H8a3 3 0 0 1-3-3V33a3 3 0 0 1 1.35-2.506l41-27a3 3 0 0 1 3.3 0l41 27a3 3 0 0 1-3.3 5.012L49 9.592 11 34.616V94zm9-52h6a2 2 0 0 1 2 2v6a2 2 0 0 1-2 2h-6a2 2 0 0 1-2-2v-6a2 2 0 0 1 2-2zm0 18h6a2 2 0 0 1 2 2v6a2 2 0 0 1-2 2h-6a2 2 0 0 1-2-2v-6a2 2 0 0 1 2-2zm0 18h6a2 2 0 0 1 2 2v6a2 2 0 0 1-2 2h-6a2 2 0 0 1-2-2v-6a2 2 0 0 1 2-2zm17-36h6a2 2 0 0 1 2 2v6a2 2 0 0 1-2 2h-6a2 2 0 0 1-2-2v-6a2 2 0 0 1 2-2zm0 18h6a2 2 0 0 1 2 2v6a2 2 0 0 1-2 2h-6a2 2 0 0 1-2-2v-6a2 2 0 0 1 2-2zm0 18h6a2 2 0 0 1 2 2v6a2 2 0 0 1-2 2h-6a2 2 0 0 1-2-2v-6a2 2 0 0 1 2-2zm45.787-5.63c-3.121-3.139-6.78-4.883-11.083-5.292a3 3 0 0 1-2.716-2.987v-2.845l-8.757 8.757 8.757 8.757v-2.633a3 3 0 0 1 2.928-3c3.305-.079 6.563.306 9.767 1.156 1.337.354 2.603.782 3.796 1.284a25.693 25.693 0 0 0-2.692-3.197zm4.254-4.231c4.468 4.492 7.67 10.515 9.632 18.016.909 3.475-3.946 5.321-5.575 2.121-2.08-4.081-5.658-6.79-10.952-8.194a28.769 28.769 0 0 0-5.158-.879v6.8c0 2.673-3.231 4.011-5.121 2.121l-16-16a3 3 0 0 1 0-4.242l16-16c1.89-1.89 5.121-.552 5.121 2.12v7.51c4.575.949 8.615 3.17 12.053 6.627z" fill="#238FF3" fill-rule="nonzero" fill-opacity=".3"/></svg>