<svg width="96" height="96" xmlns="http://www.w3.org/2000/svg"><path d="M12 94h79a3 3 0 0 1 0 6H9a3 3 0 0 1-3-3V33a3 3 0 0 1 1.35-2.506l41-27a3 3 0 0 1 3.3 0l41 27a3 3 0 0 1-3.3 5.012L50 9.592 12 34.616V94zm9-52h6a2 2 0 0 1 2 2v6a2 2 0 0 1-2 2h-6a2 2 0 0 1-2-2v-6a2 2 0 0 1 2-2zm0 18h6a2 2 0 0 1 2 2v6a2 2 0 0 1-2 2h-6a2 2 0 0 1-2-2v-6a2 2 0 0 1 2-2zm0 18h6a2 2 0 0 1 2 2v6a2 2 0 0 1-2 2h-6a2 2 0 0 1-2-2v-6a2 2 0 0 1 2-2zm17-36h6a2 2 0 0 1 2 2v6a2 2 0 0 1-2 2h-6a2 2 0 0 1-2-2v-6a2 2 0 0 1 2-2zm0 18h6a2 2 0 0 1 2 2v6a2 2 0 0 1-2 2h-6a2 2 0 0 1-2-2v-6a2 2 0 0 1 2-2zm0 18h6a2 2 0 0 1 2 2v6a2 2 0 0 1-2 2h-6a2 2 0 0 1-2-2v-6a2 2 0 0 1 2-2zm42.911-28.5H62v3h18.911a3 3 0 0 1 3 3v.295L88.741 51l-4.83-4.795v.295a3 3 0 0 1-3 3zM59 43.5h18.911V39c0-2.667 3.22-4.008 5.114-2.13l12.088 12a3 3 0 0 1 0 4.26l-12.088 12c-1.893 1.878-5.114.537-5.114-2.13v-4.5H59a3 3 0 0 1-3-3v-9a3 3 0 0 1 3-3zm12.089 32a3 3 0 0 1-3-3v-.295L63.259 77l4.83 4.795V81.5a3 3 0 0 1 3-3H90v-3H71.089zM93 69.5a3 3 0 0 1 3 3v9a3 3 0 0 1-3 3H74.089V89c0 2.667-3.22 4.008-5.114 2.13l-12.088-12a3 3 0 0 1 0-4.26l12.088-12c1.893-1.878 5.114-.537 5.114 2.13v4.5H93z" fill="#238FF3" fill-rule="nonzero" opacity=".3"/></svg>