<svg width="96" height="96" xmlns="http://www.w3.org/2000/svg"><path d="M12 95h79a3 3 0 0 1 0 6H9a3 3 0 0 1-3-3V34a3 3 0 0 1 1.35-2.506l41-27a3 3 0 0 1 3.3 0l41 27a3 3 0 0 1-3.3 5.012L50 10.592 12 35.616V95zm9-52h6a2 2 0 0 1 2 2v6a2 2 0 0 1-2 2h-6a2 2 0 0 1-2-2v-6a2 2 0 0 1 2-2zm0 18h6a2 2 0 0 1 2 2v6a2 2 0 0 1-2 2h-6a2 2 0 0 1-2-2v-6a2 2 0 0 1 2-2zm0 18h6a2 2 0 0 1 2 2v6a2 2 0 0 1-2 2h-6a2 2 0 0 1-2-2v-6a2 2 0 0 1 2-2zm17-36h6a2 2 0 0 1 2 2v6a2 2 0 0 1-2 2h-6a2 2 0 0 1-2-2v-6a2 2 0 0 1 2-2zm0 18h6a2 2 0 0 1 2 2v6a2 2 0 0 1-2 2h-6a2 2 0 0 1-2-2v-6a2 2 0 0 1 2-2zm0 18h6a2 2 0 0 1 2 2v6a2 2 0 0 1-2 2h-6a2 2 0 0 1-2-2v-6a2 2 0 0 1 2-2zm29.986-5.63a25.693 25.693 0 0 0-2.69 3.197 28.872 28.872 0 0 1 3.795-1.284 34.688 34.688 0 0 1 9.767-1.155 3 3 0 0 1 2.927 2.999v2.633l8.758-8.757-8.758-8.757v2.845a3 3 0 0 1-2.715 2.987c-4.304.41-7.962 2.153-11.084 5.292zm-4.254-4.231c3.439-3.458 7.478-5.678 12.053-6.627v-7.51c0-2.672 3.232-4.01 5.122-2.12l16 16a3 3 0 0 1 0 4.242l-16 16c-1.89 1.89-5.122.552-5.122-2.121v-6.8a28.769 28.769 0 0 0-5.157.88c-5.294 1.403-8.873 4.112-10.952 8.193-1.63 3.2-6.484 1.354-5.576-2.12 1.962-7.502 5.164-13.525 9.632-18.017z" fill="#238FF3" fill-rule="nonzero" fill-opacity=".3"/></svg>