<svg width="106" height="106" xmlns="http://www.w3.org/2000/svg"><path d="M14 96h79a3 3 0 0 1 0 6H11a3 3 0 0 1-3-3V35a3 3 0 0 1 1.35-2.506l41-27a3 3 0 0 1 3.3 0l41 27a3 3 0 0 1-3.3 5.012L52 11.592 14 36.616V96zm9-52h6a2 2 0 0 1 2 2v6a2 2 0 0 1-2 2h-6a2 2 0 0 1-2-2v-6a2 2 0 0 1 2-2zm0 18h6a2 2 0 0 1 2 2v6a2 2 0 0 1-2 2h-6a2 2 0 0 1-2-2v-6a2 2 0 0 1 2-2zm0 18h6a2 2 0 0 1 2 2v6a2 2 0 0 1-2 2h-6a2 2 0 0 1-2-2v-6a2 2 0 0 1 2-2zm17-36h6a2 2 0 0 1 2 2v6a2 2 0 0 1-2 2h-6a2 2 0 0 1-2-2v-6a2 2 0 0 1 2-2zm0 18h6a2 2 0 0 1 2 2v6a2 2 0 0 1-2 2h-6a2 2 0 0 1-2-2v-6a2 2 0 0 1 2-2zm0 18h6a2 2 0 0 1 2 2v6a2 2 0 0 1-2 2h-6a2 2 0 0 1-2-2v-6a2 2 0 0 1 2-2zm42.911-28.5H64v3h18.911a3 3 0 0 1 3 3v.295L90.741 53l-4.83-4.795v.295a3 3 0 0 1-3 3zM61 45.5h18.911V41c0-2.667 3.22-4.008 5.114-2.13l12.088 12a3 3 0 0 1 0 4.26l-12.088 12c-1.893 1.878-5.114.537-5.114-2.13v-4.5H61a3 3 0 0 1-3-3v-9a3 3 0 0 1 3-3zm12.089 32a3 3 0 0 1-3-3v-.295L65.259 79l4.83 4.795V83.5a3 3 0 0 1 3-3H92v-3H73.089zM95 71.5a3 3 0 0 1 3 3v9a3 3 0 0 1-3 3H76.089V91c0 2.667-3.22 4.008-5.114 2.13l-12.088-12a3 3 0 0 1 0-4.26l12.088-12c1.893-1.878 5.114-.537 5.114 2.13v4.5H95z" fill="#238FF3" opacity=".3"/></svg>