<svg class="icon" width="200" height="200" viewBox="0 0 1024 1024" xmlns="http://www.w3.org/2000/svg"><path d="M716.308 803.635a18.022 18.022 0 1 1 0 36.045H292.782a18.022 18.022 0 0 1 0-36.045h423.526zM320.717 442.82a17.203 17.203 0 0 1 17.244 17.203v133.12h-34.488v-133.12a17.203 17.203 0 0 1 17.244-17.203zm172.36-150.324a17.203 17.203 0 0 1 17.244 17.245v283.402h-34.489V309.78a17.203 17.203 0 0 1 17.244-17.203zm172.36 90.194a17.203 17.203 0 0 1 17.243 17.203v193.25h-34.488V399.974a17.203 17.203 0 0 1 17.244-17.244zM544.767 725.443v-60.13h160.85c53.944 0 97.69-45.752 97.69-102.195V322.601c0-56.443-43.746-102.195-97.69-102.195H303.432c-53.945 0-97.649 45.752-97.649 102.195v240.517c0 56.443 43.704 102.195 97.649 102.195h160.89v60.13h80.446zm34.447-24.044v60.13h-149.38v-60.13H303.431c-72.95 0-132.137-61.931-132.137-138.28V322.6c0-76.35 59.187-138.281 132.137-138.281h402.227c72.909 0 132.096 61.932 132.096 138.281v240.517c0 76.35-59.146 138.281-132.137 138.281H579.215z" fill="#979797"/></svg>