<svg width="24" height="24" xmlns="http://www.w3.org/2000/svg"><path d="M12 22c5.523 0 10-4.477 10-10S17.523 2 12 2 2 6.477 2 12s4.477 10 10 10zm0-1.053a8.947 8.947 0 110-17.894 8.947 8.947 0 010 17.894zM15.5 6.5v10.691l-3.276-1.638a.5.5 0 00-.448 0L8.5 17.19V6.5h7zm.276 11.947A.5.5 0 0016.5 18V6a.5.5 0 00-.5-.5H8a.5.5 0 00-.5.5v12a.5.5 0 00.724.447L12 16.56l3.776 1.888zM13.5 7.5h-3a.5.5 0 100 1h3a.5.5 0 100-1zm0 2h-3a.5.5 0 100 1h3a.5.5 0 100-1zm0 2h-3a.5.5 0 100 1h3a.5.5 0 100-1z" fill="#979797"/></svg>