<svg width="896" height="576" xmlns="http://www.w3.org/2000/svg"><g fill="#333"><path d="M304 294.4c-3.2-6.4-6.4-9.6-12.8-16-3.2-3.2-9.6-6.4-12.8-9.6 3.2-3.2 6.4-3.2 6.4-6.4 3.2-3.2 3.2-6.4 6.4-9.6 0-3.2 3.2-6.4 3.2-12.8v-12.8c0-9.6-3.2-19.2-6.4-28.8-3.2-9.6-9.6-16-12.8-22.4-6.4-6.4-12.8-9.6-19.2-12.8-6.4-3.2-16-3.2-22.4-3.2H160v252.8h80c9.6 0 19.2-3.2 28.8-6.4 9.6-3.2 16-9.6 22.4-16 6.4-6.4 12.8-16 16-25.6 3.2-9.6 6.4-19.2 6.4-32 0-6.4 0-16-3.2-22.4-3.2-6.4-3.2-12.8-6.4-16zm-96-89.6h16c6.4 0 12.8 3.2 16 6.4 6.4 3.2 6.4 9.6 6.4 19.2s-3.2 16-6.4 19.2c-3.2 6.4-9.6 6.4-16 6.4h-16v-51.2zm54.4 144c-3.2 3.2-3.2 6.4-6.4 9.6-3.2 3.2-6.4 3.2-9.6 6.4-3.2 0-6.4 3.2-12.8 3.2H208v-64h25.6c9.6 0 16 3.2 22.4 9.6 6.4 6.4 9.6 12.8 9.6 25.6 0 0-3.2 6.4-3.2 9.6zM684.8 256v48c-6.4-6.4-9.6-16-16-25.6-6.4-9.6-12.8-16-19.2-22.4L576 160h-41.6v252.8h51.2v-160l19.2 28.8c6.4 9.6 12.8 19.2 22.4 28.8l83.2 108.8H736v-256h-51.2V256z"/><path d="M832 0H64C28.8 0 0 28.8 0 64v448c0 35.2 28.8 64 64 64h768c35.2 0 64-28.8 64-64V64c0-35.2-28.8-64-64-64zm0 480c0 19.2-12.8 32-32 32H96c-19.2 0-32-12.8-32-32V96c0-19.2 12.8-32 32-32h704c19.2 0 32 12.8 32 32v384z"/><path d="M329.6 208h64v204.8H448V208h64v-48H329.6z"/></g></svg>