<svg width="24" height="24" xmlns="http://www.w3.org/2000/svg"><path d="M16.4 5A1.6 1.6 0 0 1 18 6.6v10.8a1.6 1.6 0 0 1-1.6 1.6H7.6A1.6 1.6 0 0 1 6 17.4V6.6A1.6 1.6 0 0 1 7.6 5h8.8zm-6.513 9.561c-.776 0-1.405.636-1.405 1.42 0 .783.629 1.418 1.405 1.418s1.405-.635 1.405-1.419c0-.783-.63-1.419-1.405-1.419zm4.308 0c-.776 0-1.405.636-1.405 1.42 0 .783.63 1.418 1.405 1.418.776 0 1.405-.635 1.405-1.419 0-.783-.629-1.419-1.405-1.419zm-4.308-4.256c-.776 0-1.405.635-1.405 1.419 0 .783.629 1.418 1.405 1.418s1.405-.635 1.405-1.418c0-.784-.63-1.42-1.405-1.42zm4.308 0c-.776 0-1.405.635-1.405 1.419 0 .783.63 1.418 1.405 1.418.776 0 1.405-.635 1.405-1.418 0-.784-.629-1.42-1.405-1.42zm1.59-3.357h-7.33l-.106.007a.849.849 0 0 0-.737.844c0 .47.377.852.843.852h7.33l.106-.007a.849.849 0 0 0 .737-.845.847.847 0 0 0-.843-.85z" fill="#555657" fill-rule="evenodd"/></svg>