<svg width="14" height="16" xmlns="http://www.w3.org/2000/svg"><path d="M12.162.792a1.6 1.6 0 0 1 1.6 1.6v11.6a1.6 1.6 0 0 1-1.6 1.6H2.55a1.6 1.6 0 0 1-1.6-1.6v-11.6a1.6 1.6 0 0 1 1.6-1.6h9.612zM5.1 10.9a1.5 1.5 0 1 0 0 3 1.5 1.5 0 0 0 0-3zm4.6 0a1.5 1.5 0 1 0 0 3 1.5 1.5 0 0 0 0-3zM5.1 6.4a1.5 1.5 0 1 0 0 3 1.5 1.5 0 0 0 0-3zm4.6 0a1.5 1.5 0 1 0 0 3 1.5 1.5 0 0 0 0-3zm1.698-3.548H3.57l-.113.007a.9.9 0 0 0 .113 1.793h7.827l.113-.007a.9.9 0 0 0-.113-1.793z" fill="#555657" fill-rule="evenodd"/></svg>