<svg width="16" height="15" xmlns="http://www.w3.org/2000/svg"><path d="M12 0a2 2 0 011.995 1.85L14 2v11a2 2 0 01-1.85 1.995L12 15H4a2 2 0 01-1.995-1.85L2 13V2A2 2 0 013.85.005L4 0h8zm0 1.2H4a.8.8 0 00-.794.7L3.2 2v11a.8.8 0 00.7.794l.1.006h8a.8.8 0 00.794-.7l.006-.1V2a.8.8 0 00-.7-.794L12 1.2zm-6.15 9c.6 0 1.05.45 1.05 1.05 0 .6-.45 1.05-1.05 1.05-.6 0-1.05-.45-1.05-1.05 0-.6.45-1.05 1.05-1.05zm4.1 0c.6 0 1.05.45 1.05 1.05 0 .6-.45 1.05-1.05 1.05-.6 0-1.05-.45-1.05-1.05 0-.6.45-1.05 1.05-1.05zm-4.1-4.3c.6 0 1.05.45 1.05 1.05C6.9 7.55 6.45 8 5.85 8c-.6 0-1.05-.45-1.05-1.05 0-.6.45-1.05 1.05-1.05zm4.1 0c.6 0 1.05.45 1.05 1.05C11 7.55 10.55 8 9.95 8c-.6 0-1.05-.45-1.05-1.05 0-.6.45-1.05 1.05-1.05zM11 3a.6.6 0 01.097 1.192L11 4.2H5a.6.6 0 01-.097-1.192L5 3h6z" fill="#171A1D"/></svg>