<svg width="896" height="896" xmlns="http://www.w3.org/2000/svg"><g fill="#333"><path d="M176 448h64c9.6 0 16-6.4 16-16v-32c0-9.6-6.4-16-16-16h-64c-9.6 0-16 6.4-16 16v32c0 9.6 6.4 16 16 16zm160 0h384c9.6 0 16-6.4 16-16v-32c0-9.6-6.4-16-16-16H336c-9.6 0-16 6.4-16 16v32c0 9.6 6.4 16 16 16zm384 256h-64c-9.6 0-16 6.4-16 16v32c0 9.6 6.4 16 16 16h64c9.6 0 16-6.4 16-16v-32c0-9.6-6.4-16-16-16z"/><path d="M832 64H704V32c0-16-12.8-32-32-32s-32 12.8-32 32v32H256V32c0-16-12.8-32-32-32s-32 12.8-32 32v32H64C28.8 64 0 92.8 0 128v704c0 35.2 28.8 64 64 64h768c35.2 0 64-28.8 64-64V128c0-35.2-28.8-64-64-64zm0 736c0 19.2-12.8 32-32 32H96c-19.2 0-32-12.8-32-32V320h768v480zm0-544H64v-96c0-19.2 12.8-32 32-32h96v32c0 16 12.8 32 32 32s32-12.8 32-32v-32h384v32c0 16 12.8 32 32 32s32-12.8 32-32v-32h96c19.2 0 32 12.8 32 32v96z"/><path d="M176 768h384c9.6 0 16-6.4 16-16v-32c0-9.6-6.4-16-16-16H176c-9.6 0-16 6.4-16 16v32c0 9.6 6.4 16 16 16zm0-160h544c9.6 0 16-6.4 16-16v-32c0-9.6-6.4-16-16-16H176c-9.6 0-16 6.4-16 16v32c0 9.6 6.4 16 16 16z"/></g></svg>