<svg width="24" height="24" xmlns="http://www.w3.org/2000/svg"><path d="M9 6.5a.5.5 0 01-1 0H5a.5.5 0 00-.5.5v1h15V7a.5.5 0 00-.5-.5h-3a.5.5 0 11-1 0H9zm0-1h6v-1a.5.5 0 111 0v1h3A1.5 1.5 0 0120.5 7v11a1.5 1.5 0 01-1.5 1.5H5A1.5 1.5 0 013.5 18V7A1.5 1.5 0 015 5.5h3v-1a.5.5 0 011 0v1zM4.5 9v9a.5.5 0 00.5.5h14a.5.5 0 00.5-.5V9h-15zm2 1h1a.5.5 0 110 1h-1a.5.5 0 110-1zm10 6h1a.5.5 0 110 1h-1a.5.5 0 110-1zm-10-3h11a.5.5 0 110 1h-11a.5.5 0 110-1zm0 3h8a.5.5 0 110 1h-8a.5.5 0 110-1zm3-6h8a.5.5 0 110 1h-8a.5.5 0 110-1z" fill="#979797"/></svg>