<?xml version="1.0" encoding="UTF-8"?>
<svg width="68px" height="68px" viewBox="0 0 68 68" version="1.1" xmlns="http://www.w3.org/2000/svg" xmlns:xlink="http://www.w3.org/1999/xlink">
    <!-- Generator: Sketch 52.5 (67469) - http://www.bohemiancoding.com/sketch -->
    <title>N</title>
    <desc>Created with Sketch.</desc>
    <g id="Page-1" stroke="none" stroke-width="1" fill="none" fill-rule="evenodd">
        <g id="生产任务2.0" transform="translate(-896.000000, -271.000000)" fill="#324A59" fill-rule="nonzero">
            <g id="卡片1-+-卡片1-copy-+-卡片1-copy-2-Mask" transform="translate(320.000000, 100.000000)">
                <g id="卡片1" transform="translate(0.000000, 117.000000)">
                    <g id="Group-9" transform="translate(360.000000, 54.000000)">
                        <g id="取消任务" transform="translate(216.000000, 0.000000)">
                            <g id="N">
                                <path d="M33.6134278,31.5190543 L44.0852953,21.0471868 C44.6636406,20.4688415 45.6013236,20.4688415 46.1796688,21.0471868 C46.7580141,21.625532 46.7580141,22.563215 46.1796688,23.1415603 L35.7078013,33.6134278 L46.1796688,44.0852953 C46.7580141,44.6636406 46.7580141,45.6013236 46.1796688,46.1796688 C45.6013236,46.7580141 44.6636406,46.7580141 44.0852953,46.1796688 L33.6134278,35.7078013 L23.1415603,46.1796688 C22.563215,46.7580141 21.625532,46.7580141 21.0471868,46.1796688 C20.4688415,45.6013236 20.4688415,44.6636406 21.0471868,44.0852953 L31.5190543,33.6134278 L21.0471868,23.1415603 C20.4688415,22.563215 20.4688415,21.625532 21.0471868,21.0471868 C21.625532,20.4688415 22.563215,20.4688415 23.1415603,21.0471868 L33.6134278,31.5190543 Z M34,65 C51.1208272,65 65,51.1208272 65,34 C65,16.8791728 51.1208272,3 34,3 C16.8791728,3 3,16.8791728 3,34 C3,51.1208272 16.8791728,65 34,65 Z M34,68 C15.2223185,68 0,52.7776815 0,34 C0,15.2223185 15.2223185,0 34,0 C52.7776815,0 68,15.2223185 68,34 C68,52.7776815 52.7776815,68 34,68 Z"></path>
                            </g>
                        </g>
                    </g>
                </g>
            </g>
        </g>
    </g>
</svg>