<svg width="68" height="68" xmlns="http://www.w3.org/2000/svg"><path d="M33.613 31.52l10.472-10.473a1.48 1.48 0 112.095 2.095L35.708 33.613 46.18 44.085a1.48 1.48 0 11-2.095 2.095L33.613 35.708 23.142 46.18a1.48 1.48 0 11-2.095-2.095L31.52 33.613 21.047 23.142a1.48 1.48 0 112.095-2.095L33.613 31.52zM34 65c17.12 0 31-13.88 31-31C65 16.88 51.12 3 34 3 16.88 3 3 16.88 3 34c0 17.12 13.88 31 31 31zm0 3C15.222 68 0 52.778 0 34S15.222 0 34 0s34 15.222 34 34-15.222 34-34 34z" fill="#324A59" fill-rule="nonzero"/></svg>