<svg width="24" height="24" xmlns="http://www.w3.org/2000/svg"><path d="M6.5 5.5V4A1.5 1.5 0 0 1 8 2.5h10A1.5 1.5 0 0 1 19.5 4v13a1.5 1.5 0 0 1-1.5 1.5h-1.5V20a1.5 1.5 0 0 1-1.5 1.5H5A1.5 1.5 0 0 1 3.5 20V7A1.5 1.5 0 0 1 5 5.5h1.5zm1 0H15A1.5 1.5 0 0 1 16.5 7v10.5H18a.5.5 0 0 0 .5-.5V4a.5.5 0 0 0-.5-.5H8a.5.5 0 0 0-.5.5v1.5zM5 6.5a.5.5 0 0 0-.5.5v13a.5.5 0 0 0 .5.5h10a.5.5 0 0 0 .5-.5V7a.5.5 0 0 0-.5-.5H5zM6.5 9h7a.5.5 0 1 1 0 1h-7a.5.5 0 0 1 0-1zm0 4h7a.5.5 0 1 1 0 1h-7a.5.5 0 1 1 0-1zm0 4h7a.5.5 0 1 1 0 1h-7a.5.5 0 1 1 0-1z" fill="#979797"/></svg>