<svg width="896" height="896" xmlns="http://www.w3.org/2000/svg"><g fill="#333"><path d="M832 0H64C28.8 0 0 28.8 0 64v768c0 35.2 28.8 64 64 64h768c35.2 0 64-28.8 64-64V64c0-35.2-28.8-64-64-64zm0 800c0 19.2-12.8 32-32 32H96c-19.2 0-32-12.8-32-32V96c0-19.2 12.8-32 32-32h704c19.2 0 32 12.8 32 32v704z"/><path d="M630.4 300.8L403.2 528l-112-112c-12.8-12.8-32-12.8-44.8 0-12.8 12.8-12.8 32 0 44.8l134.4 134.4c6.4 6.4 12.8 9.6 22.4 9.6 9.6 0 16-3.2 22.4-9.6l249.6-249.6c12.8-12.8 12.8-32 0-44.8-12.8-9.6-32-9.6-44.8 0z"/></g></svg>