<svg width="68" height="68" xmlns="http://www.w3.org/2000/svg"><path d="M34 68C15.222 68 0 52.778 0 34S15.222 0 34 0s34 15.222 34 34-15.222 34-34 34zm-8.903-33.282C18.098 36.822 13 43.316 13 51a1 1 0 0 0 2 0c0-8.284 6.716-15 15-15 2.331 0 4.584.531 6.627 1.54a1 1 0 1 0 .885-1.794 16.889 16.889 0 0 0-2.61-1.028A9.997 9.997 0 0 0 40 26c0-5.523-4.477-10-10-10s-10 4.477-10 10a9.997 9.997 0 0 0 5.097 8.718zM41 36h12v15H41V36zm0-2a2 2 0 0 0-2 2v15a2 2 0 0 0 2 2h12a2 2 0 0 0 2-2V36a2 2 0 0 0-2-2H41zm-11 0a8 8 0 1 1 0-16 8 8 0 0 1 0 16zm14 6a1 1 0 0 0 0 2h6a1 1 0 0 0 0-2h-6zm0 5a1 1 0 0 0 0 2h6a1 1 0 0 0 0-2h-6z" fill="#324A59"/></svg>