<svg width="24" height="24" xmlns="http://www.w3.org/2000/svg"><path d="M12 22C6.477 22 2 17.523 2 12S6.477 2 12 2s10 4.477 10 10-4.477 10-10 10zM8.643 11.856A5.002 5.002 0 005.5 16.5a.5.5 0 101 0 4 4 0 015.901-3.52.5.5 0 10.476-.88 4.98 4.98 0 00-.52-.244 3 3 0 10-3.714 0zM10.5 11.5a2 2 0 110-4 2 2 0 010 4zm4.5-1h3a.5.5 0 01.5.5v4a.5.5 0 01-.5.5h-3a.5.5 0 01-.5-.5v-4a.5.5 0 01.5-.5zm0-1a1.5 1.5 0 00-1.5 1.5v4a1.5 1.5 0 001.5 1.5h3a1.5 1.5 0 001.5-1.5v-4A1.5 1.5 0 0018 9.5h-3zm.5 4a.5.5 0 100 1h2a.5.5 0 100-1h-2zm0-2a.5.5 0 100 1h2a.5.5 0 100-1h-2z" fill="#979797"/></svg>