<svg class="icon" width="200" height="200" viewBox="0 0 1024 1024" xmlns="http://www.w3.org/2000/svg"><path d="M399.36 655.36c16.384 0 30.72 14.336 30.72 30.72s-14.336 30.72-30.72 30.72H235.52c-16.384 0-30.72-14.336-30.72-30.72s14.336-30.72 30.72-30.72h163.84zm71.68-552.96c34.816 0 61.44 26.624 61.44 61.44v71.68c0 16.384-14.336 30.72-30.72 30.72s-30.72-14.336-30.72-30.72v-71.68h-307.2v696.32h307.2V419.84c0-16.384 14.336-30.72 30.72-30.72s30.72 14.336 30.72 30.72V921.6H163.84c-34.816 0-61.44-26.624-61.44-61.44V163.84c0-34.816 26.624-61.44 61.44-61.44h307.2zm-71.68 368.64c16.384 0 30.72 14.336 30.72 30.72s-14.336 30.72-30.72 30.72H235.52c-16.384 0-30.72-14.336-30.72-30.72s14.336-30.72 30.72-30.72h163.84zm460.8 0c34.816 0 61.44 26.624 61.44 61.44v327.68c0 34.816-26.624 61.44-61.44 61.44H573.44V471.04h286.72zM634.88 860.16h225.28V532.48H634.88v327.68zm71.68-122.88h81.92c16.384 0 30.72-14.336 30.72-30.72s-14.336-30.72-30.72-30.72h-81.92c-16.384 0-30.72 14.336-30.72 30.72s14.336 30.72 30.72 30.72zm-307.2-450.56H235.52c-16.384 0-30.72 14.336-30.72 30.72s14.336 30.72 30.72 30.72h163.84c16.384 0 30.72-14.336 30.72-30.72s-14.336-30.72-30.72-30.72z" fill="#979797"/></svg>