<svg width="16" height="16" xmlns="http://www.w3.org/2000/svg"><defs><filter color-interpolation-filters="auto" id="a"><feColorMatrix in="SourceGraphic" values="0 0 0 0 0.000000 0 0 0 0 0.607843 0 0 0 0 0.925490 0 0 0 1.000000 0"/></filter></defs><g transform="translate(-189 -64)" filter="url(#a)" fill="none" fill-rule="evenodd" opacity=".743"><path d="M197 64a8 8 0 018 8 8 8 0 01-8 8 8 8 0 01-8-8 8 8 0 018-8zm-1.463 4.298a1.05 1.05 0 00-.969 1.005l.055 4.7c.043.566.5.989 1.049.988l4.98-.005a1.05 1.05 0 00-.002-2.1l-3.985.003v-3.602a1.054 1.054 0 00-1.128-.99z" fill="#FFBB46" fill-rule="nonzero"/></g></svg>