<svg width="52" height="48" xmlns="http://www.w3.org/2000/svg"><g fill="#FFF" fill-rule="nonzero"><path d="M36.16 16.413c0-.898 1.144-1.348 1.813-.713l7.077 6.72a.972.972 0 0 1 0 1.425l-7.077 6.72c-.67.634-1.813.185-1.813-.713v-3.396c-2.597.064-8.869.047-18.955-.048-.582-.005-1.051-.455-1.051-1.008v-4.889c0-.563.486-1.017 1.08-1.007 10.224.167 16.724.194 18.926.1v-3.19zm2.124 2.433v1.665c0 .457-.323.856-.787.974-.938.239-7.05.245-19.22.052v2.865c11.405.104 17.76.1 18.836-.004.626-.061 1.17.405 1.17 1.002v2.019l4.515-4.287-4.514-4.286z"/><path d="M26.269 3.958l-15.013 11.89c-.225.18-.51.273-.805.266l-2.557-.06a1.37 1.37 0 0 1-1.327-1.322 1.221 1.221 0 0 1 1.265-1.26l2.1.05L25.394 1.276c.465-.368 1.141-.352 1.625.04l16.417 13.29 2.108.05a1.37 1.37 0 0 1 1.327 1.323 1.221 1.221 0 0 1-1.265 1.26l-2.565-.062a1.357 1.357 0 0 1-.819-.304L26.27 3.958zM40.02 34.492H17.315c-.733 0-1.327.565-1.327 1.26 0 .696.594 1.26 1.327 1.26h24.034c.733 0 1.327-.564 1.327-1.26v-5.617c0-.695-.594-1.26-1.327-1.26s-1.327.565-1.327 1.26v4.357zm-29.266-4.837c0 .696.594 1.26 1.327 1.26s1.327-.564 1.327-1.26v-6.239c0-.696-.594-1.26-1.327-1.26s-1.327.564-1.327 1.26v6.24z"/><path d="M11.27 40.911c3.665 0 6.635-2.82 6.635-6.299 0-3.48-2.97-6.3-6.634-6.3s-6.635 2.82-6.635 6.3 2.97 6.3 6.635 6.3zm0-2.52c-2.198 0-3.98-1.692-3.98-3.779 0-2.087 1.782-3.78 3.98-3.78 2.2 0 3.982 1.693 3.982 3.78 0 2.087-1.783 3.78-3.981 3.78z"/><path d="M19.508 44.61c.426.571.29 1.357-.306 1.755a1.377 1.377 0 0 1-1.85-.317l-4.067-5.457a1.216 1.216 0 0 1 .306-1.755 1.377 1.377 0 0 1 1.85.316l4.067 5.457z"/></g></svg>