<svg width="52" height="48" xmlns="http://www.w3.org/2000/svg"><g fill="#FFF" fill-rule="nonzero"><path d="M25.236 15.75c0-.921 1.131-1.382 1.793-.731l7 6.89c.41.404.41 1.058 0 1.462l-7 6.89c-.662.652-1.793.19-1.793-.73v-3.483c-2.57.066-8.774.049-18.752-.049a1.042 1.042 0 0 1-1.04-1.033v-5.014c0-.577.482-1.043 1.069-1.033 10.114.172 16.544.2 18.723.103V15.75zm2.1 2.495v1.707c0 .468-.319.878-.778.999-.928.244-6.974.251-19.013.053v2.938c11.282.107 17.57.103 18.634-.004a1.044 1.044 0 0 1 1.157 1.028v2.07l4.466-4.396-4.466-4.395z"/><path d="M23.641 4.165L8.448 16.398a1.267 1.267 0 0 1-.81.28l-2.562-.03a1.338 1.338 0 0 1-1.312-1.321 1.268 1.268 0 0 1 1.283-1.292l2.105.024L22.798 1.46a1.292 1.292 0 0 1 1.627.019l16.28 13.249 2.112.024c.717.008 1.305.6 1.313 1.321.008.722-.567 1.3-1.284 1.292l-2.569-.03a1.32 1.32 0 0 1-.817-.297L23.641 4.165zM10.888 35.325H33.35c.725 0 1.313.578 1.313 1.292 0 .714-.588 1.292-1.313 1.292H9.575a1.302 1.302 0 0 1-1.313-1.292v-5.76c0-.713.588-1.292 1.313-1.292s1.313.579 1.313 1.292v4.468zm28.951-4.96c0 .713-.587 1.292-1.312 1.292a1.302 1.302 0 0 1-1.313-1.292v-6.398c0-.714.588-1.292 1.313-1.292s1.312.578 1.312 1.292v6.398z"/><path d="M39.329 41.907c-3.625 0-6.564-2.892-6.564-6.46 0-3.567 2.939-6.46 6.564-6.46 3.624 0 6.563 2.893 6.563 6.46 0 3.568-2.939 6.46-6.563 6.46zm0-2.584c2.174 0 3.937-1.735 3.937-3.875 0-2.141-1.763-3.876-3.937-3.876-2.175 0-3.938 1.735-3.938 3.876 0 2.14 1.763 3.875 3.938 3.875z"/><path d="M42.053 40.511a1.278 1.278 0 0 1 .058-1.826 1.328 1.328 0 0 1 1.856.057l4.735 4.961c.496.52.47 1.338-.058 1.827a1.328 1.328 0 0 1-1.855-.057l-4.736-4.962z"/></g></svg>