<svg width="54" height="48" xmlns="http://www.w3.org/2000/svg"><g fill="#FFF" fill-rule="nonzero"><path d="M34.796 33.452c1.481 0 3.896.364 7.293 1.09a1.1 1.1 0 0 1 .833 1.36l-.476 1.777 6.235-3.067-3.867-5.773-.393 1.467a1.1 1.1 0 0 1-1.123.814c-4.44-.247-7.746 0-9.887.714-1.314.438-2.664 1.212-4.048 2.328 2.438-.473 4.241-.71 5.433-.71zm0 2.2c-1.53 0-4.47.488-8.755 1.467-1.05.24-1.784-1.017-1.058-1.813 2.59-2.842 5.162-4.702 7.732-5.56 2.297-.765 5.559-1.047 9.811-.867l.79-2.951c.245-.913 1.451-1.113 1.977-.327l5.916 8.832a1.1 1.1 0 0 1-.429 1.599l-9.539 4.69c-.848.418-1.792-.358-1.548-1.271l.802-2.993c-2.658-.538-4.57-.806-5.7-.806z"/><path d="M40.9 38.08a1.1 1.1 0 0 1 2.2 0v3.795a3.1 3.1 0 0 1-3.1 3.1H4a3.1 3.1 0 0 1-3.1-3.1V15.136a3.1 3.1 0 0 1 1.725-2.778l18-8.905a3.1 3.1 0 0 1 2.75 0l18 8.905a3.1 3.1 0 0 1 1.725 2.778v3.983a1.1 1.1 0 0 1-2.2 0v-3.983a.9.9 0 0 0-.5-.806l-18-8.905a.9.9 0 0 0-.8 0l-18 8.905a.9.9 0 0 0-.5.806v26.739a.9.9 0 0 0 .9.9h36a.9.9 0 0 0 .9-.9V38.08z"/><path d="M22 39.1a4.1 4.1 0 1 1 0-8.2 4.1 4.1 0 0 1 0 8.2zm0-2.2a1.9 1.9 0 1 0 0-3.8 1.9 1.9 0 0 0 0 3.8zM12 39.1a4.1 4.1 0 1 1 0-8.2 4.1 4.1 0 0 1 0 8.2zm0-2.2a1.9 1.9 0 1 0 0-3.8 1.9 1.9 0 0 0 0 3.8zM12 29.1a4.1 4.1 0 1 1 0-8.2 4.1 4.1 0 0 1 0 8.2zm0-2.2a1.9 1.9 0 1 0 0-3.8 1.9 1.9 0 0 0 0 3.8z"/></g></svg>