<svg width="52" height="48" xmlns="http://www.w3.org/2000/svg"><g fill="#FFF" fill-rule="nonzero"><path d="M25.653 11.239l.615 1.164-1.249.337a2.35 2.35 0 0 0-.289.1l-8.06 3.351-.405-.198a5.611 5.611 0 0 0-2.48-.575c-3.178 0-5.754 2.64-5.754 5.897 0 2.89 2.044 5.342 4.794 5.815l.472.08 6.677 11.853H8.708a.685.685 0 0 0-.677.694v3.468c0 .383.303.694.677.694h30.46c.373 0 .676-.31.676-.694v-3.468a.685.685 0 0 0-.677-.694H25.446l-7.608-13.504.435-.555a5.958 5.958 0 0 0 1.253-4.065l-.045-.747 7.465-3.105a1.912 1.912 0 0 0 .486-.293l.923-.76.692 1.23c.187.332.601.445.925.254l2.931-1.734a.703.703 0 0 0 .248-.948l-3.385-6.008a.668.668 0 0 0-.924-.254L25.91 10.31a.703.703 0 0 0-.258.93zm-2.107-.153a2.793 2.793 0 0 1 1.35-2.58l2.93-1.734c1.295-.766 2.951-.311 3.699 1.016l3.384 6.007c.748 1.328.304 3.025-.99 3.79l-2.932 1.735a2.658 2.658 0 0 1-3.175-.35 3.91 3.91 0 0 1-.103.045l-6.145 2.556a8.078 8.078 0 0 1-1.29 4.15l6.344 11.261h12.55c1.495 0 2.707 1.242 2.707 2.775v3.468c0 1.533-1.212 2.775-2.708 2.775H8.707C7.213 46 6 44.758 6 43.225v-3.468c0-1.533 1.212-2.775 2.708-2.775h7.75l-4.45-7.899C8.527 28.252 6 25.055 6 21.315c0-4.406 3.485-7.978 7.784-7.978a7.6 7.6 0 0 1 2.937.588l6.825-2.84z"/><path d="M32.911 9.914c-.22.682-.923 1.048-1.57.816-.648-.231-.995-.973-.775-1.656l1.991-6.188c.178-.552.682-.913 1.234-.884l8.657.451c.683.036 1.21.649 1.175 1.369-.033.72-.614 1.275-1.298 1.24l-7.723-.404-1.69 5.256zM35.374 12.831c-.62-.278-1.35 0-1.63.62-.282.622-.009 1.35.61 1.629l5.332 2.394a1.235 1.235 0 0 0 1.443-.326l5.597-6.534a1.23 1.23 0 0 0-.13-1.736 1.233 1.233 0 0 0-1.737.14l-4.995 5.83-4.49-2.017zM14.313 24.88a3.071 3.071 0 0 1-3.063-3.08 3.071 3.071 0 0 1 3.063-3.08 3.071 3.071 0 0 1 3.062 3.08 3.071 3.071 0 0 1-3.063 3.08zm0-2.31a.768.768 0 0 0 .765-.77.768.768 0 0 0-.765-.77.768.768 0 0 0-.766.77c0 .425.343.77.765.77z"/></g></svg>