<svg width="54" height="48" xmlns="http://www.w3.org/2000/svg"><g fill="#FFF" fill-rule="nonzero"><path d="M40.9 37.08a1.1 1.1 0 0 1 2.2 0v3.795a3.1 3.1 0 0 1-3.1 3.1H4a3.1 3.1 0 0 1-3.1-3.1V14.136a3.1 3.1 0 0 1 1.725-2.778l18-8.905a3.1 3.1 0 0 1 2.75 0l18 8.905a3.1 3.1 0 0 1 1.725 2.778v3.983a1.1 1.1 0 0 1-2.2 0v-3.983a.9.9 0 0 0-.5-.806l-18-8.905a.9.9 0 0 0-.8 0l-18 8.905a.9.9 0 0 0-.5.806v26.739a.9.9 0 0 0 .9.9h36a.9.9 0 0 0 .9-.9V37.08z"/><path d="M22 38.1a4.1 4.1 0 1 1 0-8.2 4.1 4.1 0 0 1 0 8.2zm0-2.2a1.9 1.9 0 1 0 0-3.8 1.9 1.9 0 0 0 0 3.8zM12 38.1a4.1 4.1 0 1 1 0-8.2 4.1 4.1 0 0 1 0 8.2zm0-2.2a1.9 1.9 0 1 0 0-3.8 1.9 1.9 0 0 0 0 3.8zM12 28.1a4.1 4.1 0 1 1 0-8.2 4.1 4.1 0 0 1 0 8.2zm0-2.2a1.9 1.9 0 1 0 0-3.8 1.9 1.9 0 0 0 0 3.8zM44.366 29.164c-1.431-.384-3.858-.657-7.328-.834a1.1 1.1 0 0 0-1.156 1.098v1.839l-5.23-4.576 5.23-4.576v1.52c0 .52.365.97.875 1.076 4.351.91 7.481 2.005 9.365 3.249 1.155.762 2.26 1.86 3.307 3.295-2.232-1.087-3.912-1.783-5.063-2.091zm-.57 2.125c1.478.396 4.192 1.629 8.077 3.683.953.504 1.986-.52 1.491-1.477-1.766-3.416-3.769-5.879-6.03-7.371-2.02-1.335-5.098-2.451-9.252-3.378v-3.055c0-.945-1.113-1.45-1.824-.828l-8 7a1.1 1.1 0 0 0 0 1.656l8 7c.711.622 1.824.117 1.824-.828v-3.099c2.708.169 4.623.404 5.714.697z"/></g></svg>