<svg width="52" height="48" xmlns="http://www.w3.org/2000/svg"><g fill="#FFF" fill-rule="nonzero"><path d="M39.365 31.951h2.507v.955h-2.507V9.434c0-2.866-2.337-5.188-5.22-5.188H11.485c-2.883 0-5.22 2.322-5.22 5.188V31.95c0 2.865 2.337 5.188 5.22 5.188h22.658v2.491H11.486c-4.267 0-7.727-3.438-7.727-7.679V9.434c0-4.242 3.46-7.68 7.727-7.68h22.658c4.268 0 7.728 3.438 7.728 7.68v23.472h-2.507v-.955z"/><path d="M38.838 44.02c-3.687 0-6.676-2.971-6.676-6.635 0-3.664 2.989-6.635 6.676-6.635 3.687 0 6.676 2.97 6.676 6.635 0 3.664-2.989 6.634-6.676 6.634zm0-2.654c2.212 0 4.006-1.783 4.006-3.981 0-2.199-1.794-3.98-4.006-3.98s-4.006 1.781-4.006 3.98c0 2.198 1.794 3.98 4.006 3.98z"/><path d="M41.61 42.585a1.321 1.321 0 0 1 .058-1.875 1.341 1.341 0 0 1 1.888.058l4.817 5.096a1.321 1.321 0 0 1-.06 1.876 1.341 1.341 0 0 1-1.887-.059l-4.817-5.096zM24.714 10.077h-3.797c-1.574 0-2.85 1.197-2.85 2.673 0 1.475 1.276 2.672 2.85 2.672h3.797c1.573 0 2.849-1.197 2.849-2.672 0-1.476-1.275-2.673-2.849-2.673zm0 3.564h-3.797c-.524 0-.95-.401-.95-.891s.426-.89.95-.89h3.797c.524 0 .95.4.95.89 0 .488-.426.891-.95.891zm0 5.346h-3.797c-1.574 0-2.85 1.197-2.85 2.671 0 1.474 1.276 2.673 2.85 2.673h3.797c1.573 0 2.849-1.196 2.849-2.673s-1.275-2.671-2.849-2.671zm0 3.563h-3.797c-.524 0-.95-.402-.95-.892s.426-.89.95-.89h3.797c.524 0 .95.401.95.89s-.426.892-.95.892zm0 5.344h-3.797c-1.574 0-2.85 1.198-2.85 2.674s1.276 2.672 2.85 2.672h3.797c1.573 0 2.849-1.196 2.849-2.672 0-1.476-1.275-2.674-2.849-2.674zm0 3.564h-3.797c-.524 0-.95-.401-.95-.89s.426-.892.95-.892h3.797c.524 0 .95.402.95.892s-.426.89-.95.89zM14.27 29.676a3.912 3.912 0 0 1-2.687-1.042c-.715-.675-1.111-1.568-1.111-2.521 0-.953.396-1.847 1.11-2.52a3.9 3.9 0 0 1 2.688-1.043h1.899v-1.782h-1.899c-3.145 0-5.696 2.393-5.696 5.345s2.55 5.345 5.696 5.345v1.783l2.85-2.673-2.85-2.674v1.782zm17.093-17.817h-1.9v1.782h1.9a3.914 3.914 0 0 1 2.685 1.043 3.429 3.429 0 0 1 1.11 2.52c0 .954-.396 1.847-1.11 2.521a3.914 3.914 0 0 1-2.687 1.043v-1.781l-2.848 2.673 2.85 2.673V22.55c3.145 0 5.696-2.394 5.696-5.345 0-2.952-2.55-5.346-5.696-5.346z"/></g></svg>