<svg width="52" height="48" xmlns="http://www.w3.org/2000/svg"><g fill="#FFF" fill-rule="nonzero"><path d="M25.9 4.1H7a.9.9 0 0 0-.9.9v38a.9.9 0 0 0 .9.9h17.547a1.1 1.1 0 1 1 0 2.2H7A3.1 3.1 0 0 1 3.9 43V5A3.1 3.1 0 0 1 7 1.9h19.986a1.1 1.1 0 0 1 .779.323l10.014 10.032a1.1 1.1 0 0 1 .321.777v11.044a1.1 1.1 0 0 1-2.2 0V14.1h-6.4a3.6 3.6 0 0 1-3.6-3.6V4.1zm8.416 7.8L28.1 5.673V10.5a1.4 1.4 0 0 0 1.4 1.4h4.816zM12 17h18a1 1 0 0 1 0 2H12a1 1 0 0 1 0-2zm0 8h18a1 1 0 0 1 0 2H12a1 1 0 0 1 0-2zm0 8h8a1 1 0 0 1 0 2h-8a1 1 0 0 1 0-2z"/><path d="M29.33 37.765l-.934 3.055 3.056-.934 14.673-14.673-2.122-2.121L29.33 37.765zm15.734-16.441l2.828 2.828a1.5 1.5 0 0 1 0 2.122L32.778 41.388a1.5 1.5 0 0 1-.622.374l-4.074 1.246a1.5 1.5 0 0 1-1.873-1.873l1.245-4.074a1.5 1.5 0 0 1 .374-.622l15.115-15.115a1.5 1.5 0 0 1 2.121 0z"/></g></svg>