<?xml version="1.0" encoding="UTF-8"?>
<svg width="68px" height="68px" viewBox="0 0 68 68" version="1.1" xmlns="http://www.w3.org/2000/svg" xmlns:xlink="http://www.w3.org/1999/xlink">
    <!-- Generator: Sketch 52.5 (67469) - http://www.bohemiancoding.com/sketch -->
    <title>S</title>
    <desc>Created with Sketch.</desc>
    <g id="Page-1" stroke="none" stroke-width="1" fill="none" fill-rule="evenodd">
        <g id="生产任务2.0" transform="translate(-680.000000, -271.000000)" fill="#324A59" fill-rule="nonzero">
            <g id="卡片1-+-卡片1-copy-+-卡片1-copy-2-Mask" transform="translate(320.000000, 100.000000)">
                <g id="卡片1" transform="translate(0.000000, 117.000000)">
                    <g id="Group-9" transform="translate(360.000000, 54.000000)">
                        <g id="开始任务">
                            <g id="S">
                                <path d="M27.5,20.3060269 L27.5,47.6939787 L47.0428157,34.000047 L27.5,20.3060269 Z M24.5,18.7956914 C24.5,16.8315411 26.3659265,15.8481745 27.9785617,16.9781602 L49.3996873,31.9883475 C50.8667709,33.0163443 50.8667709,34.9837525 49.3996927,36.0117455 L27.9785525,51.0218462 C26.3659265,52.1518256 24.5,51.1684589 24.5,49.2043086 L24.5,18.7956914 Z M34,65 C51.1208272,65 65,51.1208272 65,34 C65,16.8791728 51.1208272,3 34,3 C16.8791728,3 3,16.8791728 3,34 C3,51.1208272 16.8791728,65 34,65 Z M34,68 C15.2223185,68 0,52.7776815 0,34 C0,15.2223185 15.2223185,0 34,0 C52.7776815,0 68,15.2223185 68,34 C68,52.7776815 52.7776815,68 34,68 Z"></path>
                            </g>
                        </g>
                    </g>
                </g>
            </g>
        </g>
    </g>
</svg>