<svg width="14" height="14" xmlns="http://www.w3.org/2000/svg"><path d="M9.102 13.99a.878.878 0 0 1-.662-.299c-.217-.252-.907-.91-1.471-.91-.56 0-1.26.661-1.462.893a.878.878 0 0 1-.656.293.792.792 0 0 1-.337-.073l-.018-.008-1.715-1.016-.017-.013a.903.903 0 0 1-.277-1.053c.002-.003.159-.386.159-.736 0-1.062-.816-1.925-1.819-1.925H.756c-.288 0-.521-.27-.596-.688C.154 8.42.014 7.628.014 7.003s.14-1.418.146-1.451c.076-.424.314-.696.607-.688h.06c1.003 0 1.819-.864 1.819-1.926 0-.35-.157-.733-.159-.737a.9.9 0 0 1 .279-1.052l.017-.013L4.593.083l.02-.008a.8.8 0 0 1 .331-.07c.252 0 .498.107.658.287.215.237.892.855 1.44.855.543 0 1.216-.605 1.43-.839a.893.893 0 0 1 .653-.28c.12 0 .234.023.338.071l.018.008 1.748 1.03.017.012a.902.902 0 0 1 .278 1.053c-.002.003-.159.386-.159.736 0 1.062.816 1.926 1.819 1.926h.06c.292-.007.531.264.607.688.006.033.146.826.146 1.451 0 .625-.14 1.418-.146 1.452-.076.423-.315.694-.607.688h-.06c-1.003 0-1.819.863-1.819 1.925 0 .35.157.733.159.737a.902.902 0 0 1-.278 1.052l-.018.013-1.777 1.04-.019.01a.79.79 0 0 1-.33.07zm-.054-.888c.008.006.03.015.054.015h.002l1.661-.972a3.137 3.137 0 0 1-.223-1.077c0-1.493 1.11-2.717 2.503-2.794.02-.117.129-.776.129-1.27 0-.495-.109-1.154-.129-1.272-1.392-.077-2.503-1.3-2.503-2.794 0-.5.184-.98.224-1.077L9.13.9h-.006a.125.125 0 0 0-.063.016c-.027.03-.264.284-.604.538-.504.375-.98.565-1.416.565-.44 0-.92-.194-1.427-.576a4.716 4.716 0 0 1-.608-.548.125.125 0 0 0-.069-.017l-1.692.984c.04.1.223.578.223 1.076 0 1.494-1.11 2.717-2.503 2.794-.02.117-.129.777-.129 1.271 0 .495.109 1.154.129 1.271 1.392.077 2.503 1.3 2.503 2.794 0 .501-.184.981-.224 1.078l1.602.949h.004c.023 0 .045-.01.053-.015.03-.034.27-.302.614-.57.514-.398 1.002-.6 1.451-.6.453 0 .945.206 1.462.612.346.272.587.546.617.58zm-2.073-3.69a2.42 2.42 0 0 1-2.418-2.418 2.42 2.42 0 0 1 2.418-2.418 2.42 2.42 0 0 1 2.418 2.418 2.42 2.42 0 0 1-2.418 2.418zm0-4.014c-.88 0-1.596.716-1.596 1.596 0 .88.716 1.595 1.596 1.595.88 0 1.595-.716 1.595-1.595 0-.88-.715-1.596-1.595-1.596z" fill="#FFF" fill-rule="nonzero"/></svg>