<svg width="24" height="24" xmlns="http://www.w3.org/2000/svg"><path d="M6.37 8.75c-.676 1.172-1.755 1.956-2.783 2.03a8.576 8.576 0 0 0 0 2.44c1.028.074 2.107.858 2.784 2.03.676 1.172.816 2.497.366 3.425a8.49 8.49 0 0 0 2.113 1.222c.578-.854 1.796-1.397 3.15-1.397 1.354 0 2.572.543 3.15 1.397a8.49 8.49 0 0 0 2.113-1.222c-.45-.928-.31-2.253.366-3.425.677-1.172 1.756-1.956 2.784-2.03a8.576 8.576 0 0 0 0-2.44c-1.028-.074-2.107-.858-2.784-2.03-.676-1.172-.816-2.497-.366-3.425a8.49 8.49 0 0 0-2.113-1.222C14.572 4.957 13.354 5.5 12 5.5c-1.354 0-2.572-.543-3.15-1.397a8.49 8.49 0 0 0-2.113 1.222c.45.928.31 2.253-.366 3.425zm-.618-3.906a9.49 9.49 0 0 1 3.174-1.835.5.5 0 0 1 .63.299C9.802 3.97 10.803 4.5 12 4.5c1.197 0 2.198-.53 2.444-1.192a.5.5 0 0 1 .63-.3 9.49 9.49 0 0 1 3.174 1.836.5.5 0 0 1 .057.695c-.45.545-.408 1.675.19 2.711.599 1.036 1.557 1.638 2.254 1.52a.5.5 0 0 1 .574.397 9.545 9.545 0 0 1 0 3.666.5.5 0 0 1-.574.397c-.697-.118-1.655.484-2.254 1.52-.598 1.036-.64 2.166-.19 2.711a.5.5 0 0 1-.057.695 9.49 9.49 0 0 1-3.174 1.835.5.5 0 0 1-.63-.299C14.198 20.03 13.197 19.5 12 19.5c-1.197 0-2.198.53-2.444 1.192a.5.5 0 0 1-.63.3 9.49 9.49 0 0 1-3.174-1.836.5.5 0 0 1-.057-.695c.45-.545.408-1.675-.19-2.711-.599-1.036-1.557-1.638-2.254-1.52a.5.5 0 0 1-.574-.397 9.545 9.545 0 0 1 0-3.666.5.5 0 0 1 .574-.397c.697.118 1.655-.484 2.254-1.52.598-1.036.64-2.166.19-2.711a.5.5 0 0 1 .057-.695zM12 15.5a3.5 3.5 0 1 1 0-7 3.5 3.5 0 0 1 0 7zm0-1a2.5 2.5 0 1 0 0-5 2.5 2.5 0 0 0 0 5z" fill="#979797"/></svg>