<svg width="896" height="896" xmlns="http://www.w3.org/2000/svg"><g fill="#333"><path d="M736 736h64v64h-64v-64zm-128 0h64v64h-64v-64zm-128 0h64v64h-64v-64zm-128 0h64v64h-64v-64zm-256 0h64v64H96v-64zm0-640h64v64H96V96zm128 640h64v64h-64v-64zM96 608h64v64H96v-64zm0-128h64v64H96v-64zm0-128h64v64H96v-64zm0-128h64v64H96v-64zm640 384h64v64h-64v-64zm0-128h64v64h-64v-64zm0-128h64v64h-64v-64zm0-128h64v64h-64v-64zm0-128h64v64h-64V96zm-128 0h64v64h-64V96zm-128 0h64v64h-64V96zm-128 0h64v64h-64V96zm-128 0h64v64h-64V96z"/><path d="M832 0H64C28.8 0 0 28.8 0 64v768c0 35.2 28.8 64 64 64h768c35.2 0 64-28.8 64-64V64c0-35.2-28.8-64-64-64zm0 800c0 19.2-12.8 32-32 32H96c-19.2 0-32-12.8-32-32V96c0-19.2 12.8-32 32-32h704c19.2 0 32 12.8 32 32v704z"/></g></svg>