<svg class="icon" viewBox="0 0 1024 1024" xmlns="http://www.w3.org/2000/svg" width="200" height="200"><defs><style/></defs><path d="M965.486 438.857H716.8c-29.257 0-58.514 21.943-58.514 51.2v146.286L512 782.629 365.714 636.343V490.057c0-29.257-29.257-51.2-58.514-51.2H58.514C29.257 438.857 0 460.8 0 490.057V1024h365.714V716.8l124.343 124.343c7.314 7.314 14.629 7.314 21.943 7.314s14.629 0 21.943-7.314L658.286 716.8V1024H1024V490.057c0-29.257-29.257-51.2-58.514-51.2zm-672.915 512H73.143V512H292.57v438.857zm658.286 0H731.43V512h219.428v438.857zm-768-585.143c102.4 0 182.857-80.457 182.857-182.857S285.257 0 182.857 0 0 80.457 0 182.857s80.457 182.857 182.857 182.857zm0-292.571c58.514 0 109.714 51.2 109.714 109.714s-51.2 109.714-109.714 109.714-109.714-51.2-109.714-109.714 51.2-109.714 109.714-109.714zm658.286 292.571c102.4 0 182.857-80.457 182.857-182.857S943.543 0 841.143 0 658.286 80.457 658.286 182.857s80.457 182.857 182.857 182.857zm0-292.571c58.514 0 109.714 51.2 109.714 109.714s-51.2 109.714-109.714 109.714-109.714-51.2-109.714-109.714 51.2-109.714 109.714-109.714z"/></svg>