<svg width="16" height="16" xmlns="http://www.w3.org/2000/svg"><path d="M8 0a8 8 0 018 8 8 8 0 01-8 8 8 8 0 01-8-8 8 8 0 018-8zm3.424 9.611h-.696c-.055 0-.1.047-.1.104v1.09H9.586c-.055 0-.1.047-.1.104v.727c0 .057.045.103.1.103h1.044v1.09c0 .058.044.104.099.104h.696c.055 0 .1-.046.1-.103v-1.09h1.043c.055 0 .1-.047.1-.104v-.727a.102.102 0 00-.1-.104h-1.044v-1.09a.102.102 0 00-.1-.104zM7.995 2.267c-1.699 0-3.075 1.44-3.075 3.218 0 1.073.502 2.024 1.276 2.61L6.18 8.1a4.626 4.626 0 00-1.483 1.046c-.429.447-.764.97-1 1.55a5.033 5.033 0 00-.365 1.793.102.102 0 00.1.106h.878a.102.102 0 00.099-.101 3.957 3.957 0 011.089-2.651 3.612 3.612 0 012.63-1.141c.705 0 1.381.204 1.964.585.031.02.069.022.1.004.302-.169.513-.265.88-.265.038 0 .055-.046.028-.072A4.598 4.598 0 009.812 8.1l-.015-.007a3.265 3.265 0 001.274-2.61c0-1.777-1.377-3.217-3.076-3.217zm.068 1.12c.517 0 1.001.21 1.367.592.365.382.567.89.567 1.43a2.06 2.06 0 01-.567 1.43 1.881 1.881 0 01-1.367.593c-.516 0-1.001-.21-1.367-.593a2.06 2.06 0 01-.567-1.43c0-.54.202-1.048.567-1.43.365-.382.85-.593 1.367-.593z" fill="#FFBB46"/></svg>