<svg width="24" height="24" xmlns="http://www.w3.org/2000/svg"><path d="M10.888 11.595A6.502 6.502 0 0 0 5.5 18c0 .65 2.955 1.5 6.5 1.5 3.5 0 6.5-.874 6.5-1.5a6.503 6.503 0 0 0-5.032-6.333c-.199.32-.346.58-.44.783l1.05 4.86a.5.5 0 0 1-.223.53l-1.414.884a.5.5 0 0 1-.53 0l-1.414-.885a.5.5 0 0 1-.224-.53l1.048-4.828-.433-.886zm-1.198-.732a4.5 4.5 0 1 1 4.62 0A7.503 7.503 0 0 1 19.5 18c0 1.509-3.403 2.5-7.5 2.5-4.146 0-7.5-.964-7.5-2.5a7.503 7.503 0 0 1 5.19-7.137zM12 10.5a3.5 3.5 0 1 0 0-7 3.5 3.5 0 0 0 0 7z" fill="#979797"/></svg>