<svg width="18" height="18" xmlns="http://www.w3.org/2000/svg"><defs><filter color-interpolation-filters="auto" id="a"><feColorMatrix in="SourceGraphic" values="0 0 0 0 0.454902 0 0 0 0 0.462745 0 0 0 0 0.470588 0 0 0 1.000000 0"/></filter></defs><g filter="url(#a)" fill="none" fill-rule="evenodd"><path d="M9.252 1a7.834 7.834 0 0 1 7.412 5.336l.023.076.039.01a2.518 2.518 0 0 1 1.714 1.86l.033.18.02.183.007.178v.017a2.52 2.52 0 0 1-1.784 2.4l-.031.007-.03.095a7.86 7.86 0 0 1-4.706 4.83l-.267.093-.119.036-.025.108a1.509 1.509 0 0 1-1.023 1.029l-.138.034-.143.021-.142.007H8.41a1.512 1.512 0 0 1-.285-2.997l.144-.022.141-.007h1.682c.358 0 .695.126.96.346l.11.1.071.078.078-.024a6.497 6.497 0 0 0 4.399-5.63l.015-.261.005-.254c0-3.576-2.908-6.486-6.48-6.486-3.572 0-6.48 2.91-6.48 6.486 0 .633.092 1.262.272 1.865a.67.67 0 0 1-.45.838.67.67 0 0 1-.72-.241l-.024-.037-.062-.017a2.523 2.523 0 0 1-1.76-2.05l-.02-.183L0 8.83A2.52 2.52 0 0 1 1.786 6.42l.03-.008.024-.076A7.838 7.838 0 0 1 8.706 1.02l.28-.014L9.252 1ZM5.72 9.61a.645.645 0 0 1 .824.4 2.924 2.924 0 0 0 5.527.008.647.647 0 1 1 1.222.422 4.216 4.216 0 0 1-7.972-.007.645.645 0 0 1 .4-.824Z" fill="#979797" fill-rule="nonzero"/></g></svg>