<svg width="16" height="16" xmlns="http://www.w3.org/2000/svg"><path d="M11.853 10.275l-1.129-1.21a1.171 1.171 0 0 1-1.04.064L7.56 11.305c.025.093.038.191.038.291a1.15 1.15 0 0 1-1.16 1.136 1.16 1.16 0 0 1-1.073-.704 1.125 1.125 0 0 1 .284-1.271L4.221 8.879c-.13.05-.272.077-.42.077A1.16 1.16 0 0 1 2.73 8.25c-.18-.426-.08-.916.253-1.242a1.176 1.176 0 0 1 1.265-.245c.434.178.716.594.714 1.055 0 .263-.092.505-.245.698l1.492 1.959a1.179 1.179 0 0 1 1.029.291L9.198 8.75a1.125 1.125 0 0 1 .118-1.473c.332-.326.832-.424 1.266-.248.433.176.717.592.717 1.053 0 .198-.052.384-.143.547l1.227 1.316a1.18 1.18 0 0 1 .78.038c.433.176.716.592.716 1.052 0 .63-.52 1.14-1.16 1.14a1.16 1.16 0 0 1-1.072-.703 1.124 1.124 0 0 1 .206-1.196zm1.342 4.72H2.809c-.993-.001-1.798-.79-1.802-1.765V6.367c0-.978.806-1.77 1.802-1.773h10.386c.997 0 1.805.794 1.805 1.773v6.863c-.004.976-.81 1.765-1.805 1.765zM2.809 5.201a1.176 1.176 0 0 0-1.184 1.166v6.863c0 .642.53 1.163 1.184 1.165h10.386c.315 0 .617-.123.84-.341.222-.219.347-.515.347-.824V6.367c0-.644-.532-1.166-1.187-1.166H2.809zM3.8 7.287c-.3 0-.542.238-.542.532 0 .294.243.533.542.533.3 0 .543-.239.543-.533a.525.525 0 0 0-.158-.377.544.544 0 0 0-.385-.155zm2.636 3.777c-.3 0-.542.238-.542.532 0 .294.243.533.542.533.3 0 .543-.239.543-.533a.525.525 0 0 0-.158-.377.544.544 0 0 0-.385-.155zm3.705-3.513a.543.543 0 0 0-.504.328c-.085.199-.039.429.117.582a.55.55 0 0 0 .592.114.533.533 0 0 0 .334-.494.538.538 0 0 0-.54-.53zm2.576 2.954a.543.543 0 0 0-.512.318.526.526 0 0 0 .108.586.55.55 0 0 0 .594.121.533.533 0 0 0 .336-.496.537.537 0 0 0-.526-.529zm.201-6.546H2.973a.309.309 0 0 1-.28-.306c0-.157.12-.288.28-.305h9.946c.16.017.28.148.28.305a.309.309 0 0 1-.28.306zm-1.144-1.343H4.117a.306.306 0 0 1-.31-.304c0-.167.14-.303.31-.303h7.658c.17 0 .31.136.31.303a.306.306 0 0 1-.31.304z" fill="#FFF" fill-rule="nonzero"/></svg>