<svg width="16" height="16" xmlns="http://www.w3.org/2000/svg"><g fill="#FFF" fill-rule="nonzero"><path d="M13.195 14.995H2.809c-.993-.001-1.798-.79-1.802-1.765V6.367c0-.978.806-1.77 1.802-1.773h10.386c.997 0 1.805.794 1.805 1.773v6.863c-.004.976-.81 1.765-1.805 1.765zM2.809 5.201a1.176 1.176 0 0 0-1.184 1.166v6.863c0 .642.53 1.163 1.184 1.165h10.386c.315 0 .617-.123.84-.341.222-.219.347-.515.347-.824V6.367c0-.644-.532-1.166-1.187-1.166H2.809z"/><path d="M12.298 10.608a.302.302 0 0 1-.227-.1l-1.538-1.65a.3.3 0 0 1-.067-.296.313.313 0 0 1 .523-.113l1.539 1.65a.319.319 0 0 1-.02.429.305.305 0 0 1-.21.08zm-5.098.927a.295.295 0 0 1-.21-.084.319.319 0 0 1 0-.43L9.411 8.53a.313.313 0 0 1 .52.125.3.3 0 0 1-.073.295l-2.432 2.492a.332.332 0 0 1-.227.094zm-1.108-.4a.308.308 0 0 1-.246-.12L4.06 8.668a.3.3 0 0 1-.048-.308.311.311 0 0 1 .541-.057l1.785 2.344a.296.296 0 0 1 .032.318.306.306 0 0 1-.279.166v.004z"/><path d="M3.801 8.956A1.16 1.16 0 0 1 2.73 8.25c-.18-.426-.08-.916.253-1.242a1.176 1.176 0 0 1 1.265-.245c.434.178.716.594.714 1.055a1.15 1.15 0 0 1-1.16 1.137zm0-1.67c-.3 0-.542.24-.542.533 0 .294.243.533.542.533.3 0 .543-.239.543-.533a.525.525 0 0 0-.158-.377.544.544 0 0 0-.385-.155zm2.636 5.446a1.16 1.16 0 0 1-1.072-.704c-.18-.426-.08-.916.253-1.242a1.176 1.176 0 0 1 1.266-.245c.433.177.715.594.714 1.055a1.15 1.15 0 0 1-1.16 1.136zm0-1.668c-.3 0-.542.238-.542.532 0 .294.243.533.542.533.3 0 .543-.239.543-.533a.525.525 0 0 0-.158-.377.544.544 0 0 0-.385-.155zm3.705-1.844a1.16 1.16 0 0 1-1.075-.7 1.125 1.125 0 0 1 .25-1.244c.331-.326.83-.424 1.265-.248.433.176.717.592.717 1.053a1.15 1.15 0 0 1-1.157 1.14zm0-1.669a.543.543 0 0 0-.504.328c-.085.199-.039.429.117.582a.55.55 0 0 0 .592.114.533.533 0 0 0 .334-.494.538.538 0 0 0-.54-.53zm2.576 4.623a1.16 1.16 0 0 1-1.071-.703c-.18-.426-.08-.916.251-1.242.332-.326.83-.424 1.264-.247.434.176.717.592.717 1.052 0 .63-.52 1.14-1.16 1.14zm0-1.669a.543.543 0 0 0-.512.318.526.526 0 0 0 .108.586.55.55 0 0 0 .594.121.533.533 0 0 0 .336-.496.537.537 0 0 0-.526-.529zm.201-6.546H2.973a.309.309 0 0 1-.28-.306c0-.157.12-.288.28-.305h9.946c.16.017.28.148.28.305a.309.309 0 0 1-.28.306zm-1.144-1.343H4.117a.306.306 0 0 1-.31-.304c0-.167.14-.303.31-.303h7.658c.17 0 .31.136.31.303a.306.306 0 0 1-.31.304z"/></g></svg>