<svg width="24" height="24" xmlns="http://www.w3.org/2000/svg"><path d="M15.434 11.443l1.786 1.275a1.5 1.5 0 1 1-.633.777l-1.75-1.25a1.493 1.493 0 0 1-1.456.122l-1.967 2.13a1.5 1.5 0 1 1-2.738-.204l-2.023-1.942a1.5 1.5 0 1 1 .704-.71l2.059 1.977a1.495 1.495 0 0 1 1.36.098l1.884-2.042a1.5 1.5 0 1 1 2.774-.232zM4 7.5a.5.5 0 0 0-.5.5v10a.5.5 0 0 0 .5.5h16a.5.5 0 0 0 .5-.5V8a.5.5 0 0 0-.5-.5H4zm0-1h16A1.5 1.5 0 0 1 21.5 8v10a1.5 1.5 0 0 1-1.5 1.5H4A1.5 1.5 0 0 1 2.5 18V8A1.5 1.5 0 0 1 4 6.5zM4.5 5h15a.5.5 0 1 1 0 1h-15a.5.5 0 0 1 0-1zm2-1.5h11a.5.5 0 1 1 0 1h-11a.5.5 0 0 1 0-1zm-.5 8a.5.5 0 1 0 0-1 .5.5 0 0 0 0 1zm4 4a.5.5 0 1 0 0-1 .5.5 0 0 0 0 1zm4-4a.5.5 0 1 0 0-1 .5.5 0 0 0 0 1zm4 3a.5.5 0 1 0 0-1 .5.5 0 0 0 0 1z" fill="#979797"/></svg>