<svg width="17" height="16" xmlns="http://www.w3.org/2000/svg"><path d="M6.051 10.286a.405.405 0 0 1 .037-.547l.925-.902L5.39 7.782a.403.403 0 0 1-.15-.507l.38-.843-4.454.866.892 4.59 4.568-.889-.574-.713zm1.671.728c.195.242.056.602-.256.662l-5.67 1.102a.419.419 0 0 1-.495-.324L.25 7.055A.419.419 0 0 1 .59 6.57l5.665-1.1c.335-.066.605.26.467.567l-.563 1.248 1.758 1.142c.221.143.25.449.06.634l-1.024.999.77.955zm.605-1.43l1.541-.603-1.227-1.987a.403.403 0 0 1 .06-.502L9.75 5.464a.428.428 0 0 1 .396-.108l6.08 1.403a.419.419 0 0 1 .322.498l-1.238 5.359a.419.419 0 0 1-.506.306l-6.081-1.404a.427.427 0 0 1-.316-.296l-.326-1.149a.405.405 0 0 1 .246-.488zm.672.632l.158.556 5.418 1.25 1.052-4.554-5.436-1.255-.653.639 1.312 2.125c.135.218.04.5-.2.593l-1.651.646zM5.787 4.275a.404.404 0 0 1 .066-.58.434.434 0 0 1 .598.065l.511.622a.404.404 0 0 1-.066.58.434.434 0 0 1-.598-.066l-.511-.621zm4.344 0l-.511.621a.434.434 0 0 1-.598.065.404.404 0 0 1-.066-.58l.511-.621a.434.434 0 0 1 .598-.065.404.404 0 0 1 .066.58zM7.508 3.49c0-.228.19-.413.425-.413s.425.185.425.413v.852c0 .228-.19.413-.425.413a.419.419 0 0 1-.425-.413v-.852z" fill="#FFF" fill-rule="nonzero"/></svg>