<svg width="24" height="24" xmlns="http://www.w3.org/2000/svg"><path d="m2.843 11.508 1.553 5.796 5.41-1.45-.761-1.083a.5.5 0 0 1-.036-.516l.98-1.913-1.98-.399a.5.5 0 0 1-.375-.652l.403-1.175-5.194 1.392zm8.193 4.356a.5.5 0 0 1-.28.77L4.172 18.4a.5.5 0 0 1-.613-.354l-1.812-6.761a.5.5 0 0 1 .354-.612l6.585-1.765a.5.5 0 0 1 .602.646l-.523 1.523 2.068.416a.5.5 0 0 1 .346.718l-1.143 2.232 1 1.422zm9.119-4.34-5.903-1.581-.8.455 1.51 1.263a.5.5 0 0 1 .006.763l-2.92 2.509.616.796 5.938 1.591 1.553-5.795zm-6.286.526-1.61-1.347a.5.5 0 0 1 .074-.818l1.602-.913a.5.5 0 0 1 .377-.048l6.585 1.764a.5.5 0 0 1 .353.613l-1.811 6.761a.5.5 0 0 1-.613.354l-6.584-1.765a.5.5 0 0 1-.267-.177l-1.008-1.305a.5.5 0 0 1 .07-.685l2.832-2.434zM11.5 5a.5.5 0 0 1 .5.5V7a.5.5 0 1 1-1 0V5.5a.5.5 0 0 1 .5-.5zm2.933 1.25a.5.5 0 0 1 .183.683l-.5.866a.5.5 0 0 1-.866-.5l.5-.866a.5.5 0 0 1 .683-.183zm-5.866 0a.5.5 0 0 1 .683.183l.5.866a.5.5 0 1 1-.866.5l-.5-.866a.5.5 0 0 1 .183-.683z" fill="#979797"/></svg>