<svg width="17" height="16" xmlns="http://www.w3.org/2000/svg"><g fill="#8F95A2" fill-rule="nonzero"><path d="M6.051 10.286a.405.405 0 0 1 .037-.547l.925-.902L5.39 7.782a.403.403 0 0 1-.15-.507l.38-.843-4.454.866.892 4.59 4.568-.889-.574-.713zm1.671.728c.195.242.056.602-.256.662l-5.67 1.102a.419.419 0 0 1-.495-.324L.25 7.055A.419.419 0 0 1 .59 6.57l5.665-1.1c.335-.066.605.26.467.567l-.563 1.248 1.758 1.142c.221.143.25.449.06.634l-1.024.999.77.955zM8.999 10.216l1.65-.646a.405.405 0 0 0 .201-.593L9.538 6.852l.653-.64 5.436 1.256-1.052 4.555-5.418-1.251-.158-.556zm-.672-.631a.405.405 0 0 0-.246.488l.326 1.149a.427.427 0 0 0 .316.296l6.08 1.404a.419.419 0 0 0 .507-.306l1.238-5.36a.419.419 0 0 0-.322-.497l-6.08-1.403a.428.428 0 0 0-.396.108L8.701 6.492a.403.403 0 0 0-.06.502l1.227 1.987-1.54.604zM5.787 4.275a.404.404 0 0 1 .066-.58.434.434 0 0 1 .598.065l.511.622a.404.404 0 0 1-.066.58.434.434 0 0 1-.598-.066l-.511-.621zM10.131 4.275a.404.404 0 0 0-.066-.58.434.434 0 0 0-.598.065l-.511.622a.404.404 0 0 0 .066.58c.184.141.451.112.598-.066l.511-.621zM7.508 3.49c0-.227.19-.412.425-.412s.425.185.425.413v.852c0 .228-.19.413-.425.413a.419.419 0 0 1-.425-.413v-.852z"/></g></svg>