<svg width="24" height="24" xmlns="http://www.w3.org/2000/svg"><g fill="#979797" fill-rule="nonzero"><path d="M12 22c5.523 0 10-4.477 10-10S17.523 2 12 2 2 6.477 2 12s4.477 10 10 10zm0-1.053a8.947 8.947 0 1 1 0-17.894 8.947 8.947 0 0 1 0 17.894z"/><path d="M14.5 8v-.5A.5.5 0 0 0 14 7h-4a.5.5 0 0 0-.5.5V8h5zm-7 1h-1a.5.5 0 0 1 0-1h2v-.5A1.5 1.5 0 0 1 10 6h4a1.5 1.5 0 0 1 1.5 1.5V8h2a.5.5 0 1 1 0 1h-1v7.5A1.5 1.5 0 0 1 15 18H9a1.5 1.5 0 0 1-1.5-1.5V9zm1 0v7.5a.5.5 0 0 0 .5.5h6a.5.5 0 0 0 .5-.5V9h-7zm2 1.5a.5.5 0 0 1 .5.5v4a.5.5 0 1 1-1 0v-4a.5.5 0 0 1 .5-.5zm3 0a.5.5 0 0 1 .5.5v4a.5.5 0 1 1-1 0v-4a.5.5 0 0 1 .5-.5z"/></g></svg>