<svg width="60" height="60" xmlns="http://www.w3.org/2000/svg"><g fill="#FFF" fill-rule="nonzero"><path d="M28.73 15.427l.711 1.325-1.444.384c-.113.03-.224.068-.334.113l-9.322 3.816-.468-.226a6.575 6.575 0 0 0-2.87-.654c-3.675 0-6.654 3.005-6.654 6.712 0 3.291 2.364 6.083 5.545 6.62l.546.093 7.722 13.493H9.132a.786.786 0 0 0-.783.79v3.948c0 .436.35.79.782.79h35.23a.786.786 0 0 0 .782-.79v-3.949c0-.436-.35-.79-.783-.79H28.49L19.691 31.73l.503-.632a6.715 6.715 0 0 0 1.45-4.627l-.053-.85 8.634-3.535a2.226 2.226 0 0 0 .562-.334l1.068-.865.8 1.4a.78.78 0 0 0 1.07.289l3.39-1.974a.794.794 0 0 0 .286-1.08l-3.914-6.838a.78.78 0 0 0-1.07-.29l-3.39 1.975a.793.793 0 0 0-.297 1.059zm-2.437-.175a3.167 3.167 0 0 1 1.56-2.936l3.39-1.974a3.117 3.117 0 0 1 4.278 1.156l3.914 6.84a3.174 3.174 0 0 1-1.146 4.314l-3.39 1.975a3.112 3.112 0 0 1-3.672-.398 4.56 4.56 0 0 1-.12.05l-7.106 2.91a9.095 9.095 0 0 1-1.492 4.725l7.337 12.82H44.36c1.73 0 3.132 1.414 3.132 3.158v3.95c0 1.744-1.402 3.158-3.132 3.158H9.131C7.402 55 6 53.586 6 51.841v-3.949c0-1.744 1.402-3.158 3.131-3.158h8.963l-5.146-8.993C8.924 34.795 6 31.156 6 26.897c0-5.015 4.03-9.082 9.003-9.082 1.18 0 2.328.23 3.396.67l7.894-3.233z"/><path d="M37.165 13.845c-.245.763-1.03 1.172-1.752.913-.723-.259-1.11-1.087-.865-1.85L36.77 5.99c.198-.617.76-1.02 1.377-.988l9.658.505c.762.04 1.35.724 1.312 1.53-.038.804-.686 1.425-1.448 1.385l-8.617-.45-1.887 5.873zM39.211 16.809a1.372 1.372 0 0 0-1.831.68c-.31.697.006 1.521.708 1.842l6.035 2.76a1.377 1.377 0 0 0 1.623-.351l6.235-7.302a1.392 1.392 0 0 0-.167-1.958 1.385 1.385 0 0 0-1.956.138l-5.563 6.515-5.084-2.324zM14.95 30.41c-1.798 0-3.255-1.468-3.255-3.279 0-1.81 1.457-3.279 3.254-3.279s3.254 1.468 3.254 3.28c0 1.81-1.457 3.278-3.254 3.278zm0-2.46c.448 0 .813-.366.813-.819a.817.817 0 0 0-.814-.82.817.817 0 0 0-.813.82c0 .453.364.82.813.82z"/></g></svg>