<svg width="24" height="24" xmlns="http://www.w3.org/2000/svg"><path d="M3.5 10h17a.5.5 0 110 1h-17a.5.5 0 110-1zm2-2.5h13a.5.5 0 110 1h-13a.5.5 0 010-1zm2-2.5h9a.5.5 0 110 1h-9a.5.5 0 010-1zm1 9a.5.5 0 01.5.5v3a.5.5 0 11-1 0v-3a.5.5 0 01.5-.5zm-3 0a.5.5 0 01.5.5v3a.5.5 0 11-1 0v-3a.5.5 0 01.5-.5zM4 13.5a.5.5 0 00-.5.5v4a.5.5 0 00.5.5h16a.5.5 0 00.5-.5v-4a.5.5 0 00-.5-.5H4zm0-1h16a1.5 1.5 0 011.5 1.5v4a1.5 1.5 0 01-1.5 1.5H4A1.5 1.5 0 012.5 18v-4A1.5 1.5 0 014 12.5zm8.5 5.5a2 2 0 110-4 2 2 0 010 4zm0-1a1 1 0 100-2 1 1 0 000 2zm5 1a2 2 0 110-4 2 2 0 010 4zm0-1a1 1 0 100-2 1 1 0 000 2z" fill="#979797"/></svg>