<svg width="24" height="24" xmlns="http://www.w3.org/2000/svg"><path d="M11 5.5h9a.5.5 0 1 1 0 1h-9a.5.5 0 1 1 0-1zm0 8h9a.5.5 0 1 1 0 1h-9a.5.5 0 1 1 0-1zm0-4h9a.5.5 0 1 1 0 1h-9a.5.5 0 1 1 0-1zm0 8h9a.5.5 0 1 1 0 1h-9a.5.5 0 1 1 0-1zM4.5 6a.5.5 0 0 0-.5.5v3a.5.5 0 0 0 .5.5h3a.5.5 0 0 0 .5-.5v-3a.5.5 0 0 0-.5-.5h-3zm0-1h3A1.5 1.5 0 0 1 9 6.5v3A1.5 1.5 0 0 1 7.5 11h-3A1.5 1.5 0 0 1 3 9.5v-3A1.5 1.5 0 0 1 4.5 5zm0 9a.5.5 0 0 0-.5.5v3a.5.5 0 0 0 .5.5h3a.5.5 0 0 0 .5-.5v-3a.5.5 0 0 0-.5-.5h-3zm0-1h3A1.5 1.5 0 0 1 9 14.5v3A1.5 1.5 0 0 1 7.5 19h-3A1.5 1.5 0 0 1 3 17.5v-3A1.5 1.5 0 0 1 4.5 13z" fill="#979797"/></svg>