<svg width="24" height="24" xmlns="http://www.w3.org/2000/svg"><path d="M15.968 10.144a1 1 0 01-.49 1.003l-.867.5a1 1 0 01-1.366-.366l-3.03 1.75c-.03.235-.09.465-.184.683l2.186 3.786H18a.5.5 0 01.5.5v2a.5.5 0 01-.5.5H4a.5.5 0 01-.5-.5v-2a.5.5 0 01.5-.5h4.753l-1.32-2.286a2.5 2.5 0 111.281-4.781l3.031-1.75a1 1 0 01.366-1.366l.866-.5a1 1 0 011.236.188l.4-1.332a.5.5 0 01.479-.356h2.705a.5.5 0 110 1h-2.333l-.495 1.646a.499.499 0 01-.082.161l.538.932 1.73.248 1.425-2.465a.5.5 0 01.865.5l-1.594 2.758a.5.5 0 01-.504.245l-1.379-.198zM17.5 18.5h-5.572a.5.5 0 01-.433-.25l-2.464-4.268a.5.5 0 010-.5 1.51 1.51 0 00.201-.75.5.5 0 01.25-.433l3.696-2.134a.5.5 0 01.683.183l.25.433.866-.5-1.5-2.598-.866.5.25.433a.5.5 0 01-.183.683l-3.696 2.134a.5.5 0 01-.5 0 1.499 1.499 0 00-2.049 2.05c.271.468.767.749 1.3.75a.5.5 0 01.432.25l1.887 3.267a.5.5 0 01-.433.75H4.5v1h13v-1zm-9.75-5.3a.5.5 0 110-1 .5.5 0 010 1z" fill="#979797"/></svg>