<svg width="24" height="24" xmlns="http://www.w3.org/2000/svg"><path d="M11 5.5h9a.5.5 0 110 1h-9a.5.5 0 110-1zm0 8h9a.5.5 0 110 1h-9a.5.5 0 110-1zm0-4h9a.5.5 0 110 1h-9a.5.5 0 110-1zm0 8h9a.5.5 0 110 1h-9a.5.5 0 110-1zM4.5 6a.5.5 0 00-.5.5v3a.5.5 0 00.5.5h3a.5.5 0 00.5-.5v-3a.5.5 0 00-.5-.5h-3zm0-1h3A1.5 1.5 0 019 6.5v3A1.5 1.5 0 017.5 11h-3A1.5 1.5 0 013 9.5v-3A1.5 1.5 0 014.5 5zm0 9a.5.5 0 00-.5.5v3a.5.5 0 00.5.5h3a.5.5 0 00.5-.5v-3a.5.5 0 00-.5-.5h-3zm0-1h3A1.5 1.5 0 019 14.5v3A1.5 1.5 0 017.5 19h-3A1.5 1.5 0 013 17.5v-3A1.5 1.5 0 014.5 13z" fill="#979797"/></svg>