<svg width="16" height="16" xmlns="http://www.w3.org/2000/svg"><path d="M8.008 4.512l.195.36-.397.104a.763.763 0 0 0-.092.03L5.149 6.042l-.129-.061a1.83 1.83 0 0 0-.79-.178c-1.01 0-1.83.816-1.83 1.822 0 .893.65 1.65 1.526 1.796l.15.025L6.2 13.107H2.615a.215.215 0 0 0-.215.214v1.072c0 .118.096.214.215.214h9.693a.215.215 0 0 0 .215-.214V13.32a.215.215 0 0 0-.215-.214H7.94l-2.42-4.171.138-.172a1.806 1.806 0 0 0 .399-1.255l-.015-.231 2.376-.96a.616.616 0 0 0 .154-.09l.294-.234.22.38c.06.102.192.137.295.078l.932-.536a.214.214 0 0 0 .08-.293L9.315 3.768a.216.216 0 0 0-.294-.079l-.933.536a.214.214 0 0 0-.081.287zm3.017 1.485a.855.855 0 0 1-.388.476l-.932.535a.865.865 0 0 1-1.01-.107l-.033.013-1.956.79a2.444 2.444 0 0 1-.41 1.282l2.018 3.478h3.994a.86.86 0 0 1 .861.857v1.072a.86.86 0 0 1-.861.857H2.615a.86.86 0 0 1-.861-.857V13.32a.86.86 0 0 1 .861-.857h2.466l-1.416-2.44a2.468 2.468 0 0 1-1.911-2.4A2.47 2.47 0 0 1 4.23 5.16c.324 0 .64.063.934.182l2.172-.877a.856.856 0 0 1 .43-.797l.932-.536a.865.865 0 0 1 .972.076l.399-1.17a.377.377 0 0 1 .376-.254l2.635.13a.376.376 0 1 1-.038.749l-2.35-.116L10.196 4l.629 1.083a.38.38 0 0 1 .025.01l1.37.616 1.525-1.78a.376.376 0 0 1 .57.487l-1.708 1.995a.377.377 0 0 1-.44.1l-1.143-.514zM4.231 8.5a.86.86 0 0 0 .861-.857.86.86 0 0 0-.861-.857.86.86 0 0 0-.862.857.86.86 0 0 0 .862.857zm0-.643a.215.215 0 0 1-.216-.214c0-.118.097-.214.216-.214s.215.096.215.214a.215.215 0 0 1-.215.214z" fill="#FFF" fill-rule="nonzero"/></svg>