<svg width="24" height="24" xmlns="http://www.w3.org/2000/svg"><path d="M5 6.5a.5.5 0 00-.5.5v3a.5.5 0 00.5.5h3a.5.5 0 00.5-.5V7a.5.5 0 00-.5-.5H5zm0-1h3A1.5 1.5 0 019.5 7v3A1.5 1.5 0 018 11.5H5A1.5 1.5 0 013.5 10V7A1.5 1.5 0 015 5.5zm0 9a.5.5 0 00-.5.5v3a.5.5 0 00.5.5h3a.5.5 0 00.5-.5v-3a.5.5 0 00-.5-.5H5zm0-1h3A1.5 1.5 0 019.5 15v3A1.5 1.5 0 018 19.5H5A1.5 1.5 0 013.5 18v-3A1.5 1.5 0 015 13.5zM10.5 6h9a.5.5 0 110 1h-9a.5.5 0 110-1zm0 8h9a.5.5 0 110 1h-9a.5.5 0 110-1zm0-4h9a.5.5 0 110 1h-9a.5.5 0 110-1zm0 8h9a.5.5 0 110 1h-9a.5.5 0 110-1z" fill="#979797"/></svg>