<svg width="24" height="24" xmlns="http://www.w3.org/2000/svg"><path d="M16 7.5h2a.5.5 0 110 1h-2a.5.5 0 110-1zm-9 8h2a.5.5 0 110 1H7a.5.5 0 110-1zM5.5 6a.5.5 0 00-.5.5v3a.5.5 0 00.5.5h14a.5.5 0 00.5-.5v-3a.5.5 0 00-.5-.5h-14zm0-1h14A1.5 1.5 0 0121 6.5v3a1.5 1.5 0 01-1.5 1.5h-14A1.5 1.5 0 014 9.5v-3A1.5 1.5 0 015.5 5zm0 9a.5.5 0 00-.5.5v3a.5.5 0 00.5.5h14a.5.5 0 00.5-.5v-3a.5.5 0 00-.5-.5h-14zm0-1h14a1.5 1.5 0 011.5 1.5v3a1.5 1.5 0 01-1.5 1.5h-14A1.5 1.5 0 014 17.5v-3A1.5 1.5 0 015.5 13z" fill="#979797"/></svg>