<svg width="24" height="24" xmlns="http://www.w3.org/2000/svg"><path d="M19.5 10a.5.5 0 1 1 1 0v9a1.5 1.5 0 0 1-1.5 1.5H5A1.5 1.5 0 0 1 3.5 19V5A1.5 1.5 0 0 1 5 3.5h9a.5.5 0 1 1 0 1H5a.5.5 0 0 0-.5.5v14a.5.5 0 0 0 .5.5h14a.5.5 0 0 0 .5-.5v-9zm-.37-6.369l-8.982 8.982-.55 1.964 1.964-.55 8.982-8.982-1.414-1.414zm.707-.707l1.414 1.414a1 1 0 0 1 0 1.414l-8.982 8.982a1 1 0 0 1-.437.256l-1.964.55a1 1 0 0 1-1.233-1.233l.55-1.964a1 1 0 0 1 .256-.437l8.982-8.982a1 1 0 0 1 1.414 0z" fill="#979797"/></svg>