<svg width="24" height="24" xmlns="http://www.w3.org/2000/svg"><path d="M12 22c5.523 0 10-4.477 10-10S17.523 2 12 2 2 6.477 2 12s4.477 10 10 10zm0-1.053a8.947 8.947 0 1 1 0-17.894 8.947 8.947 0 0 1 0 17.894zm5-9.886V16a.5.5 0 0 1-.5.5h-8A.5.5 0 0 1 8 16V8a.5.5 0 0 1 .5-.5h5.07a.5.5 0 1 0 0-1H8.5A1.5 1.5 0 0 0 7 8v8a1.5 1.5 0 0 0 1.5 1.5h8A1.5 1.5 0 0 0 18 16v-4.939a.5.5 0 1 0-1 0zm-6.293 1.803l5.157-5.157.707.707-5.157 5.157h-.707v-.707zm5.51-6.218a.5.5 0 0 0-.707 0l-5.656 5.657a.5.5 0 0 0-.147.354v1.414a.5.5 0 0 0 .5.5h1.414a.5.5 0 0 0 .354-.146l5.657-5.657a.5.5 0 0 0 0-.707l-1.414-1.415z" fill="#979797"/></svg>