<svg width="15" height="16" xmlns="http://www.w3.org/2000/svg"><path d="M7.4.465a4.035 4.035 0 012.196 7.42c.404.124.794.285 1.168.482a.535.535 0 01-.497.947 5.965 5.965 0 00-8.728 5.062l-.004.224v.486a.535.535 0 01-1.063.086l-.007-.086V14.6A7.038 7.038 0 015.27 7.926 4.035 4.035 0 017.4.466zm6.883 12.938a.535.535 0 01.087 1.063l-.087.007H11.13a.535.535 0 01-.087-1.063l.087-.007h3.154zm-4.93 0a.535.535 0 01.087 1.063l-.087.007h-.919a.535.535 0 01-.086-1.063l.086-.007h.92zm4.93-2.7a.535.535 0 01.087 1.063l-.087.007H11.13a.535.535 0 01-.087-1.063l.087-.007h3.154zm-4.93 0a.535.535 0 01.087 1.063l-.087.007h-.919a.535.535 0 01-.086-1.063l.086-.007h.92zM7.4 1.535a2.965 2.965 0 100 5.93 2.965 2.965 0 000-5.93z" fill="#007CF8"/></svg>