<svg width="24" height="24" xmlns="http://www.w3.org/2000/svg"><path d="M17.832 16.009a5.018 5.018 0 0 0-.128-.795c-.048-.28-.217-.955-.758-1.41-.353-.336-1.118-.444-1.204-.45-.461-.056-.842-.216-1.158-.338a3.284 3.284 0 0 1-1.478-1.456c.225-.104.481-.458.695-.82.118-.179.233-.384.33-.611.085-.173.137-.289.137-.289s.026.024.069.033c.128.045.359-.013.483-.91.176-1.282-.242-1.115-.242-1.115s.15-1.441-.83-2.274c-.382-.348-.937-.589-1.745-.573-.807-.016-1.363.225-1.744.573-.98.833-.83 2.274-.83 2.274s-.418-.167-.242 1.114c.124.898.355.956.483.911.042-.01.069-.033.069-.033s.05.116.136.289c.096.228.211.432.33.611.214.36.47.715.696.82a3.274 3.274 0 0 1-1.478 1.456c-.316.12-.697.282-1.158.339-.087.005-.85.113-1.204.448-.541.456-.71 1.13-.758 1.411a4.989 4.989 0 0 0-.128.795L6 18.544a.427.427 0 0 0 .426.456h11.147a.427.427 0 0 0 .426-.455l-.168-2.536zm-4.972 1.01l-.791.723a.107.107 0 0 1-.149-.005l-.72-.742a.107.107 0 0 1-.03-.09l.514-3.551a.107.107 0 0 0-.026-.086l-.434-.487a.107.107 0 0 1-.002-.14l.251-.302c.04-.049.1-.077.164-.077h.753c.06 0 .116.025.156.068l.286.309a.107.107 0 0 1 0 .146l-.457.482a.107.107 0 0 0-.028.09l.546 3.567a.107.107 0 0 1-.033.095z" fill="#555657" fill-rule="nonzero"/></svg>