<svg width="15" height="16" xmlns="http://www.w3.org/2000/svg"><path d="M7.188 0c.966-.017 1.631.259 2.087.657 1.174.95.995 2.597.995 2.597s.5-.19.289 1.274c-.148 1.027-.425 1.093-.578 1.041-.05-.01-.082-.037-.082-.037s-.063.132-.164.33a4.394 4.394 0 0 1-.395.698c-.256.414-.563.819-.832.937.059.125.585 1.122 1.769 1.664.378.14.834.323 1.386.387.103.006 1.018.13 1.442.513.431.347.665.806.79 1.168l-4.034-.002a.288.288 0 0 0-.277.226l-.007.067v3.23c0 .14.094.255.22.285l.064.008 4.473-.001.031.426.001.035a.497.497 0 0 1-.408.489l-.09.008H.5l-.035-.001a.497.497 0 0 1-.46-.442v-.09l.206-2.885c.03-.34.084-.642.154-.909.057-.32.26-1.09.907-1.612.423-.384 1.337-.507 1.442-.513.552-.064 1.008-.249 1.386-.387 1.185-.542 1.711-1.54 1.769-1.664-.27-.12-.577-.525-.833-.937a4.099 4.099 0 0 1-.395-.699 8.21 8.21 0 0 1-.163-.33s-.032.026-.082.038c-.154.052-.43-.014-.578-1.04-.211-1.465.289-1.275.289-1.275S3.926 1.608 5.1.657C5.556.259 6.22-.017 7.188 0zm.285 8.3h-.625a.249.249 0 0 0-.148.049l-.04.036-.293.337a.124.124 0 0 0-.019.135l.029.039.598.549a.13.13 0 0 1 .04.072l-.001.041-.715 4.043a.124.124 0 0 0 .011.078l.024.032.85.837a.124.124 0 0 0 .144.022l.039-.03.676-.804a.124.124 0 0 0 .028-.064v-.036l-.656-4.083a.124.124 0 0 1 .012-.075l.023-.032.541-.546a.124.124 0 0 0 .028-.133l-.027-.04-.341-.352a.249.249 0 0 0-.178-.075zm7.327 3.515c.112 0 .203.198.203.29v2.255c0 .089-.086.163-.199.163H10.39c-.108 0-.199-.07-.199-.163v-2.381c0-.09.087-.164.2-.164zm-3.875 1.557a.259.259 0 0 0-.258.259v.018a.259.259 0 0 0 .517 0v-.018a.259.259 0 0 0-.259-.26zm3.306 0H11.78a.268.268 0 0 0 0 .536h2.452a.268.268 0 1 0 0-.536zm-3.306-.985a.259.259 0 0 0-.258.259v.018a.259.259 0 1 0 .517 0v-.018a.259.259 0 0 0-.259-.259zm3.306 0H11.78a.268.268 0 1 0 0 .536h2.452a.268.268 0 1 0 0-.536z" fill="#555657"/></svg>