<svg class="icon" width="200" height="200" viewBox="0 0 1024 1024" xmlns="http://www.w3.org/2000/svg"><path d="M830.566 750.933h-22.732V432.367c0-50.074-40.96-91.034-91.034-91.034H580.267v386.833a22.528 22.528 0 01-22.767 22.767 22.528 22.528 0 01-22.733-22.767V295.834c0-50.074-40.96-91.034-91.034-91.034H307.2a91.307 91.307 0 00-91.034 91.034v455.1h-22.732a22.528 22.528 0 00-22.767 22.766 22.528 22.528 0 0022.767 22.733h637.132a22.528 22.528 0 0022.767-22.733 22.528 22.528 0 00-22.767-22.767zm-409.6-91.033h-91a22.528 22.528 0 01-22.766-22.733 22.528 22.528 0 0122.767-22.767h91a22.528 22.528 0 0122.766 22.767 22.528 22.528 0 01-22.767 22.733zm0-136.534h-91a22.528 22.528 0 01-22.766-22.732 22.528 22.528 0 0122.767-22.767h91a22.528 22.528 0 0122.766 22.767 22.528 22.528 0 01-22.767 22.732zm0-136.533h-91A22.528 22.528 0 01307.2 364.1a22.528 22.528 0 0122.767-22.767h91a22.528 22.528 0 0122.766 22.767 22.528 22.528 0 01-22.767 22.733zm318.6 273.067h-91.033a22.528 22.528 0 01-22.767-22.733 22.528 22.528 0 0122.767-22.767h91.034a22.528 22.528 0 0122.733 22.767 22.528 22.528 0 01-22.733 22.733zm0-136.534h-91.033a22.528 22.528 0 01-22.767-22.732 22.528 22.528 0 0122.767-22.767h91.034a22.528 22.528 0 0122.733 22.767 22.528 22.528 0 01-22.733 22.732z" fill="#ACD8F9"/></svg>