<svg width="18" height="13" xmlns="http://www.w3.org/2000/svg"><g fill="#2C85DD" fill-rule="nonzero"><path d="M2 1.125A.875.875 0 0 0 1.125 2v9c0 .483.392.875.875.875h14a.875.875 0 0 0 .875-.875V2A.875.875 0 0 0 16 1.125H2zM2 0h14a2 2 0 0 1 2 2v9a2 2 0 0 1-2 2H2a2 2 0 0 1-2-2V2a2 2 0 0 1 2-2z"/><path d="M.696 1.474l.608-.946L8.868 5.39a.277.277 0 0 0 .31 0L16.694.528l.612.944L9.79 6.334a1.4 1.4 0 0 1-1.53.002L.696 1.474z"/><path d="M10.573 5.366l.854-.732 6 7-.854.732-6-7zm-9.146 7l-.854-.732 6-7 .854.732-6 7z"/></g></svg>