<svg width="18" height="19" xmlns="http://www.w3.org/2000/svg"><path d="M5.998 11.035L.406 7.312l.623-.936 7.809 5.199a.305.305 0 0 0 .322.004l7.87-5.038.606.947-5.233 3.35 5.322 6.418-.866.717-5.41-6.524-1.69 1.082a1.44 1.44 0 0 1-1.528-.009l-1.285-.856-5.866 6.347v.001l-.826-.764 5.744-6.215zM1.125 6.594V17c0 .483.392.875.875.875h14a.875.875 0 0 0 .875-.875V6.594L9.494 1.549a.875.875 0 0 0-.988 0L1.125 6.594zm-.69-.892L7.872.62a2 2 0 0 1 2.258 0l7.435 5.082a1 1 0 0 1 .436.826V17a2 2 0 0 1-2 2H2a2 2 0 0 1-2-2V6.528a1 1 0 0 1 .436-.826H.435z" fill="#979797" fill-rule="nonzero"/></svg>