<svg class="icon" viewBox="0 0 1026 1024" xmlns="http://www.w3.org/2000/svg" width="200.391" height="200"><defs><style/></defs><path d="M914.633 200.025C834.423 90.648 710.462 25.022 579.209 3.146 447.957-11.437 316.704 25.022 207.327 105.232l-43.751-36.46c-7.292-14.583-14.584-7.291-21.875 7.293l-7.292 138.544c0 14.584 7.292 29.167 29.167 29.167l131.253-14.583c14.583 0 21.875-14.584 7.291-21.876l-36.459-43.75c87.502-65.627 196.88-87.502 306.256-72.919 116.67 14.584 211.463 72.918 284.381 160.42 72.918 87.502 102.085 204.17 87.502 313.548-7.292 80.21-43.751 153.128-94.794 218.754-21.875 21.876-43.75 51.043-72.918 65.627-87.502 72.918-204.17 102.085-313.548 87.501-116.669-14.583-211.462-72.918-284.38-160.42C105.24 688.577 76.074 579.2 90.658 462.531c0-21.876-14.584-36.46-36.46-43.751-21.875 0-43.75 14.583-51.042 36.459-14.584 131.252 21.876 262.505 102.085 364.59 80.21 109.377 204.171 175.004 335.424 196.88 138.544 14.583 269.797-21.876 379.174-102.086 29.167-21.876 58.334-51.043 87.502-80.21 58.334-72.918 102.085-160.42 109.377-255.213 21.875-131.253-14.584-269.798-102.085-379.175z"/><path d="M491.707 185.442c-14.583 0-29.167 14.583-29.167 36.459v328.131L768.796 703.16c7.292 0 7.292 7.292 14.584 7.292 14.584 0 21.875-7.292 29.167-14.584 7.292-14.583 0-36.459-14.583-43.75L528.167 506.28v-284.38c0-21.876-14.584-36.46-36.46-36.46z"/></svg>