<svg class="icon" viewBox="0 0 1024 1024" xmlns="http://www.w3.org/2000/svg" width="200" height="200"><path d="M965.486 694.857L804.57 526.63c21.943-65.829 21.943-131.658 7.315-204.8-14.629-80.458-51.2-146.286-109.715-204.8-36.57-36.573-80.456-65.83-131.656-87.773C519.314 7.314 468.114 0 416.914 0h-29.257c-43.886 0-73.143 7.314-117.028 21.943-7.315 7.314-29.258 14.628-51.2 36.571-14.629 21.943-7.315 51.2 7.314 65.829L409.6 314.514l-95.086 102.4-190.171-190.171c-7.314-14.629-21.943-14.629-36.572-14.629h-7.314c-21.943 0-43.886 21.943-58.514 65.829C7.314 321.829 0 365.714 0 409.6c0 29.257 0 65.829 7.314 95.086 14.629 73.143 51.2 146.285 109.715 197.485C153.6 738.743 197.486 768 248.686 789.943c51.2 21.943 102.4 29.257 153.6 29.257 43.885 0 95.085-7.314 138.971-21.943l160.914 160.914c36.572 36.572 80.458 58.515 131.658 58.515h7.314c51.2 0 95.086-21.943 124.343-58.515 36.571-36.571 51.2-80.457 51.2-131.657 7.314-43.885-14.629-95.085-51.2-131.657zM921.6 914.286s-7.314 0 0 0c-21.943 21.943-43.886 36.571-73.143 36.571H833.83c-29.258 0-58.515-14.628-80.458-36.571L592.457 753.37c-14.628-14.628-36.571-21.942-51.2-21.942H512c-36.571 14.628-73.143 21.942-109.714 21.942-43.886 0-87.772-7.314-124.343-21.942-43.886-14.629-73.143-43.886-109.714-73.143-43.886-43.886-73.143-102.4-87.772-168.229-7.314-21.943-7.314-51.2-7.314-80.457 0-36.571 7.314-73.143 21.943-109.714l168.228 168.228c7.315 14.629 29.257 21.943 51.2 21.943s36.572-7.314 51.2-21.943l102.4-102.4c29.257-29.257 29.257-73.143 0-102.4L299.886 95.086c36.571-14.629 58.514-21.943 95.085-21.943h29.258c43.885 0 87.771 7.314 124.342 21.943 43.886 14.628 73.143 43.885 109.715 73.143 43.885 43.885 73.143 102.4 87.771 168.228 14.629 58.514 7.314 109.714-7.314 168.229-7.314 21.943 0 51.2 14.628 73.143L921.6 746.057c21.943 21.943 36.571 58.514 36.571 87.772-7.314 29.257-14.628 58.514-36.571 80.457z"/><path d="M533.943 453.486c-43.886 0-73.143 29.257-73.143 73.143s29.257 73.142 73.143 73.142 73.143-29.257 73.143-73.142-29.257-73.143-73.143-73.143z"/></svg>