<svg width="12" height="14" xmlns="http://www.w3.org/2000/svg"><path d="M10.981 0c.523 0 .953.375 1.012.858L12 .971v4.967a.498.498 0 01-.51.485.504.504 0 01-.5-.398l-.009-.087V.97H1.019v12.06h3.846c.282 0 .51.217.51.485 0 .239-.18.437-.418.478L4.865 14H1.02c-.523 0-.953-.375-1.012-.858L0 13.029V.97C0 .473.393.063.9.007L1.02 0h9.962zm.485 10.07c.295 0 .534.25.534.56C12 12.493 10.566 14 8.796 14a3.134 3.134 0 01-2.475-1.23l-.475.285a.1.1 0 01-.151-.09l.086-1.983a.1.1 0 01.138-.088l1.655.677a.1.1 0 01.02.174l-.448.311.04.051c.403.486.984.77 1.61.77 1.18 0 2.136-1.006 2.136-2.246 0-.31.24-.562.534-.562zm-2.67-2.904A3.121 3.121 0 0111.15 8.25l.36-.27a.1.1 0 01.16.08V9.6a.1.1 0 01-.12.098l-1.466-.287a.1.1 0 01-.037-.18l.319-.218a2.077 2.077 0 00-1.57-.723c-.986 0-1.838.71-2.073 1.702a.533.533 0 01-.647.41.564.564 0 01-.389-.68c.352-1.491 1.63-2.555 3.11-2.555zm-4.073-.051a.49.49 0 01.48.5c0 .245-.17.45-.394.492l-.086.008h-1.98a.49.49 0 01-.48-.5c0-.246.17-.45.393-.492l.086-.008h1.981zM5.93 4.909a.49.49 0 01.48.5c0 .246-.17.45-.394.492l-.086.008H2.742a.49.49 0 01-.48-.5c0-.245.17-.45.394-.492l.086-.008H5.93zm2.906-2.246a.49.49 0 01.48.5c0 .245-.17.45-.394.492l-.086.008H2.742a.49.49 0 01-.48-.5c0-.245.17-.45.394-.492l.086-.008h6.093z" fill="#007CF8"/></svg>