<svg width="16" height="19" xmlns="http://www.w3.org/2000/svg"><g fill="none" fill-rule="evenodd"><rect fill="#FFCC45" fill-rule="nonzero" y="10.824" width="16" height="5.647" rx=".471"/><path d="M.941 10.498V.628C.941.28 1.222 0 1.57 0h9.457c.173 0 .313.14.313.314V3.26c0 .174.14.314.314.314h3.092c.173 0 .314.14.314.314V10.5m0 6.274v2.049c0 .346-.281.627-.628.627H1.57a.627.627 0 0 1-.628-.627v-2.048" fill="#FFCC45" fill-rule="nonzero"/><path d="M11.873.253l2.903 2.77a.157.157 0 0 1-.109.271h-2.902a.157.157 0 0 1-.157-.157V.367a.157.157 0 0 1 .265-.114z" fill="#FFCC45" fill-rule="nonzero"/><text font-family="NotoSansHans-Bold, Noto Sans S Chinese" font-size="3.765" font-weight="bold" fill="#FFF"><tspan x="4.392" y="14.765">JPG</tspan></text></g></svg>