<svg width="16" height="19" xmlns="http://www.w3.org/2000/svg"><g fill="none" fill-rule="evenodd"><rect fill="#2C85DD" fill-rule="nonzero" y="10.573" width="16" height="5.516" rx=".471"/><path d="M.941 10.254V.613A.62.62 0 0 1 1.57 0h9.457a.31.31 0 0 1 .313.306v2.88c0 .169.14.306.314.306h3.092a.31.31 0 0 1 .314.307v6.459m0 6.128v2.001a.62.62 0 0 1-.628.613H1.57a.62.62 0 0 1-.628-.613v-2" fill="#2C85DD" fill-rule="nonzero"/><path d="M11.872.246l2.896 2.7a.157.157 0 0 1-.107.272h-2.896a.157.157 0 0 1-.157-.157V.36a.157.157 0 0 1 .264-.115z" fill="#2C85DD" fill-rule="nonzero"/><path d="M2.802 14.71l-.538-2.722h.568l.222 1.328c.042.287.087.577.128.868h.015c.057-.29.117-.585.177-.868l.324-1.328h.475l.323 1.328c.06.28.117.574.177.868h.02c.04-.294.082-.585.123-.868l.219-1.328h.53L5.05 14.71h-.693l-.312-1.346a14.075 14.075 0 0 1-.12-.63h-.016c-.038.207-.075.416-.12.63l-.305 1.346h-.682zm4.277.051c-.738 0-1.246-.54-1.246-1.423 0-.886.508-1.401 1.246-1.401s1.246.518 1.246 1.401-.508 1.423-1.246 1.423zm0-.47c.414 0 .678-.372.678-.953 0-.585-.264-.934-.678-.934-.414 0-.678.35-.678.934 0 .581.264.952.678.952zm2.35-1.872v.83h.36c.358 0 .554-.146.554-.437 0-.294-.196-.393-.554-.393h-.36zm1.58 2.29h-.62l-.573-1.029h-.388v1.03h-.557v-2.722h.971c.584 0 1.047.199 1.047.824 0 .408-.211.662-.531.783l.651 1.115zm.43 0v-2.72h.764c.85 0 1.378.43 1.378 1.349 0 .916-.528 1.372-1.348 1.372h-.795zm.557-.437h.173c.52 0 .843-.272.843-.934 0-.666-.324-.916-.843-.916h-.173v1.85z" fill="#FFF"/></g></svg>