<svg width="13" height="15" xmlns="http://www.w3.org/2000/svg"><path d="M10.19 9.24a.5.5 0 0 1 .492.41l.008.09v1.879l1.81.001a.5.5 0 0 1 .09.992l-.09.008-1.81-.001V14.5a.5.5 0 0 1-.992.09l-.008-.09v-1.881l-1.81.001a.5.5 0 0 1-.09-.992l.09-.008 1.81-.001v-1.88a.5.5 0 0 1 .5-.5zM10.96 0c.533 0 .973.39 1.033.894l.007.118v6.085c0 .28-.233.506-.52.506a.517.517 0 0 1-.512-.415l-.008-.091V1.012H1.04v11.976H6c.287 0 .52.226.52.506a.51.51 0 0 1-.426.498L6 14H1.04a1.03 1.03 0 0 1-1.033-.894L0 12.988V1.012C0 .493.402.065.92.007L1.04 0h9.92zM7.73 8.483a.5.5 0 0 1 .09.992l-.09.008H4.818a.5.5 0 0 1-.09-.992l.09-.008h2.913zm-4.656 0a.5.5 0 0 1 .09.992l-.09.008H2.8a.5.5 0 0 1-.09-.992l.09-.008h.275zM9.003 5.57a.5.5 0 0 1 .09.992l-.09.008H4.818a.5.5 0 0 1-.09-.992l.09-.008h4.185zm-5.928 0a.5.5 0 0 1 .09.992l-.09.008H2.8a.5.5 0 0 1-.09-.992l.09-.008h.275zm5.928-2.913a.5.5 0 0 1 .09.992l-.09.008H4.818a.5.5 0 0 1-.09-.992l.09-.008h4.185zm-5.928 0a.5.5 0 0 1 .09.992l-.09.008H2.8a.5.5 0 0 1-.09-.992l.09-.008h.275z" fill="#007CF8"/></svg>