<svg width="16" height="19" xmlns="http://www.w3.org/2000/svg"><g fill="none" fill-rule="evenodd"><rect fill="#FF4040" fill-rule="nonzero" y="10.573" width="16" height="5.516" rx=".471"/><path d="M.941 10.254V.613A.62.62 0 0 1 1.57 0h9.457a.31.31 0 0 1 .313.306v2.88c0 .169.14.306.314.306h3.092a.31.31 0 0 1 .314.307v6.459m0 6.128v2.001a.62.62 0 0 1-.628.613H1.57a.62.62 0 0 1-.628-.613v-2" fill="#FF4040" fill-rule="nonzero"/><path d="M11.871.189l2.978 2.757a.157.157 0 0 1-.107.272h-2.977a.157.157 0 0 1-.157-.157V.304a.157.157 0 0 1 .263-.115z" fill="#FF4040" fill-rule="nonzero"/><path d="M4.549 14.71v-2.758h.913c.616 0 1.09.212 1.09.864 0 .63-.478.913-1.075.913h-.372v.98H4.55zm.556-1.417h.334c.384 0 .568-.16.568-.477 0-.32-.203-.428-.586-.428h-.316v.905zm1.95 1.417v-2.758h.763c.849 0 1.375.436 1.375 1.367 0 .929-.526 1.39-1.345 1.39h-.793zm.556-.444h.173c.518 0 .842-.276.842-.947 0-.674-.324-.928-.842-.928h-.173v1.875zm2.127.444v-2.758h1.713v.458h-1.157v.72h.988v.462h-.988v1.118h-.556z" fill="#FFF"/></g></svg>