<svg width="16" height="19" xmlns="http://www.w3.org/2000/svg"><g fill="none" fill-rule="evenodd"><path fill="#F0F2F5" d="M-368-644h1440v900H-368z"/><path d="M-88-329.763h1134c1.105 0 2 .765 2 1.708v558.348c0 .943-.895 1.707-2 1.707H-86c-1.105 0-2-.764-2-1.707v-560.056z" fill="#FFF"/><g><rect fill="#BDBDBD" fill-rule="nonzero" y="10.573" width="16" height="5.516" rx=".471"/><path d="M.941 10.254V.613A.62.62 0 0 1 1.57 0h9.457a.31.31 0 0 1 .313.306v2.88c0 .169.14.306.314.306h3.092a.31.31 0 0 1 .314.307v6.459m0 6.128v2.001a.62.62 0 0 1-.628.613H1.57a.62.62 0 0 1-.628-.613v-2" fill="#BDBDBD" fill-rule="nonzero"/><path d="M11.872.246l2.896 2.7a.157.157 0 0 1-.107.272h-2.896a.157.157 0 0 1-.157-.157V.36a.157.157 0 0 1 .264-.115z" fill="#BDBDBD" fill-rule="nonzero"/><path d="M8.145 14.115h-.516v-.183c0-.14.025-.258.076-.357a.987.987 0 0 1 .256-.296c.138-.113.23-.206.275-.278a.43.43 0 0 0 .069-.233.286.286 0 0 0-.102-.23.438.438 0 0 0-.29-.087c-.246 0-.474.091-.684.274v-.602a1.51 1.51 0 0 1 .748-.195c.298 0 .53.068.695.205a.682.682 0 0 1 .248.555c0 .15-.034.287-.102.414a1.355 1.355 0 0 1-.35.39c-.139.11-.227.198-.266.26a.43.43 0 0 0-.057.228v.135zm-.256.285c.099 0 .183.032.254.096a.302.302 0 0 1 0 .461.365.365 0 0 1-.254.096.358.358 0 0 1-.254-.097.306.306 0 0 1 0-.459.358.358 0 0 1 .254-.097z" fill="#FFF"/></g></g></svg>