<svg width="16" height="16" xmlns="http://www.w3.org/2000/svg"><path d="M13.06 15H2.94a1.93 1.93 0 0 1-1.929-1.928V2.928A1.93 1.93 0 0 1 2.94 1h10.122a1.93 1.93 0 0 1 1.928 1.928v10.144A1.93 1.93 0 0 1 13.06 15zM2.94 1.789A1.14 1.14 0 0 0 1.8 2.928v10.144c0 .629.51 1.139 1.14 1.14h10.12a1.14 1.14 0 0 0 1.14-1.14V2.928a1.14 1.14 0 0 0-1.14-1.14H2.94zm5.805 1.783c.614 0 1.112.47 1.112 1.05 0 .58-.498 1.05-1.112 1.05H7.263c-.615 0-1.112-.47-1.112-1.05 0-.58.497-1.05 1.112-1.05h1.482zm0 1.4c.204 0 .37-.158.37-.35a.361.361 0 0 0-.37-.35H7.263c-.205 0-.371.157-.371.35 0 .192.166.35.37.35h1.483zm0 2.1c.614 0 1.112.469 1.112 1.049s-.498 1.05-1.112 1.05H7.263c-.615 0-1.112-.471-1.112-1.05 0-.58.497-1.05 1.112-1.05h1.482zm0 1.4c.204 0 .37-.16.37-.351a.361.361 0 0 0-.37-.35H7.263c-.205 0-.371.157-.371.35 0 .192.166.35.37.35h1.483zm0 2.098c.614 0 1.112.47 1.112 1.05 0 .58-.498 1.05-1.112 1.05H7.263c-.615 0-1.112-.47-1.112-1.05 0-.58.497-1.05 1.112-1.05h1.482zm0 1.4a.36.36 0 0 0 .37-.35.361.361 0 0 0-.37-.35H7.263c-.205 0-.371.159-.371.35 0 .193.166.35.37.35h1.483zm-4.078-.7v-.7l1.113 1.05-1.112 1.05v-.7c-1.228 0-2.224-.94-2.224-2.1 0-1.159.996-2.099 2.224-2.099h.74v.7h-.74a1.517 1.517 0 0 0-1.05.41 1.356 1.356 0 0 0-.433.99c0 .374.155.725.434.99.284.265.66.412 1.048.41zm6.673-6.998c1.228 0 2.223.94 2.223 2.1 0 1.159-.996 2.1-2.223 2.1v.7l-1.113-1.05 1.112-1.05v.7c.39.002.764-.145 1.049-.41.279-.265.433-.616.433-.99a1.35 1.35 0 0 0-.433-.99 1.523 1.523 0 0 0-1.048-.41h-.742v-.7h.742z" fill="#FFF"/></svg>