<svg width="24" height="24" xmlns="http://www.w3.org/2000/svg"><path d="M8.025 15.511v-.44a.1.1 0 01.17-.071l.956.928a.1.1 0 010 .144L8.195 17a.1.1 0 01-.17-.072v-.44a.502.502 0 01-.106.012 2.5 2.5 0 110-5 .5.5 0 110 1 1.5 1.5 0 000 3 .53.53 0 01.106.011zm8.212-3.022v.44a.1.1 0 01-.17.071l-.956-.928a.1.1 0 010-.144l.957-.928a.1.1 0 01.17.072v.41A1.5 1.5 0 0016 8.5a.5.5 0 110-1 2.5 2.5 0 01.237 4.989zM5 4.5a.5.5 0 00-.5.5v14a.5.5 0 00.5.5h14a.5.5 0 00.5-.5V5a.5.5 0 00-.5-.5H5zm0-1h14A1.5 1.5 0 0120.5 5v14a1.5 1.5 0 01-1.5 1.5H5A1.5 1.5 0 013.5 19V5A1.5 1.5 0 015 3.5zm6 4a.5.5 0 100 1h2a.5.5 0 100-1h-2zm0-1h2a1.5 1.5 0 010 3h-2a1.5 1.5 0 010-3zm0 5a.5.5 0 100 1h2a.5.5 0 100-1h-2zm0-1h2a1.5 1.5 0 010 3h-2a1.5 1.5 0 010-3zm0 5a.5.5 0 100 1h2a.5.5 0 100-1h-2zm0-1h2a1.5 1.5 0 010 3h-2a1.5 1.5 0 010-3z" fill="#979797"/></svg>