<svg width="24" height="24" xmlns="http://www.w3.org/2000/svg"><path d="M8.025 15.511v-.44a.1.1 0 0 1 .17-.071l.956.928a.1.1 0 0 1 0 .144L8.195 17a.1.1 0 0 1-.17-.072v-.44a.502.502 0 0 1-.106.012 2.5 2.5 0 1 1 0-5 .5.5 0 1 1 0 1 1.5 1.5 0 0 0 0 3 .53.53 0 0 1 .106.011zm8.212-3.022v.44a.1.1 0 0 1-.17.071l-.956-.928a.1.1 0 0 1 0-.144l.957-.928a.1.1 0 0 1 .17.072v.41A1.5 1.5 0 0 0 16 8.5a.5.5 0 1 1 0-1 2.5 2.5 0 0 1 .237 4.989zM5 4.5a.5.5 0 0 0-.5.5v14a.5.5 0 0 0 .5.5h14a.5.5 0 0 0 .5-.5V5a.5.5 0 0 0-.5-.5H5zm0-1h14A1.5 1.5 0 0 1 20.5 5v14a1.5 1.5 0 0 1-1.5 1.5H5A1.5 1.5 0 0 1 3.5 19V5A1.5 1.5 0 0 1 5 3.5zm6 4a.5.5 0 1 0 0 1h2a.5.5 0 1 0 0-1h-2zm0-1h2a1.5 1.5 0 0 1 0 3h-2a1.5 1.5 0 0 1 0-3zm0 5a.5.5 0 1 0 0 1h2a.5.5 0 1 0 0-1h-2zm0-1h2a1.5 1.5 0 0 1 0 3h-2a1.5 1.5 0 0 1 0-3zm0 5a.5.5 0 1 0 0 1h2a.5.5 0 1 0 0-1h-2zm0-1h2a1.5 1.5 0 0 1 0 3h-2a1.5 1.5 0 0 1 0-3z" fill="#979797"/></svg>