<svg width="16" height="16" xmlns="http://www.w3.org/2000/svg"><g fill="#8F95A2" fill-rule="nonzero"><path d="M13.06 15H2.94a1.93 1.93 0 0 1-1.929-1.928V2.928A1.93 1.93 0 0 1 2.94 1h10.122a1.93 1.93 0 0 1 1.928 1.928v10.144A1.93 1.93 0 0 1 13.06 15zM2.94 1.789A1.14 1.14 0 0 0 1.8 2.928v10.144c0 .629.51 1.139 1.14 1.14h10.12a1.14 1.14 0 0 0 1.14-1.14V2.928a1.14 1.14 0 0 0-1.14-1.14H2.94z"/><path d="M8.745 3.572H7.263c-.615 0-1.112.47-1.112 1.05 0 .58.497 1.05 1.112 1.05h1.482c.614 0 1.112-.47 1.112-1.05 0-.58-.498-1.05-1.112-1.05zm0 1.4H7.263c-.205 0-.371-.158-.371-.35 0-.193.166-.35.37-.35h1.483c.204 0 .37.158.37.35 0 .192-.166.35-.37.35zm0 2.1H7.263c-.615 0-1.112.47-1.112 1.049s.497 1.05 1.112 1.05h1.482c.614 0 1.112-.47 1.112-1.05 0-.58-.498-1.05-1.112-1.05zm0 1.4H7.263c-.205 0-.371-.159-.371-.351 0-.193.166-.35.37-.35h1.483c.204 0 .37.158.37.35 0 .192-.166.35-.37.35zm0 2.098H7.263c-.615 0-1.112.47-1.112 1.05 0 .58.497 1.05 1.112 1.05h1.482c.614 0 1.112-.47 1.112-1.05 0-.58-.498-1.05-1.112-1.05zm0 1.4H7.263c-.205 0-.371-.157-.371-.35 0-.191.166-.35.37-.35h1.483c.204 0 .37.158.37.35 0 .193-.166.35-.37.35zm-4.078-.7a1.522 1.522 0 0 1-1.048-.41 1.357 1.357 0 0 1-.434-.99c0-.374.155-.725.434-.99.284-.265.66-.412 1.048-.409h.742v-.7h-.741c-1.228 0-2.224.94-2.224 2.1 0 1.16.996 2.1 2.224 2.1v.7l1.112-1.05-1.112-1.05v.7zm6.673-6.998h-.742v.7h.742c.389-.002.764.144 1.048.41.276.255.433.614.433.99 0 .374-.154.725-.433.99-.285.265-.66.412-1.049.41v-.7l-1.112 1.05 1.113 1.05v-.7c1.227 0 2.223-.941 2.223-2.1 0-1.16-.995-2.1-2.223-2.1z"/></g></svg>