<svg width="24" height="24" xmlns="http://www.w3.org/2000/svg"><path d="M11.349 6.207h6.525c.547-.009.952.082 1.404.452.125.103.243.223.353.362.2.252.33.61.407 1.079A1.5 1.5 0 0121 9.5v8a1.5 1.5 0 01-1.5 1.5h-14A1.5 1.5 0 014 17.5v-11A1.5 1.5 0 015.5 5h4.382c.568 0 1.088.321 1.371.903l.096.304zm.314 1l.249.793h7.085a1.004 1.004 0 00-.149-.357 1.392 1.392 0 00-.205-.21c-.228-.189-.421-.232-.753-.226h-6.227zm-.615 1.38l-.12-.384-.599-1.927A.5.5 0 009.882 6H5.5a.5.5 0 00-.5.5v11a.5.5 0 00.5.5h14a.5.5 0 00.5-.5v-8a.5.5 0 00-.5-.5h-7.96a.5.5 0 01-.492-.413z" fill="#979797"/></svg>