<svg width="24" height="24" xmlns="http://www.w3.org/2000/svg"><path d="M16.938 5.5a.5.5 0 1 1 0-1H20A1.5 1.5 0 0 1 21.5 6v3.063a.5.5 0 1 1-1 0V6a.5.5 0 0 0-.5-.5h-3.062zM20.5 15a.5.5 0 0 1 1 0v3a1.5 1.5 0 0 1-1.5 1.5h-3a.5.5 0 0 1 0-1h3a.5.5 0 0 0 .5-.5v-3zM6.989 18.5a.5.5 0 1 1 0 1H4A1.5 1.5 0 0 1 2.5 18v-2.952a.5.5 0 0 1 1 0V18a.5.5 0 0 0 .5.5h2.989zM3.5 8.99a.5.5 0 1 1-1 0V6A1.5 1.5 0 0 1 4 4.5h3.036a.5.5 0 1 1 0 1H4a.5.5 0 0 0-.5.5v2.99zm3-.49v7h11v-7h-11zm0-1h11a1 1 0 0 1 1 1v7a1 1 0 0 1-1 1h-11a1 1 0 0 1-1-1v-7a1 1 0 0 1 1-1z" fill="#979797"/></svg>