<svg width="16" height="16" xmlns="http://www.w3.org/2000/svg"><path d="M14.389 8.805c.102.1.269.1.371 0l.148-.144a.252.252 0 0 0 .068-.247l-.691-2.517a.252.252 0 0 0-.076-.157l-.999-.973a.255.255 0 0 0-.078-.05c-.014-.024-.025-.05-.045-.07l-1.472-1.435c-.027-.026-.06-.041-.093-.058a.347.347 0 0 0-.07-.1l-.274-.268a.36.36 0 0 0-.5-.006l-.706.688-1.426-1.39a.267.267 0 0 0-.273-.06.257.257 0 0 0-.174.213c-.064.575.356 1.392 1.042 2.047l-.376.366c-.672-.664-1.51-1.078-2.099-1.015a.262.262 0 0 0-.219.17.252.252 0 0 0 .062.265l1.425 1.39-2.368 2.31a.34.34 0 0 0 .006.487l.157.153-4.59 4.475c-.17.165-.182.422-.027.574l1.471 1.434c.155.15.419.139.588-.026l4.543-4.43a.687.687 0 0 0 .769-.124.647.647 0 0 0 .148-.713l1.045-1.02.812.793a.26.26 0 0 0 .153.072l2.59.676a.267.267 0 0 0 .254-.066l.147-.144a.252.252 0 0 0 0-.362l-2.503-2.44.757-.74 2.503 2.442zM13.025 5.31l.757.739.54 1.967-2.036-1.986.739-.72zM6.062 8.004l2.43-2.37a.252.252 0 0 0 0-.361l-.91-.887c.286.16.547.357.778.586.07.069.137.139.2.21a.256.256 0 0 0 .188.088.266.266 0 0 0 .196-.075l.763-.744a.253.253 0 0 0-.014-.375 4.083 4.083 0 0 1-.215-.194 3.567 3.567 0 0 1-.602-.758l.91.887c.103.1.27.1.372 0l.767-.748.038.038-4.862 4.74-.039-.037zm4.743.948l-.943-.92a.267.267 0 0 0-.372 0L8.111 9.377a.252.252 0 0 0 0 .362.143.143 0 0 1-.006.2.152.152 0 0 1-.205.006l-.335-.327 2.7-2.633 2.558 2.494-2.018-.527zm-.355-2.51a.267.267 0 0 0-.371 0L7.007 9.437a.252.252 0 0 0 0 .362l.307.299-4.45 4.338-1.29-1.257 2.342-2.283.195.19a.268.268 0 0 0 .367-.004.252.252 0 0 0 .004-.358l-.195-.19.306-.298.195.19a.268.268 0 0 0 .367-.005.252.252 0 0 0 .004-.358l-.194-.19.305-.297.195.19a.268.268 0 0 0 .367-.005.252.252 0 0 0 .004-.358l-.194-.19.706-.688 4.987-4.862 1.29 1.257-1.868 1.82-.307-.298z" fill="#FFF" fill-rule="nonzero"/></svg>