<svg width="60" height="60" xmlns="http://www.w3.org/2000/svg"><path d="M53.74 31.183c.389.385 1.02.385 1.408 0l.56-.554a.98.98 0 0 0 .258-.952l-2.621-9.687a.975.975 0 0 0-.288-.605l-3.783-3.746a.965.965 0 0 0-.296-.193c-.056-.092-.095-.192-.174-.27l-5.577-5.521c-.103-.102-.23-.16-.354-.223a1.335 1.335 0 0 0-.262-.386l-1.043-1.033a1.352 1.352 0 0 0-1.898-.022l-2.673 2.647-5.403-5.349a1.003 1.003 0 0 0-1.035-.233.988.988 0 0 0-.66.823c-.244 2.212 1.347 5.357 3.948 7.877l-1.424 1.41c-2.547-2.555-5.721-4.149-7.956-3.908a.995.995 0 0 0-.83.653.98.98 0 0 0 .233 1.024l5.403 5.349-8.978 8.888a1.32 1.32 0 0 0 .024 1.877l.595.59-17.4 17.226c-.643.636-.688 1.625-.102 2.207l5.576 5.52c.587.58 1.587.536 2.23-.1l17.22-17.048a2.574 2.574 0 0 0 2.914-.48c.726-.72.947-1.801.561-2.744l3.963-3.923 3.08 3.048c.155.155.359.252.578.277l9.817 2.604c.344.091.71-.006.962-.256l.56-.554a.979.979 0 0 0 0-1.394l-9.49-9.394 2.871-2.841 9.487 9.396zm-5.17-13.452l2.87 2.842 2.05 7.573-7.72-7.644 2.8-2.771zM22.177 28.099l9.211-9.12a.979.979 0 0 0 0-1.393l-3.449-3.415a13.847 13.847 0 0 1 2.95 2.258c.266.264.516.533.754.805.175.214.44.33.716.34.276.01.544-.093.74-.287l2.893-2.864a.98.98 0 0 0-.054-1.442 15.564 15.564 0 0 1-.813-.746c-1.001-.992-1.754-1.995-2.28-2.92l3.449 3.415c.388.384 1.02.384 1.408 0l2.906-2.878.147.145-18.431 18.247-.147-.145zm17.978 3.648l-3.576-3.54a1.003 1.003 0 0 0-1.407 0l-5.228 5.176a.979.979 0 0 0 0 1.393c.2.222.19.56-.022.77a.571.571 0 0 1-.778.024l-1.272-1.26 10.235-10.133 9.698 9.6-7.65-2.03zm-1.345-9.662a1.003 1.003 0 0 0-1.408 0L25.758 33.613a.979.979 0 0 0 0 1.394l1.163 1.152-16.868 16.699-4.888-4.84 8.877-8.787.737.73c.392.37 1.01.363 1.392-.016a.979.979 0 0 0 .016-1.377l-.738-.73 1.16-1.149.738.73c.391.37 1.009.363 1.391-.015a.979.979 0 0 0 .016-1.378l-.737-.73 1.158-1.147.738.73c.391.37 1.009.363 1.392-.016a.979.979 0 0 0 .016-1.377l-.738-.73 2.676-2.65 18.905-18.717 4.888 4.84-7.079 7.007-1.163-1.15z" fill="#FFF" fill-rule="nonzero"/></svg>