<svg width="24" height="24" xmlns="http://www.w3.org/2000/svg"><path d="m7.958 15.328-2.475 2.475 1.415 1.414 4.95-4.95-.354-.353a.5.5 0 0 1 0-.707l4.242-4.243a.5.5 0 0 1 .708 0l.353.354 2.121-2.121-1.414-1.415-7.424 7.425.353.354a.5.5 0 1 1-.707.707l-.354-.354-.707.707.354.354a.5.5 0 1 1-.707.707l-.354-.354zm9.546-5.303 3.324 3.323a.5.5 0 0 1-.4.852l-3.11-.283a.5.5 0 0 1-.309-.144l-1.44-1.44-.86.859c.238.515.133 1.048-.317 1.499-.52.519-1.164.602-1.805.252L7.25 20.278a.5.5 0 0 1-.707 0l-2.121-2.121a.5.5 0 0 1 0-.707l5.303-5.304-.495-.495a.5.5 0 0 1 0-.707l2.408-2.407-2.475-2.475a.5.5 0 0 1 .28-.848c1.266-.19 2.126.209 3.671 1.846l.65-.65c-1.637-1.545-2.036-2.405-1.846-3.671a.5.5 0 0 1 .848-.28l2.474 2.475 1.061-1.06a.5.5 0 0 1 .707 0l.843.842.006.006 2.121 2.121L22.1 8.964a.5.5 0 0 1 .147.354v2.828a.5.5 0 0 1-.854.354l-3.182-3.182-.707.707zm1.414-1.414 2.329 2.328V9.525l-1.621-1.621-.708.707zm-8.485 2.828 6.364-6.364-.141-.141-1.061 1.06a.5.5 0 0 1-.707 0L13.224 4.33c.291.445.792.966 1.598 1.695a.5.5 0 0 1 .018.725l-1.386 1.385a.5.5 0 0 1-.724-.018c-.73-.805-1.25-1.306-1.695-1.598l1.664 1.664a.5.5 0 0 1 0 .707l-2.407 2.408.141.141zm5.657-1.414-3.536 3.536.497.496c.264.152.433.128.634-.073.195-.196.199-.31.004-.546a.5.5 0 0 1 .032-.672l1.494-1.494a.5.5 0 0 1 .707 0l1.666 1.666 1.556.141-3.054-3.054z" fill="#979797"/></svg>