<svg class="icon" viewBox="0 0 1024 1024" xmlns="http://www.w3.org/2000/svg" width="200" height="200"><defs><style/></defs><path d="M512 0C226.743 0 0 226.743 0 512s226.743 512 512 512 512-226.743 512-512S797.257 0 512 0zm0 950.857C270.629 950.857 73.143 753.371 73.143 512S270.629 73.143 512 73.143 950.857 270.629 950.857 512 753.371 950.857 512 950.857z"/><path d="M512 212.114c-51.2 0-95.086 14.629-124.343 51.2-21.943 29.257-36.571 65.829-43.886 117.029v58.514c0 21.943 21.943 36.572 43.886 29.257 21.943 0 36.572-21.943 29.257-43.885v-43.886c0-21.943 7.315-51.2 29.257-73.143 14.629-7.314 36.572-21.943 65.829-21.943 43.886 0 73.143 14.629 87.771 36.572 14.629 29.257 14.629 58.514 7.315 80.457-7.315 14.628-29.257 36.571-51.2 58.514-36.572 36.571-80.457 73.143-80.457 124.343v73.143c0 21.943 14.628 36.571 36.571 36.571s36.571-14.628 36.571-36.571v-73.143s0-7.314 14.629-21.943c14.629-21.943 29.257-36.571 43.886-51.2 29.257-21.943 58.514-51.2 65.828-73.143 7.315-21.943 14.629-51.2 14.629-73.143 0-29.257-7.314-51.2-21.943-73.143-36.571-51.2-87.771-80.457-153.6-80.457zM468.114 760.686a43.886 43.886 0 1087.772 0 43.886 43.886 0 10-87.772 0z"/></svg>