<svg width="24" height="24" xmlns="http://www.w3.org/2000/svg"><path d="M20 3.5A1.5 1.5 0 0 1 21.5 5v14a1.5 1.5 0 0 1-1.5 1.5H4A1.5 1.5 0 0 1 2.5 19V5A1.5 1.5 0 0 1 4 3.5zM7.116 14.92L3.5 18.429V19a.5.5 0 0 0 .41.492L4 19.5h7.688l-4.572-4.58zm8.898-3.199l-5.131 5.557 2.218 2.222H20a.5.5 0 0 0 .492-.41L20.5 19v-2.793l-4.486-4.486zM20 4.5H4a.5.5 0 0 0-.5.5v12.035l3.275-3.175a.5.5 0 0 1 .633-.052l.069.057 2.699 2.705 5.457-5.91a.5.5 0 0 1 .65-.073l.07.06 4.147 4.146V5a.5.5 0 0 0-.41-.492L20 4.5zm-3.5 1a2 2 0 1 1 0 4 2 2 0 0 1 0-4zm0 1a1 1 0 1 0 0 2 1 1 0 0 0 0-2z" fill="#979797"/></svg>