<svg width="24" height="24" xmlns="http://www.w3.org/2000/svg"><path d="M12 4.659l-6.675 5.72A.5.5 0 015 10.5H3a.5.5 0 110-1h1.815l6.86-5.88a.5.5 0 01.65 0l6.86 5.88H21a.5.5 0 110 1h-2a.5.5 0 01-.325-.12L12 4.659zm5.5 7.395a.5.5 0 011 0v2.03a.5.5 0 11-1 0v-2.03zM6.5 19.5h6.513a.5.5 0 110 1H6a.5.5 0 01-.5-.5v-4.576a.5.5 0 111 0V19.5zm4.828-7.5a.5.5 0 01-.5.5H5.5v1h5.328a.5.5 0 01.5.5v.45l1.622-1.622-1.622-1.62V12zm-1-2a.5.5 0 01.854-.354l2.828 2.829a.5.5 0 010 .707l-2.828 2.828a.5.5 0 01-.854-.353V14.5H5a.5.5 0 01-.5-.5v-2a.5.5 0 01.5-.5h5.328V10zm8.028 10.31a3 3 0 11.705-.704l.03.028 1.414 1.414a.5.5 0 11-.707.707l-1.414-1.414a.507.507 0 01-.028-.03zm-.326-1.03a2 2 0 10-2.828-2.828 2 2 0 002.828 2.828z" fill="#979797"/></svg>