<svg width="16" height="16" xmlns="http://www.w3.org/2000/svg"><g fill="#8F95A2" fill-rule="nonzero"><path d="M7.808 6.4c0-.285.346-.428.549-.226l2.142 2.133a.319.319 0 0 1 0 .453l-2.142 2.133a.322.322 0 0 1-.55-.226V9.588c-.785.02-2.685.015-5.739-.015a.32.32 0 0 1-.318-.32V7.701a.32.32 0 0 1 .327-.32c3.096.053 5.064.062 5.73.032V6.4zm.643.773V7.7a.32.32 0 0 1-.238.31c-.285.075-2.135.077-5.82.016v.91c3.453.032 5.378.031 5.703-.002a.32.32 0 0 1 .355.318v.641l1.367-1.36L8.45 7.172z"/><path d="M7.35 2.846L2.625 6.642a.4.4 0 0 1-.25.088l-.792-.002a.403.403 0 0 1-.402-.402c0-.221.179-.4.4-.4l.65.002 4.868-3.91a.4.4 0 0 1 .502.002l4.992 4.02.652.001c.222 0 .402.18.402.402 0 .221-.178.4-.4.4l-.793-.002a.403.403 0 0 1-.252-.089l-4.85-3.906zM3.416 12.46h6.876a.4.4 0 1 1 0 .8H3.014a.4.4 0 0 1-.402-.4v-1.783a.4.4 0 0 1 .804 0v1.384zm8.862-1.535a.4.4 0 0 1-.804 0V8.944a.4.4 0 0 1 .804 0v1.98z"/><path d="M12.121 14.499a2.004 2.004 0 0 1-2.009-2c0-1.105.9-2 2.01-2 1.109 0 2.008.895 2.008 2 0 1.104-.9 2-2.009 2zm0-.8c.666 0 1.206-.538 1.206-1.2 0-.663-.54-1.2-1.206-1.2-.665 0-1.205.537-1.205 1.2 0 .662.54 1.2 1.205 1.2z"/><path d="M12.955 14.066a.399.399 0 0 1 .018-.565.403.403 0 0 1 .568.018l1.45 1.536a.399.399 0 0 1-.018.565.403.403 0 0 1-.568-.018l-1.45-1.536z"/></g></svg>