<svg width="16" height="16" xmlns="http://www.w3.org/2000/svg"><path d="M13.116 14.237a2.01 2.01 0 0 1-2.853-.976H3.014a.4.4 0 0 1-.402-.4v-1.784a.4.4 0 0 1 .804 0v1.384h6.697a2.002 2.002 0 0 1 1.361-1.856V8.944a.4.4 0 0 1 .804 0v1.56A2.004 2.004 0 0 1 14.13 12.5c0 .455-.152.874-.41 1.21l1.27 1.346a.399.399 0 0 1-.017.565.403.403 0 0 1-.568-.018l-1.289-1.365zM7.808 6.4c0-.285.346-.428.549-.226l2.142 2.133a.319.319 0 0 1 0 .453l-2.142 2.133a.322.322 0 0 1-.55-.226V9.588c-.785.02-2.685.015-5.739-.015a.32.32 0 0 1-.318-.32V7.701a.32.32 0 0 1 .327-.32c3.096.053 5.064.062 5.73.032V6.4zm.643.773V7.7a.32.32 0 0 1-.238.31c-.285.075-2.135.077-5.82.016v.91c3.453.032 5.378.031 5.703-.002a.32.32 0 0 1 .355.318v.641l1.367-1.36L8.45 7.172zm-1.1-4.327L2.624 6.642a.4.4 0 0 1-.25.088l-.792-.002a.403.403 0 0 1-.402-.402c0-.221.179-.4.4-.4l.65.002 4.868-3.91a.4.4 0 0 1 .502.002l4.992 4.02.652.001c.222 0 .402.18.402.402 0 .221-.178.4-.4.4l-.793-.002a.403.403 0 0 1-.252-.089l-4.85-3.906zM12.12 13.7c.666 0 1.206-.538 1.206-1.2 0-.663-.54-1.2-1.206-1.2-.665 0-1.205.537-1.205 1.2 0 .662.54 1.2 1.205 1.2z" fill="#FFF" fill-rule="nonzero"/></svg>