<svg width="24" height="24" xmlns="http://www.w3.org/2000/svg"><path d="m20.121 19.706.6.837a.5.5 0 1 1-.812.583l-.386-.538c-.53.565-1.237.912-2.023.912-1.68 0-3-1.585-3-3.5s1.32-3.5 3-3.5 3 1.585 3 3.5c0 .617-.137 1.2-.379 1.706zm-.706-.985c.055-.227.085-.47.085-.721 0-1.399-.918-2.5-2-2.5-1.082 0-2 1.101-2 2.5s.918 2.5 2 2.5c.55 0 1.058-.284 1.424-.748l-.33-.46a.5.5 0 1 1 .812-.583l.01.012zM14.128 20.5a.5.5 0 0 1 0 1H5.077c-.863 0-1.577-.663-1.577-1.5V5c0-.837.714-1.5 1.577-1.5h11.846c.863 0 1.577.663 1.577 1.5v8.607a.5.5 0 0 1-1 0V5c0-.268-.25-.5-.577-.5H5.077c-.327 0-.577.232-.577.5v15c0 .268.25.5.577.5h9.051zM6.5 7h9a.5.5 0 1 1 0 1h-9a.5.5 0 0 1 0-1zm0 3h9a.5.5 0 1 1 0 1h-9a.5.5 0 1 1 0-1zm0 3h9a.5.5 0 1 1 0 1h-9a.5.5 0 1 1 0-1zm0 3H13a.5.5 0 1 1 0 1H6.5a.5.5 0 1 1 0-1z" fill="#979797"/></svg>