<svg width="15" height="15" xmlns="http://www.w3.org/2000/svg"><path d="M8.62 14H1.261C.554 14 0 13.21 0 12.202V1.798C0 .79.554 0 1.261 0h9.296c.707 0 1.261.79 1.261 1.798V6.22c0 .21-.155.381-.347.381-.192 0-.347-.17-.347-.381V1.798c0-.61-.299-1.034-.567-1.034H1.261c-.268 0-.567.424-.567 1.034v10.404c0 .61.299 1.034.567 1.034h7.36c.19 0 .346.171.346.382S8.812 14 8.62 14zM5.874 5.075h3.122c.226 0 .449.023.458.369.01.346-.206.393-.436.393-2.066.002-4.132.003-6.199-.002-.215 0-.447-.01-.453-.372-.006-.401.245-.387.477-.387 1.01-.004 2.02-.002 3.03-.001zm.003-1.892v.002c1.04 0 2.081-.002 3.122.002.227 0 .445.055.45.391.003.347-.214.38-.445.38H7.03c-1.392 0-2.785-.002-4.177.001-.29 0-.544-.039-.478-.483.046-.311.28-.289.473-.29 1.01-.007 2.02-.003 3.03-.003zm.714 6.711c-.35 0-2.315-.01-2.665-.01H2.784c-.235 0-.427-.054-.42-.402.006-.316.184-.374.4-.374.745-.003 3.106.006 3.852.01.219 0 .402.079.407.377.005.333-.196.399-.432.4zm-3.812.792c.366-.002.732 0 1.099 0 .382 0 2.339.042 2.72.042.205 0 .37.064.38.342.01.294-.152.416-.376.418-.763.01-3.102-.031-3.865-.038-.221-.003-.382-.101-.372-.411.012-.327.203-.351.414-.353zm-.064-3.081h1.187c.381 0 2.382.006 2.763.003.212-.001.36.08.355.357-.004.243-.135.34-.329.34-.792 0-3.204-.003-3.995-.005-.19 0-.32-.081-.328-.335-.008-.287.136-.36.347-.36zm10.35 5.243c.252-.252.438-.56.558-.923a3.704 3.704 0 0 0 .054-2.097 2.603 2.603 0 0 0-.396-.85 2.025 2.025 0 0 0-.693-.607c-.282-.154-.618-.23-1.008-.23s-.726.076-1.008.23a2.025 2.025 0 0 0-.693.607c-.18.252-.312.535-.396.85a3.704 3.704 0 0 0 0 1.918c.084.315.216.598.396.85.18.252.411.454.693.607.282.154.618.23 1.008.23.306 0 .603-.06.891-.18-.471-.318-.632-.596-.48-.834.15-.24.509-.096 1.074.429zm.054.918c-.432.252-.945.378-1.539.378-.51 0-.957-.091-1.341-.274a2.785 2.785 0 0 1-.963-.743 3.186 3.186 0 0 1-.58-1.075 4.141 4.141 0 0 1-.194-1.265c0-.438.064-.86.193-1.264.13-.406.323-.764.581-1.076.258-.312.579-.561.963-.747.384-.186.831-.279 1.341-.279s.957.093 1.341.279c.384.186.705.435.963.747s.451.67.58 1.076c.13.405.194.826.194 1.264 0 .492-.081.96-.243 1.404a3.119 3.119 0 0 1-.729 1.152c.581.45.786.768.615.955-.172.187-.566.01-1.182-.532z" fill="#FFF" fill-rule="nonzero"/></svg>