<svg width="24" height="24" xmlns="http://www.w3.org/2000/svg"><path d="M15.074 10.76h-.814a.5.5 0 110-1h2a.5.5 0 01.5.5v2a.5.5 0 11-1 0v-.772l-3.944 3.766a.5.5 0 01-.7-.01L9.58 13.698 7.31 15.82a.5.5 0 01-.683-.73l2.625-2.455a.5.5 0 01.696.013l1.532 1.544 3.594-3.432zm-.076-7.26H6a.5.5 0 00-.5.5v16a.5.5 0 00.5.5h12a.5.5 0 00.5-.5V7.01h-3.002a.5.5 0 01-.5-.5V3.5zm2.806 2.51l-1.806-1.805V6.01h1.806zM6 2.5h9.5a.5.5 0 01.354.146l3.5 3.5a.5.5 0 01.146.354V20a1.5 1.5 0 01-1.5 1.5H6A1.5 1.5 0 014.5 20V4A1.5 1.5 0 016 2.5z" fill="#979797"/></svg>