<svg class="icon" viewBox="0 0 1031 1024" xmlns="http://www.w3.org/2000/svg" width="201.367" height="200"><path d="M748.028 188.823v639.092c0 65.362-50.837 116.198-116.198 116.198H188.823c-65.362 0-116.199-50.836-116.199-116.198V188.823c0-65.362 50.837-116.199 116.199-116.199H631.83c58.1-7.262 116.198 50.837 116.198 116.199zm0 813.39v14.525h137.986c72.624 0 137.986-58.1 137.986-137.986V341.333c0-72.624-58.1-137.985-137.986-137.985h-65.362v-65.362C820.652 65.362 762.553 0 682.667 0H137.986C58.099 0 0 58.1 0 137.986v748.028C0 958.638 58.1 1024 137.986 1024h544.68l65.362-21.787zm203.348-174.298c0 65.362-50.837 116.198-116.199 116.198h-36.312c14.525-21.787 14.525-43.574 14.525-65.361V268.709h14.525c65.362 0 116.198 50.837 116.198 116.199v443.007h7.263zM203.348 726.24c0 21.787 14.524 14.525 36.312 14.525h341.333c21.787 0 36.312 0 36.312-14.525 0-21.787-14.525-50.837-36.312-50.837H239.66c-21.788 0-36.312 36.312-36.312 50.837zm0-203.347c0 21.787 14.524 14.524 36.312 14.524h341.333c21.787 0 36.312 0 36.312-14.524 0-21.788-14.525-50.837-36.312-50.837H239.66c-21.788 0-36.312 36.312-36.312 50.837zm0-203.348c0 21.787 14.524 14.525 36.312 14.525h341.333c21.787 0 36.312 0 36.312-14.525 0-21.787-14.525-50.837-36.312-50.837H239.66c-21.788 0-36.312 36.312-36.312 50.837z"/></svg>