<svg width="16" height="16" xmlns="http://www.w3.org/2000/svg"><g fill="#8F95A2" fill-rule="nonzero"><path d="M12.795 7.153l-.001-.008c0-.003 0-.005-.002-.008l-.001-.01-.001-.006a.031.031 0 0 0-.003-.01v-.006l-.004-.01-.001-.006-.004-.01c0-.002 0-.004-.002-.005l-.004-.01-.003-.006-.003-.008-.005-.008-.004-.007-.003-.009-.004-.006-.005-.008-.004-.005-.007-.01-.003-.004-.008-.01-.004-.004-.008-.008a.02.02 0 0 0-.005-.005l-.008-.008a.03.03 0 0 1-.006-.006l-.007-.006-.028-.024-.008-.005a.033.033 0 0 0-.007-.005l-.01-.006-.006-.004-.01-.007c-.002 0-.004-.002-.005-.003l-.012-.006-.005-.003-.012-.006-.006-.003-.01-.004-.008-.003-.01-.003-.01-.003-.008-.003-.01-.004c-.003 0-.006 0-.009-.002L12.5 6.85l-.006-.002-.013-.003-.007-.001a.056.056 0 0 0-.013-.002l-.006-.001c-.004-.001-.01-.001-.013-.003h-.008l-.011-.001c-.004 0-.007 0-.01-.002H9.845c-.228 0-.412.15-.412.335 0 .186.184.336.412.336h1.542l-.033.028L9.06 9.402l.003.003-.524.427-1.645-1.34a.467.467 0 0 0-.295-.1.467.467 0 0 0-.295.1l-2.98 2.428c-.161.134-.161.342 0 .476a.46.46 0 0 0 .292.098.46.46 0 0 0 .291-.098L6.601 9.2l1.644 1.34a.46.46 0 0 0 .296.099.46.46 0 0 0 .296-.099l1.93-1.574a.294.294 0 0 0 .022-.018l1.16-.946.017-.013v1.256c0 .186.184.336.412.336.228 0 .412-.15.412-.336V7.224l.001-.005.002-.006.001-.01.001-.008c0-.003 0-.006.002-.008-.002-.012-.002-.024-.002-.034z"/><path d="M13.888 5.045L9.778 1H3.332C2.596 1 2 1.545 2 2.218v11.565C2 14.455 2.596 15 3.332 15h9.322c.736 0 1.331-.545 1.331-1.219V5.134l-.097-.089zM9.99 2.114l2.915 2.842h-2.248c-.368 0-.667-.273-.667-.609V2.114zm3.33 11.667c0 .337-.297.609-.666.609H3.332c-.368 0-.666-.273-.666-.609V2.218c0-.336.298-.61.666-.61h5.993v2.74c0 .673.596 1.218 1.332 1.218h2.663v8.215z"/></g></svg>