<svg width="16" height="16" xmlns="http://www.w3.org/2000/svg"><path d="M13.888 5.045l.097.089v8.647c0 .674-.595 1.219-1.33 1.219H3.331C2.596 15 2 14.455 2 13.783V2.218C2 1.545 2.596 1 3.332 1h6.446l4.11 4.045zM9.99 2.114v2.233c0 .336.299.609.667.609h2.248L9.99 2.114zm2.805 5.039c0 .01 0 .022.002.034-.002.002-.002.005-.002.008v.008l-.002.01-.002.006v2.027c0 .186-.185.336-.413.336-.228 0-.412-.15-.412-.336V7.99l-.017.013-1.16.946a.294.294 0 0 1-.021.018L8.837 10.54a.46.46 0 0 1-.296.099.46.46 0 0 1-.296-.099L6.6 9.201l-2.693 2.195a.46.46 0 0 1-.291.098.46.46 0 0 1-.292-.098c-.161-.134-.161-.342 0-.476l2.98-2.429a.467.467 0 0 1 .295-.099c.112 0 .218.036.295.1l1.645 1.34.524-.427-.003-.003 2.293-1.87.033-.027H9.845c-.228 0-.412-.15-.412-.336 0-.185.184-.336.412-.336h2.558l.01.001a.031.031 0 0 0 .01.002h.011l.008.001c.004.002.009.002.013.003h.006c.005 0 .01.002.013.003h.007l.013.004.006.002.011.003.009.002.01.004.008.003.01.003.01.003.008.003.01.004.006.003.012.006.005.003.012.006.005.003.01.007c.003 0 .004.003.006.004l.01.006a.033.033 0 0 1 .007.005l.008.005c.01.008.02.015.028.024l.007.006a.03.03 0 0 0 .006.006l.008.008a.02.02 0 0 1 .005.005l.008.008.004.005.008.009.003.004.007.01.004.005c0 .002.004.005.005.008l.004.006.003.009.004.007.005.008c0 .003.002.005.003.008l.003.007.004.009.002.005.004.01.001.006c.002.003.002.007.003.01l.001.005a.031.031 0 0 1 .003.011l.001.007.001.009c.002.003.002.005.002.008v.008zm.526 6.628l-.001-8.215h-2.663c-.736 0-1.332-.545-1.332-1.217v-2.74H3.332c-.368 0-.666.273-.666.61V13.78c0 .336.298.609.666.609h9.322c.369 0 .667-.272.667-.609z" fill="#FFF"/></svg>