<svg width="60" height="60" xmlns="http://www.w3.org/2000/svg"><g fill="#FFF"><path d="M30 6a5.35 5.35 0 0 0-2.416.572L7.484 16.62A2.688 2.688 0 0 0 6 19.02v31.656c0 1.484 1.2 2.684 2.684 2.684h42.632c1.484 0 2.684-1.2 2.684-2.684V19.02a2.688 2.688 0 0 0-1.484-2.4l-20.1-10.048A5.35 5.35 0 0 0 30 6m0 2.8c.404 0 .804.096 1.164.276L51.2 19.02v24.464l.116 7.076h-7.064L8.8 50.676l-.064-31.552 20.1-10.048c.36-.18.76-.276 1.164-.276"/><path d="M18.794 35.776c-2.647 0-4.794-2.189-4.794-4.888 0-2.7 2.147-4.888 4.794-4.888 2.648 0 4.795 2.188 4.795 4.888 0 2.7-2.147 4.888-4.795 4.888zm0-7.332c-1.321 0-2.397 1.096-2.397 2.444 0 1.347 1.076 2.444 2.397 2.444 1.322 0 2.398-1.097 2.398-2.444 0-1.348-1.076-2.444-2.398-2.444zm0 19.332c-2.647 0-4.794-2.189-4.794-4.888 0-2.7 2.147-4.888 4.794-4.888 2.648 0 4.795 2.188 4.795 4.888 0 2.7-2.147 4.888-4.795 4.888zm0-7.332c-1.321 0-2.397 1.096-2.397 2.444 0 1.347 1.076 2.444 2.397 2.444 1.322 0 2.398-1.097 2.398-2.444 0-1.348-1.076-2.444-2.398-2.444zm12 7.332c-2.647 0-4.794-2.189-4.794-4.888 0-2.7 2.147-4.888 4.794-4.888 2.648 0 4.795 2.188 4.795 4.888 0 2.7-2.147 4.888-4.795 4.888zm0-7.332c-1.321 0-2.397 1.096-2.397 2.444 0 1.347 1.076 2.444 2.397 2.444 1.322 0 2.398-1.097 2.398-2.444 0-1.348-1.076-2.444-2.398-2.444z"/></g></svg>