<svg width="16" height="16" xmlns="http://www.w3.org/2000/svg"><g fill="#8F95A2" fill-rule="evenodd"><path d="M8 1a1.56 1.56 0 0 0-.705.167l-5.862 2.93a.784.784 0 0 0-.433.7v9.234c0 .433.35.783.783.783H14.217c.433 0 .783-.35.783-.783V4.798a.784.784 0 0 0-.433-.7l-5.862-2.93A1.56 1.56 0 0 0 8 1m0 .817c.118 0 .235.028.34.08l5.843 2.9v7.136l.034 2.064h-2.06l-10.34.034-.019-9.203 5.862-2.93A.761.761 0 0 1 8 1.816"/><path d="M4.732 9.685c-.773 0-1.399-.639-1.399-1.426 0-.787.626-1.426 1.399-1.426.772 0 1.398.639 1.398 1.426 0 .787-.626 1.426-1.398 1.426zm0-2.139c-.386 0-.7.32-.7.713 0 .393.314.713.7.713.385 0 .699-.32.699-.713a.707.707 0 0 0-.7-.713zM4.732 13.185c-.773 0-1.399-.639-1.399-1.426 0-.787.626-1.426 1.399-1.426.772 0 1.398.639 1.398 1.426 0 .787-.626 1.426-1.398 1.426zm0-2.139c-.386 0-.7.32-.7.713 0 .393.314.713.7.713.385 0 .699-.32.699-.713a.707.707 0 0 0-.7-.713zM8.232 13.185c-.773 0-1.399-.639-1.399-1.426 0-.787.626-1.426 1.399-1.426.772 0 1.398.639 1.398 1.426 0 .787-.626 1.426-1.398 1.426zm0-2.139c-.386 0-.7.32-.7.713 0 .393.314.713.7.713.385 0 .699-.32.699-.713a.707.707 0 0 0-.7-.713z"/></g></svg>