<svg width="16" height="16" xmlns="http://www.w3.org/2000/svg"><path d="M6.5 12H14a.5.5 0 0 0 .5-.5v-9A.5.5 0 0 0 14 2H2a.5.5 0 0 0-.5.5v9a.5.5 0 0 0 .5.5h4.5zm3 1v1H12a.5.5 0 1 1 0 1H4a.5.5 0 1 1 0-1h2.5v-1H2a1.5 1.5 0 0 1-1.5-1.5v-9A1.5 1.5 0 0 1 2 1h12a1.5 1.5 0 0 1 1.5 1.5v9A1.5 1.5 0 0 1 14 13H9.5zm-1 0h-1v1h1v-1zM3 5.5a.5.5 0 0 1 0-1h2a.5.5 0 0 1 0 1H3zm0 2a.5.5 0 0 1 0-1h2a.5.5 0 0 1 0 1H3zm0 2a.5.5 0 0 1 0-1h2a.5.5 0 0 1 0 1H3zm4-4a.5.5 0 0 1 0-1h2a.5.5 0 0 1 0 1H7zm0 2a.5.5 0 0 1 0-1h2a.5.5 0 0 1 0 1H7zm0 2a.5.5 0 0 1 0-1h2a.5.5 0 0 1 0 1H7zm4-4a.5.5 0 1 1 0-1h2a.5.5 0 1 1 0 1h-2zm0 2a.5.5 0 1 1 0-1h2a.5.5 0 1 1 0 1h-2zm0 2a.5.5 0 1 1 0-1h2a.5.5 0 1 1 0 1h-2z" fill="#979797" fill-rule="nonzero"/></svg>