<svg width="24" height="24" xmlns="http://www.w3.org/2000/svg"><path d="M10 19h3v-2.5h-3V19zm-1 0v-2.5H4A1.5 1.5 0 012.5 15V6A1.5 1.5 0 014 4.5h15A1.5 1.5 0 0120.5 6v9a1.5 1.5 0 01-1.5 1.5h-5V19h1.5a.5.5 0 110 1h-8a.5.5 0 110-1H9zM4 5.5a.5.5 0 00-.5.5v9a.5.5 0 00.5.5h15a.5.5 0 00.5-.5V6a.5.5 0 00-.5-.5H4zM6.5 7h2a.5.5 0 010 1h-2a.5.5 0 010-1zm0 3h2a.5.5 0 110 1h-2a.5.5 0 110-1zm0 3h2a.5.5 0 110 1h-2a.5.5 0 110-1zm4-6h2a.5.5 0 110 1h-2a.5.5 0 110-1zm0 3h2a.5.5 0 110 1h-2a.5.5 0 110-1zm0 3h2a.5.5 0 110 1h-2a.5.5 0 110-1zm4-6h2a.5.5 0 110 1h-2a.5.5 0 110-1zm0 3h2a.5.5 0 110 1h-2a.5.5 0 110-1zm0 3h2a.5.5 0 110 1h-2a.5.5 0 110-1z" fill="#979797"/></svg>