<svg class="icon" viewBox="0 0 1030 1024" xmlns="http://www.w3.org/2000/svg" width="201.172" height="200"><path d="M1016.686 226.743 870.4 80.457c-14.629-14.628-36.571-14.628-51.2 0l-256 263.314c-65.829-51.2-138.971-80.457-219.429-80.457C153.6 263.314 0 416.914 0 607.086s153.6 343.771 343.771 343.771 343.772-153.6 343.772-343.771c0-80.457-29.257-153.6-80.457-219.429l95.085-95.086 95.086 95.086c14.629 14.629 36.572 14.629 51.2 0 14.629-14.628 14.629-36.571 0-51.2l-95.086-95.086 95.086-95.085L972.8 270.629c14.629 14.628 36.571 14.628 51.2 0s0-29.258-7.314-43.886zM343.77 885.029c-153.6 0-270.628-124.343-270.628-270.629 0-153.6 124.343-270.629 270.628-270.629S614.4 468.114 614.4 614.4 497.371 885.029 343.771 885.029z"/></svg>