<svg width="230" height="142" xmlns="http://www.w3.org/2000/svg"><path d="M215 0c8.284 0 15 6.716 15 15v112c0 8.284-6.716 15-15 15H15c-8.284 0-15-6.716-15-15V15C0 6.716 6.716 0 15 0zm0 10H15a5 5 0 0 0-5 5v112a5 5 0 0 0 5 5h200a5 5 0 0 0 5-5V15a5 5 0 0 0-5-5zM41.01 95c1.35 0 2.01.66 2.01 2.007v11.986c0 1.318-.66 2.007-2.01 2.007h-12c-1.32 0-2.01-.66-2.01-2.007V97.007C27 95.69 27.66 95 29.01 95h12zm128.002 0c1.35 0 2.04.66 2.04 2.007v11.986c0 1.318-.66 2.007-2.01 2.007H61.018c-1.32 0-2.01-.66-2.01-2.007V97.007c0-1.318.66-2.007 2.01-2.007h107.994zm31.978 0c1.38 0 2.01.66 2.01 2.007v11.986c0 1.318-.66 2.007-2.01 2.007h-12c-1.32 0-2.01-.66-2.01-2.007V97.007c0-1.318.66-2.007 2.01-2.007h12zM57.028 63c1.32 0 2.01.72 2.01 2.007v11.986c0 1.318-.66 2.007-2.01 2.007H29.04c-1.32 0-2.01-.66-2.01-2.007V65.007c0-1.318.66-2.007 2.01-2.007h27.988zm31.978 0c1.38 0 2.01.72 2.01 2.007v11.986c0 1.318-.66 2.007-2.01 2.007H77.007c-1.32 0-2.01-.66-2.01-2.007V65.007c0-1.318.66-2.007 2.01-2.007h12zm32.009 0c1.35 0 2.01.72 2.01 2.007v11.986c0 1.318-.66 2.007-2.01 2.007h-12c-1.32 0-2.01-.66-2.01-2.007V65.007c0-1.318.66-2.007 2.01-2.007h12zm32.008 0c1.35 0 2.01.72 2.01 2.007v11.986c0 1.318-.66 2.007-2.01 2.007h-12c-1.32 0-2.01-.66-2.01-2.007V65.007c0-1.318.66-2.007 2.01-2.007h12zm47.997-32c1.35.06 1.98.75 1.98 2.037v43.956c0 1.318-.66 2.007-2.01 2.007h-27.988c-1.32 0-2.01-.66-2.01-2.007V65.007c0-1.318.66-2.007 2.01-2.007h14.009V33.007c0-1.318.66-2.007 2.01-2.007h12zm-160.01.03c1.35.03 2.01.72 2.01 2.007v11.985c0 1.319-.66 2.008-2.01 2.008h-12c-1.32 0-2.01-.66-2.01-2.008V33.037c0-1.318.66-2.007 2.01-2.007h12zm32.037 0c1.29.03 2.01.72 2.01 2.007v11.985c0 1.319-.66 2.008-2.01 2.008H61.048c-1.32 0-2.01-.66-2.01-2.008V33.037c0-1.318.66-2.007 2.01-2.007h12zm31.979 0c1.32.03 2.01.72 2.01 2.007v11.985c0 1.319-.66 2.008-2.01 2.008h-12c-1.32 0-2.01-.66-2.01-2.008V33.037c0-1.318.66-2.007 2.01-2.007h12zm32.008 0c1.35.03 2.01.72 2.01 2.007v11.985c0 1.319-.66 2.008-2.01 2.008h-12c-1.32 0-2.01-.66-2.01-2.008V33.037c0-1.318.66-2.007 2.01-2.007h12zm32.008 0c1.32.03 2.01.72 2.01 2.007v11.985c0 1.319-.66 2.008-2.01 2.008h-12c-1.32 0-2.01-.66-2.01-2.008V33.037c0-1.318.66-2.007 2.01-2.007h12z" fill="#324A59" fill-rule="nonzero"/></svg>