<svg class="icon" width="200" height="200" viewBox="0 0 1024 1024" xmlns="http://www.w3.org/2000/svg"><path d="M559.852 921.6c-17.87 0-35.021-7.014-47.668-19.456L111.8 486.4c-12.185-12.646-23.296-27.392 40.756-290.509a80.794 80.794 0 0 1 64.614-61.03c263.22-44.237 275.405-34.202 287.59-21.607l399.872 415.744a75.469 75.469 0 0 1-10.086 105.268L619.14 897.434a87.142 87.142 0 0 1-59.29 24.166zM156.293 454.298l394.547 410.47a14.336 14.336 0 0 0 9.012 3.174 33.997 33.997 0 0 0 22.22-10.035L856.914 594.79c11.11-10.547 13.824-24.73 8.5-30.515l-395.06-408.934c-81.971 4.3-163.43 15.206-243.61 32.665a26.931 26.931 0 0 0-21.76 20.48 1578.445 1578.445 0 0 0-48.69 245.76z" fill="#979797"/><path d="M379.218 451.635a92.16 92.16 0 0 1-85.146-56.627 91.136 91.136 0 0 1 20.224-99.84 92.57 92.57 0 0 1 100.557-19.558c34.458 14.336 56.73 47.923 56.525 84.992a91.853 91.853 0 0 1-92.16 91.033zm0-128.41a37.478 37.478 0 0 0-37.58 37.377c0 20.633 16.844 37.376 37.58 37.376a37.478 37.478 0 0 0 37.632-37.376 37.478 37.478 0 0 0-37.632-37.376z" fill="#979797"/></svg>