<svg width="24" height="24" xmlns="http://www.w3.org/2000/svg"><path d="M16.985 8.5a.5.5 0 0 1 .5.528c-.128 2.189-1.051 4.139-2.448 5.314l-.106.085.087.027c3.146.98 5.366 3.44 5.478 6.317L20.5 21c0 .184-.009.366-.026.548a.5.5 0 0 1-.497.453H4.023a.5.5 0 0 1-.497-.453 5.861 5.861 0 0 1-.026-.548c0-2.974 2.253-5.54 5.482-6.546l.086-.027-.105-.084c-1.336-1.124-2.239-2.957-2.426-5.03l-.022-.284a.5.5 0 0 1 .5-.529zm-.548 1H7.563c.275 2.175 1.439 3.977 2.996 4.682a.5.5 0 0 1-.122.949c-3.453.587-5.937 3.043-5.937 5.868l15 .001c0-2.754-2.358-5.156-5.673-5.82l-.264-.048a.5.5 0 0 1-.123-.948c1.558-.706 2.722-2.509 2.997-4.685zM12 1.936a.5.5 0 0 1 .5.5v.081c2.708.2 4.876 2.005 4.995 4.285L17.5 7h1.25l.09.008a.5.5 0 0 1-.09.992H5.25l-.09-.008A.5.5 0 0 1 5.25 7H6.5c0-2.373 2.214-4.277 5-4.482v-.081l.008-.09a.5.5 0 0 1 .492-.41zm-4.495 4.89L7.5 7l4-.001V3.521c-2.193.189-3.887 1.606-3.995 3.307zm4.996-3.306L12.5 7l4 .001c0-1.777-1.733-3.283-3.999-3.479z" fill="#979797" fill-rule="nonzero"/></svg>