<svg width="24" height="24" xmlns="http://www.w3.org/2000/svg"><path d="M17.5 3v6a.5.5 0 0 1-.724.447L15 8.56l-1.776.888A.5.5 0 0 1 12.5 9V3h-6a.5.5 0 0 0-.5.5v16a.5.5 0 0 0 .5.5h11a.5.5 0 0 0 .5-.5v-16a.5.5 0 0 0-.5-.5zm-1 0h-3v5.191l1.276-.638a.5.5 0 0 1 .448 0l1.276.638V3zm-10-1h11A1.5 1.5 0 0 1 19 3.5v16a1.5 1.5 0 0 1-1.5 1.5h-11A1.5 1.5 0 0 1 5 19.5v-16A1.5 1.5 0 0 1 6.5 2zm1 11h9a.5.5 0 1 1 0 1h-9a.5.5 0 1 1 0-1zm0-3h3a.5.5 0 1 1 0 1h-3a.5.5 0 1 1 0-1zm0 6h9a.5.5 0 1 1 0 1h-9a.5.5 0 1 1 0-1z" fill="#979797"/></svg>