<svg width="39" height="42" xmlns="http://www.w3.org/2000/svg"><path d="M15.212 5.461C15.212 2.445 17.61 0 20.568 0c2.958 0 5.356 2.445 5.356 5.461-.007 3.013-2.401 5.454-5.356 5.461-2.958 0-5.356-2.445-5.356-5.46zm-6.052 9.8c-2.704 0-4.896-2.235-4.896-4.992S6.456 5.277 9.16 5.277c2.704 0 4.896 2.235 4.896 4.992-.004 2.755-2.194 4.988-4.896 4.992zM4.32 26.55c-1.748 0-3.323-1.073-3.991-2.72a4.468 4.468 0 0 1 .938-4.8 4.26 4.26 0 0 1 4.71-.952c1.613.683 2.665 2.29 2.663 4.072-.006 2.43-1.937 4.397-4.32 4.4zM9.161 37.73c-2.022 0-3.66-1.671-3.66-3.733 0-2.061 1.638-3.732 3.66-3.732 2.022 0 3.66 1.671 3.66 3.732-.003 2.06-1.64 3.729-3.66 3.733zM20.568 42c-1.764 0-3.193-1.458-3.193-3.256 0-1.798 1.43-3.255 3.193-3.255 1.763 0 3.193 1.457 3.193 3.255 0 1.798-1.43 3.256-3.193 3.256zm11.575-5.503c-1.426 0-2.582-1.179-2.582-2.633s1.156-2.633 2.582-2.633 2.582 1.179 2.582 2.633c-.004 1.452-1.157 2.629-2.582 2.633zm4.738-12.172c-1.17 0-2.117-.968-2.116-2.16 0-1.192.948-2.159 2.118-2.158 1.17 0 2.117.966 2.117 2.159a2.18 2.18 0 0 1-.62 1.527 2.096 2.096 0 0 1-1.498.632zM30.495 10.43a1.673 1.673 0 0 1 1.323-1.653 1.642 1.642 0 0 1 1.847 1.002c.302.74.049 1.596-.605 2.042a1.624 1.624 0 0 1-2.082-.208 1.679 1.679 0 0 1-.483-1.183z" fill="#1C3F76" fill-rule="nonzero"/></svg>