<svg width="160" height="168" xmlns="http://www.w3.org/2000/svg"><path d="M84.374 43.714c-12.119 0-21.943-9.779-21.943-21.84 0-12.062 9.824-21.84 21.943-21.84 12.119 0 21.943 9.778 21.943 21.84-.028 12.05-9.836 21.812-21.943 21.84zM37.64 61.064c-11.077 0-20.057-8.938-20.057-19.963S26.563 21.14 37.64 21.14c11.077 0 20.056 8.937 20.056 19.962C57.68 52.12 48.71 61.048 37.64 61.064zM17.81 106.218c-7.16 0-13.614-4.294-16.352-10.878a17.555 17.555 0 0 1 3.844-19.198 17.759 17.759 0 0 1 19.292-3.808c6.613 2.732 10.92 9.16 10.914 16.286-.023 9.716-7.936 17.584-17.698 17.598zm19.833 44.7c-8.283 0-14.997-6.682-14.997-14.926s6.714-14.927 14.997-14.927 14.997 6.683 14.997 14.927c-.016 8.237-6.721 14.91-14.997 14.927zM84.374 168c-7.225 0-13.082-5.83-13.082-13.02 0-7.19 5.857-13.02 13.082-13.02 7.224 0 13.081 5.83 13.081 13.02 0 7.19-5.857 13.02-13.081 13.02zm47.422-22.008c-5.843 0-10.58-4.714-10.58-10.53 0-5.815 4.737-10.529 10.58-10.529 5.842 0 10.579 4.714 10.579 10.53-.017 5.808-4.743 10.513-10.58 10.529zm19.41-48.678c-4.79-.002-8.673-3.87-8.671-8.638.002-4.769 3.886-8.633 8.677-8.632 4.791 0 8.675 3.866 8.675 8.635a8.61 8.61 0 0 1-2.54 6.107 8.692 8.692 0 0 1-6.136 2.528h-.004zm-26.162-55.57a6.728 6.728 0 0 1 5.42-6.608 6.758 6.758 0 0 1 7.565 4.006 6.702 6.702 0 0 1-2.477 8.166 6.775 6.775 0 0 1-8.529-.83 6.633 6.633 0 0 1-1.979-4.734z" fill="#324A59" fill-rule="nonzero"/></svg>