<svg width="24" height="24" xmlns="http://www.w3.org/2000/svg"><path d="M18.5 20.5H3a.5.5 0 01-.5-.5V9a.5.5 0 01.235-.424l8-5a.5.5 0 01.53 0l8 5A.5.5 0 0119.5 9v4a.5.5 0 11-1 0V9.277L11 4.59 3.5 9.277V19.5h15c.25 0 .374.167.374.5 0 .5-.252.5-.374.5zm-1-6.5h3a.5.5 0 110 1h-3a.5.5 0 110-1zm0 2h3a.5.5 0 110 1h-3a.5.5 0 110-1zm0 2h3a.5.5 0 110 1h-3a.5.5 0 110-1zm-11-4.5a2 2 0 110-4 2 2 0 010 4zm0-1a1 1 0 100-2 1 1 0 000 2zm0 6a2 2 0 110-4 2 2 0 010 4zm0-1a1 1 0 100-2 1 1 0 000 2zm5 1a2 2 0 110-4 2 2 0 010 4zm0-1a1 1 0 100-2 1 1 0 000 2z" fill="#979797"/></svg>