<svg class="icon" width="200" height="200" viewBox="0 0 1024 1024" xmlns="http://www.w3.org/2000/svg"><path d="M519.236 249.754c62.908 0 114.757 48.844 122.641 112.093h74.104c-8.738-107.042-94.174-191.18-198.383-191.18-104.21 0-189.543 84.138-198.315 191.18h77.415c7.714-63.249 59.63-112.093 122.538-112.093zm182.648 158.651H322.048c-45.91 0-83.115 38.196-83.115 85.265v274.398c0 47.104 37.206 85.265 83.115 85.265h379.904c45.978 0 83.115-38.16 83.115-85.265v-274.33c0-47.103-37.274-85.333-83.183-85.333zm-154.556 229.82v61.952c0 20.958-16.589 37.888-36.932 37.888-20.412 0-36.898-16.998-36.898-37.888v-61.03a54.409 54.409 0 01-16.214-38.878c0-29.799 23.62-54.033 52.668-54.033s52.668 24.234 52.668 54.033a55.467 55.467 0 01-15.292 37.956z" fill="#ACD8F9"/></svg>