<svg class="icon" width="200" height="200" viewBox="0 0 1024 1024" xmlns="http://www.w3.org/2000/svg"><path d="M795.525 524.902H719.34a5.489 5.489 0 01-5.49-5.53v-62.709a18.186 18.186 0 00-36.33 0v62.71c0 23.101 18.718 41.82 41.779 41.86h76.226a18.186 18.186 0 000-36.33z" fill="#979797"/><path d="M704.512 365.568h-123.7v-73.032c0-30.064-24.411-54.476-54.476-54.476h-328.5c-30.064 0-54.476 24.37-54.476 54.476v363.725c0 30.106 24.412 54.477 54.477 54.477h57.18c0 .86-.287 1.72-.287 2.54a81.838 81.838 0 00163.676 0c0-.82-.204-1.639-.245-2.5h108.134a53.597 53.597 0 0023.593-5.61 18.104 18.104 0 0013.066 5.61h70.247c0 .82-.246 1.64-.246 2.5a81.838 81.838 0 00163.676 0c0-.82-.246-1.639-.287-2.5h75.449a18.145 18.145 0 0018.186-18.185V551.035a185.672 185.672 0 00-185.426-185.467zM336.609 758.784a45.466 45.466 0 110-90.972 45.466 45.466 0 010 90.972zM544.44 656.261a18.145 18.145 0 01-18.186 18.227H408.166a81.51 81.51 0 00-71.557-43.008c-31.006 0-57.712 17.49-71.639 43.008h-67.092a18.186 18.186 0 01-18.186-18.186V292.577c0-10.035 8.15-18.186 18.186-18.186h328.376c10.035 0 18.186 8.151 18.186 18.145v363.725zm170.353 102.523a45.466 45.466 0 11.082-90.972 45.466 45.466 0 01-.082 90.972zm138.854-84.296H786.35a81.592 81.592 0 00-71.598-43.008c-31.048 0-57.672 17.49-71.557 43.008H581.1V401.9h123.453a149.3 149.3 0 01149.094 149.094v123.494z" fill="#979797"/><path d="M232.243 493.65H277.3a40.96 40.96 0 0140.96 40.96v55.46a40.96 40.96 0 01-40.96 40.96h-45.056a40.96 40.96 0 01-40.96-40.96v-55.46a40.96 40.96 0 0140.96-40.96zm0 32.768a8.192 8.192 0 00-8.192 8.192v55.46c0 4.505 3.646 8.192 8.192 8.192H277.3a8.192 8.192 0 008.192-8.192v-55.46a8.192 8.192 0 00-8.192-8.192h-45.056zm141.599-32.768h45.138a40.96 40.96 0 0140.96 40.96v55.46a40.96 40.96 0 01-40.96 40.96h-45.138a40.96 40.96 0 01-40.96-40.96v-55.46a40.96 40.96 0 0140.96-40.96zm0 32.768a8.192 8.192 0 00-8.192 8.192v55.46c0 4.505 3.686 8.192 8.192 8.192h45.138a8.192 8.192 0 008.192-8.192v-55.46a8.192 8.192 0 00-8.192-8.192h-45.138zM232.243 343.654H277.3a40.96 40.96 0 0140.96 40.96v55.42a40.96 40.96 0 01-40.96 40.96h-45.056a40.96 40.96 0 01-40.96-40.96v-55.42a40.96 40.96 0 0140.96-40.96zm0 32.768a8.192 8.192 0 00-8.192 8.192v55.42c0 4.505 3.646 8.191 8.192 8.191H277.3a8.192 8.192 0 008.192-8.192v-55.419a8.192 8.192 0 00-8.192-8.192h-45.056z" fill="#979797"/></svg>