<svg xmlns="http://www.w3.org/2000/svg" width="24" height="24"><defs><style /></defs><path d="M574.738 21.1L294.696 212.617H154.97c-77.65 0-140.547 66.17-140.547 148.985v298.763c0 82.352 62.16 148.984 140.533 148.984H294.68l280.057 191.387c39.532 18.245 70.209-1.254 70.209-42.69V63.79c0-41.537-31.398-60.488-70.209-42.69zm235.924 240.712a33.532 33.532 0 0 0-49.412-1.803 39.027 39.027 0 0 0-1.73 52.83c6.519 7.399 17.653 23.927 29.147 48.748 19.63 42.619 31.485 92.55 31.485 149.519 0 56.969-11.855 107-31.485 149.432-11.494 24.922-22.628 41.364-29.133 48.762a39.027 39.027 0 0 0 1.716 52.816 33.532 33.532 0 0 0 49.498-1.803c11.034-12.548 26.148-34.845 40.816-66.82 24.244-52.354 38.638-113.49 38.638-182.474 0-68.983-14.48-130.019-38.652-182.387a287.917 287.917 0 0 0-40.888-66.805zm214.824-46.137c-28.326-51.013-56.926-86.391-76.916-105.357a33.532 33.532 0 0 0-49.498 2.971 38.94 38.94 0 0 0 2.885 52.729c3.259 3.072 9.951 10.11 18.749 21.042 15.1 18.605 30.215 40.903 44.421 66.546 40.715 73.497 65.147 159.542 65.147 257.514 0 97.958-24.432 183.916-65.147 257.587a462.43 462.43 0 0 1-44.522 66.545c-8.783 10.846-15.389 17.884-18.735 21.043a39.128 39.128 0 0 0-2.798 52.642 33.576 33.576 0 0 0 49.397 3.072c20.09-18.966 48.69-54.373 76.93-105.458a602.992 602.992 0 0 0 74.925-295.517 602.083 602.083 0 0 0-74.853-295.446v.087z" fill="#18CCFF"/></svg>