<svg width="24" height="24" xmlns="http://www.w3.org/2000/svg"><path d="M12.248 5.1L8.125 7.99H6.07C4.926 7.99 4 8.99 4 10.24v4.508c0 1.242.915 2.248 2.069 2.248h2.056l4.123 2.888c.581.275 1.033-.019 1.033-.644V5.745c0-.627-.462-.913-1.033-.644zm3.472 3.633a.49.49 0 0 0-.727-.027.6.6 0 0 0-.026.797c.096.112.26.361.43.736.288.643.463 1.397.463 2.256 0 .86-.175 1.615-.464 2.255-.169.376-.333.624-.428.736a.6.6 0 0 0 .025.797.487.487 0 0 0 .728-.027c.163-.19.385-.526.601-1.008.357-.79.569-1.713.569-2.754a6.657 6.657 0 0 0-.569-2.752 4.366 4.366 0 0 0-.602-1.008zm3.162-.696c-.417-.77-.838-1.304-1.132-1.59a.487.487 0 0 0-.728.045.598.598 0 0 0 .042.796c.048.046.146.152.276.317.222.281.445.617.654 1.004.6 1.11.959 2.408.959 3.886 0 1.479-.36 2.776-.96 3.888-.189.353-.408.69-.655 1.004-.129.163-.226.27-.275.317a.601.601 0 0 0-.041.795.487.487 0 0 0 .727.046c.295-.286.716-.82 1.132-1.591a9.281 9.281 0 0 0 1.103-4.46 9.267 9.267 0 0 0-1.102-4.458v.001z" fill="#979797" fill-rule="nonzero"/></svg>