<svg width="24" height="24" xmlns="http://www.w3.org/2000/svg"><path d="M14.998 3.5H6a.5.5 0 0 0-.5.5v16a.5.5 0 0 0 .5.5h12a.5.5 0 0 0 .5-.5V7.01h-3.002a.5.5 0 0 1-.5-.5V3.5zm2.806 2.51-1.806-1.805V6.01h1.806zM6 2.5h9.5a.5.5 0 0 1 .354.146l3.5 3.5a.5.5 0 0 1 .146.354V20a1.5 1.5 0 0 1-1.5 1.5H6A1.5 1.5 0 0 1 4.5 20V4A1.5 1.5 0 0 1 6 2.5zm6.325 10.474v3.013l2.83-1.557v-2.808l-2.83 1.352zm3.83-2.104v3.856a.5.5 0 0 1-.259.438l-3.808 2.095a.496.496 0 0 1-.506.016l-3.811-2.076a.5.5 0 0 1-.261-.439v-3.832a.497.497 0 0 1 .275-.55l3.828-1.83a.5.5 0 0 1 .43 0l3.83 1.83a.494.494 0 0 1 .282.492zm-4.834 2.099L8.51 11.626v2.837l2.811 1.531V12.97zm-2.16-2.14 2.667 1.274 2.669-1.275-2.669-1.274-2.668 1.274z" fill="#979797"/></svg>