<svg width="16" height="16" xmlns="http://www.w3.org/2000/svg"><g fill="#8F95A2" fill-rule="nonzero"><path d="M15 14.125V1.963c0-.35-.438-.526-.7-.263L1.612 14.388c-.175.175 0 .612.263.612h12.25c.525 0 .875-.35.875-.875zm-.875 0H3.1l11.025-10.85v10.85z"/><path d="M12.375 15H11.5v-1.75h.875V15zm-2.333 0h-.875v-1.75h.875V15zm-2.334 0h-.875v-1.75h.875V15zm-2.333 0H4.5v-1.75h.875V15zm7-3.5V7.3c0-.175-.263-.263-.438-.087l-4.462 4.462c-.175.175 0 .438.175.438h4.2c.263-.088.525-.263.525-.613zm-.875-.35H9.225L11.5 8.875v2.275z"/></g></svg>