<svg width="24" height="24" xmlns="http://www.w3.org/2000/svg"><path d="M3.5 16V8c0-2.58 3.841-4.5 8.5-4.5s8.5 1.92 8.5 4.5v8c0 2.58-3.841 4.5-8.5 4.5S3.5 18.58 3.5 16zm1 0c0 1.839 3.322 3.5 7.5 3.5s7.5-1.661 7.5-3.5v-1.846C18.063 15.578 15.228 16.5 12 16.5c-3.228 0-6.063-.922-7.5-2.346V16zm15-5.846C18.063 11.578 15.228 12.5 12 12.5c-3.228 0-6.063-.922-7.5-2.346V12c0 1.839 3.322 3.5 7.5 3.5s7.5-1.661 7.5-3.5v-1.846zM12 11.5c4.178 0 7.5-1.661 7.5-3.5S16.178 4.5 12 4.5 4.5 6.161 4.5 8s3.322 3.5 7.5 3.5zM8 9a1 1 0 1 1 0-2 1 1 0 0 1 0 2zm8 0a1 1 0 1 1 0-2 1 1 0 0 1 0 2zm-5.5 0h3a.5.5 0 1 1 0 1h-3a.5.5 0 1 1 0-1z" fill="#979797"/></svg>