<svg width="16" height="16" xmlns="http://www.w3.org/2000/svg"><path d="M14.989 8.117V4.552h-.003C14.935 2.586 11.826 1 7.994 1c-3.83 0-6.94 1.586-6.991 3.552H1v6.65C1 13.332 4.072 15 7.994 15c3.922 0 6.995-1.668 6.995-3.798V8.214c.004-.033.009-.064.011-.096h-.011zm-3.78-4.784c.482 0 .874.395.874.883a.879.879 0 0 1-.875.867.879.879 0 0 1-.875-.867c0-.234.093-.459.257-.624a.871.871 0 0 1 .618-.259zm-.547 2.948H5.327v-.613l2.668-.004c1.044.002 1.934.004 2.667.004v.613zM5.6 3.874a.875.875 0 1 1-1.617.67.875.875 0 0 1 1.617-.67zm2.394 10.312c-3.694 0-6.176-1.543-6.176-2.984V9.754c3.34 1.821 5.856 1.56 6.214 1.56.358 0 3.377.12 6.214-1.56l-.075 1.448c0 1.441-2.482 2.984-6.177 2.984zm6.177-5.363c-2.686 1.487-4.445 1.487-6.177 1.487-1.732 0-3.492 0-6.176-1.487V6.29c1.175 1.137 3.5 1.91 6.176 1.91 2.677 0 5.001-.773 6.177-1.91v2.532zM8.015 7.479c-3.283 0-6.197-1.316-6.197-2.916 0-1.6 2.914-2.786 6.197-2.786 3.284 0 6.198 1.561 6.198 2.786S11.3 7.48 8.015 7.48z" fill="#FFF"/></svg>