<svg class="icon" viewBox="0 0 1024 1024" xmlns="http://www.w3.org/2000/svg" width="200" height="200"><path d="M943.543 182.857L533.943 0h-29.257L80.457 182.857c-29.257 14.629-29.257 51.2 0 65.829l416.914 175.543h29.258L950.857 241.37c21.943-7.314 21.943-51.2-7.314-58.514zM504.686 358.4L182.857 219.429 519.314 73.143l321.829 138.971L504.686 358.4zm-51.2 124.343L51.2 299.886H36.571C14.63 299.886 0 314.514 0 336.457v468.114c0 14.629 7.314 29.258 21.943 36.572L424.229 1024h14.628c21.943 0 36.572-14.629 36.572-36.571V519.314c0-14.628-7.315-29.257-21.943-36.571zm-51.2 446.171l-329.143-153.6V387.657l329.143 153.6v387.657zm585.143-629.028H972.8L570.514 482.743c-14.628 7.314-21.943 21.943-21.943 36.571V987.43c0 21.942 14.629 36.571 36.572 36.571h14.628l402.286-182.857C1016.686 833.829 1024 819.2 1024 804.57V336.457c0-21.943-14.629-36.571-36.571-36.571zm-36.572 475.428l-329.143 153.6V541.257l329.143-153.6v387.657z"/></svg>