<?xml version="1.0" encoding="UTF-8"?>
<svg width="40px" height="40px" viewBox="0 0 40 40" version="1.1" xmlns="http://www.w3.org/2000/svg" xmlns:xlink="http://www.w3.org/1999/xlink">
    <!-- Generator: Sketch 52.5 (67469) - http://www.bohemiancoding.com/sketch -->
    <title>more</title>
    <desc>Created with Sketch.</desc>
    <g id="Page-1" stroke="none" stroke-width="1" fill="none" fill-rule="evenodd">
        <g id="生产任务2.0" transform="translate(-944.000000, -21.000000)" fill="#324A59" fill-rule="nonzero">
            <g id="顶部条">
                <g id="more" transform="translate(944.000000, 21.000000)">
                    <path d="M4,23 C1.790861,23 0,21.209139 0,19 C0,16.790861 1.790861,15 4,15 C6.209139,15 8,16.790861 8,19 C8,21.209139 6.209139,23 4,23 Z M20,23 C17.790861,23 16,21.209139 16,19 C16,16.790861 17.790861,15 20,15 C22.209139,15 24,16.790861 24,19 C24,21.209139 22.209139,23 20,23 Z M36,23 C33.790861,23 32,21.209139 32,19 C32,16.790861 33.790861,15 36,15 C38.209139,15 40,16.790861 40,19 C40,21.209139 38.209139,23 36,23 Z"></path>
                </g>
            </g>
        </g>
    </g>
</svg>