<svg width="896" height="576" xmlns="http://www.w3.org/2000/svg"><g fill="#333" fill-rule="nonzero"><path d="M832 0H64C28.8 0 0 28.8 0 64v448c0 35.2 28.8 64 64 64h768c35.2 0 64-28.8 64-64V64c0-35.2-28.8-64-64-64zm0 480c0 19.2-12.8 32-32 32H96c-19.2 0-32-12.8-32-32V96c0-19.2 12.8-32 32-32h704c19.2 0 32 12.8 32 32v384z"/><path d="M227.2 188.8c-12.8 6.4-22.4 12.8-35.2 16v41.6c22.4-6.4 41.6-16 54.4-28.8V416h38.4V169.6H256c-6.4 3.2-19.2 12.8-28.8 19.2zM425.6 336c22.4-16 41.6-28.8 48-38.4 16-16 22.4-38.4 22.4-57.6 0-22.4-6.4-38.4-22.4-54.4-16-12.8-35.2-19.2-57.6-19.2-25.6 0-48 9.6-60.8 25.6-16 16-22.4 38.4-22.4 67.2h38.4c0-19.2 3.2-35.2 12.8-44.8 6.4-9.6 19.2-16 32-16s25.6 3.2 32 9.6c6.4 6.4 9.6 16 9.6 28.8s-6.4 25.6-16 38.4c-6.4 6.4-16 16-32 28.8-28.8 19.2-44.8 35.2-54.4 44.8-16 19.2-22.4 41.6-22.4 64h166.4v-35.2H380.8c6.4-12.8 22.4-25.6 44.8-41.6zm233.6-54.4c25.6-9.6 38.4-25.6 38.4-54.4 0-22.4-6.4-38.4-22.4-51.2-16-12.8-35.2-19.2-57.6-19.2S576 163.2 560 176c-16 12.8-25.6 32-25.6 57.6h38.4c0-16 6.4-25.6 12.8-32 6.4-6.4 19.2-9.6 32-9.6s25.6 3.2 32 9.6c6.4 6.4 9.6 16 9.6 28.8s-3.2 22.4-9.6 28.8c-6.4 6.4-19.2 9.6-32 9.6h-16v28.8h16c16 0 25.6 3.2 35.2 9.6 9.6 6.4 12.8 16 12.8 32 0 12.8-3.2 22.4-12.8 28.8-9.6 9.6-19.2 12.8-35.2 12.8-12.8 0-25.6-3.2-32-12.8-9.6-9.6-12.8-22.4-16-38.4h-38.4c3.2 28.8 12.8 48 28.8 64 16 12.8 35.2 19.2 60.8 19.2 25.6 0 48-6.4 64-22.4 16-16 22.4-32 22.4-54.4 0-16-3.2-25.6-12.8-35.2-9.6-6.4-22.4-16-35.2-19.2z"/></g></svg>