<svg width="18" height="18" xmlns="http://www.w3.org/2000/svg"><path d="M14.644 11.187c1.245 0 2.356.76 2.78 1.903a2.842 2.842 0 0 1-.89 3.2 3.015 3.015 0 0 1-3.2.37l-.13-.069-.227.14a7.839 7.839 0 0 1-3.715 1.065l-.327.004-.329-.01a7.899 7.899 0 0 1-2.035-.374l-.327-.114-.2-.078-.056-.132.526-1.235.13-.054a6.278 6.278 0 0 0 2.044.451 6.263 6.263 0 0 0 3.197-.684l.177-.097-.051-.09a2.824 2.824 0 0 1-.122-2.357l.084-.189.097-.184a2.964 2.964 0 0 1 2.375-1.46l.2-.006Zm-9.836-7.76.137.03.744 1.122-.03.14C3.993 5.764 2.946 7.526 2.844 9.454a5.88 5.88 0 0 0 .034 1.023l.036.242.074-.01c1.283-.159 2.518.518 3.053 1.653l.072.165.059.164c.455 1.387-.22 2.887-1.572 3.499-1.351.611-2.958.146-3.749-1.087a2.836 2.836 0 0 1 .499-3.65l.091-.08-.056-.278c-.063-.34-.1-.685-.114-1.03l-.006-.346.01-.346c.12-2.268 1.282-4.356 3.154-5.691l.237-.163.142-.092Zm9.837 9.296c-.766 0-1.386.605-1.386 1.35 0 .743.62 1.348 1.386 1.348.765 0 1.385-.605 1.385-1.349s-.62-1.349-1.385-1.349Zm-11.289-.5c-.766 0-1.385.605-1.385 1.35 0 .743.62 1.348 1.385 1.348.766 0 1.385-.605 1.385-1.349s-.62-1.349-1.385-1.349Zm6.712-4.891a.75.75 0 0 1 .164.972l-.06.083-.895 1.092 1.187 1.005a.75.75 0 0 1 .151.97l-.06.082-1.365 1.645a.75.75 0 0 1-1.214-.876l.06-.083.891-1.073-1.183-1.002a.75.75 0 0 1-.153-.965l.058-.083 1.364-1.663a.75.75 0 0 1 1.055-.104ZM9 .1c1.517 0 2.777 1.117 2.94 2.571l.007.105.2.084c2.63 1.148 4.382 3.626 4.56 6.418l.012.271.002.273-.003.157-.103.098-1.37-.042-.097-.103c.073-2.338-1.25-4.498-3.379-5.547l-.146-.069-.038.071c-.612 1.078-1.858 1.651-3.088 1.443l-.185-.038-.175-.046c-1.4-.418-2.277-1.773-2.06-3.187C6.284 1.204 7.435.188 8.819.105L9 .1Zm0 1.537c-.495 0-.953.258-1.2.675-.247.417-.247.93 0 1.347.247.418.705.675 1.2.675.766 0 1.386-.604 1.386-1.348 0-.744-.62-1.349-1.386-1.349Z"/></svg>