<svg class="icon" width="200" height="200" viewBox="0 0 1024 1024" xmlns="http://www.w3.org/2000/svg"><path d="M444.518 154.47h134.093a25.805 25.805 0 0 0 26.061-25.446 25.805 25.805 0 0 0-26.112-25.6H444.57a25.805 25.805 0 0 0-26.061 25.549c0 14.08 11.673 25.497 26.112 25.497zm220.263 187.7H344.576a25.805 25.805 0 0 0-26.112 25.497c0 14.08 11.725 25.498 26.112 25.498h320.205a25.805 25.805 0 0 0 26.112-25.498 25.805 25.805 0 0 0-26.112-25.497zm0 143.513H344.576a25.805 25.805 0 0 0-26.112 25.549c0 14.08 11.725 25.498 26.112 25.498h320.205a25.805 25.805 0 0 0 26.112-25.498 25.805 25.805 0 0 0-26.112-25.549zm0 143.565H344.576a25.805 25.805 0 0 0-26.112 25.498c0 14.08 11.725 25.548 26.112 25.548h320.205a25.805 25.805 0 0 0 26.112-25.548 25.805 25.805 0 0 0-26.112-25.498z" fill="#979797"/><path d="M785.766 103.782h-56.422a25.805 25.805 0 0 0-26.112 25.498c0 14.08 11.725 25.549 26.112 25.549h56.422a31.744 31.744 0 0 1 31.642 30.976V838.45a31.744 31.744 0 0 1-31.642 30.976H237.414a31.744 31.744 0 0 1-31.692-30.976V185.805a31.744 31.744 0 0 1 31.641-30.976h56.525c14.387 0 26.06-11.469 26.06-25.549a25.805 25.805 0 0 0-26.111-25.498h-56.423c-46.13 0-83.814 36.864-83.814 82.023V838.45c0 45.056 37.683 82.023 83.763 82.023h548.403c46.08 0 83.815-36.916 83.815-82.023V185.805c0-45.107-37.735-82.023-83.815-82.023z" fill="#979797"/></svg>