<svg class="icon" viewBox="0 0 1024 1024" xmlns="http://www.w3.org/2000/svg" width="200" height="200"><path d="M1024 768c0-131.657-80.457-248.686-197.486-299.886 36.572-36.571 65.829-80.457 65.829-138.971 0-102.4-80.457-182.857-182.857-182.857-14.629 0-29.257 0-43.886 7.314C629.029 65.829 533.943 0 431.543 0c-138.972 0-256 117.029-256 256 0 87.771 43.886 160.914 109.714 212.114C117.03 526.63 0 687.543 0 870.4 0 965.486 190.171 1024 431.543 1024c234.057 0 431.543-58.514 431.543-153.6C936.229 863.086 1024 833.829 1024 768zM585.143 460.8zm-7.314 0c0 7.314 0 7.314 0 0 0 7.314 0 7.314 0 0zm131.657-241.371c58.514 0 109.714 51.2 109.714 109.714S768 438.857 709.486 438.857c-29.257 0-51.2-14.628-73.143-29.257 29.257-43.886 51.2-95.086 51.2-153.6v-36.571h21.943zM248.686 256c0-102.4 80.457-182.857 182.857-182.857S614.4 153.6 614.4 256s-80.457 182.857-182.857 182.857S248.686 358.4 248.686 256zm182.857 694.857c-248.686 0-351.086-58.514-358.4-80.457 0-197.486 160.914-358.4 358.4-358.4s358.4 160.914 358.4 358.4c-7.314 21.943-109.714 80.457-358.4 80.457zm424.228-153.6C833.83 680.23 768 577.83 672.914 512h21.943c138.972 0 248.686 117.029 256 248.686 0 7.314-29.257 29.257-95.086 36.571z"/></svg>