<svg width="24" height="24" xmlns="http://www.w3.org/2000/svg"><path d="M17.905 11.937c2.11.884 3.595 3.018 3.595 5.505 0 .895-1.203 1.506-3.037 1.828-.38 1.356-3.616 2.23-7.463 2.23-4.146 0-7.5-.964-7.5-2.5a7.503 7.503 0 015.19-7.137 4.5 4.5 0 116.172-6.173 3.5 3.5 0 013.043 6.247zm-4-.133a3.507 3.507 0 01-.228-.186 4.59 4.59 0 01-.367.245c.08.025.158.052.235.08a5.627 5.627 0 01.359-.14zm.972.775a7.5 7.5 0 013.586 5.673c.602-.117 1.115-.27 1.493-.443.38-.176.544-.334.544-.367 0-2.733-2.14-4.942-4.77-4.942a4.64 4.64 0 00-.853.079zm2.62 6.242A6.5 6.5 0 004.5 19c0 .65 2.955 1.5 6.5 1.5 3.5 0 6.5-.874 6.5-1.5a6.63 6.63 0 00-.002-.18zM15.28 6.605c.143.44.22.908.22 1.395 0 1.12-.41 2.145-1.087 2.932a2.5 2.5 0 10.866-4.327zM11 11.5a3.5 3.5 0 100-7 3.5 3.5 0 000 7z" fill="#979797"/></svg>