<svg version="1.1" id="图层_1" xmlns="http://www.w3.org/2000/svg" x="0" y="0" viewBox="0 0 14 14" xml:space="preserve"><style>.st0{fill:#353535}</style><path class="st0" d="M0 14h6.7V7.3H0V14zm1.2-5.4h4.2v4.2H1.2V8.6zM7.3 14H14V7.3H7.3V14zm1.2-5.4h4.2v4.2H8.5V8.6zM11.4 0H9.9C8.5 0 7.3 1.2 7.3 2.6V4c0 1.4 1.2 2.6 2.6 2.6h1.5C12.8 6.6 14 5.4 14 4V2.6C14 1.2 12.8 0 11.4 0zm1.4 4.1c0 .8-.6 1.4-1.4 1.4H9.9c-.8 0-1.4-.6-1.4-1.4V2.6c0-.8.6-1.4 1.4-1.4h1.5c.8 0 1.4.6 1.4 1.4v1.5zM0 6.7h6.7V0H0v6.7zm1.2-5.5h4.2v4.2H1.2V1.2z"/></svg>