<svg width="24" height="24" xmlns="http://www.w3.org/2000/svg"><path d="M17.923 3.5c.863 0 1.577.663 1.577 1.5v8.607a.5.5 0 01-1 0V5c0-.268-.25-.5-.577-.5H6.077c-.327 0-.577.232-.577.5v15c0 .268.25.5.577.5h9.971a.5.5 0 010 1H6.077c-.863 0-1.577-.663-1.577-1.5V5c0-.837.714-1.5 1.577-1.5h11.846zm4.543 11.528l.07.058a.5.5 0 01.057.638l-.057.069-4.243 4.243a.5.5 0 01-.638.057l-.07-.057-2.12-2.122a.5.5 0 01.637-.765l.07.058 1.767 1.768 3.89-3.89a.5.5 0 01.637-.057zM14 16a.5.5 0 110 1H7.5a.5.5 0 110-1H14zm2.5-3a.5.5 0 110 1h-9a.5.5 0 110-1h9zm0-3a.5.5 0 110 1h-9a.5.5 0 110-1h9zm0-3a.5.5 0 110 1h-9a.5.5 0 010-1h9z" fill="#979797"/></svg>