<svg xmlns="http://www.w3.org/2000/svg" viewBox="0 0 108 108"><path class="st0" d="M89 34c8.3 0 15-6.7 15-15S97.3 4 89 4s-15 6.7-15 15 6.7 15 15 15zm0-25c5.5 0 10 4.5 10 10s-4.5 10-10 10-10-4.5-10-10S83.5 9 89 9zm10 35H79c-2.8 0-5 2.2-5 5v12.2L54 76.7 34 61.2V49c0-2.8-2.2-5-5-5H9c-2.8 0-5 2.2-5 5v55h30V66.9l20 15.5 20-15.5V104h30V49c0-2.8-2.2-5-5-5zM29 99H9V54c0-2.8 2.2-5 5-5h10c2.8 0 5 2.2 5 5v45zm70 0H79V54c0-2.8 2.2-5 5-5h10c2.8 0 5 2.2 5 5v45zM19 34c8.3 0 15-6.7 15-15S27.3 4 19 4 4 10.7 4 19s6.7 15 15 15zm0-25c5.5 0 10 4.5 10 10s-4.5 10-10 10S9 24.5 9 19 13.5 9 19 9z"/></svg>