<svg class="icon" viewBox="0 0 1121 1024" xmlns="http://www.w3.org/2000/svg" width="218.945" height="200"><defs><style/></defs><path d="M169.399 427.447l225.182 61.927c28.819 7.949 41.058-41.203 12.19-49.103l-225.133-61.927c-28.77-7.949-41.009 41.155-12.19 49.103zm516.583 410.136L541.696 968.704c-25.6 23.26 12.532 60.904 38.034 37.693l144.336-131.072c25.6-23.308-12.581-60.952-38.084-37.742zM577.243 367.91L870.888 140.97 824.905 122.1l-3.023 194.657c-.536 34.426 53.297 34.377 53.833 0l3.023-194.657c.39-25.551-28.623-32.232-45.933-18.871L539.16 330.216c-27.355 21.114 11.02 58.611 38.035 37.693zM804.67 625.37a45.836 45.836 0 0 0 45.982 45.544 45.836 45.836 0 0 0 46.032-45.592 45.836 45.836 0 0 0-46.032-45.593 45.836 45.836 0 0 0-45.982 45.593zm17.75-139.459l64.658 2.438c34.718 1.268 34.62-52.077 0-53.394l-64.659-2.438c-34.718-1.316-34.62 52.078 0 53.346zm-107.813 94.062l34.426-54.272c18.53-29.208-28.038-55.93-46.47-26.916l-34.475 54.272c-18.53 29.208 28.087 55.93 46.519 26.916zm28.233 139.167l-30.233-56.662c-16.188-30.427-62.659-3.462-46.47 26.917l30.233 56.661c16.189 30.476 62.659 3.511 46.47-26.916zm136.046 45.64l-64.61-2.437c-34.767-1.317-34.62 52.029 0 53.345l64.61 2.438c34.767 1.317 34.62-52.077 0-53.345zm107.86-94.11l-34.425 54.272c-18.53 29.209 28.038 55.93 46.47 26.917l34.475-54.223c18.53-29.258-28.087-55.98-46.52-26.966zm-28.232-139.166l30.232 56.661c16.19 30.476 62.66 3.511 46.47-26.916l-30.232-56.662c-16.19-30.476-62.66-3.51-46.47 26.917z"/><path d="M910.336 475.087c7.363-10.484 20.48 1.17 27.892 5.56 8.29 4.973 26.819 11.312 20.285 23.892-15.8 30.574 30.622 57.54 46.519 26.966 11.02-21.31 10.874-41.692.731-63.244-7.168-15.214-23.406-23.552-37.205-31.793-14.141-8.436-27.697-17.554-44.715-18.822-25.307-1.95-45.934 10.484-59.977 30.525-19.944 28.282 26.77 54.954 46.47 26.916z"/><path d="M749.032 498.834c-5.364-11.361 11.946-17.115 19.212-21.114 8.777-4.827 23.015-17.213 30.964-5.07 18.724 28.769 65.34 2.096 46.47-26.917-12.971-19.944-30.915-29.94-54.614-31.988-17.066-1.463-32.573 8.29-46.811 16.14-14.287 7.85-28.916 14.872-38.522 28.72-14.433 20.968-13.75 44.862-3.17 67.097 14.727 31.159 61.148 4.047 46.47-26.916z"/><path d="M689.396 649.265c-12.678-1.22-9.119-18.14-8.972-26.575.195-9.9-3.56-28.575 10.922-29.501 34.475-2.146 34.67-55.54 0-53.346-24.478 1.512-42.959 11.85-56.32 32.33-8.874 13.604-8.094 30.817-8.387 46.323-.244 15.116-1.414 29.891 4.389 44.227 10.191 25.015 32.183 37.352 58.368 39.887 34.523 3.414 34.23-50.03 0-53.345z"/><path d="M791.016 775.558c-7.412 10.484-20.53-1.17-27.892-5.559-8.29-4.973-26.82-11.313-20.285-23.893 15.799-30.574-30.671-57.54-46.519-26.965-11.02 21.309-10.874 41.691-.731 63.244 7.119 15.213 23.405 23.552 37.205 31.793 14.14 8.435 27.648 17.554 44.715 18.822 25.307 1.95 45.885-10.484 59.977-30.525 19.943-28.282-26.77-54.955-46.47-26.917z"/><path d="M952.32 751.86c5.364 11.361-11.995 17.066-19.212 21.065-8.777 4.827-23.016 17.213-30.964 5.071-18.725-28.77-65.341-2.097-46.47 26.917 12.97 19.943 30.915 29.94 54.613 31.988 17.067 1.462 32.524-8.29 46.812-16.14 14.287-7.851 28.915-14.824 38.473-28.673 14.433-20.967 13.8-44.86 3.218-67.145-14.726-31.159-61.147-4.047-46.47 26.917z"/><path d="M1011.956 601.38c12.63 1.268 9.118 18.14 8.972 26.576-.195 9.898 3.51 28.623-10.923 29.5-34.474 2.146-34.718 55.54 0 53.346 24.479-1.463 42.96-11.849 56.32-32.329 8.826-13.604 8.095-30.817 8.339-46.324.292-15.116 1.462-29.89-4.389-44.227-10.142-25.015-32.183-37.351-58.32-39.887-34.571-3.365-34.23 50.03 0 53.346zM524.483 349.136v638.44l34.133-25.698-520.29-193.926 19.798 25.747V218.307l-34.133 25.746 520.24 130.731c33.646 8.485 47.934-43.008 14.288-51.444L38.376 192.61c-16.92-4.292-34.085 8.094-34.085 25.697v575.39c0 12.679 8.387 21.456 19.797 25.698l520.095 193.877c16.676 6.193 34.133-9.606 34.133-25.746V349.038c0-34.377-53.882-34.377-53.882 0z"/><path d="M44.812 232.838L411.55 68.267l-20.723 2.73 449.438 75.094c33.987 5.656 48.518-45.739 14.336-51.493L457.387 28.282l-51.932-8.777c-17.066-2.877-36.23 9.41-51.492 16.286L17.652 186.758c-31.598 14.141-4.194 60.124 27.16 46.031z"/></svg>