<svg width="24" height="24" xmlns="http://www.w3.org/2000/svg"><path d="M19.059 19.386v2.001a.62.62 0 0 1-.628.613H5.57a.62.62 0 0 1-.628-.613v-2H19.06zm.47-5.813c.26 0 .471.21.471.47v4.575c0 .26-.21.47-.47.47H4.47a.47.47 0 0 1-.47-.47v-4.575c0-.26.21-.47.47-.47h15.06zM9.462 14.952h-.913v2.758h.556v-.98h.372c.597 0 1.075-.284 1.075-.914 0-.652-.474-.864-1.09-.864zm2.356 0h-.763v2.758h.793c.819 0 1.345-.462 1.345-1.39 0-.932-.526-1.368-1.375-1.368zm3.633 0h-1.713v2.758h.556v-1.118h.988v-.463h-.988v-.719h1.157v-.458zm-3.667.44c.518 0 .842.253.842.927 0 .671-.324.947-.842.947h-.173v-1.875zm-2.363-.004c.383 0 .586.108.586.428 0 .317-.184.477-.568.477h-.334v-.905zM15.026 3a.31.31 0 0 1 .313.306v2.88c0 .169.14.306.314.306h3.092a.31.31 0 0 1 .314.307v6.459L4.94 13.254V3.613A.62.62 0 0 1 5.57 3h9.457zm.739.147c.04 0 .077.015.106.042l2.978 2.757a.157.157 0 0 1-.107.272h-2.977a.157.157 0 0 1-.157-.157V3.304c0-.087.07-.157.157-.157z" fill="#FF4040"/></svg>