<svg width="13" height="13" xmlns="http://www.w3.org/2000/svg"><g fill="#027CF9"><path d="M5.215 2.668v4.079a1.44 1.44 0 001.438 1.438h4.08A4.706 4.706 0 019.258 10.8a4.7 4.7 0 01-3.16 1.215 4.684 4.684 0 01-3.333-1.381A4.7 4.7 0 011.385 7.3 4.692 4.692 0 012.6 4.14a4.708 4.708 0 012.615-1.472m.335-.939A5.6 5.6 0 006.1 12.9v.001a5.601 5.601 0 005.567-4.99.552.552 0 00-.55-.61H6.653a.553.553 0 01-.553-.553V2.283a.552.552 0 00-.55-.554z"/><path d="M7.815 1.838a4.72 4.72 0 013.747 3.747H7.815V1.838M7.482.9a.553.553 0 00-.552.553v4.464c0 .306.247.553.553.553h4.464a.553.553 0 00.55-.612A5.603 5.603 0 007.542.903.558.558 0 007.482.9z"/></g></svg>