<svg width="13" height="12" xmlns="http://www.w3.org/2000/svg"><g fill="#007CF8"><path d="M10.6 6.4H6.2c-.3 0-.5-.2-.5-.5V1.4c0-.3-.3-.6-.6-.6H5c-2.9.3-5 2.7-5 5.6C0 9.5 2.5 12 5.6 12c2.9 0 5.3-2.2 5.6-5 0-.2 0-.3-.1-.5-.1-.1-.3-.1-.5-.1zM8.7 9.9c-.4.4-.9.7-1.4.9-.5.2-1.1.3-1.7.3-.6 0-1.2-.1-1.8-.4-.6-.2-1.1-.6-1.5-1-.4-.4-.8-.9-1-1.5C1.1 7.6.9 7 .9 6.4c0-.6.1-1.2.3-1.7.2-.5.5-1 .9-1.4.7-.8 1.6-1.3 2.6-1.5v4c0 .8.7 1.5 1.5 1.5h4c-.2 1-.7 1.9-1.5 2.6z"/><path d="M7 0c-.4 0-.6.2-.6.6V5c0 .3.3.6.6.6h4.5c.2 0 .3-.1.4-.2.1-.1.2-.3.1-.4-.2-2.7-2.3-4.8-5-5zm.4 4.6V1c.4.1.8.2 1.1.4.5.2.9.5 1.3.9s.7.8.9 1.3c.2.4.3.7.4 1.1H7.4v-.1z"/></g></svg>