<svg width="22" height="21" xmlns="http://www.w3.org/2000/svg"><g fill="#027CF9" fill-rule="nonzero"><path d="M16 11.1c-.4 0-.8.3-.8.8v2.4h-1.6c-1.2 0-2.3 1-2.3 2.3V19h-9c-.4 0-.8-.4-.8-.8V2.3c0-.4.3-.8.8-.8h12.2c.4 0 .8.4.8.8v1c0 .4.3.8.8.8s.7-.4.7-.8v-1c0-1.3-1-2.3-2.3-2.3H2.3C1 0 0 1 0 2.3v15.9c0 1.3 1 2.3 2.3 2.3h9.1c.6 0 1.3-.3 1.7-.7l3-3.3c.3-.4.5-.8.6-1.3v-.1-3.2c.1-.5-.2-.8-.7-.8zm-3 6.7v-1.2c0-.4.3-.8.8-.8h1l-1.8 2z"/><path d="M10.1 7.9c0-.4-.3-.8-.8-.8H3.7c-.4 0-.8.3-.8.8s.3.8.8.8h5.7c.4 0 .7-.4.7-.8zM12 4.1c0-.4-.3-.8-.8-.8H3.7c-.4 0-.8.3-.8.8s.3.8.8.8h7.6c.4 0 .7-.4.7-.8zM3.7 10c-.4 0-.8.3-.8.8 0 .4.3.8.8.8h1.9c.4 0 .8-.3.8-.8 0-.4-.3-.8-.8-.8H3.7zM20.5 4.1c-.7-.8-2-.9-2.8-.2l-9.8 8c-.1.1-.2.2-.2.3l-.7 2c-.1.2-.1.4-.1.5 0 .3.2.5.4.7.2.1.4.2.6.2h.2l2.3-.4c.1 0 .3-.1.4-.2l9.5-8.2h.1c.4-.4.6-.8.7-1.4 0-.4-.2-.9-.6-1.3zm-1.1 1.7L10 13.9l-1.4.2.4-1.2L18.6 5c.2-.2.6-.2.8.1.1.1.1.2.1.4 0 .1 0 .2-.1.3z"/></g></svg>