<svg width="24" height="24" xmlns="http://www.w3.org/2000/svg"><path d="M15.53 13.376c1.832 0 3.232 1.392 3.232 3.214 0 1.821-1.4 3.214-3.231 3.214S12.3 18.411 12.3 16.59c0-1.822 1.4-3.214 3.23-3.214zM16.4 4.6A1.6 1.6 0 0 1 18 6.2v7.048c-.668-.462-1.51-.727-2.475-.727-2.473 0-4.131 1.647-4.131 4.062 0 1.253.463 2.3 1.245 3.016l-5.052-.042A1.6 1.6 0 0 1 6 17.957V6.2a1.6 1.6 0 0 1 1.6-1.6h8.8zm-1.073 9.9a.634.634 0 0 0-.649.629v1.395c0 .321.108.536.323.75l.954 1.042c.215.215.619.271.89 0a.595.595 0 0 0 0-.859l-.89-.933v-1.395c0-.214-.237-.63-.628-.63zm-4.823-1.634h-1.78a.767.767 0 0 0-.104 1.527l.105.007h1.779a.767.767 0 0 0 0-1.534zm4.518-2.888H8.725a.767.767 0 0 0-.105 1.527l.105.007h6.297a.767.767 0 1 0 0-1.534zm0-2.984H8.725a.767.767 0 0 0-.105 1.527l.105.007h6.297a.767.767 0 0 0 0-1.534z" fill="#555657" fill-rule="evenodd"/></svg>