<svg width="13" height="17" xmlns="http://www.w3.org/2000/svg"><path d="M9.734 9.6c1.83 0 3.23 1.393 3.23 3.214 0 1.822-1.4 3.215-3.23 3.215s-3.23-1.393-3.23-3.215c0-1.821 1.4-3.214 3.23-3.214zm.87-8.776a1.6 1.6 0 0 1 1.6 1.6l-.001 7.048c-.667-.461-1.509-.727-2.475-.727-2.473 0-4.13 1.648-4.13 4.062 0 1.253.462 2.3 1.245 3.017l-5.053-.042a1.6 1.6 0 0 1-1.587-1.6V2.424a1.6 1.6 0 0 1 1.6-1.6h8.8zm-1.074 9.9a.634.634 0 0 0-.648.63v1.394c0 .322.107.536.323.75l.953 1.043c.216.214.62.27.891 0a.595.595 0 0 0 0-.86l-.89-.933v-1.395c0-.214-.237-.629-.63-.629zM4.707 9.09h-1.78a.767.767 0 0 0-.103 1.527l.104.007h1.78a.767.767 0 0 0 0-1.534zm4.518-2.887H2.928a.767.767 0 0 0-.104 1.527l.104.007h6.297a.767.767 0 1 0 0-1.534zm0-2.984H2.928a.767.767 0 0 0-.104 1.526l.104.007h6.297a.767.767 0 0 0 0-1.533z" fill="#555657" fill-rule="evenodd"/></svg>