<svg width="16" height="15" xmlns="http://www.w3.org/2000/svg"><path d="M11.999 0c1.104 0 2 .898 2 2.008v4.286a.6.6 0 01-1.2 0l.001-4.286a.803.803 0 00-.7-.797l-.101-.006H4a.8.8 0 00-.794.701l-.007.102V12.97c0 .405.298.74.687.795l.107.008 1.621.011c.338.003.61.277.61.614 0 .333-.27.602-.602.602h-.008l-1.631-.022A2.004 2.004 0 012 12.97V2.008C2 .898 2.895 0 4 0h7.999zM10.4 7.682c1.988 0 3.6 1.608 3.6 3.592a3.596 3.596 0 01-3.6 3.591 3.596 3.596 0 01-3.6-3.591 3.596 3.596 0 013.6-3.592zm0 1.197A2.397 2.397 0 008 11.274a2.397 2.397 0 002.4 2.394c1.325 0 2.4-1.072 2.4-2.394a2.397 2.397 0 00-2.4-2.395zm-.258.82a.6.6 0 01.593.502l.007.097v.86l.631.492a.598.598 0 01.158.758l-.053.082a.601.601 0 01-.76.158l-.082-.054-.862-.67a.598.598 0 01-.225-.381l-.007-.091v-1.154a.6.6 0 01.6-.599zM7.621 6.186a.6.6 0 01.098 1.19l-.098.007H5a.6.6 0 01-.098-1.19L5 6.186h2.621zM11 2.993a.6.6 0 01.097 1.19L11 4.19H5A.6.6 0 014.902 3L5 2.993h6z" fill="#171A1D" fill-rule="evenodd"/></svg>