<svg width="68" height="68" xmlns="http://www.w3.org/2000/svg" xmlns:xlink="http://www.w3.org/1999/xlink"><defs><path id="a" d="M0 0h684v607H0z"/></defs><g fill="none" fill-rule="evenodd"><path fill="#FFF" d="M-681-499H343v768H-681z"/><g transform="translate(-361 -399)"><mask id="b" fill="#fff"><use xlink:href="#a"/></mask><use fill="#FFF" fill-rule="nonzero" xlink:href="#a"/><g mask="url(#b)"><path fill="#EBF9FF" fill-rule="nonzero" d="M0 345h684v208H0z"/><path d="M395 467c-18.778 0-34-15.222-34-34s15.222-34 34-34 34 15.222 34 34-15.222 34-34 34zm-7.5-44.804v21.608a2 2 0 003.164 1.627l15.105-10.804a2 2 0 000-3.254l-15.105-10.804a2 2 0 00-3.164 1.627z" fill="#324A59" fill-rule="nonzero"/></g></g></g></svg>