<svg width="16" height="16" xmlns="http://www.w3.org/2000/svg"><path d="M4.733 10.8h8.4v-.467h-8.4v.467zm0-.933h8.4V9.4h-8.4v.467zm0 2.333h8.4v-.467h-8.4v.467zm0-3.733h8.4V8h-8.4v.467zm-1.079-1.4h-.642a.146.146 0 0 0-.145.145v1.109c0 .08.065.146.145.146h.642c.08 0 .146-.066.146-.146V7.212a.146.146 0 0 0-.146-.145zm0 4.666h-.642a.146.146 0 0 0-.145.146v1.108c0 .081.065.146.145.146h.642c.08 0 .146-.065.146-.146V11.88a.146.146 0 0 0-.146-.146zm1.08-4.2h8.4v-.466h-8.4v.466zm0 5.6h8.4v-.466h-8.4v.466zM3.653 9.4h-.642a.146.146 0 0 0-.145.146v1.108c0 .08.065.146.145.146h.642c.08 0 .146-.065.146-.146V9.546a.146.146 0 0 0-.146-.146zM13.6 1H2.4A1.4 1.4 0 0 0 1 2.4v11.2A1.4 1.4 0 0 0 2.4 15h11.2a1.4 1.4 0 0 0 1.4-1.4V2.4A1.4 1.4 0 0 0 13.6 1zm.525 12.688a.437.437 0 0 1-.437.437H2.312a.438.438 0 0 1-.437-.437V2.312c0-.241.196-.437.437-.437h11.376c.241 0 .437.196.437.437v11.376zM3.158 2.867a.292.292 0 0 0-.291.291v2.684c0 .16.13.291.291.291h9.684c.16 0 .292-.13.292-.291V3.158a.292.292 0 0 0-.292-.291H3.158zm.175.466h1.188c.235 0 .424.059.568.176.143.117.215.281.215.493 0 .182-.064.34-.192.476-.128.135-.325.202-.591.202h-.83v.987h-.358V3.333zm2.454 0h1.188c.235 0 .424.059.568.176.143.117.215.281.215.493 0 .182-.064.34-.192.476-.128.135-.325.202-.591.202h-.83v.987h-.358V3.333zm3.188 0h.404l.957 2.334h-.391l-.268-.7H8.633l-.285.7H7.98l.994-2.334zm1.72 0h1.188c.235 0 .424.059.568.176.144.117.216.281.216.493 0 .182-.064.34-.193.476-.128.135-.325.202-.59.202h-.83v.987h-.358V3.333zm-5.752.67c0-.17-.072-.287-.216-.349a.87.87 0 0 0-.325-.05h-.711v.81h.711c.16 0 .291-.03.391-.091.1-.06.15-.167.15-.32zm2.454 0c0-.17-.072-.287-.215-.349a.87.87 0 0 0-.326-.05h-.711v.81h.711c.161 0 .291-.03.391-.091.1-.06.15-.167.15-.32zm2.165.707l-.4-1.03-.426 1.03h.826zm2.744-.706c0-.172-.072-.288-.216-.35a.87.87 0 0 0-.325-.05h-.712v.81h.712c.16 0 .29-.03.39-.091.1-.06.15-.167.15-.32z" fill="#FFF" fill-rule="nonzero"/></svg>