<svg width="24" height="24" xmlns="http://www.w3.org/2000/svg"><path d="M6.5 4a.5.5 0 0 0-.5.5v16a.5.5 0 0 0 .5.5h12a.5.5 0 0 0 .5-.5v-16a.5.5 0 0 0-.5-.5h-12zm0-1h12A1.5 1.5 0 0 1 20 4.5v16a1.5 1.5 0 0 1-1.5 1.5h-12A1.5 1.5 0 0 1 5 20.5v-16A1.5 1.5 0 0 1 6.5 3zM8 11.5h1a.5.5 0 0 1 .5.5v2a.5.5 0 0 1-.5.5H8a.5.5 0 0 1-.5-.5v-2a.5.5 0 0 1 .5-.5zm0 5h1a.5.5 0 0 1 .5.5v2a.5.5 0 0 1-.5.5H8a.5.5 0 0 1-.5-.5v-2a.5.5 0 0 1 .5-.5zm3-5h6a.5.5 0 1 1 0 1h-6a.5.5 0 1 1 0-1zm0 5h6a.5.5 0 1 1 0 1h-6a.5.5 0 1 1 0-1zm0-3h6a.5.5 0 1 1 0 1h-6a.5.5 0 1 1 0-1zm0 5h6a.5.5 0 1 1 0 1h-6a.5.5 0 1 1 0-1zM7.494 8.445V9.5H6.85V6.475h1.04c.753 0 1.13.319 1.13.957 0 .31-.114.558-.341.745-.228.187-.512.276-.853.268h-.332zm0-1.47v.976h.28c.378 0 .568-.165.568-.494 0-.322-.188-.482-.563-.482h-.285zm3.109 1.47V9.5h-.644V6.475h1.04c.753 0 1.13.319 1.13.957 0 .31-.114.558-.341.745-.228.187-.512.276-.853.268h-.332zm0-1.47v.976h.28c.378 0 .568-.165.568-.494 0-.322-.188-.482-.563-.482h-.285zM15.429 9.5h-.703l-.227-.693h-1.1l-.222.693h-.7l1.108-3.025h.758L15.429 9.5zm-1.082-1.191l-.344-1.05a1.164 1.164 0 0 1-.047-.263h-.017a1.117 1.117 0 0 1-.053.256l-.346 1.057h.807zm2.59.136V9.5h-.645V6.475h1.04c.753 0 1.13.319 1.13.957 0 .31-.114.558-.341.745-.228.187-.512.276-.853.268h-.332zm0-1.47v.976h.278c.38 0 .569-.165.569-.494 0-.322-.188-.482-.563-.482h-.285z" fill="#979797"/></svg>