<svg width="16" height="16" xmlns="http://www.w3.org/2000/svg"><g fill="#FFF" fill-rule="nonzero"><path d="M4.733 10.8h8.4v-.467h-8.4v.467zm0-.933h8.4V9.4h-8.4v.467zm0 2.333h8.4v-.467h-8.4v.467zm0-3.733h8.4V8h-8.4v.467zm-1.079-1.4h-.642a.146.146 0 0 0-.145.145v1.109c0 .08.065.146.145.146h.642c.08 0 .146-.066.146-.146V7.212a.146.146 0 0 0-.146-.145zm0 4.666h-.642a.146.146 0 0 0-.145.146v1.108c0 .081.065.146.145.146h.642c.08 0 .146-.065.146-.146V11.88a.146.146 0 0 0-.146-.146zm1.08-4.2h8.4v-.466h-8.4v.466zm0 5.6h8.4v-.466h-8.4v.466zM3.653 9.4h-.642a.146.146 0 0 0-.145.146v1.108c0 .08.065.146.145.146h.642c.08 0 .146-.065.146-.146V9.546a.146.146 0 0 0-.146-.146zM13.6 1H2.4A1.4 1.4 0 0 0 1 2.4v11.2A1.4 1.4 0 0 0 2.4 15h11.2a1.4 1.4 0 0 0 1.4-1.4V2.4A1.4 1.4 0 0 0 13.6 1zm.525 12.688a.437.437 0 0 1-.437.437H2.312a.438.438 0 0 1-.437-.437V2.312c0-.241.196-.437.437-.437h11.376c.241 0 .437.196.437.437v11.376z"/><path d="M3.158 2.867h9.684c.16 0 .292.13.292.291v2.684c0 .16-.131.291-.292.291H3.158a.292.292 0 0 1-.291-.291V3.158c0-.16.13-.291.291-.291zm.175.466v2.334h.358V4.68h.83c.266 0 .463-.067.591-.202a.669.669 0 0 0 .192-.476c0-.212-.072-.376-.215-.493-.144-.117-.333-.176-.568-.176H3.333zm2.454 0v2.334h.358V4.68h.83c.266 0 .463-.067.591-.202a.669.669 0 0 0 .192-.476c0-.212-.072-.376-.215-.493-.144-.117-.333-.176-.568-.176H5.787zm3.188 0L7.98 5.667h.367l.285-.7h1.044l.268.7h.391L9.38 3.333h-.404zm1.72 0v2.334h.358V4.68h.83c.266 0 .463-.067.591-.202a.669.669 0 0 0 .193-.476c0-.212-.072-.376-.216-.493-.144-.117-.333-.176-.568-.176h-1.187zm-5.752.67c0 .153-.05.26-.15.32-.1.06-.23.09-.39.09H3.69v-.808h.711a.87.87 0 0 1 .325.05c.144.06.216.177.216.349zm2.454 0c0 .153-.05.26-.15.32-.1.06-.23.09-.39.09h-.712v-.808h.711a.87.87 0 0 1 .326.05c.143.06.215.177.215.349zm2.165.707h-.826l.426-1.03.4 1.03zm2.744-.706c0 .152-.05.259-.15.319-.1.06-.23.09-.391.09h-.712v-.808h.712a.87.87 0 0 1 .325.05c.144.06.216.177.216.349z"/></g></svg>