<svg width="24" height="24" xmlns="http://www.w3.org/2000/svg"><path d="M17.5 4a.5.5 0 01.492.41L18 4.5V7h2.5a.5.5 0 01.492.41L21 7.5v8a.5.5 0 01-.41.492L20.5 16H17v3.5a.5.5 0 01-.41.492L16.5 20h-8a.5.5 0 01-.492-.41L8 19.5V16H4.5a.5.5 0 01-.492-.41L4 15.5v-8a.5.5 0 01.41-.492L4.5 7H7V4.5a.5.5 0 01.41-.492L7.5 4h10zM16 12H9v7h7v-7zm-1 4.5a.5.5 0 110 1h-5a.5.5 0 110-1h5zM20 8H5v7h3v-3.5a.5.5 0 01.41-.492L8.5 11h8a.5.5 0 01.492.41l.008.09V15h3V8zm-5 5.5a.5.5 0 110 1h-5a.5.5 0 110-1h5zM17 5H8v2h9V5z" fill="#979797"/></svg>