<svg width="24" height="24" xmlns="http://www.w3.org/2000/svg"><path d="M16.048 20.5a.5.5 0 0 1 0 1H6.077c-.863 0-1.577-.663-1.577-1.5V5c0-.837.714-1.5 1.577-1.5h11.846c.863 0 1.577.663 1.577 1.5v8.607a.5.5 0 0 1-1 0V5c0-.268-.25-.5-.577-.5H6.077c-.327 0-.577.232-.577.5v15c0 .268.25.5.577.5h9.971zM7.5 7h9a.5.5 0 1 1 0 1h-9a.5.5 0 0 1 0-1zm0 3h9a.5.5 0 1 1 0 1h-9a.5.5 0 1 1 0-1zm0 3h9a.5.5 0 1 1 0 1h-9a.5.5 0 1 1 0-1zm0 3H14a.5.5 0 1 1 0 1H7.5a.5.5 0 1 1 0-1zm8.998 1.005a.5.5 0 0 1-.996-.082c.127-1.539.925-2.407 2.299-2.423 1.7-.02 2.312.93 2.312 2.421 0 .59-.29 1.01-.956 1.682-.468.472-.53.539-.62.686-.204.338-.297.588-.296.723a.5.5 0 0 1-1 .01c-.004-.36.149-.768.44-1.25.152-.25.211-.315.767-.874.477-.48.665-.754.665-.977 0-1.003-.277-1.433-1.3-1.42-.822.009-1.228.45-1.315 1.504zM17.7 22a.5.5 0 1 1 0-1 .5.5 0 0 1 0 1z" fill="#979797"/></svg>