<svg width="16" height="16" xmlns="http://www.w3.org/2000/svg"><g fill="#8F95A2" fill-rule="nonzero"><path d="M10.62 15H3.261C2.554 15 2 14.21 2 13.202V2.798C2 1.79 2.554 1 3.261 1h9.296c.707 0 1.261.79 1.261 1.798V7.22c0 .21-.155.381-.347.381-.192 0-.347-.17-.347-.381V2.798c0-.61-.299-1.034-.567-1.034H3.261c-.268 0-.567.424-.567 1.034v10.404c0 .61.299 1.034.567 1.034h7.36c.19 0 .346.171.346.382s-.155.382-.347.382z"/><path d="M12.982 13.74a.392.392 0 0 1-.4-.373c-.01-.422-.023-1.06.506-1.403.685-.445 1.094-1.011 1.094-1.514 0-.678-.595-1.23-1.327-1.23s-1.327.552-1.327 1.23c0 .053.003.104.01.155.03.209-.125.4-.344.428a.398.398 0 0 1-.45-.328 1.836 1.836 0 0 1-.018-.255c0-1.098.955-1.991 2.129-1.991 1.173 0 2.128.893 2.128 1.99 0 1.089-1.009 1.862-1.443 2.144-.158.102-.164.43-.157.76a.39.39 0 0 1-.393.387h-.008zm.048 1.245c-.221 0-.4-.17-.4-.38v-.265c0-.21.179-.38.4-.38.221 0 .4.17.4.38v.264c0 .21-.179.381-.4.381zM7.874 6.075c-1.01 0-2.02-.003-3.03 0-.233.001-.484-.013-.478.388.006.362.238.371.453.372 2.067.005 4.133.004 6.199.002.23 0 .446-.047.436-.393-.01-.346-.232-.369-.458-.369H7.874zm.003-1.892c-1.01 0-2.02-.004-3.03.003-.192.001-.426-.021-.472.29-.066.444.187.484.478.483 1.392-.003 2.785 0 4.177 0l1.974-.002c.23 0 .448-.032.444-.379-.004-.336-.222-.39-.45-.391-1.04-.004-2.08-.002-3.12-.002v-.002zm.714 6.711c.236 0 .437-.066.432-.399-.005-.298-.188-.377-.407-.378-.746-.003-3.107-.012-3.853-.01-.215.001-.393.06-.4.375-.006.348.186.401.42.402.381.001.762 0 1.143 0 .35 0 2.315.01 2.665.01zm-3.812.792c-.21.002-.402.026-.414.353-.01.31.151.408.372.41.763.008 3.102.049 3.865.04.224-.003.386-.125.376-.42-.01-.277-.175-.341-.38-.341-.381 0-2.338-.041-2.72-.042-.367 0-.733-.002-1.1 0zm-.064-3.081c-.211 0-.355.073-.347.36.007.254.137.334.328.335.791.002 3.203.006 3.995.004.194 0 .325-.096.33-.339.005-.277-.144-.358-.356-.357-.381.003-2.382-.003-2.763-.003H4.715z"/></g></svg>