<svg width="16" height="16" xmlns="http://www.w3.org/2000/svg"><path d="M10.62 15H3.261C2.554 15 2 14.21 2 13.202V2.798C2 1.79 2.554 1 3.261 1h9.296c.707 0 1.261.79 1.261 1.798V7.22c0 .21-.155.381-.347.381-.192 0-.347-.17-.347-.381V2.798c0-.61-.299-1.034-.567-1.034H3.261c-.268 0-.567.424-.567 1.034v10.404c0 .61.299 1.034.567 1.034h7.36c.19 0 .346.171.346.382s-.155.382-.347.382zm2.362-1.26a.392.392 0 0 1-.4-.373c-.01-.422-.023-1.06.506-1.403.685-.445 1.094-1.011 1.094-1.514 0-.678-.595-1.23-1.327-1.23s-1.327.552-1.327 1.23c0 .053.003.104.01.155.03.209-.125.4-.344.428a.398.398 0 0 1-.45-.328 1.836 1.836 0 0 1-.018-.255c0-1.098.955-1.991 2.129-1.991 1.173 0 2.128.893 2.128 1.99 0 1.089-1.009 1.862-1.443 2.144-.158.102-.164.43-.157.76a.39.39 0 0 1-.393.387h-.008zm.048 1.245a.39.39 0 0 1-.4-.38v-.265c0-.21.179-.38.4-.38.221 0 .4.17.4.38v.264c0 .21-.179.381-.4.381zm-5.156-8.91h3.122c.226 0 .449.023.458.369.01.346-.206.393-.436.393-2.066.002-4.132.003-6.199-.002-.215 0-.447-.01-.453-.372-.006-.401.245-.387.477-.387 1.01-.004 2.02-.002 3.03-.001zm.003-1.892v.002c1.04 0 2.081-.002 3.122.002.227 0 .445.055.45.391.003.347-.214.38-.445.38H9.03c-1.392 0-2.785-.002-4.177.001-.29 0-.544-.039-.478-.483.046-.311.28-.289.473-.29 1.01-.007 2.02-.003 3.03-.003zm.714 6.711c-.35 0-2.315-.01-2.665-.01H4.784c-.235 0-.427-.054-.42-.402.006-.316.184-.374.4-.374.745-.003 3.106.006 3.852.01.219 0 .402.079.407.377.005.333-.196.399-.432.4zm-3.812.792c.366-.002.732 0 1.099 0 .382 0 2.339.042 2.72.042.205 0 .37.064.38.342.01.294-.152.416-.376.418-.763.01-3.102-.031-3.865-.038-.221-.003-.382-.101-.372-.411.012-.327.203-.351.414-.353zm-.064-3.081h1.187c.381 0 2.382.006 2.763.003.212-.001.36.08.355.357-.004.243-.135.34-.329.34-.792 0-3.204-.003-3.995-.005-.19 0-.32-.081-.328-.335-.008-.287.136-.36.347-.36z" fill="#FFF"/></svg>