<svg class="icon" viewBox="0 0 1024 1024" xmlns="http://www.w3.org/2000/svg" width="200" height="200"><path d="M512 928.914l-175.543-102.4c-7.314 29.257-21.943 51.2-43.886 73.143L512 1024l219.429-124.343-43.886-65.828L512 928.914zM131.657 636.343C58.514 636.343 0 694.857 0 768s58.514 131.657 131.657 131.657S263.314 841.143 263.314 768c7.315-73.143-51.2-131.657-131.657-131.657zm0 197.486c-29.257 0-58.514-29.258-58.514-58.515 0-36.571 29.257-58.514 58.514-58.514s58.514 29.257 58.514 58.514c7.315 29.257-21.942 58.515-58.514 58.515zm760.686-197.486c-73.143 0-131.657 58.514-131.657 131.657S819.2 899.657 892.343 899.657 1024 841.143 1024 768s-58.514-131.657-131.657-131.657zm0 197.486c-36.572 0-58.514-29.258-58.514-58.515 0-36.571 29.257-58.514 58.514-58.514s58.514 29.257 58.514 58.514-29.257 58.515-58.514 58.515zM168.229 570.514V373.03l175.542-102.4c-14.628-21.943-29.257-43.886-36.571-73.143L87.771 321.829v248.685c29.258-7.314 58.515-7.314 80.458 0zm680.228 0c29.257-7.314 51.2-7.314 80.457 0V321.83L716.8 197.486c-7.314 29.257-21.943 51.2-36.571 73.143l175.542 102.4v197.485zM512 270.63c73.143 0 131.657-58.515 131.657-131.658C643.657 58.514 585.143 0 512 0S380.343 58.514 380.343 131.657c0 80.457 58.514 138.972 131.657 138.972zm0-197.486c36.571 0 58.514 29.257 58.514 58.514S548.571 197.486 512 197.486s-58.514-29.257-58.514-65.829S475.429 73.143 512 73.143z"/></svg>