<svg width="16" height="16" xmlns="http://www.w3.org/2000/svg"><g fill="#8F95A2" fill-rule="nonzero"><path d="M11.1 3.375v-.75h.9c.76 0 1.375.616 1.375 1.375v9c0 .76-.616 1.375-1.375 1.375H3c-.76 0-1.375-.616-1.375-1.375V4c0-.76.616-1.375 1.375-1.375h.893v.75H3A.625.625 0 0 0 2.375 4v9c0 .345.28.625.625.625h9c.345 0 .625-.28.625-.625V4A.625.625 0 0 0 12 3.375h-.9z"/><path d="M4.626 2.695a.125.125 0 0 0-.125.125v1c0 .069.056.125.125.125h5.722a.125.125 0 0 0 .125-.125v-1a.125.125 0 0 0-.125-.125H8.829a.375.375 0 0 1-.373-.34c-.065-.684-.405-.98-1.14-.98-.707 0-.947.252-.88.907a.375.375 0 0 1-.374.413H4.626zm4.522-.75h1.2c.483 0 .875.392.875.875v1a.875.875 0 0 1-.875.875H4.626a.875.875 0 0 1-.875-.875v-1c0-.483.391-.875.875-.875H5.68c.063-.847.643-1.32 1.635-1.32.991 0 1.63.461 1.832 1.32zM9.673 6.739a.375.375 0 0 1 .538.522l-3.071 3.17a.375.375 0 0 1-.493.04l-1.87-1.385a.375.375 0 1 1 .446-.603l1.607 1.19L9.673 6.74z"/></g></svg>