<svg class="icon" viewBox="0 0 1024 1024" xmlns="http://www.w3.org/2000/svg" width="200" height="200"><path d="M348.067 936.774a19.037 19.037 0 0 1-11.171-4.003h-.791a218.205 218.205 0 0 1-74.938-165.47c0-120.738 98.07-219.88 218.53-219.88s218.578 98.35 218.578 219.88c0 62.372-26.298 121.484-72.611 163.096-3.165 3.212-8.75 4.003-11.962 4.003a16.663 16.663 0 0 1-11.962-4.794l-.792-.838-.79-.791a16.943 16.943 0 0 1-4.795-13.592c0-4.794 2.42-9.588 5.585-12.8a184.413 184.413 0 0 0 60.65-135.912c0-47.942-18.34-94.348-52.644-128.698A177.012 177.012 0 0 0 480.49 583.4c-100.492 0-182.645 82.385-182.645 183.063a185.25 185.25 0 0 0 62.232 137.542c7.912 6.377 8.75 17.594 1.582 25.6-2.42 4.794-7.168 7.168-13.591 7.168zm429.149-351.79a156.765 156.765 0 0 1-156.3-156.72 156.765 156.765 0 0 1 156.347-156.671c85.364 0 155.554 70.33 155.554 156.672-.79 87.18-70.19 156.718-155.554 156.718zm0-275.83a120.134 120.134 0 0 0-119.622 119.949 119.622 119.622 0 1 0 239.337 0 120.134 120.134 0 0 0-119.668-119.948zm-259.258-108.73a84.713 84.713 0 0 1-84.527-84.759c0-46.359 37.516-84.712 84.573-84.712a84.713 84.713 0 0 1 84.573 84.712 84.713 84.713 0 0 1-84.573 84.713zm0-133.538c-26.298 0-47.802 21.597-47.802 47.942 0 26.437 21.504 47.988 47.848 47.988 26.299 0 47.85-21.55 47.85-47.942s-21.551-47.942-47.85-47.942z"/><path d="M481.28 867.235a99.887 99.887 0 0 1-99.7-99.933c0-55.203 44.683-99.98 99.747-99.98 55.016 0 99.7 44.777 99.7 99.98-.791 55.156-45.475 99.933-99.7 99.933zm0-163.095c-34.257 0-62.976 27.927-62.976 63.162 0 35.142 27.927 63.162 62.976 63.162 35.142 0 63.023-28.02 63.023-63.162-.792-34.397-29.51-63.162-62.976-63.162zm200.239 81.547a15.919 15.919 0 0 1-7.168-1.629l-2.374-.791-.838-.791a14.895 14.895 0 0 1-7.168-12.01 20.387 20.387 0 0 1 3.212-13.59L814.732 546.63a20.527 20.527 0 0 1 15.173-8.006c3.166 0 5.586.791 7.168 1.583l2.42.79.792.839a14.895 14.895 0 0 1 7.168 11.962 20.387 20.387 0 0 1-3.212 13.591L696.692 777.681c-3.211 5.586-8.797 8.006-15.173 8.006zM403.13 599.366a21.41 21.41 0 0 1-14.382-6.377l-.792-.791A23.831 23.831 0 0 1 384 580.189c0-5.585 2.374-10.38 7.168-13.591l235.334-185.484a23.738 23.738 0 0 1 11.17-4.003 21.41 21.41 0 0 1 14.337 6.377l.791.838.791.791a23.831 23.831 0 0 1 4.003 11.962c0 5.586-2.374 10.426-7.168 13.592L414.255 595.363a17.408 17.408 0 0 1-11.171 4.003zM777.263 495.43a67.49 67.49 0 0 1-67.026-67.165c0-36.771 30.301-67.165 67.026-67.165 36.677 0 67.025 30.394 67.025 67.165a67.49 67.49 0 0 1-67.025 67.165zm0-96.722a29.463 29.463 0 0 0-29.51 29.557c0 16.011 13.544 29.603 29.51 29.603 16.756 0 29.51-13.592 29.51-29.603a30.022 30.022 0 0 0-29.51-29.557zm75.776-194.28a89.135 89.135 0 1 1 0-178.27 89.135 89.135 0 0 1 0 178.27zm0-141.499c-28.719 0-52.643 23.971-52.643 52.736s23.924 52.783 52.596 52.783c28.765 0 52.69-24.017 52.69-52.783 0-28.765-23.925-52.782-52.643-52.782z"/><path d="M902.516 392.285c-10.38 0-18.385-7.96-18.385-19.177l13.591-223.045c0-9.635 7.96-17.595 18.34-17.595 5.585 0 10.379 2.374 13.544 6.377a17.222 17.222 0 0 1 4.003 13.591l-13.545 222.255c.791 10.426-7.215 17.594-17.594 17.594zm-170.728-83.13a16.477 16.477 0 0 1-8.797-2.42h-1.536a20.48 20.48 0 0 1-7.96-10.38 18.013 18.013 0 0 1 1.583-14.43l65.396-115.106c2.42-5.586 9.589-9.588 15.965-9.588 4.003 0 7.96 1.629 8.797 2.42h1.583a20.48 20.48 0 0 1 7.96 10.38 18.013 18.013 0 0 1-1.583 14.429l-65.397 115.107c-4.003 6.376-9.588 9.588-15.965 9.588zm-160.35-219.88A18.618 18.618 0 0 1 553.1 70.888a18.618 18.618 0 0 1 18.339-18.386h211.409a18.618 18.618 0 0 1 18.339 18.386 18.618 18.618 0 0 1-18.339 18.385h-211.41z"/><path d="M587.404 165.236a18.618 18.618 0 0 1-18.34-18.385 18.618 18.618 0 0 1 18.34-18.386h188.23a18.618 18.618 0 0 1 18.385 18.386 18.618 18.618 0 0 1-18.386 18.385h-188.23zm-210.619-35.188a18.618 18.618 0 0 1-18.338-18.385 18.618 18.618 0 0 1 18.338-18.386h67.026a18.618 18.618 0 0 1 18.339 18.386 18.618 18.618 0 0 1-18.34 18.385h-67.025z"/><path d="M105.565 1023.953a18.618 18.618 0 0 1-18.339-18.385v-84.76a18.618 18.618 0 0 1 18.34-18.385h755.432a18.618 18.618 0 0 1 18.339 18.386v84.712a18.618 18.618 0 0 1-18.34 18.432H105.566zm736.303-37.608v-48.78H123.95v48.78h717.917zM282.67 227.607a119.156 119.156 0 0 1-68.562-22.388 15.732 15.732 0 0 1-7.168-13.591c0-4.003 0-8.844 4.794-13.592a18.758 18.758 0 0 1 14.336-6.423 17.222 17.222 0 0 1 11.171 4.003c14.383 10.426 29.51 15.22 46.266 15.22a75.87 75.87 0 0 0 75.776-75.962c0-42.356-35.095-77.545-76.567-77.545-18.339 0-35.095 5.586-48.64 16.757-4.003 4.003-8.797 4.003-11.17 4.003a19.363 19.363 0 0 1-14.383-7.168 23.831 23.831 0 0 1-3.957-12.009c0-5.585 2.374-10.38 7.168-13.591C231.657 8.564 256.42.512 283.508.512c62.232 0 113.292 51.2 113.292 113.57-1.63 62.325-52.69 113.525-114.083 113.525z"/></svg>