<svg width="60" height="60" xmlns="http://www.w3.org/2000/svg"><g fill="#FFF"><path d="M39.176 54H14.268C11.875 54 10 51.293 10 47.837V12.163C10 8.707 11.875 6 14.268 6h31.464C48.125 6 50 8.707 50 12.163v15.161c0 .723-.526 1.31-1.175 1.31s-1.175-.587-1.175-1.31V12.163c0-2.089-1.01-3.545-1.918-3.545H14.268c-.908 0-1.918 1.456-1.918 3.545v35.674c0 2.089 1.01 3.545 1.918 3.545h24.908c.649 0 1.175.586 1.175 1.309S39.825 54 39.176 54z"/><path d="M29.88 23.607c-3.419-.001-6.838-.007-10.257.003-.787.003-1.635-.048-1.614 1.354.019 1.262.804 1.294 1.533 1.296 6.994.017 13.987.014 20.98.01.779-.001 1.509-.165 1.477-1.374-.032-1.207-.786-1.286-1.55-1.287-3.524-.003-7.046-.001-10.569-.002zm.012-6.604c-3.418 0-6.836-.013-10.254.012-.652.004-1.443-.075-1.6 1.012-.224 1.551.635 1.69 1.618 1.687 4.712-.012 9.425-.004 14.138-.004 2.227 0 4.454-.005 6.681-.003.781 0 1.518-.112 1.504-1.323-.014-1.173-.752-1.363-1.521-1.366-3.522-.015-7.044-.007-10.565-.007v-.008zm2.416 23.427c.8 0 1.478-.23 1.461-1.392-.015-1.042-.635-1.316-1.376-1.32-2.526-.01-10.516-.043-13.041-.033-.729.003-1.331.204-1.351 1.307-.023 1.213.626 1.4 1.42 1.403 1.289.004 2.577.001 3.866.002 1.185 0 7.835.034 9.02.033zm-12.904 2.765c-.71.005-1.36.091-1.398 1.231-.036 1.081.51 1.426 1.259 1.433 2.583.025 10.499.169 13.082.136.757-.01 1.305-.434 1.27-1.461-.033-.97-.593-1.194-1.284-1.193-1.292 0-7.916-.144-9.208-.146-1.24-.002-2.48-.008-3.72 0zM19.19 32.44c-.714-.002-1.202.257-1.174 1.258.024.884.464 1.166 1.11 1.168 2.679.007 10.842.02 13.522.016.658-.001 1.098-.338 1.114-1.184.019-.968-.485-1.252-1.204-1.247-1.288.01-8.06-.01-9.349-.01-1.34 0-2.68.003-4.019 0zM46.5 36c2.206 0 4 1.8 4 4s-1.794 4-4 4c-2.2 0-4-1.794-4-4 0-2.2 1.794-4 4-4zm0 5.682c.888 0 1.654-.743 1.654-1.654 0-.911-.743-1.654-1.654-1.654-.911 0-1.654.743-1.654 1.654 0 .911.743 1.654 1.654 1.654z"/><path d="M56.684 37.943c.046.239.237 1.252.316 2.069 0 .868-.168 1.947-.214 2.069-.144.868-.693 1.421-1.41 1.421h-.121c-1.075 0-1.982.915-1.982 1.999 0 .263.144.624.19.746.336.746.075 1.656-.595 2.14l-.07.046-2.531 1.422h-.047c-.26.098-.479.145-.74.145-.52 0-1.047-.216-1.382-.6-.335-.334-1.168-1.01-1.647-1.01-.41 0-1.219.601-1.6 1.01-.33.384-.857.6-1.383.6-.265 0-.502-.023-.716-.145l-.07-.047-2.457-1.394h-.046c-.717-.506-.982-1.445-.647-2.19.07-.095.19-.484.19-.747 0-1.083-.907-1.998-1.982-1.998h-.07c-.716 0-1.312-.605-1.456-1.422 0-.07-.214-1.154-.214-2.069s.214-2.022.214-2.069c.144-.868.693-1.421 1.41-1.421h.121c1.075 0 1.982-.915 1.982-1.999 0-.263-.12-.6-.19-.746-.336-.746-.075-1.656.595-2.14l.07-.046 2.578-1.422h.046c.26-.098.48-.145.74-.145.475 0 1 .169 1.336.554.335.29 1.121.938 1.6.938.452 0 1.261-.648 1.573-.938A1.88 1.88 0 0 1 49.411 30c.265 0 .502.023.716.145l.07.047 2.503 1.394h.024c.712.506.977 1.445.642 2.19-.07.146-.191.484-.191.747 0 1.083.907 1.998 1.982 1.998h.07c.74 0 1.312.554 1.457 1.422zm-5.85 7.53c0-2.14 1.578-3.946 3.625-4.256.075-.337.121-.792.121-1.154 0-.36-.074-.816-.12-1.154a4.356 4.356 0 0 1-3.626-4.283c0-.432.07-.863.191-1.154l-1.526-.868a8.804 8.804 0 0 1-.642.53c-.814.554-1.6.868-2.34.868-.74 0-1.532-.314-2.341-.915a4.555 4.555 0 0 1-.67-.53l-1.601.915c.12.338.19.746.19 1.154 0 2.092-1.572 3.945-3.624 4.283a5.882 5.882 0 0 0-.121 1.154c0 .362.074.817.12 1.154a4.356 4.356 0 0 1 3.626 4.284c0 .408-.07.863-.191 1.154l1.456.816c.168-.145.387-.338.647-.53.815-.647 1.647-.938 2.387-.938.787 0 1.624.29 2.434.938.288.216.526.408.67.554l1.526-.868a3.507 3.507 0 0 1-.19-1.154z"/></g></svg>