<svg xmlns="http://www.w3.org/2000/svg" width="15" height="15" fill="none"><g fill-rule="evenodd"><path d="M9.9 12.415c-.51 0-.98-.28-1.22-.72-.25-.44-.24-.99.03-1.42.26-.41.71-.66 1.19-.66.51 0 .98.28 1.22.72.25.44.24.99-.03 1.42-.25.41-.71.66-1.19.66zm-.29-1.92c-.09.05-.17.12-.22.21-.06.09-.09.18-.09.29 0 .11.02.21.08.3a.565.565 0 00.52.32c.1 0 .2-.03.3-.08.09-.05.16-.11.21-.2q.09-.135.09-.3a.52.52 0 00-.08-.3.565.565 0 00-.52-.32c-.1 0-.2.03-.29.08z" fill="#000"/><path d="M13.34 12.75l-.36.63c-.22.37-.64.53-1.03.39l-.26-.1-.6.34-.04.22a.87.87 0 01-.85.77h-.02l-.7-.01c-.41-.01-.75-.32-.83-.74l-.05-.26-.61-.39-.18.07c-.4.16-.86-.01-1.07-.41l-.33-.64c-.2-.37-.12-.84.19-1.12l.19-.18.03-.74-.16-.13c-.34-.28-.42-.78-.2-1.17l.36-.63c.22-.36.64-.53 1.03-.38l.27.09.59-.33.04-.23a.87.87 0 01.85-.77h.02l.7.02c.41 0 .75.31.83.73l.06.31.55.36.23-.09c.4-.16.86.01 1.07.41l.33.64c.2.37.12.84-.19 1.12l-.22.2-.03.69.19.16c.34.28.42.78.2 1.17zm-5.57-.98l-.45.43.25.49.53-.21 1.4.9.12.61.46.01.11-.63 1.42-.8.56.21.27-.48-.51-.43.07-1.6.48-.44-.25-.49-.59.23-1.33-.87-.13-.65-.46-.02-.11.64-1.39.78-.59-.2-.27.48.48.39-.07 1.65z" fill="#000"/><path d="M11.5 0h-8c-1.1 0-2 .9-2 2.01v10.95c0 1.11.89 2 1.98 2.01l1.63.02c.16 0 .32-.06.43-.17a.606.606 0 00-.43-1.04l-1.62-.01-.1-.01a.808.808 0 01-.69-.8l.01-11.05a.8.8 0 01.79-.71h8l.1.01c.39.05.7.39.7.8v4.28c0 .16.06.31.18.42.11.12.26.18.42.18.16 0 .31-.06.42-.18a.56.56 0 00.18-.42V2.01C13.5.9 12.6 0 11.5 0z" fill="#171a1d"/><path d="M4.499 6.186l-.1.01c-.28.04-.5.29-.5.59 0 .33.27.6.6.6h2.62l.1-.01c.29-.05.5-.29.5-.59 0-.33-.27-.6-.6-.6h-2.62zM4.499 2.993l-.1.01c-.28.04-.5.29-.5.59 0 .33.27.6.6.6h6l.1-.01c.28-.05.5-.29.5-.59 0-.33-.27-.6-.6-.6h-6z" fill="#171a1d"/></g></svg>