<svg width="16" height="16" xmlns="http://www.w3.org/2000/svg"><g fill="#8F95A2" fill-rule="nonzero"><path d="M12.39 10.811h.758v.29h-.758V3.959c0-.872-.707-1.579-1.579-1.579H3.958c-.872 0-1.579.707-1.579 1.579v6.853c0 .872.707 1.58 1.579 1.58h6.853v.757H3.958a2.337 2.337 0 0 1-2.337-2.337V3.958a2.337 2.337 0 0 1 2.337-2.337h6.853a2.337 2.337 0 0 1 2.337 2.337v7.144h-.758v-.29z"/><path d="M12.23 14.484a2.02 2.02 0 1 1 0-4.038 2.02 2.02 0 0 1 0 4.038zm0-.808a1.212 1.212 0 1 0 0-2.423 1.212 1.212 0 0 0 0 2.423z"/><path d="M13.069 14.048a.404.404 0 1 1 .589-.553l1.457 1.55a.404.404 0 1 1-.59.554l-1.456-1.551zM7.959 4.154H6.81c-.476 0-.861.364-.861.813 0 .45.385.814.861.814H7.96c.476 0 .862-.365.862-.814 0-.449-.386-.813-.862-.813zm0 1.085H6.81c-.158 0-.287-.123-.287-.272 0-.149.129-.27.287-.27H7.96c.158 0 .287.121.287.27 0 .149-.129.272-.287.272zm0 1.627H6.81c-.476 0-.861.364-.861.813 0 .448.385.813.861.813H7.96c.476 0 .862-.364.862-.813 0-.45-.386-.813-.862-.813zm0 1.084H6.81c-.158 0-.287-.122-.287-.271 0-.15.129-.271.287-.271H7.96c.158 0 .287.122.287.27 0 .15-.129.272-.287.272zm0 1.626H6.81c-.476 0-.861.365-.861.814 0 .45.385.814.861.814H7.96c.476 0 .862-.365.862-.814 0-.449-.386-.814-.862-.814zm0 1.085H6.81c-.158 0-.287-.122-.287-.27 0-.15.129-.272.287-.272H7.96c.158 0 .287.122.287.271 0 .15-.129.271-.287.271zm-3.16-.542a1.179 1.179 0 0 1-.812-.317 1.051 1.051 0 0 1-.336-.768c0-.29.12-.562.336-.767.22-.206.511-.32.813-.317h.574v-.542H4.8c-.951 0-1.723.728-1.723 1.626 0 .899.771 1.627 1.723 1.627v.543l.862-.814-.862-.814v.543zm5.17-5.423h-.574v.543h.574a1.18 1.18 0 0 1 .813.317 1.046 1.046 0 0 1 0 1.534 1.18 1.18 0 0 1-.813.318v-.542l-.861.813.861.814V7.95c.952 0 1.723-.728 1.723-1.627 0-.898-.771-1.627-1.723-1.627z"/></g></svg>