<svg width="16" height="16" xmlns="http://www.w3.org/2000/svg"><path d="M13.838 13.687l1.277 1.359a.404.404 0 1 1-.59.553l-1.294-1.38a2.02 2.02 0 0 1-2.9-1.071H3.957a2.337 2.337 0 0 1-2.337-2.337V3.958a2.337 2.337 0 0 1 2.337-2.337h6.853a2.337 2.337 0 0 1 2.337 2.337v6.708a2.02 2.02 0 0 1 .69 3.021zm-1.448-3.235V3.958c0-.872-.707-1.579-1.579-1.579H3.958c-.872 0-1.579.707-1.579 1.579v6.853c0 .872.707 1.58 1.579 1.58h6.255a2.02 2.02 0 0 1 2.177-1.94zm-.16 3.224a1.212 1.212 0 1 0 0-2.423 1.212 1.212 0 0 0 0 2.423zM7.96 4.154c.476 0 .862.364.862.813 0 .45-.386.814-.862.814H6.81c-.476 0-.861-.365-.861-.814 0-.449.385-.813.861-.813H7.96zm0 1.085c.158 0 .287-.123.287-.272 0-.149-.129-.27-.287-.27H6.81c-.158 0-.287.121-.287.27 0 .15.129.272.287.272H7.96zm0 1.627c.476 0 .862.363.862.813 0 .45-.386.813-.862.813H6.81c-.476 0-.861-.365-.861-.813 0-.45.385-.813.861-.813H7.96zm0 1.084c.158 0 .287-.123.287-.271 0-.15-.129-.271-.287-.271H6.81c-.158 0-.287.121-.287.27 0 .15.129.272.287.272H7.96zm0 1.626c.476 0 .862.365.862.814 0 .45-.386.814-.862.814H6.81c-.476 0-.861-.365-.861-.814 0-.45.385-.814.861-.814H7.96zm0 1.085c.158 0 .287-.122.287-.27 0-.15-.129-.272-.287-.272H6.81c-.158 0-.287.122-.287.271 0 .149.129.271.287.271H7.96zm-3.16-.542v-.543l.863.814-.862.814v-.543c-.952 0-1.723-.728-1.723-1.627 0-.898.772-1.626 1.723-1.626h.574v.542H4.8a1.175 1.175 0 0 0-.813.317 1.051 1.051 0 0 0-.336.767c0 .29.12.562.336.768.22.205.511.319.813.317zm5.17-5.423c.952 0 1.723.729 1.723 1.627 0 .899-.771 1.627-1.723 1.627v.543l-.861-.814.86-.813v.542a1.18 1.18 0 0 0 .814-.318 1.046 1.046 0 0 0 0-1.534 1.18 1.18 0 0 0-.813-.317h-.574v-.543h.575z" fill="#FFF" fill-rule="nonzero"/></svg>