<svg width="24" height="24" xmlns="http://www.w3.org/2000/svg"><path d="M16 12.511a2.998 2.998 0 011-.259V6.5a.5.5 0 111 0v5.84a2.98 2.98 0 011 .47V6.5a.5.5 0 111 0v7.559a3.004 3.004 0 01-.313 2.923l.03.028 1.415 1.415a.5.5 0 01-.707.707l-1.415-1.414a.507.507 0 01-.028-.03A3 3 0 0115 13.25V6.5a.5.5 0 111 0v6.011zm-.049 1.204a.502.502 0 01-.236.236 2 2 0 10.236-.236zM4.5 6a.5.5 0 01.5.5v10a.5.5 0 11-1 0v-10a.5.5 0 01.5-.5zm2 0h1a.5.5 0 01.5.5v10a.5.5 0 01-.5.5h-1a.5.5 0 01-.5-.5v-10a.5.5 0 01.5-.5zm3 0a.5.5 0 01.5.5v10a.5.5 0 11-1 0v-10a.5.5 0 01.5-.5zm2 0h2a.5.5 0 01.5.5v10a.5.5 0 01-.5.5h-2a.5.5 0 01-.5-.5v-10a.5.5 0 01.5-.5z" fill="#979797"/></svg>