<svg width="24" height="24" xmlns="http://www.w3.org/2000/svg"><path d="M8.025 15.511v-.44a.1.1 0 01.17-.071l.956.928a.1.1 0 010 .144L8.195 17a.1.1 0 01-.17-.072v-.44a.502.502 0 01-.106.012 2.5 2.5 0 110-5 .5.5 0 110 1 1.5 1.5 0 000 3 .53.53 0 01.106.011zm8.212-3.022v.44a.1.1 0 01-.17.071l-.956-.928a.1.1 0 010-.144l.957-.928a.1.1 0 01.17.072v.41A1.5 1.5 0 0016 8.5a.5.5 0 110-1 2.5 2.5 0 01.237 4.989zM13.946 19.5a.5.5 0 110 1H5A1.5 1.5 0 013.5 19V5A1.5 1.5 0 015 3.5h14A1.5 1.5 0 0120.5 5v10.406a.5.5 0 11-1 0V5a.5.5 0 00-.5-.5H5a.5.5 0 00-.5.5v14a.5.5 0 00.5.5h8.946zM11 7.5a.5.5 0 100 1h2a.5.5 0 100-1h-2zm0-1h2a1.5 1.5 0 010 3h-2a1.5 1.5 0 010-3zm0 5a.5.5 0 100 1h2a.5.5 0 100-1h-2zm0-1h2a1.5 1.5 0 010 3h-2a1.5 1.5 0 010-3zm0 5a.5.5 0 100 1h2a.5.5 0 100-1h-2zm0-1h2a1.5 1.5 0 010 3h-2a1.5 1.5 0 010-3zm8.182 6.187a3 3 0 11.705-.705l.03.028 1.415 1.415a.5.5 0 01-.707.707l-1.415-1.414a.507.507 0 01-.028-.03zm-.325-1.03a2 2 0 10-2.829-2.829 2 2 0 002.829 2.829z" fill="#979797"/></svg>