<svg width="24" height="24" xmlns="http://www.w3.org/2000/svg"><path d="M12.676 19.5v.992a52.607 52.607 0 0 1-.003-.992h.588a.5.5 0 0 1 0 1h-.583l-.002-.008v.008h-.003v-.996c.002.02.003.152.003.996h-7.6c-.862 0-1.576-.663-1.576-1.5V4c0-.837.714-1.5 1.577-1.5h11.846c.863 0 1.577.663 1.577 1.5v8.607a.5.5 0 0 1-1 0V4c0-.268-.25-.5-.577-.5H5.077c-.327 0-.577.232-.577.5v15c0 .268.25.5.577.5h7.599zm2.599-3.601c-.2.37-.466.679-.768.894a2.987 2.987 0 0 0 0 .414c.302.215.569.525.768.894.2.37.315.772.336 1.154.091.066.186.126.284.178A2.426 2.426 0 0 1 17 19.177c.398 0 .78.09 1.105.256.098-.052.193-.112.284-.178a2.78 2.78 0 0 1 .336-1.154c.2-.37.466-.679.768-.894a2.987 2.987 0 0 0 0-.414 2.623 2.623 0 0 1-.768-.894 2.78 2.78 0 0 1-.336-1.154 2.459 2.459 0 0 0-.284-.178 2.426 2.426 0 0 1-1.105.256c-.398 0-.78-.09-1.105-.256a2.459 2.459 0 0 0-.284.178 2.78 2.78 0 0 1-.336 1.154zm-.492-1.771c.285-.249.607-.448.953-.59a.5.5 0 0 1 .485.059c.192.14.472.226.779.226.307 0 .587-.086.779-.226a.5.5 0 0 1 .485-.06c.346.143.668.342.953.59a.5.5 0 0 1 .171.413c-.019.265.056.586.217.884.16.295.375.518.587.627a.5.5 0 0 1 .266.372 3.96 3.96 0 0 1 0 1.154.5.5 0 0 1-.266.372c-.212.109-.428.332-.587.627-.16.298-.236.619-.217.884a.5.5 0 0 1-.17.412 3.455 3.455 0 0 1-.954.59.5.5 0 0 1-.485-.059c-.192-.14-.472-.226-.779-.226-.307 0-.587.086-.779.226a.5.5 0 0 1-.485.06 3.455 3.455 0 0 1-.953-.59.5.5 0 0 1-.171-.413c.019-.265-.056-.586-.217-.884-.16-.295-.375-.518-.587-.627a.5.5 0 0 1-.266-.372 3.96 3.96 0 0 1 0-1.154.5.5 0 0 1 .266-.372c.212-.109.428-.332.587-.627.16-.298.236-.619.217-.884a.5.5 0 0 1 .17-.412zM17 18.5a1.5 1.5 0 1 1 0-3 1.5 1.5 0 0 1 0 3zm0-1a.5.5 0 1 0 0-1 .5.5 0 0 0 0 1zM6.5 6h9a.5.5 0 1 1 0 1h-9a.5.5 0 0 1 0-1zm0 3h9a.5.5 0 1 1 0 1h-9a.5.5 0 0 1 0-1zm0 3h9a.5.5 0 1 1 0 1h-9a.5.5 0 1 1 0-1zm0 3H13a.5.5 0 1 1 0 1H6.5a.5.5 0 1 1 0-1z" fill="#979797"/></svg>