<svg width="24" height="24" xmlns="http://www.w3.org/2000/svg"><path d="M15.231 4.5l-3.85 4.535a.5.5 0 0 1-.881-.324V4a.5.5 0 1 1 1 0v3.35l3.119-3.674A.5.5 0 0 1 15 3.5h5a.5.5 0 0 1 .5.5v16a.5.5 0 0 1-.5.5H4a.5.5 0 0 1-.5-.5v-3a.5.5 0 0 1 .117-.322l2.883-3.43V7.041a.5.5 0 0 1 .5-.5h2a.5.5 0 0 1 .5.5v4.046a.5.5 0 1 1-1 0V7.54h-1v5.89a.5.5 0 0 1-.117.321L4.5 17.182V19.5h15v-15h-4.269zm1.269 3v9h1v-9h-1zm0-1h1a1 1 0 0 1 1 1v9a1 1 0 0 1-1 1h-1a1 1 0 0 1-1-1v-9a1 1 0 0 1 1-1zm-4 5v5h1v-5h-1zm0-1h1a1 1 0 0 1 1 1v5a1 1 0 0 1-1 1h-1a1 1 0 0 1-1-1v-5a1 1 0 0 1 1-1z" fill="#979797"/></svg>