<svg width="16" height="16" xmlns="http://www.w3.org/2000/svg"><path d="M11.192 11.5h.346V5.317h-.346V11.5zm-.404-7h1.154c.223 0 .404.183.404.408v7c0 .226-.18.409-.404.409h-1.154a.406.406 0 0 1-.403-.409v-7c0-.225.18-.408.403-.408zM7.327 6.833H8.48c.223 0 .404.183.404.409v4.666c0 .226-.181.409-.404.409H7.327a.406.406 0 0 1-.404-.409V7.242c0-.226.18-.409.404-.409zM7.73 11.5h.346V7.65H7.73v3.85zm-.282-5.746a.432.432 0 0 1-.739-.31V2.168c0-.242.194-.438.433-.438s.432.196.432.438v2.221l2.504-2.53a.43.43 0 0 1 .306-.129h3.461c.24 0 .433.196.433.438v11.666a.435.435 0 0 1-.433.438H1.154a.435.435 0 0 1-.433-.438V11.5a.44.44 0 0 1 .127-.31l2.038-2.06V3.56c0-.242.194-.438.433-.438H5c.24 0 .433.196.433.437v4.09A.435.435 0 0 1 5 8.085a.435.435 0 0 1-.432-.438V3.997h-.816v5.314a.44.44 0 0 1-.127.31l-2.038 2.06v1.715h11.826V2.604h-2.85L7.45 5.754z" fill="#FFF" fill-rule="nonzero"/></svg>