<svg width="16" height="16" xmlns="http://www.w3.org/2000/svg"><path d="M9.51 15H2.245C1.547 15 1 14.21 1 13.202V2.798C1 1.79 1.547 1 2.245 1h9.177c.698 0 1.245.79 1.245 1.798V7.22c0 .21-.154.381-.343.381-.19 0-.343-.17-.343-.381V2.798c0-.61-.294-1.034-.56-1.034H2.246c-.265 0-.56.424-.56 1.034v10.404c0 .61.295 1.034.56 1.034H9.51c.189 0 .342.171.342.382S9.7 15 9.51 15zM6.798 6.075h3.083c.223 0 .443.023.452.369.01.346-.204.393-.43.393-2.04.002-4.08.003-6.12-.002-.212 0-.442-.01-.447-.372-.006-.401.241-.387.47-.387.998-.004 1.995-.002 2.992-.001zm.004-1.892v.002c1.027 0 2.054-.002 3.081.002.225 0 .44.055.444.391.004.347-.21.38-.438.38H7.94c-1.375 0-2.75-.002-4.124.001-.286 0-.537-.039-.472-.483.046-.311.277-.289.467-.29.997-.007 1.994-.003 2.991-.003zm.704 6.711c-.345 0-2.285-.01-2.63-.01H3.747c-.232 0-.421-.054-.415-.402.006-.316.182-.374.395-.374.736-.003 3.067.006 3.803.01.216 0 .397.079.402.377.005.333-.193.399-.427.4zm-3.763.792c.362-.002.723 0 1.085 0 .377 0 2.31.042 2.686.042.201 0 .365.064.374.342.01.294-.15.416-.37.418-.754.01-3.062-.031-3.816-.038-.218-.003-.378-.101-.367-.411.011-.327.2-.351.408-.353zM3.68 8.605h1.172c.376 0 2.351.006 2.727.003.21-.001.357.08.351.357-.004.243-.133.34-.325.34-.781 0-3.162-.003-3.944-.005-.188 0-.316-.081-.323-.335-.008-.287.134-.36.342-.36zm10.994 1.62c.013.072.07.374.092.618 0 .259-.049.58-.062.617-.043.259-.204.424-.414.424h-.036a.597.597 0 0 0-.582.596c0 .078.043.186.056.223a.535.535 0 0 1-.174.638l-.02.014-.744.424h-.014a.572.572 0 0 1-.217.043.54.54 0 0 1-.405-.179c-.099-.1-.343-.3-.484-.3-.12 0-.358.178-.47.3a.535.535 0 0 1-.405.18.405.405 0 0 1-.21-.044l-.021-.014-.721-.416h-.014a.547.547 0 0 1-.19-.653.54.54 0 0 0 .056-.223.597.597 0 0 0-.582-.596h-.02c-.21 0-.385-.18-.428-.424 0-.021-.063-.344-.063-.617s.063-.604.063-.618c.043-.258.204-.424.414-.424h.036a.597.597 0 0 0 .581-.596.618.618 0 0 0-.056-.222.535.535 0 0 1 .175-.638l.02-.014.757-.425h.014a.572.572 0 0 1 .217-.043c.14 0 .294.05.392.165.099.087.33.28.47.28.133 0 .37-.193.462-.28a.548.548 0 0 1 .392-.165c.078 0 .147.007.21.043l.02.014.735.416h.007a.548.548 0 0 1 .189.654.618.618 0 0 0-.056.222c0 .323.266.596.582.596h.02c.217 0 .385.166.428.424zm-1.717 2.247c0-.639.463-1.177 1.064-1.27.022-.1.035-.236.035-.344 0-.108-.022-.243-.035-.344a1.293 1.293 0 0 1-1.064-1.278c0-.129.02-.258.056-.344l-.448-.26c-.048.044-.112.102-.189.159-.239.165-.47.259-.687.259-.217 0-.45-.094-.687-.273a1.34 1.34 0 0 1-.197-.158l-.47.273c.036.1.057.222.057.344 0 .624-.462 1.177-1.064 1.278-.022.1-.036.236-.036.344 0 .108.022.244.036.344.602.101 1.064.64 1.064 1.278 0 .122-.02.258-.056.344l.427.244c.05-.044.113-.101.19-.158.239-.193.483-.28.7-.28.231 0 .477.087.715.28.085.064.154.121.197.165l.448-.26a1.062 1.062 0 0 1-.056-.343zm-1.288-2.836c.644 0 1.169.54 1.169 1.198 0 .66-.525 1.198-1.17 1.198-.643 0-1.168-.537-1.168-1.198 0-.659.524-1.198 1.169-1.198zm0 1.702c.26 0 .483-.222.483-.495a.49.49 0 0 0-.483-.496.49.49 0 0 0-.484.496.49.49 0 0 0 .484.495z" fill="#FFF" fill-rule="nonzero"/></svg>