<svg class="icon" viewBox="0 0 1024 1024" xmlns="http://www.w3.org/2000/svg" width="200" height="200"><path d="M987.429 855.771H409.6C394.971 804.571 351.086 768 292.571 768H270.63c-51.2 0-102.4 36.571-109.715 87.771H43.886C14.629 855.771 0 877.714 0 892.343c0 21.943 14.629 36.571 36.571 36.571H153.6C168.229 987.43 212.114 1024 270.629 1024h21.942c51.2 0 102.4-36.571 109.715-87.771h577.828c21.943 0 36.572-14.629 36.572-36.572 7.314-21.943-7.315-43.886-29.257-43.886zm-658.286 51.2c0 21.943-14.629 43.886-36.572 43.886h-29.257c-21.943 0-36.571-21.943-36.571-36.571v-29.257c0-21.943 21.943-36.572 36.571-36.572h36.572c21.943 0 36.571 21.943 36.571 36.572v21.942zM36.57 548.571H614.4c14.629 51.2 58.514 87.772 117.029 95.086h21.942c51.2 0 102.4-36.571 109.715-87.771h117.028C1009.371 548.57 1024 533.943 1024 512s-14.629-36.571-36.571-36.571H870.4c-14.629-51.2-58.514-87.772-109.714-87.772h-29.257c-51.2 0-102.4 36.572-109.715 87.772H43.886C14.629 475.429 0 490.057 0 512s14.629 36.571 36.571 36.571zm658.286-51.2c0-21.942 21.943-36.571 36.572-36.571h29.257c21.943 0 36.571 21.943 36.571 36.571v29.258c0 21.942-21.943 36.571-36.571 36.571h-36.572c-21.943 0-36.571-21.943-36.571-36.571V497.37zM36.571 168.23H153.6C168.229 219.429 212.114 256 270.629 256h21.942c51.2 0 102.4-36.571 109.715-87.771h577.828c29.257 0 43.886-21.943 43.886-36.572 0-21.943-14.629-36.571-36.571-36.571H409.6C394.971 36.57 351.086 0 292.571 0H270.63c-58.515 0-102.4 36.571-117.029 87.771H36.571C14.63 87.771 0 109.714 0 131.657c0 14.629 14.629 36.572 36.571 36.572zm197.486-51.2c0-21.943 21.943-36.572 36.572-36.572h29.257c21.943 0 36.571 21.943 36.571 36.572v29.257c0 21.943-21.943 36.571-36.571 36.571h-36.572c-21.943 0-36.571-21.943-36.571-36.571V117.03z"/></svg>