<svg width="16" height="16" xmlns="http://www.w3.org/2000/svg"><g fill="#8F95A2" fill-rule="evenodd"><path d="M1.716 9.636h-.532A.187.187 0 0 1 1 9.446V2.192c0-.105.082-.19.184-.19h.532c.102 0 .184.085.184.19v7.256a.185.185 0 0 1-.184.19zM3.93 2h-.905a.187.187 0 0 0-.183.19v7.255c0 .105.082.19.183.19h.905a.187.187 0 0 0 .184-.19V2.191a.194.194 0 0 0-.054-.135A.181.181 0 0 0 3.93 2zm1.654 0h-.268a.187.187 0 0 0-.183.19v7.255c0 .105.082.19.183.19h.268a.187.187 0 0 0 .184-.19V2.191a.193.193 0 0 0-.053-.135.181.181 0 0 0-.13-.056zm2.242 0h-1.12a.187.187 0 0 0-.184.19v3.773c.375-.558.889-1 1.488-1.278V2.19A.185.185 0 0 0 7.826 2zm1.313 0h-.004a.187.187 0 0 0-.184.19v2.204c.123-.018.247-.034.372-.04V2.19A.189.189 0 0 0 9.14 2zm1.038 0h-.122a.187.187 0 0 0-.184.19v2.18c.166.016.33.045.49.087V2.19a.187.187 0 0 0-.184-.19zm1.353 0h-.593a.187.187 0 0 0-.183.19v2.387c.345.132.668.316.96.547V2.19A.19.19 0 0 0 11.53 2z" fill-rule="nonzero"/><path d="M14.4 13.77a.756.756 0 0 1-.476-.187l-2.147-2.149a3.936 3.936 0 0 1-2.464.86 3.959 3.959 0 0 1-2.835-1.182 3.984 3.984 0 0 1-1.192-2.874c0-1.075.424-2.095 1.192-2.874a3.94 3.94 0 0 1 2.835-1.182c1.087 0 2.093.43 2.835 1.182a3.984 3.984 0 0 1 1.193 2.874c0 .779-.345 1.746-.769 2.417l2.173 2.203c.265.268.291.537.026.805 0-.026-.185.108-.37.108zm-5.113-2.605c.768 0 1.51-.295 2.066-.86.557-.563.848-1.288.848-2.094 0-.78-.291-1.531-.848-2.095a2.842 2.842 0 0 0-2.066-.86c-.769 0-1.51.296-2.067.86a2.921 2.921 0 0 0-.848 2.095c0 .779.292 1.53.848 2.095.556.537 1.298.86 2.067.86z"/></g></svg>