<svg width="16" height="16" xmlns="http://www.w3.org/2000/svg"><path d="M10.754 4.448V2.19c0-.105.082-.19.183-.19h.593a.19.19 0 0 1 .184.19v2.793c.153.116.298.243.434.38a3.984 3.984 0 0 1 1.193 2.875c0 .779-.345 1.746-.769 2.417l2.173 2.203c.265.268.291.537.026.805 0-.026-.185.108-.37.108a.756.756 0 0 1-.477-.188l-2.147-2.149a3.936 3.936 0 0 1-2.464.86 3.959 3.959 0 0 1-2.835-1.182 3.934 3.934 0 0 1-.95-1.477h-.212a.187.187 0 0 1-.183-.19V2.19c0-.105.082-.19.183-.19h.268c.05 0 .096.02.13.056a.193.193 0 0 1 .054.135v4.132a4.193 4.193 0 0 1 .754-1.004V2.19c0-.104.083-.189.184-.189h1.12c.104 0 .185.086.184.19v2.206c.303-.103.618-.17.941-.198V2.19c0-.105.082-.19.184-.19h.004c.102 0 .183.086.184.19v1.992c.186 0 .369.013.548.038V2.19c0-.105.083-.19.184-.19h.122c.1 0 .184.086.183.19v2.13c.134.035.265.078.394.128zm-1.467 6.717c.768 0 1.51-.295 2.066-.86.557-.563.848-1.288.848-2.094 0-.78-.291-1.531-.848-2.095a2.842 2.842 0 0 0-2.066-.86c-.769 0-1.51.296-2.067.86a2.921 2.921 0 0 0-.848 2.095c0 .779.292 1.53.848 2.095.556.537 1.298.86 2.067.86zm-7.57-1.529h-.533A.187.187 0 0 1 1 9.446V2.192c0-.105.082-.19.184-.19h.532c.102 0 .184.085.184.19v7.256a.185.185 0 0 1-.184.19zM3.93 2c.049 0 .096.02.13.056a.194.194 0 0 1 .054.135v7.254c0 .105-.083.19-.184.19h-.905a.187.187 0 0 1-.183-.19V2.19c0-.105.082-.19.183-.19h.905z" fill="#FFF" fill-rule="nonzero"/></svg>