<svg width="24" height="24" xmlns="http://www.w3.org/2000/svg"><path d="M12 21a9 9 0 100-18 9 9 0 000 18zm0 1C6.477 22 2 17.523 2 12S6.477 2 12 2s10 4.477 10 10-4.477 10-10 10zM5.364 9.56a.5.5 0 11.707-.706L8.9 11.682a.5.5 0 010 .707l-2.83 2.829a.5.5 0 11-.707-.708l2.475-2.474L5.364 9.56zm5 0a.5.5 0 11.707-.706l2.829 2.828a.5.5 0 010 .707l-2.829 2.829a.5.5 0 11-.707-.708l2.475-2.474-2.475-2.475zm5 0a.5.5 0 11.707-.706l2.829 2.828a.5.5 0 010 .707l-2.829 2.829a.5.5 0 11-.707-.708l2.475-2.474-2.475-2.475z" fill="#324A59"/></svg>