<svg width="16" height="16" xmlns="http://www.w3.org/2000/svg"><path d="M8.413 6.923c0-.308.377-.463.598-.245l2.333 2.308a.343.343 0 0 1 0 .49L9.01 11.783c-.22.218-.598.064-.598-.245v-1.166c-.856.022-2.924.016-6.25-.016a.348.348 0 0 1-.346-.346V8.33c0-.193.16-.349.356-.346 3.37.058 5.514.067 6.24.035V6.923zm.7.836v.572a.347.347 0 0 1-.26.334c-.309.082-2.324.084-6.336.018v.984c3.76.035 5.856.034 6.21-.002a.349.349 0 0 1 .386.345v.693l1.488-1.472-1.488-1.472zm3.296 1.916c0-.24.196-.433.437-.433.242 0 .438.194.438.433v4.26a.435.435 0 0 1-.438.433H3.154a.435.435 0 0 1-.438-.433v-1.953c0-.239.196-.432.438-.432.241 0 .437.193.437.432v1.52h8.818V9.675zm-4.506-6.61L2.787 7.17a.43.43 0 0 1-.273.094l-.858-.005a.44.44 0 0 1-.438-.437.43.43 0 0 1 .433-.433l.705.004 5.27-4.225a.435.435 0 0 1 .545.003l5.432 4.38.708.005a.44.44 0 0 1 .437.437.43.43 0 0 1-.432.433l-.862-.005a.44.44 0 0 1-.273-.098L7.903 3.066z" fill="#FFF"/></svg>