<svg width="24" height="24" xmlns="http://www.w3.org/2000/svg"><path d="M5.5 13.658c0 2.121 2.14 4.402 6.5 6.774 4.36-2.372 6.5-4.653 6.5-6.774V5.33a19.838 19.838 0 01-3.153-.73L12 3.525 8.653 4.601a18.72 18.72 0 01-3.153.737v8.32zm-.554-9.26a17.247 17.247 0 003.401-.749l3.5-1.125a.5.5 0 01.306 0l3.5 1.125a19.03 19.03 0 003.41.75.5.5 0 01.437.497v8.762c0 2.638-2.45 5.208-7.264 7.783a.5.5 0 01-.472 0C6.95 18.866 4.5 16.296 4.5 13.658V4.896a.5.5 0 01.446-.497zm9.974 10.424c.527.364 1.014.63 1.459.797l-.334.791c-.617-.223-1.232-.574-1.846-1.055a4.253 4.253 0 01-2.11.534 4.07 4.07 0 01-2.114-.563 3.757 3.757 0 01-1.462-1.582C8.17 13.064 8 12.3 8 11.447c0-.847.172-1.619.516-2.314.343-.696.833-1.225 1.467-1.588A4.215 4.215 0 0112.113 7c.793 0 1.508.188 2.145.565a3.693 3.693 0 011.456 1.582c.334.678.5 1.443.5 2.294 0 .707-.107 1.343-.321 1.908a3.997 3.997 0 01-.973 1.473zm-2.502-1.453c.656.184 1.197.457 1.623.82.668-.609 1.002-1.525 1.002-2.748 0-.695-.118-1.302-.355-1.822a2.726 2.726 0 00-1.037-1.21 2.812 2.812 0 00-1.532-.43c-.848 0-1.55.29-2.11.87-.558.58-.837 1.446-.837 2.598 0 1.117.276 1.975.829 2.573.553.597 1.259.896 2.118.896.406 0 .79-.076 1.149-.229a3.685 3.685 0 00-1.125-.492l.275-.826z" fill="#979797"/></svg>