<svg width="16" height="16" xmlns="http://www.w3.org/2000/svg"><g fill="#8F95A2" fill-rule="evenodd"><path d="M10.608 12.388c1.495-.999 2.383-2.628 2.383-4.364V2.801c0-.058-.045-.115-.116-.135L8.318 1.393a.24.24 0 0 0-.13.001L3.884 2.658c-.076.023-.124.084-.124.15v5.22c0 1.733.887 3.36 2.379 4.358l2.107 1.408a.236.236 0 0 0 .258 0l2.104-1.406zM8.93 14.434a1.005 1.005 0 0 1-1.112 0l-2.107-1.409C4.008 11.886 2.99 10.02 2.99 8.028v-5.22a.93.93 0 0 1 .677-.888L7.972.656c.181-.053.373-.054.554-.003l4.556 1.273a.916.916 0 0 1 .678.875v5.223c0 1.996-1.018 3.863-2.725 5.003L8.93 14.434z" fill-rule="nonzero"/><path d="M10.137 9.203c.44-.521.66-1.221.66-2.1 0-.911-.229-1.621-.684-2.13-.456-.506-1.037-.76-1.744-.76-.719 0-1.309.254-1.77.76-.46.509-.69 1.219-.69 2.13 0 .909.23 1.618.688 2.127.46.509 1.043.764 1.753.764.377 0 .737-.08 1.08-.24l-.714-.561.562-.67.86.68zm1.763 1.382l-.562.669-1.18-.933a3.398 3.398 0 0 1-1.798.484c-1.006 0-1.83-.34-2.47-1.02-.642-.677-.963-1.572-.963-2.682 0-1.113.321-2.008.962-2.685S7.354 3.402 8.36 3.402c1.002 0 1.822.339 2.461 1.016.638.677.957 1.572.957 2.685 0 1.08-.309 1.968-.928 2.662l1.05.82z"/></g></svg>