<svg width="16" height="16" xmlns="http://www.w3.org/2000/svg"><path d="M10.608 12.388c1.495-.999 2.383-2.628 2.383-4.364V2.801c0-.058-.045-.115-.116-.135L8.318 1.393a.24.24 0 0 0-.13.001L3.884 2.658c-.076.023-.124.084-.124.15v5.22c0 1.733.887 3.36 2.379 4.358l2.107 1.408a.236.236 0 0 0 .258 0l2.104-1.406zM8.93 14.434a1.005 1.005 0 0 1-1.112 0l-2.107-1.409C4.008 11.886 2.99 10.02 2.99 8.028v-5.22a.93.93 0 0 1 .677-.888L7.972.656c.181-.053.373-.054.554-.003l4.556 1.273a.916.916 0 0 1 .678.875v5.223c0 1.996-1.018 3.863-2.725 5.003L8.93 14.434zm1.206-5.231l-.859-.68-.562.67.713.562a2.531 2.531 0 0 1-1.079.239c-.71 0-1.294-.255-1.753-.764-.459-.51-.689-1.218-.689-2.127 0-.911.231-1.621.691-2.13.461-.506 1.051-.76 1.77-.76.707 0 1.288.254 1.744.76.455.509.683 1.219.683 2.13 0 .879-.22 1.579-.659 2.1zm1.763 1.382l-1.05-.82c.62-.694.928-1.581.928-2.662 0-1.113-.319-2.008-.957-2.685-.639-.677-1.459-1.016-2.46-1.016-1.007 0-1.83.339-2.472 1.016-.64.677-.962 1.572-.962 2.685 0 1.11.321 2.005.962 2.683.641.679 1.465 1.019 2.471 1.019.667 0 1.266-.162 1.797-.484l1.181.933.562-.67z" fill="#FFF" fill-rule="nonzero"/></svg>