<svg width="24" height="24" xmlns="http://www.w3.org/2000/svg"><path d="M12 21.5a9.5 9.5 0 110-19 9.5 9.5 0 010 19zm0-1a8.5 8.5 0 100-17 8.5 8.5 0 000 17zM9.995 9.952a.5.5 0 11-.99-.149C9.279 7.985 10.296 7 11.956 7c2.19 0 3.292 1.374 3.04 3.182-.105.753-.52 1.29-1.397 2.077l-.41.367c-.143.13-.251.235-.343.333a1.737 1.737 0 00-.272.362c-.266.516-.368.91-.329 1.169a.5.5 0 01-.988.15c-.077-.504.074-1.091.428-1.778.102-.196.244-.385.43-.585a6.91 6.91 0 01.4-.39c.09-.083.414-.37.416-.372.707-.635 1.013-1.03 1.075-1.472C14.175 8.82 13.518 8 11.955 8c-1.138 0-1.758.6-1.96 1.952zm1.787 7.417a.75.75 0 110-1.5.75.75 0 010 1.5z" fill="#979797"/></svg>