<svg width="48" height="48" xmlns="http://www.w3.org/2000/svg"><path d="M24 0C10.744 0 0 10.744 0 24s10.744 24 24 24 24-10.744 24-24S37.256 0 24 0zm-.305 38.09a2.03 2.03 0 1 1 .002-4.06 2.03 2.03 0 0 1-.002 4.06zm8.71-19.762c-.117 2.17-.783 3.881-4.111 7.21-1.688 1.687-2.752 2.953-2.86 4.064a1.688 1.688 0 0 1-1.678 1.523c-.056 0-.112-.005-.169-.01a1.689 1.689 0 0 1-1.514-1.846c.23-2.34 1.946-4.228 3.835-6.117 3.023-3.024 3.075-3.985 3.126-5.002.061-1.186-.375-2.334-1.237-3.24a5.267 5.267 0 0 0-3.806-1.62h-.01a5.047 5.047 0 0 0-5.03 5.038 1.686 1.686 0 1 1-3.374 0 8.36 8.36 0 0 1 2.456-5.944 8.356 8.356 0 0 1 5.939-2.47 8.662 8.662 0 0 1 6.272 2.672c1.51 1.58 2.273 3.619 2.16 5.742z" fill="#FAAD14"/></svg>