<svg width="16" height="16" xmlns="http://www.w3.org/2000/svg"><path d="M8 2.5a5.5 5.5 0 1 0 0 11 5.5 5.5 0 0 0 0-11zm0-1a6.5 6.5 0 1 1 0 13 6.5 6.5 0 0 1 0-13zm.361 8.288H7.072V9.33c0-.348.064-.645.19-.891.128-.246.34-.492.64-.74.345-.283.575-.515.689-.696.114-.18.17-.375.17-.583a.716.716 0 0 0-.253-.576c-.17-.143-.412-.215-.728-.215-.612 0-1.181.228-1.709.684V4.808a3.774 3.774 0 0 1 1.87-.489c.746 0 1.325.171 1.739.513.413.342.62.804.62 1.387 0 .374-.085.72-.254 1.035-.17.316-.46.641-.874.976-.348.277-.57.494-.667.652a1.074 1.074 0 0 0-.144.57v.336zm-.64.713c.248 0 .46.08.635.24a.752.752 0 0 1 .264.58.746.746 0 0 1-.264.572.912.912 0 0 1-.634.239.895.895 0 0 1-.635-.242.764.764 0 0 1 0-1.147.895.895 0 0 1 .635-.242z" fill="#BDBDBD"/></svg>