<svg width="24" height="24" xmlns="http://www.w3.org/2000/svg"><path d="M12 21.5a9.5 9.5 0 1 1 0-19 9.5 9.5 0 0 1 0 19zM9.995 9.952C10.197 8.6 10.817 8 11.955 8c1.563 0 2.22.819 2.05 2.043-.062.441-.368.837-1.075 1.472l-.416.372a6.91 6.91 0 0 0-.4.39c-.186.2-.328.389-.43.585-.354.687-.505 1.274-.428 1.778a.5.5 0 1 0 .988-.15c-.039-.258.063-.653.329-1.169.054-.104.143-.223.272-.362.092-.098.2-.203.343-.333l.41-.367c.877-.788 1.292-1.324 1.397-2.077.252-1.808-.85-3.182-3.04-3.182-1.66 0-2.677.985-2.95 2.803a.5.5 0 1 0 .99.149zm1.787 7.417a.75.75 0 1 0 0-1.5.75.75 0 0 0 0 1.5z" fill="#979797"/></svg>