<svg width="18" height="18" xmlns="http://www.w3.org/2000/svg"><path d="M9.133.5a8.533 8.533 0 110 17.067A8.533 8.533 0 019.133.5zm0 1.422a7.111 7.111 0 100 14.222 7.111 7.111 0 000-14.222zm-.035 10.674a.992.992 0 110 1.983l-.116-.006a.992.992 0 01.116-1.977zm1.24-8.227l.192.068c.814.315 1.37.88 1.632 1.668.285.856.142 1.675-.417 2.396l-.145.18-.245.263-.209.205-.456.427-.251.243-.173.177-.134.155c-.169.208-.258.472-.286.83l-.004.054a.777.777 0 01-.775.72.744.744 0 01-.737-.647l-.006-.126.024-.29c.05-.409.167-.766.357-1.085.169-.28.387-.542.673-.809l.514-.478.394-.374c.19-.186.303-.347.363-.522.165-.483.075-.92-.273-1.335-.499-.597-1.411-.741-2.069-.357-.334.196-.562.498-.701.925l-.059.169a.868.868 0 01-.897.511.732.732 0 01-.64-.812l.004-.031.057-.239.04-.13c.12-.33.28-.618.487-.872.426-.523.992-.852 1.69-.985.726-.14 1.41-.107 2.05.1z" fill="#747678"/></svg>