<svg width="24" height="24" xmlns="http://www.w3.org/2000/svg"><g fill="#979797"><path d="M12 22c5.523 0 10-4.477 10-10S17.523 2 12 2 2 6.477 2 12s4.477 10 10 10zm0-1.053a8.947 8.947 0 1 1 0-17.894 8.947 8.947 0 0 1 0 17.894z"/><path d="M10.93 9.534a.5.5 0 1 1-.708-.707l1.424-1.424a3.5 3.5 0 0 1 4.95 4.95l-1.412 1.412a.5.5 0 1 1-.707-.707l1.412-1.412a2.5 2.5 0 1 0-3.535-3.536l-1.425 1.424zm2.1 4.971a.5.5 0 1 1 .706.708l-1.382 1.382a3.5 3.5 0 0 1-4.95-4.95l1.417-1.417a.5.5 0 1 1 .707.707l-1.417 1.418a2.5 2.5 0 1 0 3.535 3.535l1.383-1.383zm.384-3.92a.5.5 0 0 1 0 .707l-2.121 2.121a.5.5 0 1 1-.707-.707l2.121-2.121a.5.5 0 0 1 .707 0z"/></g></svg>