<svg width="16" height="16" xmlns="http://www.w3.org/2000/svg"><path d="M9.393 11.287a.719.719 0 0 1 1.016-.012.719.719 0 0 1-.013 1.015l-2.139 2.14c-1.982 1.982-5.09 2.11-6.944.257-1.853-1.853-1.725-4.962.257-6.944L3.733 5.58a.719.719 0 0 1 1.016-.013.719.719 0 0 1-.013 1.016L2.573 8.746c-1.426 1.427-1.517 3.626-.231 4.912 1.286 1.286 3.485 1.195 4.912-.231l2.14-2.14zm.664-5.344a.71.71 0 0 1 0 1.003l-3.111 3.111a.71.71 0 1 1-1.003-1.003l3.111-3.111a.71.71 0 0 1 1.003 0zm4.63-4.63c1.853 1.853 1.725 4.962-.257 6.944l-2.159 2.159a.719.719 0 0 1-1.016.013.719.719 0 0 1 .013-1.016l2.159-2.159c1.426-1.427 1.517-3.626.231-4.912-1.286-1.286-3.485-1.195-4.912.231l-2.14 2.14a.719.719 0 0 1-1.015.013.719.719 0 0 1 .013-1.016l2.139-2.14c1.982-1.982 5.09-2.11 6.944-.257z" fill="#324A59"/></svg>