<svg width="68" height="68" xmlns="http://www.w3.org/2000/svg"><path d="M34 65c17.12 0 31-13.88 31-31C65 16.88 51.12 3 34 3 16.88 3 3 16.88 3 34c0 17.12 13.88 31 31 31zm0 3C15.222 68 0 52.778 0 34S15.222 0 34 0s34 15.222 34 34-15.222 34-34 34zm2.997-26.597a1.5 1.5 0 1 1 2.121 2.12l-4.41 4.412c-4.088 4.087-10.577 4.273-14.497.354-3.919-3.92-3.733-10.409.354-14.496l4.46-4.46a1.5 1.5 0 1 1 2.121 2.121l-4.46 4.46c-2.942 2.942-3.073 7.534-.353 10.253 2.72 2.72 7.31 2.589 10.253-.353l4.41-4.411zm-5.994-13.806a1.5 1.5 0 0 1-2.121-2.12l4.41-4.412c4.088-4.087 10.577-4.273 14.497-.354 3.919 3.92 3.733 10.409-.354 14.496l-4.45 4.451a1.5 1.5 0 0 1-2.122-2.121l4.45-4.451c2.943-2.942 3.074-7.534.354-10.253-2.72-2.72-7.31-2.589-10.253.353l-4.411 4.411zm7.24 2.66a1.5 1.5 0 0 1 0 2.122l-6.364 6.364a1.5 1.5 0 0 1-2.122-2.122l6.364-6.364a1.5 1.5 0 0 1 2.122 0z" fill="#324A59"/></svg>