<svg class="icon" width="200" height="200" viewBox="0 0 1024 1024" xmlns="http://www.w3.org/2000/svg"><path d="M898.682 118.248L846.994 66.12a51.151 51.151 0 0 0-72.655.927l-77.678 78.311H208.798c-38.034 0-68.998 31.208-68.998 69.583V891.27c0 38.327 30.964 69.535 68.998 69.535h543.208c38.034 0 68.998-31.208 68.998-69.535V269.02l76.8-77.434a52.175 52.175 0 0 0 .878-73.338zM774.924 891.27c0 12.678-10.24 23.21-23.015 23.21h-543.11a23.162 23.162 0 0 1-23.016-23.21V214.942c0-12.775 10.24-23.259 23.015-23.259h441.783L509.171 334.36c-9.605 9.753-15.213 22.626-15.457 36.328l-1.219 51.688c-.39 14.043 4.828 27.306 14.629 37.156 9.508 9.606 22.04 14.726 35.547 14.726h1.22l54.613-1.219c14.872-.39 29.013-7.168 38.814-18.773L774.924 315.49v575.78zm87.82-735.037l-261.266 263.46-.829.83-.878 1.024c-.487.634-1.365 1.365-2.34 1.365l-54.613 1.268c-.39 0-.488-.146-.634-.146 0 0-.147-.098-.147-.634l1.22-51.688c0-.975.78-1.755.975-2.146L809.35 102.254a3.218 3.218 0 0 1 2.146-.976c.243 0 .487 0 .487.098l51.688 52.078c.097.244.341 1.658-.927 2.78z" fill="#324A59"/><path d="M254.245 577.097c0 13.751 11.117 25.015 24.77 25.015h391.461a24.966 24.966 0 0 0 0-49.981h-391.46a24.771 24.771 0 0 0-24.771 24.966zm237.958 122.831H279.016a24.966 24.966 0 0 0 0 49.933H492.3a24.966 24.966 0 0 0-.097-49.933z" fill="#324A59"/></svg>