<svg width="24" height="24" xmlns="http://www.w3.org/2000/svg"><path d="M6.49 12.652a4.286 4.286 0 1 1 5.306 0c.254.101.502.218.743.348a.714.714 0 1 1-.68 1.257 5.714 5.714 0 0 0-8.43 5.029.714.714 0 0 1-1.429 0 7.145 7.145 0 0 1 4.49-6.634zm2.653-.51a2.857 2.857 0 1 0 0-5.713 2.857 2.857 0 0 0 0 5.714zm6.428-1.428a.714.714 0 0 0-.714.715v5.714c0 .394.32.714.714.714h4.286c.395 0 .714-.32.714-.714v-5.714a.714.714 0 0 0-.714-.715h-4.286zm0-1.428h4.286c1.184 0 2.143.96 2.143 2.143v5.714c0 1.183-.96 2.143-2.143 2.143h-4.286a2.143 2.143 0 0 1-2.142-2.143v-5.714c0-1.184.959-2.143 2.142-2.143zM16.286 15h2.857a.714.714 0 1 1 0 1.429h-2.857a.714.714 0 1 1 0-1.429zm0-2.857h2.857a.714.714 0 0 1 0 1.428h-2.857a.714.714 0 1 1 0-1.428z" fill="#979797"/></svg>