<svg width="24" height="24" xmlns="http://www.w3.org/2000/svg"><g fill="#979797" fill-rule="evenodd"><path d="M17.27 20.975H3.68c-.376 0-.68-.287-.68-.642V6.213c0-.353.304-.64.68-.64h13.59c.375 0 .68.287.68.64v14.12c0 .355-.305.642-.68.642zM4.077 19.937h12.796V6.61H4.077v13.327z"/><path d="M20.09 16.903a.568.568 0 01-.58-.556V4.117H7.954a.568.568 0 01-.579-.556c0-.307.26-.556.579-.556h12.135c.32 0 .579.249.579.556v12.786c0 .307-.26.556-.579.556zM7.076 18.408H5.718v-4.493c0-.354.304-.641.68-.641.375 0 .68.287.68.641v4.493zm4.077 0H9.795v-3.21c0-.353.305-.64.68-.64.375 0 .68.287.68.64v3.21zm4.079 0h-1.36v-5.776c0-.355.305-.642.68-.642.375 0 .68.287.68.642v5.776z"/><path d="M10.475 11.6a.585.585 0 01-.442-.2L8.727 9.9l-1.305 1.5a.589.589 0 01-.82.062.567.567 0 01-.064-.809l1.747-2.007a.586.586 0 01.885 0l1.411 1.621 3.066-2.012a.588.588 0 01.807.16.568.568 0 01-.161.795l-3.495 2.294a.589.589 0 01-.323.096z"/></g></svg>