<svg width="15" height="17" xmlns="http://www.w3.org/2000/svg"><path d="M11.493 10.986a.182.182 0 0 1 .254-.014l.918.808c.074.067.08.183.012.257l-3.432 3.779a.327.327 0 0 1-.145.09l-.759.22a.434.434 0 0 1-.538-.286.41.41 0 0 1-.009-.211l.156-.708a.315.315 0 0 1 .077-.145zM2.92 1.266c-.009.04-.009.08-.009.12v.15c0 .48.39.87.87.87h4.703c.48 0 .87-.39.87-.87v-.15c0-.04 0-.08-.01-.12h1.048c.8 0 1.47.54 1.67 1.28.021.1.04.2.05.3l.15 5.96a.22.22 0 0 0-.24.06l-.609.66a.244.244 0 0 0-.03.26l-4.28 4.63a.274.274 0 0 0-.07.14l-.16 1.2a.504.504 0 0 0 .01.22c.01.03.02.06.04.08h-5.19c-.91 0-1.65-.7-1.72-1.58l-.01-.15V2.996c0-.91.69-1.65 1.58-1.73zm1.022 11.18H2.323c-.22 0-.44.12-.55.28a.549.549 0 0 0 0 .6c.1.18.32.29.55.29h1.62c.17 0 .33-.06.44-.17.13-.11.2-.26.2-.41 0-.33-.28-.59-.64-.59zm2.34-2h-3.89c-.399 0-.71.26-.71.59 0 .33.311.59.71.59h3.89c.391-.01.701-.27.701-.59 0-.33-.31-.59-.7-.59zm6.56-.867a.218.218 0 0 1 .307-.014l.852.77a.22.22 0 0 1 .016.31l-.614.676a.219.219 0 0 1-.31.014l-.85-.782a.22.22 0 0 1-.012-.31zM5.303 3.516a.554.554 0 0 0-.54.16l-.85.88-.86-.88a.543.543 0 0 0-.53-.16.56.56 0 0 0-.39.41c-.06.2 0 .41.14.55l1.02 1.08h-1.05c-.32 0-.56.25-.56.57 0 .32.25.58.56.58h1.11v.36h-1.11a.568.568 0 0 0-.56.57c0 .32.24.57.56.57h1.11v.79a.556.556 0 1 0 1.11 0v-.79h1.12c.21 0 .39-.1.47-.28.09-.15.09-.33.01-.56-.09-.23-.33-.3-.47-.3h-1.13v-.37h1.13c.3 0 .55-.26.55-.57 0-.31-.25-.57-.55-.57h-1.07l1.03-1.08c.13-.14.19-.35.14-.55a.575.575 0 0 0-.39-.41zM7.853 0c.455 0 .824.369.824.825v.057a.824.824 0 0 1-.824.825h-3.46A.825.825 0 0 1 3.57.882V.825c0-.456.369-.825.825-.825z" fill="#555657" fill-rule="evenodd"/></svg>