<svg width="16" height="15" xmlns="http://www.w3.org/2000/svg"><path d="M8 0a7.5 7.5 0 1 1 0 15A7.5 7.5 0 0 1 8 0zm0 1.2a6.3 6.3 0 1 0 0 12.6A6.3 6.3 0 0 0 8 1.2zm2.778 2.433c.18.168.209.438.08.638l-.056.072-1.649 1.764h1.928a.502.502 0 0 1 .09.996l-.09.008H8.518v1.293h1.917a.502.502 0 0 1 .09.997l-.09.008-1.917-.001v2.022a.502.502 0 0 1-.995.09l-.008-.09V9.408H5.561a.502.502 0 0 1-.09-.995l.09-.008 1.952-.001V7.111H4.916a.502.502 0 0 1-.09-.996l.09-.008h1.927L5.196 4.343a.502.502 0 0 1 .666-.746l.067.06L8 5.873l2.07-2.216a.502.502 0 0 1 .709-.024z" fill="#171A1D"/></svg>