<svg width="17" height="15" xmlns="http://www.w3.org/2000/svg"><path d="M10.39.081a1.73 1.73 0 011.722 1.584l.006.15v1.323L6.293 9.654a.67.67 0 00-.169.315l-.25 1.557a.932.932 0 00.014.464c.143.495.763.853 1.258.712l1.64-.467a.67.67 0 00.313-.195l3.019-3.334v3.927a2.241 2.241 0 01-2.087 2.236l-.154.005H1.73a1.73 1.73 0 01-1.723-1.583L0 13.14V1.814C0 .908.694.164 1.58.087l.149-.006h8.66zm2.03 3.509a.3.3 0 01.42-.026l1.526 1.322a.3.3 0 01.027.427l-5.628 6.299a.518.518 0 01-.237.15l-1.254.375a.72.72 0 01-.895-.466.689.689 0 01-.017-.35l.25-1.173a.503.503 0 01.125-.24zM3.02 11.233h-1.39a.427.427 0 00-.371.224.464.464 0 000 .448.427.427 0 00.372.224h1.389a.42.42 0 00.304-.13.457.457 0 00.126-.317.44.44 0 00-.43-.449zm1.592-2H1.63a.44.44 0 00-.431.448.44.44 0 00.43.448h2.98a.44.44 0 00.428-.45.435.435 0 00-.427-.446zm-.37-6.82l-.938.985-.94-.984a.42.42 0 00-.417-.118.44.44 0 00-.305.317c-.04.155.001.32.11.434l1.12 1.172v.113H1.63a.44.44 0 00-.43.448.44.44 0 00.43.449h1.24v.6H1.63a.44.44 0 00-.431.448.44.44 0 00.43.449h1.24v.91c0 .248.193.449.43.449.238 0 .43-.2.43-.448v-.912h1.242a.428.428 0 00.373-.224.465.465 0 000-.449.428.428 0 00-.373-.224h.006-1.245v-.6h1.245c.237 0 .43-.2.43-.448a.44.44 0 00-.43-.449H3.733V4.22l1.12-1.172a.462.462 0 00.11-.434.44.44 0 00-.306-.317.42.42 0 00-.416.118zm9.984-.831a.362.362 0 01.51-.028l1.418 1.262c.15.133.163.362.03.511l-1.006 1.129a.363.363 0 01-.513.027L13.248 3.2a.363.363 0 01-.025-.512z" fill="#555657" fill-rule="nonzero"/></svg>