<svg width="24" height="24" xmlns="http://www.w3.org/2000/svg"><path d="M17.49 14.986a.182.182 0 0 1 .254-.014l.918.808c.074.067.08.183.012.257l-3.432 3.779a.327.327 0 0 1-.145.09l-.76.22a.434.434 0 0 1-.537-.286.41.41 0 0 1-.01-.211l.157-.708a.315.315 0 0 1 .077-.145zm-8.573-9.72c-.009.04-.009.08-.009.12v.15c0 .48.389.87.87.87h4.703c.48 0 .87-.39.87-.87v-.15c0-.04 0-.08-.011-.12h1.049c.774 0 1.368.506 1.587 1.21.005.015.012.055.02.12v6.436a.22.22 0 0 0-.24.06l-.608.66a.244.244 0 0 0-.03.26l-4.019 4.404a.274.274 0 0 0-.07.14l-.159 1.2a.504.504 0 0 0 .01.22c.009.03.02.06.04.08H7.73c-.91 0-1.65-.7-1.721-1.58L6 18.326V6.996c0-.91.689-1.65 1.58-1.73zm1.022 11.18H8.32c-.221 0-.44.12-.551.28a.549.549 0 0 0 0 .6c.101.18.321.29.551.29h1.619c.17 0 .33-.06.441-.17.129-.11.2-.26.2-.41 0-.33-.28-.59-.641-.59zm2.34-2h-3.89c-.399 0-.71.26-.71.59 0 .33.311.59.71.59h3.89c.391-.01.701-.27.701-.59 0-.33-.31-.59-.701-.59zm6.56-.867a.218.218 0 0 1 .307-.014l.852.77a.22.22 0 0 1 .016.31l-.614.676a.219.219 0 0 1-.31.014l-.85-.782a.22.22 0 0 1-.012-.31zM11.3 7.516a.554.554 0 0 0-.541.16l-.849.88-.86-.88a.543.543 0 0 0-.531-.16.56.56 0 0 0-.389.41c-.06.2 0 .41.139.55l1.021 1.08H8.24c-.32 0-.561.25-.561.57 0 .32.25.58.561.58h1.109v.36H8.24a.568.568 0 0 0-.561.57c0 .32.241.57.561.57h1.109v.79a.556.556 0 1 0 1.111 0v-.79h1.12c.21 0 .389-.1.47-.28.089-.15.089-.33.009-.56-.09-.23-.329-.3-.469-.3h-1.13v-.37h1.13c.299 0 .549-.26.549-.57 0-.31-.25-.57-.549-.57h-1.071l1.031-1.08c.129-.14.19-.35.139-.55a.575.575 0 0 0-.389-.41zM13.85 4c.454 0 .823.369.823.825v.057a.824.824 0 0 1-.824.825H10.39a.825.825 0 0 1-.825-.825v-.057c0-.456.37-.825.825-.825z" fill="#555657" fill-rule="evenodd"/></svg>