<svg width="16" height="16" xmlns="http://www.w3.org/2000/svg"><path d="M11.096 7.304c0-.307.377-.46.598-.243l2.333 2.297a.34.34 0 0 1 0 .487l-2.333 2.298c-.22.217-.598.063-.598-.244v-1.161c-.856.022-2.924.016-6.25-.016a.347.347 0 0 1-.346-.345V8.706c0-.193.16-.348.356-.345 3.371.057 5.514.066 6.24.034v-1.09zm.7.832v.57a.346.346 0 0 1-.259.332c-.31.082-2.324.084-6.337.018v.98c3.76.035 5.856.034 6.21-.002a.348.348 0 0 1 .386.343v.69l1.489-1.465-1.489-1.466zM3.591 9.698v3.81h8.818v-1.512c0-.238.196-.431.437-.431.242 0 .438.193.438.43v1.945c0 .238-.196.43-.438.43H3.154a.434.434 0 0 1-.438-.43V9.698c0-.238.196-.43.438-.43.241 0 .437.192.437.43zM7.895 3.11L2.799 7.193a.428.428 0 0 1-.272.093l-.856-.006a.442.442 0 0 1-.438-.438.426.426 0 0 1 .43-.43l.705.005 5.248-4.204a.434.434 0 0 1 .544.004L13.59 6.6l.706.005c.24.002.436.198.437.438a.426.426 0 0 1-.43.43l-.86-.006a.44.44 0 0 1-.272-.098L7.895 3.11z" fill="#FFF" fill-rule="nonzero"/></svg>