<svg width="24" height="24" xmlns="http://www.w3.org/2000/svg"><path d="M4.023 9.402a.511.511 0 1 1-1.023 0V4.534C3 3.687 3.687 3 4.534 3h4.91a.511.511 0 0 1 0 1.023h-4.91a.511.511 0 0 0-.511.511v4.868zm10.533-5.38a.511.511 0 0 1 0-1.022h4.91C20.313 3 21 3.687 21 4.534v4.868a.511.511 0 1 1-1.023 0V4.534a.511.511 0 0 0-.511-.511h-4.91zm5.421 10.505a.511.511 0 1 1 1.023 0v4.939c0 .847-.687 1.534-1.534 1.534h-4.909a.511.511 0 0 1 0-1.023h4.909a.511.511 0 0 0 .511-.511v-4.939zm-10.534 5.45a.511.511 0 0 1 0 1.023H4.534A1.534 1.534 0 0 1 3 19.466v-4.864a.511.511 0 0 1 1.023 0v4.864c0 .282.229.511.511.511h4.91zm-5.011-7.415a.511.511 0 1 1 0-1.022h15.136a.511.511 0 1 1 0 1.023H4.432z" fill="#324A59"/></svg>