<svg width="178" height="176" xmlns="http://www.w3.org/2000/svg"><path d="M11 72.597a5 5 0 0 1-10 0V15C1 6.716 7.716 0 16 0h58a5 5 0 0 1 0 10H16a5 5 0 0 0-5 5v57.597zM103.992 10a5 5 0 1 1 0-10H162c8.284 0 15 6.716 15 15v57.597a5 5 0 1 1-10 0V15a5 5 0 0 0-5-5h-58.008zM167 102.71a5 5 0 1 1 10 0V161c0 8.284-6.716 15-15 15h-57.996a5 5 0 0 1 0-10H162a5 5 0 0 0 5-5v-58.29zM74 166a5 5 0 1 1 0 10H16c-8.284 0-15-6.716-15-15v-57.555a5 5 0 0 1 10 0V161a5 5 0 0 0 5 5h58zM5 93.5a5 5 0 0 1 0-10h168a5 5 0 1 1 0 10H5z" fill="#324A59" fill-rule="nonzero"/></svg>