<svg width="62" height="62" xmlns="http://www.w3.org/2000/svg"><path d="M38.541 39.955c-9.024 8.284-23.06 8.054-31.804-.692-8.983-8.982-8.983-23.544 0-32.526 8.982-8.983 23.544-8.983 32.526 0 8.746 8.745 8.976 22.78.692 31.804l1.55 1.55a3.001 3.001 0 0 1 3.415.587l15.557 15.556a3 3 0 1 1-4.243 4.243L40.678 44.92a3.001 3.001 0 0 1-.587-3.415l-1.55-1.55zm-2.106-3.52c7.42-7.42 7.42-19.45 0-26.87-7.42-7.42-19.45-7.42-26.87 0-7.42 7.42-7.42 19.45 0 26.87 7.42 7.42 19.45 7.42 26.87 0zM9.617 19.473h1.287l1.512 2.268 1.512-2.268h1.287l-2.169 3.105L15.36 25.9h-1.287l-1.656-2.484L10.76 25.9H9.473l2.295-3.32-2.15-3.106zm5.976 0h1.287l1.512 2.268 1.512-2.268h1.287l-2.169 3.105 2.313 3.321h-1.287l-1.656-2.484-1.656 2.484H15.45l2.295-3.32-2.15-3.106zm7.02 5.067c.198 0 .36.063.504.207a.693.693 0 0 1 .207.504c0 .198-.072.36-.207.504a.739.739 0 0 1-.504.198.686.686 0 0 1-.495-.198.673.673 0 0 1-.207-.504.66.66 0 0 1 .207-.504.627.627 0 0 1 .495-.207zm1.431-5.067h1.287l1.512 2.268 1.512-2.268h1.287l-2.169 3.105 2.313 3.321H28.5l-1.656-2.484-1.656 2.484H23.9l2.295-3.32-2.15-3.106zm5.976 0h1.287l1.512 2.268 1.512-2.268h1.287l-2.169 3.105 2.313 3.321h-1.287l-1.656-2.484-1.656 2.484h-1.287l2.295-3.32-2.15-3.106z" fill="#238FF3"/></svg>