<svg width="896" height="896" xmlns="http://www.w3.org/2000/svg"><g fill="#333"><path d="M832 0H64C28.8 0 0 28.8 0 64v96c0 35.2 28.8 64 64 64h768c35.2 0 64-28.8 64-64V64c0-35.2-28.8-64-64-64zm0 144c0 9.6-6.4 16-16 16H80c-9.6 0-16-6.4-16-16V80c0-9.6 6.4-16 16-16h736c9.6 0 16 6.4 16 16v64zM704 256H64c-35.2 0-64 28.8-64 64v512c0 35.2 28.8 64 64 64h640c35.2 0 64-28.8 64-64V320c0-35.2-28.8-64-64-64zm0 544c0 19.2-16 32-32 32H96c-16 0-32-12.8-32-32V352c0-19.2 16-32 32-32h576c16 0 32 12.8 32 32v448z"/><path d="M592 672H176c-9.6 0-16 6.4-16 16v32c0 9.6 6.4 16 16 16h416c9.6 0 16-6.4 16-16v-32c0-9.6-6.4-16-16-16zm0-256H176c-9.6 0-16 6.4-16 16v32c0 9.6 6.4 16 16 16h416c9.6 0 16-6.4 16-16v-32c0-9.6-6.4-16-16-16zm0 128H176c-9.6 0-16 6.4-16 16v32c0 9.6 6.4 16 16 16h416c9.6 0 16-6.4 16-16v-32c0-9.6-6.4-16-16-16z"/></g></svg>