<svg width="14" height="14" xmlns="http://www.w3.org/2000/svg"><path d="M2 1.5a.5.5 0 0 0-.5.5v3a.5.5 0 0 0 .5.5h3a.5.5 0 0 0 .5-.5V2a.5.5 0 0 0-.5-.5H2zm0-1h3A1.5 1.5 0 0 1 6.5 2v3A1.5 1.5 0 0 1 5 6.5H2A1.5 1.5 0 0 1 .5 5V2A1.5 1.5 0 0 1 2 .5zm2.5 2v2h-2v-2h2zm0 7v2h-2v-2h2zm7-7v2h-2v-2h2zM2 8.5a.5.5 0 0 0-.5.5v3a.5.5 0 0 0 .5.5h3a.5.5 0 0 0 .5-.5V9a.5.5 0 0 0-.5-.5H2zm0-1h3A1.5 1.5 0 0 1 6.5 9v3A1.5 1.5 0 0 1 5 13.5H2A1.5 1.5 0 0 1 .5 12V9A1.5 1.5 0 0 1 2 7.5zm11 5.539a.5.5 0 0 1-1 0v-2.463a.5.5 0 0 1 1 0v2.463zm0-4.078a.5.5 0 1 1-1 0V8.04a.5.5 0 1 1 1 0v.922zm-2 4.078a.5.5 0 0 1-1 0v-1.463a.5.5 0 0 1 1 0v1.463zm0-3.078a.5.5 0 1 1-1 0V8.04a.5.5 0 1 1 1 0v1.92zM9 13.04a.5.5 0 0 1-1 0v-2.463a.5.5 0 0 1 1 0v2.463zm0-4.08a.5.5 0 0 1-1 0v-.92a.5.5 0 0 1 1 0v.922zM9 1.5a.5.5 0 0 0-.5.5v3a.5.5 0 0 0 .5.5h3a.5.5 0 0 0 .5-.5V2a.5.5 0 0 0-.5-.5H9zm0-1h3A1.5 1.5 0 0 1 13.5 2v3A1.5 1.5 0 0 1 12 6.5H9A1.5 1.5 0 0 1 7.5 5V2A1.5 1.5 0 0 1 9 .5z" fill="#FFF"/></svg>