<svg width="24" height="24" xmlns="http://www.w3.org/2000/svg"><path d="M5 4.5a.5.5 0 00-.5.5v5a.5.5 0 00.5.5h5a.5.5 0 00.5-.5V5a.5.5 0 00-.5-.5H5zm0-1h5A1.5 1.5 0 0111.5 5v5a1.5 1.5 0 01-1.5 1.5H5A1.5 1.5 0 013.5 10V5A1.5 1.5 0 015 3.5zM6.5 6h2a.5.5 0 01.5.5v2a.5.5 0 01-.5.5h-2a.5.5 0 01-.5-.5v-2a.5.5 0 01.5-.5zm0 9h2a.5.5 0 01.5.5v2a.5.5 0 01-.5.5h-2a.5.5 0 01-.5-.5v-2a.5.5 0 01.5-.5zm9-9h2a.5.5 0 01.5.5v2a.5.5 0 01-.5.5h-2a.5.5 0 01-.5-.5v-2a.5.5 0 01.5-.5zM5 13.5a.5.5 0 00-.5.5v5a.5.5 0 00.5.5h5a.5.5 0 00.5-.5v-5a.5.5 0 00-.5-.5H5zm0-1h5a1.5 1.5 0 011.5 1.5v5a1.5 1.5 0 01-1.5 1.5H5A1.5 1.5 0 013.5 19v-5A1.5 1.5 0 015 12.5zm9-8a.5.5 0 00-.5.5v5a.5.5 0 00.5.5h5a.5.5 0 00.5-.5V5a.5.5 0 00-.5-.5h-5zm0-1h5A1.5 1.5 0 0120.5 5v5a1.5 1.5 0 01-1.5 1.5h-5a1.5 1.5 0 01-1.5-1.5V5A1.5 1.5 0 0114 3.5zm5 9.5a.5.5 0 111 0v1.349a.5.5 0 01-1 0V13zm0 3.008a.5.5 0 111 0V20a.5.5 0 11-1 0v-3.992zM14 20a.5.5 0 11-1 0v-4.505a.5.5 0 111 0V20zm0-5.954a.5.5 0 11-1 0V13a.5.5 0 111 0v1.046zM17 20a.5.5 0 11-1 0v-2.456a.5.5 0 111 0V20zm0-3.963a.5.5 0 11-1 0V13a.5.5 0 111 0v3.037z" fill="#979797"/></svg>