<svg width="20" height="20" xmlns="http://www.w3.org/2000/svg"><path d="M3 2.5a.5.5 0 0 0-.5.5v5a.5.5 0 0 0 .5.5h5a.5.5 0 0 0 .5-.5V3a.5.5 0 0 0-.5-.5H3zm0-1h5A1.5 1.5 0 0 1 9.5 3v5A1.5 1.5 0 0 1 8 9.5H3A1.5 1.5 0 0 1 1.5 8V3A1.5 1.5 0 0 1 3 1.5zM4.5 4h2a.5.5 0 0 1 .5.5v2a.5.5 0 0 1-.5.5h-2a.5.5 0 0 1-.5-.5v-2a.5.5 0 0 1 .5-.5zm0 9h2a.5.5 0 0 1 .5.5v2a.5.5 0 0 1-.5.5h-2a.5.5 0 0 1-.5-.5v-2a.5.5 0 0 1 .5-.5zm9-9h2a.5.5 0 0 1 .5.5v2a.5.5 0 0 1-.5.5h-2a.5.5 0 0 1-.5-.5v-2a.5.5 0 0 1 .5-.5zM3 11.5a.5.5 0 0 0-.5.5v5a.5.5 0 0 0 .5.5h5a.5.5 0 0 0 .5-.5v-5a.5.5 0 0 0-.5-.5H3zm0-1h5A1.5 1.5 0 0 1 9.5 12v5A1.5 1.5 0 0 1 8 18.5H3A1.5 1.5 0 0 1 1.5 17v-5A1.5 1.5 0 0 1 3 10.5zm9-8a.5.5 0 0 0-.5.5v5a.5.5 0 0 0 .5.5h5a.5.5 0 0 0 .5-.5V3a.5.5 0 0 0-.5-.5h-5zm0-1h5A1.5 1.5 0 0 1 18.5 3v5A1.5 1.5 0 0 1 17 9.5h-5A1.5 1.5 0 0 1 10.5 8V3A1.5 1.5 0 0 1 12 1.5zm5 9.5a.5.5 0 1 1 1 0v1.349a.5.5 0 0 1-1 0V11zm0 3.008a.5.5 0 1 1 1 0V18a.5.5 0 1 1-1 0v-3.992zM12 18a.5.5 0 1 1-1 0v-4.505a.5.5 0 1 1 1 0V18zm0-5.954a.5.5 0 1 1-1 0V11a.5.5 0 1 1 1 0v1.046zM15 18a.5.5 0 1 1-1 0v-2.456a.5.5 0 1 1 1 0V18zm0-3.963a.5.5 0 1 1-1 0V11a.5.5 0 1 1 1 0v3.037z" fill="#324A59"/></svg>