<svg width="16" height="15" xmlns="http://www.w3.org/2000/svg"><path d="M9.124 1.5a.565.565 0 01.557.459l.006.086v.274c0 .436.215.842.573 1.094l.124.077h.016c.383.213.841.236 1.241.071l.147-.07.24-.136a.578.578 0 01.71.12l.059.08 1.118 1.897a.534.534 0 01-.133.698l-.073.048-.267.154a1.298 1.298 0 00-.659 1.148c-.007.426.2.825.547 1.073l.12.077.267.154c.134.074.23.2.267.346a.527.527 0 01-.031.348l-.044.078-1.126 1.89a.575.575 0 01-.676.24l-.092-.04-.243-.138a1.43 1.43 0 00-1.385 0 1.34 1.34 0 00-.691 1.022l-.009.144v.26c0 .146-.06.285-.166.387a.565.565 0 01-.308.152l-.089.007h-2.25a.57.57 0 01-.412-.162.546.546 0 01-.159-.315l-.005-.09v-.26c0-.484-.268-.93-.699-1.166a1.424 1.424 0 00-1.236-.07l-.146.07-.246.138a.578.578 0 01-.71-.12l-.058-.08-1.116-1.897a.54.54 0 01.123-.69l.082-.056.267-.154c.416-.238.668-.677.66-1.148a1.295 1.295 0 00-.55-1.074l-.12-.076-.267-.154a.55.55 0 01-.263-.334.536.536 0 01.019-.34l.038-.078 1.127-1.896a.575.575 0 01.676-.242l.092.04.24.137c.383.212.842.235 1.241.07l.147-.07h.019a1.34 1.34 0 00.686-1.02l.008-.144v-.274a.555.555 0 01.472-.538l.09-.007h2.25zm-.608 1.2H7.481l-.029.16a2.541 2.541 0 01-1.094 1.577l-.157.095-.272.15h-.072l-.025.011a2.639 2.639 0 01-1.859-.002l-.043-.019-.493.829a2.48 2.48 0 01.977 1.803l.004.175a2.491 2.491 0 01-.823 1.892l-.148.122.485.824.05-.02a2.623 2.623 0 012.024.071l.171.087c.65.357 1.104.97 1.261 1.675l.032.169h1.049l.029-.15a2.538 2.538 0 011.098-1.576l.158-.094a2.629 2.629 0 012.208-.158l.045.018.504-.842a2.48 2.48 0 01-.974-1.801l-.004-.175a2.491 2.491 0 01.824-1.892l.146-.124-.486-.824-.047.02a2.637 2.637 0 01-1.853 0l-.026-.011h-.067l-.272-.15a2.547 2.547 0 01-1.256-1.68l-.03-.16zm1.243 3.024A2.5 2.5 0 018 10a2.488 2.488 0 01-2.5-2.476 2.5 2.5 0 014.26-1.8zm-2.265.579A1.302 1.302 0 006.7 7.518 1.288 1.288 0 008 8.8a1.3 1.3 0 10-.506-2.497z" fill="#171A1D"/></svg>