<svg width="24" height="24" xmlns="http://www.w3.org/2000/svg"><g fill="#555657" fill-rule="nonzero"><path d="M16.783 12c-.008-.47.244-.91.66-1.148l.266-.154a.547.547 0 0 0 .262-.331.534.534 0 0 0-.056-.415l-1.118-1.896a.576.576 0 0 0-.769-.201l-.24.135c-.43.239-.958.239-1.388 0h-.016a1.338 1.338 0 0 1-.697-1.17v-.275a.542.542 0 0 0-.166-.386.567.567 0 0 0-.397-.159h-2.25a.557.557 0 0 0-.562.545v.274c-.001.482-.266.926-.694 1.164h-.019c-.43.238-.957.238-1.388 0l-.24-.136a.576.576 0 0 0-.768.2L6.076 9.945a.537.537 0 0 0-.057.418.55.55 0 0 0 .263.334l.267.154c.42.236.677.676.67 1.15.008.47-.244.91-.66 1.148l-.267.154a.541.541 0 0 0-.205.746l1.116 1.896c.157.26.499.35.768.201l.246-.138a1.424 1.424 0 0 1 1.382 0c.431.237.698.682.7 1.166v.26a.544.544 0 0 0 .163.405.57.57 0 0 0 .413.162h2.25a.567.567 0 0 0 .396-.159.542.542 0 0 0 .166-.386v-.261c.001-.484.269-.93.7-1.166a1.43 1.43 0 0 1 1.385 0l.243.138c.27.149.61.06.768-.2l1.126-1.89a.535.535 0 0 0-.192-.772l-.267-.154a1.299 1.299 0 0 1-.667-1.15zM9 12.028A3 3 0 1 1 12 15a2.986 2.986 0 0 1-3-2.972z"/><path d="M10.286 12.016A1.714 1.714 0 1 1 12 13.714a1.706 1.706 0 0 1-1.714-1.698z"/></g></svg>