<svg width="14" height="14" xmlns="http://www.w3.org/2000/svg"><g fill="#555657"><path d="M12.58 7c-.01-.55.285-1.061.77-1.34l.31-.179a.638.638 0 0 0 .306-.386.624.624 0 0 0-.065-.484l-1.305-2.213a.672.672 0 0 0-.897-.234l-.28.158a1.674 1.674 0 0 1-1.619 0h-.019A1.562 1.562 0 0 1 8.97.956v-.32a.624.624 0 0 0-.194-.45A.662.662 0 0 0 8.312 0H5.687a.65.65 0 0 0-.657.636v.32a1.559 1.559 0 0 1-.81 1.357H4.2a1.674 1.674 0 0 1-1.62 0l-.28-.158a.672.672 0 0 0-.896.234L.089 4.602a.627.627 0 0 0-.067.487.641.641 0 0 0 .307.39l.311.179c.49.275.79.789.782 1.342.01.55-.285 1.061-.77 1.339l-.31.18a.631.631 0 0 0-.24.87l1.3 2.213a.672.672 0 0 0 .898.234l.286-.161a1.661 1.661 0 0 1 1.613 0c.503.276.814.796.816 1.36v.304a.635.635 0 0 0 .19.472.665.665 0 0 0 .482.189h2.625c.173 0 .34-.066.463-.185a.632.632 0 0 0 .194-.451v-.305a1.559 1.559 0 0 1 .815-1.36 1.667 1.667 0 0 1 1.616 0l.284.161a.67.67 0 0 0 .896-.234l1.314-2.204a.624.624 0 0 0 .088-.497.638.638 0 0 0-.312-.403l-.311-.18A1.515 1.515 0 0 1 12.58 7zM4 7.028A3 3 0 1 1 7 10a2.986 2.986 0 0 1-3-2.972z"/><path d="M5 7.019A2 2 0 1 1 7 9a1.99 1.99 0 0 1-2-1.981z"/></g></svg>