<svg width="80" height="80" xmlns="http://www.w3.org/2000/svg"><g fill="#20335D" fill-rule="nonzero"><path d="M40 0C17.908 0 0 17.908 0 40c0 22.09 17.908 40 40 40 22.09 0 40-17.91 40-40C80 17.908 62.09 0 40 0zm0 76.8C19.677 76.8 3.2 60.323 3.2 40 3.2 19.677 19.677 3.2 40 3.2c20.323 0 36.8 16.477 36.8 36.8 0 20.323-16.477 36.8-36.8 36.8z"/><path d="M46.754 25.148c7.639 1.283 13.021 4.648 16.148 10.097 1.214 2.115 1.695 7.014 0 10.322-5.73 11.187-16.317 16.292-31.76 15.315l2.104-5.03c-7.639-1.283-13.021-4.648-16.148-10.097-1.214-2.115-1.695-7.014 0-10.322 5.73-11.187 16.317-16.292 31.76-15.315l-2.104 5.03zm-4.018 9.018c-16.102.529-24.344 1.873-24.727 4.033-.385 2.17 6.711 3.452 21.288 3.843l-2.033 4.792c16.102-.529 24.344-1.873 24.727-4.033.385-2.17-6.711-3.452-21.288-3.843l2.033-4.792z"/></g></svg>