<svg width="24" height="24" xmlns="http://www.w3.org/2000/svg"><path d="M12.5 8a2.5 2.5 0 110-5 2.5 2.5 0 010 5zm0-1a1.5 1.5 0 100-3 1.5 1.5 0 000 3zm-6 11.5a2.5 2.5 0 110-5 2.5 2.5 0 010 5zm0-1a1.5 1.5 0 100-3 1.5 1.5 0 000 3zm12 1a2.5 2.5 0 110-5 2.5 2.5 0 010 5zm0-1a1.5 1.5 0 100-3 1.5 1.5 0 000 3zM9.302 6.214a.5.5 0 11.426.905A6.5 6.5 0 006 13a.5.5 0 11-1 0 7.5 7.5 0 014.302-6.786zm-1.077 12.95a.5.5 0 11.57-.822A6.467 6.467 0 0012.5 19.5c1.39 0 2.715-.437 3.816-1.237a.5.5 0 11.587.809A7.467 7.467 0 0112.5 20.5a7.46 7.46 0 01-4.275-1.337zM20 13a.5.5 0 11-1 0 6.506 6.506 0 00-3.738-5.886.5.5 0 01.425-.905A7.506 7.506 0 0120 13z" fill="#979797"/></svg>