<?xml version="1.0" encoding="UTF-8"?>
<svg width="20px" height="20px" viewBox="0 0 20 20" version="1.1" xmlns="http://www.w3.org/2000/svg" xmlns:xlink="http://www.w3.org/1999/xlink">
    <!-- Generator: Sketch 52.5 (67469) - http://www.bohemiancoding.com/sketch -->
    <title>shift</title>
    <desc>Created with Sketch.</desc>
    <defs>
        <polygon id="path-1" points="0 -5.68434189e-14 684 -5.68434189e-14 684 607 0 607"></polygon>
    </defs>
    <g id="Page-1" stroke="none" stroke-width="1" fill="none" fill-rule="evenodd">
        <g id="生产任务2.0" transform="translate(-341.000000, -560.000000)">
            <rect fill="#FFFFFF" x="0" y="0" width="1024" height="768"></rect>
            <g id="卡片1-+-卡片1-copy-+-卡片1-copy-2-Mask" transform="translate(320.000000, 100.000000)">
                <mask id="mask-2" fill="white">
                    <use xlink:href="#path-1"></use>
                </mask>
                <use id="Mask" fill="#FFFFFF" fill-rule="nonzero" xlink:href="#path-1"></use>
                <g id="卡片1-copy" mask="url(#mask-2)">
                    <g transform="translate(0.000000, 321.000000)">
                        <polygon id="Rectangle" fill="#EBF9FF" fill-rule="nonzero" points="0 24 684 24 684 232 0 232"></polygon>
                        <g id="Group-10" stroke-width="1" fill="none" fill-rule="evenodd" transform="translate(21.000000, 74.000000)">
                            <g id="班次" transform="translate(0.000000, 63.000000)" fill="#324A59" fill-rule="nonzero">
                                <g id="shift" transform="translate(0.000000, 2.000000)">
                                    <path d="M2.87069486,16.8230769 C1.8265861,16.8230769 1.01450151,16.0094017 1.01450151,14.9632479 L1.01450151,4.03675214 C1.01450151,2.99059829 1.8265861,2.17692308 2.87069486,2.17692308 L4.49486405,2.17692308 L4.49486405,1.01452991 L5.42296073,1.01452991 L5.42296073,2.17692308 L12.4996979,2.17692308 L12.4996979,1.01452991 L13.4277946,1.01452991 L13.4277946,2.17692308 L15.0519637,2.17692308 C16.0960725,2.17692308 16.9081571,2.99059829 16.9081571,4.03675214 L16.9081571,7.75641026 L1.94259819,7.75641026 L1.94259819,15.0794872 C1.94259819,15.5444444 2.29063444,16.0094017 2.87069486,16.0094017 L8.90332326,16.0094017 C9.13534743,16.0094017 9.3673716,16.2418803 9.3673716,16.474359 C9.3673716,16.7068376 9.13534743,16.9393162 8.90332326,16.9393162 L2.87069486,16.8230769 Z M2.87069486,3.10683761 C2.40664653,3.10683761 1.94259819,3.45555556 1.94259819,4.03675214 L1.94259819,6.82649573 L15.8640483,6.82649573 L15.8640483,4.03675214 C15.8640483,3.57179487 15.5160121,3.10683761 14.9359517,3.10683761 L13.3117825,3.10683761 L13.3117825,4.85042735 L12.3836858,4.85042735 L12.3836858,3.10683761 L5.42296073,3.10683761 L5.42296073,4.85042735 L4.49486405,4.85042735 L4.49486405,3.10683761 L2.87069486,3.10683761 Z M3.91480363,9.61623932 L7.62719033,9.61623932 L7.62719033,10.5461538 L3.91480363,10.5461538 L3.91480363,9.61623932 Z M3.91480363,13.1034188 L7.62719033,13.1034188 L7.62719033,14.0333333 L3.91480363,14.0333333 L3.91480363,13.1034188 Z M14.1238671,14.0333333 L14.1238671,11.3598291 L15.0519637,11.3598291 L15.0519637,13.1034188 L16.792145,13.1034188 L16.792145,14.0333333 L14.1238671,14.0333333 Z M14.5879154,17.9854701 C13.4277946,17.9854701 12.2676737,17.5205128 11.4555891,16.7068376 C10.6435045,15.8931624 10.1794562,14.7307692 10.1794562,13.5683761 C10.1794562,12.4059829 10.6435045,11.2435897 11.4555891,10.4299145 C12.2676737,9.61623932 13.4277946,9.15128205 14.5879154,9.15128205 C15.7480363,9.15128205 16.9081571,9.61623932 17.7202417,10.4299145 C18.5323263,11.2435897 18.9963746,12.4059829 18.9963746,13.5683761 C18.9963746,14.7307692 18.5323263,15.8931624 17.7202417,16.7068376 C16.9081571,17.5205128 15.8640483,17.9854701 14.5879154,17.9854701 Z M14.5879154,9.96495726 C12.61571,9.96495726 10.9915408,11.5923077 10.9915408,13.5683761 C10.9915408,15.5444444 12.61571,17.1717949 14.5879154,17.1717949 C16.5601208,17.1717949 18.18429,15.5444444 18.18429,13.5683761 C18.18429,11.5923077 16.5601208,9.96495726 14.5879154,9.96495726 Z"></path>
                                </g>
                            </g>
                        </g>
                    </g>
                </g>
            </g>
        </g>
    </g>
</svg>