<svg width="16" height="16" xmlns="http://www.w3.org/2000/svg"><g fill="#8F95A2" fill-rule="nonzero"><path d="M11.397 5.694c0-.284.348-.426.551-.225l2.154 2.125a.316.316 0 0 1 0 .45l-2.154 2.126c-.203.2-.551.058-.551-.226V8.87c-.79.02-2.7.015-5.77-.015a.32.32 0 0 1-.32-.318V6.99c0-.178.149-.321.33-.318 3.111.053 5.09.061 5.76.032v-1.01zm.646.77v.526a.32.32 0 0 1-.24.308c-.285.076-2.145.078-5.85.017v.906c3.472.033 5.406.032 5.734-.001.19-.02.356.128.356.317v.638l1.374-1.356-1.374-1.355z"/><path d="M8.445 1.819L3.732 5.596a.396.396 0 0 1-.25.086l-.792-.005a.408.408 0 0 1-.404-.404.395.395 0 0 1 .398-.398l.65.004L8.189.99a.401.401 0 0 1 .503.004l5.013 4.045.652.004a.408.408 0 0 1 .404.404.395.395 0 0 1-.398.399l-.794-.006a.406.406 0 0 1-.252-.09L8.445 1.82zM12.572 11.412H5.66a.401.401 0 0 0-.404.398c0 .22.18.399.404.399h7.314a.401.401 0 0 0 .404-.399v-1.776c0-.22-.18-.398-.404-.398a.401.401 0 0 0-.403.398v1.378zm-8.908-1.53c0 .22.181.399.404.399a.401.401 0 0 0 .404-.399V7.91c0-.22-.18-.398-.404-.398a.401.401 0 0 0-.404.398v1.973z"/><path d="M3.822 13.442c1.115 0 2.019-.892 2.019-1.992s-.904-1.992-2.02-1.992c-1.115 0-2.019.892-2.019 1.992s.904 1.992 2.02 1.992zm0-.797c-.67 0-1.212-.535-1.212-1.195s.542-1.196 1.212-1.196c.669 0 1.211.536 1.211 1.196 0 .66-.542 1.195-1.211 1.195z"/><path d="M6.326 14.606a.395.395 0 0 1-.096.555.408.408 0 0 1-.563-.097l-1.23-1.718a.395.395 0 0 1 .096-.555.408.408 0 0 1 .563.097l1.23 1.718z"/></g></svg>