<svg width="24" height="24" xmlns="http://www.w3.org/2000/svg"><path d="M12 4.659l-6.675 5.72A.5.5 0 0 1 5 10.5H3a.5.5 0 1 1 0-1h1.815l6.86-5.88a.5.5 0 0 1 .65 0l6.86 5.88H21a.5.5 0 1 1 0 1h-2a.5.5 0 0 1-.325-.12L12 4.659zM5.5 12a.5.5 0 1 1 1 0v2.323a.5.5 0 1 1-1 0V12zm12.013 3.987a.5.5 0 1 1 1 0v3.589a.5.5 0 0 1-.5.5H11a.5.5 0 1 1 0-1h6.513v-3.089zM16.328 12a.5.5 0 0 1-.5.5H10.5v1h5.328a.5.5 0 0 1 .5.5v.45l1.622-1.622-1.622-1.62V12zm-1-2a.5.5 0 0 1 .854-.354l2.828 2.829a.5.5 0 0 1 0 .707l-2.828 2.828a.5.5 0 0 1-.854-.353V14.5H10a.5.5 0 0 1-.5-.5v-2a.5.5 0 0 1 .5-.5h5.328V10zM8.982 20.687a3 3 0 1 1 .705-.705l.03.028 1.415 1.415a.5.5 0 0 1-.707.707L9.01 20.718a.507.507 0 0 1-.028-.03zm-.325-1.03a2 2 0 1 0-2.829-2.829 2 2 0 0 0 2.829 2.829z" fill="#979797"/></svg>