<svg width="16" height="16" xmlns="http://www.w3.org/2000/svg"><path d="M3.742 9.464V7.909a.4.4 0 0 1 .404-.398c.223 0 .404.178.404.398v1.654c.784.264 1.352.99 1.368 1.849h6.731v-1.378c0-.22.181-.398.404-.398.223 0 .404.178.404.398v1.776c0 .22-.18.399-.404.399H5.767c-.121.29-.31.544-.545.746l1.182 1.65a.395.395 0 0 1-.096.556.408.408 0 0 1-.563-.097l-1.23-1.717a2.043 2.043 0 0 1-.616.095c-1.115 0-2.019-.892-2.019-1.992 0-1.048.82-1.907 1.862-1.986zm.275.796a1.204 1.204 0 0 0-1.33 1.19c0 .66.543 1.195 1.212 1.195.67 0 1.212-.535 1.212-1.195a1.2 1.2 0 0 0-.965-1.17.408.408 0 0 1-.129-.02zm7.38-4.566c0-.284.348-.426.551-.225l2.154 2.125a.316.316 0 0 1 0 .45l-2.154 2.126c-.203.2-.551.058-.551-.226V8.87c-.79.02-2.7.015-5.77-.015a.32.32 0 0 1-.32-.318V6.99c0-.178.149-.321.33-.318 3.111.053 5.09.061 5.76.032v-1.01zm.646.77v.526a.32.32 0 0 1-.24.308c-.285.076-2.145.078-5.85.017v.906c3.472.033 5.406.032 5.734-.001.19-.02.356.128.356.317v.638l1.374-1.356-1.374-1.355zM8.445 1.819L3.732 5.596a.396.396 0 0 1-.25.086l-.792-.005a.408.408 0 0 1-.404-.404.395.395 0 0 1 .398-.398l.65.004L8.189.99a.401.401 0 0 1 .503.004l5.013 4.045.652.004a.408.408 0 0 1 .404.404.395.395 0 0 1-.398.399l-.794-.006a.406.406 0 0 1-.252-.09L8.445 1.82z" fill="#FFF"/></svg>