<svg width="24" height="24" xmlns="http://www.w3.org/2000/svg"><path d="M8.5 3a.5.5 0 0 1 1 0v18a.5.5 0 0 1-.854.354l-4-4a.5.5 0 0 1 .708-.708L8.5 19.793V3zm5.5 9.001a.5.5 0 1 1-1 0v-9a.5.5 0 0 1 .854-.354l4 4a.5.5 0 0 1-.708.708L14 4.208v7.793zM13.5 15a.5.5 0 1 1 0-1 .5.5 0 0 1 0 1zm0 3a.5.5 0 1 1 0-1 .5.5 0 0 1 0 1zm0 3a.5.5 0 1 1 0-1 .5.5 0 0 1 0 1zm1.5-7h4a.5.5 0 1 1 0 1h-4a.5.5 0 1 1 0-1zm0 3h4a.5.5 0 1 1 0 1h-4a.5.5 0 1 1 0-1zm0 3h4a.5.5 0 1 1 0 1h-4a.5.5 0 1 1 0-1z" fill="#979797"/></svg>