<svg width="24" height="24" xmlns="http://www.w3.org/2000/svg"><path d="M6 4.5A1.5 1.5 0 004.5 6v12A1.5 1.5 0 006 19.5h12a1.5 1.5 0 001.5-1.5V6A1.5 1.5 0 0018 4.5H6zm0-1h12A2.5 2.5 0 0120.5 6v12a2.5 2.5 0 01-2.5 2.5H6A2.5 2.5 0 013.5 18V6A2.5 2.5 0 016 3.5zm5.767 10.057a.5.5 0 01.466 0l1.454.765-.278-1.62a.5.5 0 01.144-.442l1.177-1.147-1.626-.236a.5.5 0 01-.377-.274L12 9.13l-.727 1.473a.5.5 0 01-.377.274l-1.626.236 1.177 1.147a.5.5 0 01.144.443l-.278 1.62 1.454-.766zM9.882 15.68a.5.5 0 01-.726-.527l.405-2.36-1.714-1.67a.5.5 0 01.277-.853l2.368-.344 1.06-2.146a.5.5 0 01.896 0l1.06 2.146 2.368.344a.5.5 0 01.277.853l-1.714 1.67.405 2.36a.5.5 0 01-.726.527L12 14.565l-2.118 1.114z" fill="#979797"/></svg>