<svg class="icon" viewBox="0 0 1254 1024" xmlns="http://www.w3.org/2000/svg" width="244.922" height="200"><path d="M926.777 580.494a452.267 452.267 0 00-156.672-91.25c63.715-47.559 105.301-125.895 105.301-214.243 0-144.669-111.673-262.429-248.946-262.429-137.216-.056-248.945 117.704-248.945 262.429 0 90.453 43.804 170.553 110.193 217.714-3.925 1.422-7.964 2.844-11.946 4.437-48.925 19.342-94.151 47.218-134.656 83.228-80.84 72.022-138.07 172.43-160.882 283.023-7.51 36.409.91 73.785 22.926 102.684 22.187 28.957 55.069 45.568 90.283 45.568h680.96c35.157 0 68.039-16.611 90.169-45.511 22.186-29.013 30.606-66.332 22.983-102.741-22.528-110.592-79.758-211.001-160.768-282.909zM445.61 275.001c0-105.301 81.237-190.805 181.02-190.805 99.726 0 180.964 85.617 180.964 190.805 0 105.13-81.238 190.748-180.964 190.748-99.783 0-181.02-85.617-181.02-190.748zm566.272 646.258a46.82 46.82 0 01-37.376 18.944h-680.96a46.82 46.82 0 01-37.376-18.944 52.68 52.68 0 01-9.5-42.553c41.3-200.078 200.59-339.854 387.413-339.854s345.998 139.605 387.3 339.74a52.907 52.907 0 01-9.501 42.667z"/><path d="M1251.442 789.504c-19.854-96.142-69.575-183.524-139.947-245.93a397.255 397.255 0 00-134.428-78.792c54.613-41.529 90.225-109.283 90.225-185.458 0-126.122-97.28-228.807-217.03-228.807-6.372 0-12.63.285-18.888.854 24.462 19.057 45.398 42.666 62.01 69.745 65.194 19.798 112.924 83.058 112.924 158.152 0 85.22-61.725 155.42-140.516 163.612a250.766 250.766 0 01-36.864 34.19 422.57 422.57 0 0179.076 36.125c138.808 22.47 251.847 135.395 283.761 289.905a44.828 44.828 0 01-7.964 36.125 39.595 39.595 0 01-31.687 15.872h-6.258a127.949 127.949 0 01-4.779 64.284h11.037c30.834 0 59.62-14.45 79.075-39.822 19.456-25.315 26.738-58.14 20.253-90.055zM349.525 513.308a456.818 456.818 0 0179.076-36.067 258.844 258.844 0 01-36.807-34.247c-78.848-8.135-140.516-78.507-140.516-163.556 0-74.922 47.787-138.41 112.925-158.15 16.497-27.08 37.546-50.689 62.009-69.747a208.208 208.208 0 00-18.944-.853c-119.58 0-217.032 102.514-217.032 228.693 0 76.231 35.613 143.986 90.283 185.515-5.689 2.048-11.548 3.982-17.294 6.315a391.396 391.396 0 00-117.134 72.476C75.833 605.98 26.055 693.362 6.258 789.447a111.445 111.445 0 0020.138 89.998c19.4 25.373 48.242 39.823 79.076 39.823h10.98a128.569 128.569 0 01-4.722-64.285h-6.258a39.993 39.993 0 01-31.687-15.929 44.373 44.373 0 01-7.965-36.124c31.858-154.226 144.953-267.094 283.705-289.565z"/></svg>