<svg width="32" height="32" xmlns="http://www.w3.org/2000/svg"><path d="M23.58 11.997l1.204 1.204a.405.405 0 0 1-.287.691H7.5a.405.405 0 0 1-.405-.405v-1.085c0-.224.181-.405.405-.405h11.883a.405.405 0 0 0 .405-.405V9.183c0-.36.437-.541.692-.286l3.1 3.1zM8.415 20.003L7.211 18.8a.405.405 0 0 1 .287-.691h16.997c.224 0 .406.181.406.405v1.085a.405.405 0 0 1-.406.405H12.611a.405.405 0 0 0-.405.405v2.409a.405.405 0 0 1-.691.286l-3.1-3.1zm7.582 11.964C7.193 31.967.03 24.804.03 16S7.193.033 15.997.033C24.802.033 31.965 7.196 31.965 16s-7.163 15.967-15.968 15.967zm0-30.624C7.916 1.343 1.341 7.918 1.341 16c0 8.081 6.575 14.657 14.656 14.657 8.082 0 14.657-6.576 14.657-14.657 0-8.082-6.575-14.657-14.657-14.657z" fill="#324A59" fill-rule="evenodd"/></svg>