<svg class="icon" viewBox="0 0 1024 1024" xmlns="http://www.w3.org/2000/svg" width="200" height="200"><path d="M959.994 511.644L496.122 47.727a82.81 82.81 0 00-63.488-24.13l-328.17 19.322a82.855 82.855 0 00-77.824 77.824L7.318 448.868c-1.425 23.686 7.346 46.793 24.13 63.533l463.917 463.916a82.944 82.944 0 00117.182 0l347.447-347.492a82.944 82.944 0 000-117.181zm-38.378 78.803L574.17 937.895a28.627 28.627 0 01-40.426 0L69.827 473.978a28.538 28.538 0 01-8.326-21.86l19.322-328.17a28.627 28.627 0 0126.847-26.846l328.17-19.323a28.627 28.627 0 0121.86 8.326l463.916 463.917c11.13 11.13 11.13 29.25 0 40.425z"/><path d="M226.9 243.133a127.6 127.6 0 10180.49 180.491 127.6 127.6 0 00-180.49-180.49zm142.113 142.114c-27.737 27.737-75.999 27.737-103.736 0a73.372 73.372 0 11103.736 0z"/></svg>