<svg class="icon" viewBox="0 0 1024 1024" xmlns="http://www.w3.org/2000/svg" width="200" height="200"><defs><style/></defs><path d="M142.283 523.426A142.655 142.655 0 010 380.725a26.53 26.53 0 1153.013 0c0 49.335 40.027 89.502 89.27 89.502a89.503 89.503 0 0089.317-89.502 26.53 26.53 0 1153.06 0A142.655 142.655 0 01142.282 523.38z"/><path d="M373.37 523.426a142.655 142.655 0 01-142.236-142.701 26.53 26.53 0 1153.06 0c0 49.335 40.027 89.502 89.27 89.502a89.503 89.503 0 0089.27-89.502 26.53 26.53 0 1153.013 0 142.655 142.655 0 01-142.33 142.655z"/><path d="M606.087 523.426a142.655 142.655 0 01-142.422-142.701 26.53 26.53 0 1153.06 0c0 49.335 40.026 89.502 89.27 89.502a89.503 89.503 0 0089.316-89.502 26.53 26.53 0 1153.06 0A142.655 142.655 0 01605.993 523.38z"/><path d="M837.175 523.426a142.655 142.655 0 01-142.33-142.655 26.53 26.53 0 1153.06 0c0 49.336 40.027 89.503 89.27 89.503a89.503 89.503 0 0089.27-89.503 26.53 26.53 0 1153.06 0 142.655 142.655 0 01-142.33 142.655z"/><path d="M803.99 495.593v429.875a45.007 45.007 0 01-44.915 45.007H220.383a45.007 45.007 0 01-44.915-45.007V495.593H122.41v429.875c0 54.223 43.89 98.206 97.974 98.206h538.692a98.067 98.067 0 0097.974-98.206V495.593h-53.06zM53.71 383.424l96.717-265.67c7.68-19.873 16.895-41.702 27.321-53.897 6.33-7.446 11.403-9.774 20.945-9.774h582.07c9.96 0 15.406 2.42 21.69 9.588 11.03 12.707 20.293 36.537 26.297 53.292v.187l.093.14 96.95 266.04c-.187.885 53.152 2.514 53.152 2.514.326-3.304.512-6.702.512-10.146L878.692 99.138C858.492 42.447 834.848.93 780.765.93H198.74c-54.13 0-76.703 42.96-97.974 98.206L0 375.744c0 3.445.186 6.842.512 10.147 0 0 53.339-1.63 53.199-2.514z"/></svg>