<svg width="20" height="20" xmlns="http://www.w3.org/2000/svg"><path d="M1.426 6.958a.641.641 0 01-.16-.116.885.885 0 010-1.25.642.642 0 01.153-.113l8.053-4.3a.882.882 0 011.057-.001l8.03 4.217c.058.03.11.069.156.115a.886.886 0 010 1.25.642.642 0 01-.155.114l-8.052 4.239a.882.882 0 01-1.053.002l-8.03-4.157zm8.577-4.605L2.777 6.211 9.98 9.94l7.225-3.805-7.202-3.782zm8.69 10.767c.274.188.507 1.14-.007 1.41l-8.382 4.405c-.139.083-.514.083-.65-.006L1.3 14.598c-.452-.314-.282-1.179-.076-1.429l8.768 4.54 8.702-4.589zm0-3.863c.274.187.507 1.14-.007 1.408l-8.382 4.406c-.139.083-.514.083-.65-.006L1.3 10.734c-.452-.315-.282-1.179-.076-1.429l8.768 4.54 8.702-4.588z" fill="#324A59" fill-rule="nonzero"/></svg>