<svg width="16" height="16" xmlns="http://www.w3.org/2000/svg"><path d="M10.697 1.804c.106 0 .214.005.32.014-.066.07-.136.14-.203.208-.44.44-.683 1.003-.683 1.584 0 .583.242 1.146.683 1.585.439.44 1 .681 1.583.681.575 0 1.131-.236 1.569-.667.077-.068.147-.134.216-.197a3.438 3.438 0 0 1-1 2.767 3.48 3.48 0 0 1-2.473 1.024 3.49 3.49 0 0 1-1.124-.185l-.47-.158-.352.351-5.06 5.058c-.211.21-.49.324-.788.324a1.103 1.103 0 0 1-1.112-1.108c0-.297.114-.574.324-.784L7.19 7.244l.353-.353-.16-.474a3.527 3.527 0 0 1-.097-1.89 3.48 3.48 0 0 1 .937-1.7 3.477 3.477 0 0 1 2.475-1.023zm0-.804a4.286 4.286 0 0 0-3.041 1.257 4.3 4.3 0 0 0-1.034 4.418l-5.061 5.057A1.913 1.913 0 0 0 2.916 15c.49 0 .98-.187 1.354-.561L9.33 9.382c.447.15.912.225 1.379.225 1.1 0 2.201-.42 3.04-1.258 1.311-1.31 1.583-3.25.852-4.84-.238.265-.63.604-1.191 1.118-.298.297-.656.445-1.015.445-.361 0-.718-.148-1.015-.445-.596-.594-.596-1.436 0-2.03.546-.548 1.137-1.197 1.126-1.2A4.297 4.297 0 0 0 10.697 1z" fill="#8F95A2" fill-rule="nonzero"/></svg>