<svg width="24" height="24" xmlns="http://www.w3.org/2000/svg"><path d="M13.182 5.076a4.002 4.002 0 0 0-.782 4.553.5.5 0 0 1-.098.569l-6.606 6.606a1 1 0 1 0 1.415 1.414l6.606-6.606a.5.5 0 0 1 .569-.097 4.002 4.002 0 0 0 5.719-3.388 3 3 0 0 1-4.217-4.217 3.99 3.99 0 0 0-2.606 1.166zm1.001 7.484l-6.365 6.365a2 2 0 1 1-2.829-2.828l6.366-6.366A5.002 5.002 0 0 1 16.985 3a.5.5 0 0 1 .257.844l-.524.525a2 2 0 1 0 2.828 2.828l.525-.525a.5.5 0 0 1 .844.257 5.002 5.002 0 0 1-6.732 5.631z" fill="#979797"/></svg>