<svg class="icon" viewBox="0 0 1024 1024" xmlns="http://www.w3.org/2000/svg" width="200" height="200"><defs><style/></defs><path d="M444.505 938.963c-2.671 2.672-10.863 4.72-15.583 0l-357.51-357.51a10.819 10.819 0 0 1 0-15.537L576.736 60.683h373.092v373.092l-88.287 88.242c9.795 11.13 18.566 23.24 26 36.152l89.49-89.489c.712-.667 1.157-1.469 1.691-2.137 10.552-9.216 17.453-22.572 17.453-37.799l-.534-363.742a50.31 50.31 0 0 0-50.31-50.22l-363.743-.446c-15.137 0-28.582 6.767-37.798 17.453-.668.578-1.425 1.024-2.093 1.691L36.953 538.268c-19.59 19.59-19.59 51.333.09 70.923L401.23 973.379a50.087 50.087 0 0 0 70.968.089l99.95-99.951a232.849 232.849 0 0 1-36.15-26.001 28817.23 28817.23 0 0 1-91.493 91.492zm256.49-769.424a98.883 98.883 0 0 0 0 139.932 98.794 98.794 0 0 0 139.887 0 98.883 98.883 0 1 0-139.887-139.932zm108.855 108.81a54.94 54.94 0 1 1-77.735-77.734 54.94 54.94 0 0 1 77.735 77.735zm177.865 632.966l-62.153-62.152a43.81 43.81 0 0 0-42.34-11.22l-36.374-36.33a197.9 197.9 0 1 0-294.511 16.474 197.9 197.9 0 0 0 263.39 14.648l36.375 36.33a43.854 43.854 0 0 0 11.219 42.34l62.152 62.152a44.032 44.032 0 0 0 62.242-62.242zm-186.546-124.26a153.867 153.867 0 0 1-217.712 0 153.823 153.823 0 0 1 0-217.711 153.867 153.867 0 0 1 217.712 0 153.823 153.823 0 0 1 0 217.711z"/></svg>