<svg width="36" height="32" xmlns="http://www.w3.org/2000/svg"><path d="M34.472 10.182h-2.998v16c0 3.213-2.684 5.818-5.995 5.818H10.491c-3.31 0-5.995-2.605-5.995-5.818v-16H1.5c-.83 0-1.5-.652-1.5-1.455s.671-1.454 1.5-1.454h5.995V5.818C7.494 2.605 10.178 0 13.489 0h8.993c3.31 0 5.995 2.605 5.995 5.818v1.455h5.995c.828 0 1.499.651 1.499 1.454 0 .804-.671 1.455-1.5 1.455zm-8.993-4.364c0-1.606-1.342-2.909-2.997-2.909h-8.993c-1.655 0-2.998 1.303-2.998 2.91v1.454H25.48V5.818zm2.998 4.364H7.494v16c0 1.606 1.342 2.909 2.997 2.909H25.48c1.656 0 2.998-1.303 2.998-2.91v-16zM23.98 24.727c-.827 0-1.498-.65-1.498-1.454v-8.728c0-.803.67-1.454 1.498-1.454s1.5.651 1.5 1.454v8.728c0 .803-.672 1.454-1.5 1.454zm-5.995 0c-.827 0-1.498-.65-1.498-1.454v-8.728c0-.803.67-1.454 1.498-1.454s1.499.651 1.5 1.454v8.728c0 .803-.672 1.454-1.5 1.454zm-5.995 0c-.828 0-1.499-.65-1.499-1.454v-8.728c0-.803.672-1.454 1.5-1.454.827 0 1.498.651 1.498 1.454v8.728c0 .803-.671 1.454-1.499 1.454z" fill="#677F89"/></svg>