<svg width="48" height="46" xmlns="http://www.w3.org/2000/svg"><path d="M47.986 33.686c-.007 0-.234-.439-.5-.972L40.47 18.748a1.931 1.931 0 0 0-1.57-.969h-5.813c-.6 0-1.087.485-1.09 1.084v1.842c0 .592.49 1.08 1.09 1.08l1.85.003c.593 0 1.302.44 1.567.975l4.971 10.004c.266.532-.006.968-.603.968h-7.9a1.088 1.088 0 0 0-1.086 1.083v5.667a1.09 1.09 0 0 1-1.09 1.083H17.113a1.088 1.088 0 0 1-1.082-1.08v-5.673a1.088 1.088 0 0 0-1.089-1.08H6.888c-.597 0-.863-.436-.587-.965L11.5 22.732a1.963 1.963 0 0 1 1.585-.961h1.801c.597 0 1.086-.488 1.086-1.08v-1.825c0-.596-.489-1.083-1.086-1.083H9.094a1.94 1.94 0 0 0-1.575.968L.471 32.725c-.164.319-.321.642-.471.968.007 0 .014.488.014 1.083v9.836c0 .596.489 1.083 1.09 1.083H46.91c.6 0 1.089-.487 1.089-1.08v-9.85c0-.598-.007-1.082-.014-1.082v.003zM14.04 12.969h5.97v16.684h7.994v-16.68h6.284c.6 0 .764-.366.366-.812L24.751 1.026a.93.93 0 0 0-1.432.01l-9.656 11.111c-.39.453-.22.822.377.822z" fill="#2C85DD"/></svg>