<?xml version="1.0" encoding="UTF-8"?>
<svg width="48px" height="46px" viewBox="0 0 48 46" version="1.1" xmlns="http://www.w3.org/2000/svg" xmlns:xlink="http://www.w3.org/1999/xlink">
    <!-- Generator: Sketch 49.3 (51167) - http://www.bohemiancoding.com/sketch -->
    <title>上传 (2)</title>
    <desc>Created with Sketch.</desc>
    <defs></defs>
    <g id="Page-1" stroke="none" stroke-width="1" fill="none" fill-rule="evenodd">
        <g id="产品信息管理-填写内容并上传文件" transform="translate(-824.000000, -372.000000)" fill="#2C85DD" fill-rule="nonzero">
            <g id="导入excel框" transform="translate(312.000000, 284.000000)">
                <g id="Upload/Drag-upload">
                    <g id="Group" transform="translate(308.000000, 88.695312)">
                        <g id="上传-(2)" transform="translate(204.000000, 0.000000)">
                            <path d="M47.9860363,32.9907204 C47.9790545,32.9907204 47.7521454,32.5518662 47.4868364,32.0189719 L40.4701091,18.0522633 C40.1451642,17.484374 39.5536265,17.1197663 38.8992,17.0839977 L33.0868364,17.0839977 C32.4866685,17.0839946 31.9995963,17.5684015 31.9976727,18.1672013 L31.9976727,20.0096923 C31.9976727,20.6017971 32.4864,21.0894129 33.0868364,21.0894129 L34.9370182,21.0928959 C35.5304727,21.0928959 36.2391273,21.5317501 36.5044363,22.0681274 L41.4754909,32.0712164 C41.7408,32.6041108 41.4685091,33.039482 40.8715637,33.039482 L32.9716364,33.039482 C32.3728314,33.0413938 31.8878798,33.5252425 31.8859636,34.1226856 L31.8859636,39.7894773 C31.8859636,40.3850652 31.3972363,40.8726809 30.7968,40.8726809 L17.1124364,40.8726809 C16.5163487,40.8688806 16.0340635,40.3876923 16.0302545,39.7929603 L16.0302545,34.1192026 C16.026416,33.5217644 15.5399033,33.0394697 14.9410909,33.039482 L6.88756363,33.039482 C6.29061815,33.039482 6.02530907,32.6041108 6.3010909,32.0746994 L11.4990546,22.0367806 C11.8325926,21.4716942 12.427593,21.1107985 13.0839273,21.075481 L14.8852364,21.075481 C15.4821818,21.075481 15.9709091,20.5878653 15.9709091,19.9957604 L15.9709091,18.1706843 C15.9709091,17.5750964 15.4821818,17.0874807 14.8852364,17.0874807 L9.09381819,17.0874807 C8.43852377,17.1233604 7.84598111,17.4877777 7.51941817,18.0557463 L0.471272741,32.0294208 C0.306703177,32.3484989 0.149570046,32.6713409 0,32.9976864 C0.00698183182,32.9976864 0.0139636159,33.4853021 0.0139636636,34.0808899 L0.0139636636,43.9167964 C0.0139636636,44.5123843 0.502690936,45 1.10312728,45 L46.9108363,45 C47.5112727,45 48,44.5123842 48,43.9202794 L48,34.0704411 C48,33.4713703 47.9930182,32.9872375 47.9860363,32.9872375 L47.9860363,32.9907204 Z M14.0404364,12.2740166 L20.0098909,12.2740166 L20.0098909,28.9574415 L28.0040727,28.9574415 L28.0040727,12.2774995 L34.2877091,12.2774995 C34.8881454,12.2774995 35.0522182,11.9117877 34.6542545,11.4659676 L24.7505454,0.330913392 C24.5725836,0.119329186 24.3092807,-0.00199616777 24.0324441,2.48539476e-05 C23.7556075,0.00204587566 23.4941123,0.127202472 23.3192727,0.341362274 L13.6634182,11.4520357 C13.2724364,11.9048217 13.4434909,12.2740165 14.0404364,12.2740166 Z" id="Shape"></path>
                        </g>
                    </g>
                </g>
            </g>
        </g>
    </g>
</svg>