<svg width="12" height="13" xmlns="http://www.w3.org/2000/svg"><path d="M11.23 9.005v-.001c.2-.023.4.05.54.196a.83.83 0 0 1 .23.587v2.431c0 .432-.31.782-.692.782H.692C.31 13 0 12.65 0 12.218V9.787c.035-.415.326-.742.692-.782.383 0 .693.35.693.782v1.563h9.153V9.787c0-.432.31-.782.692-.782zM3.227 4.661a.705.705 0 0 1-.477.218.75.75 0 0 1-.514-.15c-.315-.264-.315-.686 0-.949l3.302-2.712.174-.136C5.8.863 5.845.791 6 .791c.155 0 .155.046.3.161l.146.117 3.303 2.71c.247.34.412.746 0 .95a.958.958 0 0 1-1.156 0L6.611 3.102V8.39c0 .337-.333.61-.743.61s-.743-.273-.743-.61V3.101l-1.898 1.56z" fill="#979797" fill-rule="nonzero"/></svg>