<svg width="14" height="14" xmlns="http://www.w3.org/2000/svg"><g fill="#007CF8" fill-rule="evenodd"><path d="M3.973 3.893A2.293 2.293 0 0 1 6.263 1.6a2.293 2.293 0 0 1 0 4.585 2.294 2.294 0 0 1-2.29-2.293m2.293 8.182-3.54.002c-.218 0-.664.013-.855-.172-.129-.125-.196-.493-.163-.896.194-2.347 2.024-3.923 4.555-3.923a3.195 3.195 0 0 0 3.19-3.193A3.196 3.196 0 0 0 6.263.7a3.196 3.196 0 0 0-3.19 3.193c0 1.065.528 2.004 1.332 2.585C2.393 7.11.991 8.76.812 10.935c-.035.414-.024 1.174.434 1.617.394.38.964.425 1.384.425l.198-.001h3.438a.45.45 0 0 0 0-.901"/><path d="M11.334 12.199a3.578 3.578 0 0 1-.303.14c-.105.043-.19-.018-.317-.114-.036-.027-.072-.054-.11-.078-.516-.334-1.191-.235-1.635.226l-.06-.031c-.114-.06-.29-.15-.306-.233a1.237 1.237 0 0 1-.011-.383c.015-.2.03-.407-.111-.654a1.384 1.384 0 0 0-.92-.673l-.003-.015c-.076-.52-.03-.656.005-.692.059-.062.166-.09.279-.12.1-.026.207-.054.296-.111.21-.135.387-.363.487-.623.055-.145.045-.331.036-.513-.008-.141-.016-.314.024-.371.038-.053.198-.118.303-.161l.094-.038c.116.112.316.238.318.24.44.25.88.225 1.363-.094a.92.92 0 0 1 .13-.103l.037-.026c.065.033.203.113.409.237-.05.249-.006.772.003.8.103.327.32.609.598.772.003.002.276.117.444.17 0 .039.005.09.009.159.009.168.028.468.028.552a1.528 1.528 0 0 0-.982.739 1.278 1.278 0 0 0-.105.998m1.95-2.403a1.625 1.625 0 0 1-.015-.104 2.798 2.798 0 0 0-.045-.247c-.058-.235-.168-.38-.337-.438a.663.663 0 0 0-.184-.033l-.07-.007a.598.598 0 0 1-.44-.3.607.607 0 0 1-.032-.5.856.856 0 0 0 .043-.245.733.733 0 0 0-.025-.19.656.656 0 0 0-.233-.324 1.72 1.72 0 0 0-.295-.177l-.113-.06a10.23 10.23 0 0 1-.092-.053 2.436 2.436 0 0 0-.181-.1.782.782 0 0 0-.346-.067c-.065-.008-.337.01-.474.213-.08.117-.298.25-.44.25a.18.18 0 0 1-.023-.001c-.118-.014-.236-.107-.35-.196-.043-.033-.084-.065-.125-.093-.2-.14-.41-.282-.715-.122l-.612.325c-.078.04-.175.09-.255.166-.202.193-.165.435-.133.649.012.078.024.153.023.222a.588.588 0 0 1-.487.57l-.076.01c-.178.02-.362.04-.495.249-.11.17-.145.377-.163.538-.041.38-.012.752.082 1.046.035.11.119.308.288.4.092.049.19.059.279.069a.646.646 0 0 1 .186.037c.224.098.37.345.346.587-.005.058-.02.115-.035.172a.776.776 0 0 0-.035.358c.04.226.232.377.372.47.137.093.283.174.425.252a.826.826 0 0 0 .702.049c.143-.051.248-.152.35-.248l.068-.065c.148-.136.29-.181.419-.132.113.043.208.128.308.218.075.067.153.138.244.193a.55.55 0 0 0 .299.09c.177 0 .338-.091.484-.175a2.48 2.48 0 0 1 .245-.13c.096-.044.194-.09.287-.162a.71.71 0 0 0 .287-.461.994.994 0 0 0-.03-.33 1.117 1.117 0 0 1-.028-.214c0-.26.232-.503.507-.533l.067-.004c.058-.003.124-.006.19-.028.15-.048.264-.178.339-.387.13-.36.087-.747.044-1.007"/><path d="M10.484 10.086a.52.52 0 0 1-.157.36.513.513 0 0 1-.328.148h-.033a.505.505 0 0 1-.353-.156.514.514 0 0 1-.15-.365.513.513 0 0 1 .157-.359.504.504 0 0 1 .353-.149h.006a.526.526 0 0 1 .505.521m-.27-1.226a1.174 1.174 0 0 0-1.092.308 1.283 1.283 0 0 0-.366 1.165 1.257 1.257 0 0 0 1.24 1.038 1.223 1.223 0 0 0 1.192-1.459c-.08-.529-.472-.952-.974-1.052"/></g></svg>