<svg width="17" height="16" xmlns="http://www.w3.org/2000/svg"><path d="M8.5 0a8 8 0 018 8 8 8 0 01-8 8 8 8 0 01-8-8 8 8 0 018-8zm3.202 9.41h-.643a.35.35 0 00-.35.348v.683h-.673l-.092.013-.084.04c-.127.075-.186.18-.186.296v.629l.012.084.04.081.048.066c.07.079.162.118.262.118h.673v.683l.013.084.04.081a.354.354 0 00.31.184h.63l.092-.013.084-.04.068-.048a.32.32 0 00.118-.248v-.684h.674l.092-.012.084-.04c.127-.074.186-.18.186-.296v-.629l-.012-.084-.04-.08-.049-.067a.343.343 0 00-.26-.118h-.675v-.683l-.012-.084-.04-.081a.354.354 0 00-.31-.184zM8.596 2.8a3.049 3.049 0 00-3.058 3.042l.006.196.022.212a3.02 3.02 0 00.801 1.674l.114.114-.09.048-.21.125a4.513 4.513 0 00-1.73 2.04 4.433 4.433 0 00-.35 1.641.356.356 0 00.361.357h.795l.09-.012.084-.04c.125-.072.186-.175.188-.29a3.09 3.09 0 01.911-2.118 3.07 3.07 0 012.188-.906c.583 0 1.144.16 1.63.464.115.07.255.075.373.012a1.688 1.688 0 01.72-.223l.058-.013a.265.265 0 00.177-.273l-.014-.082a.234.234 0 00-.065-.115l-.19-.16-.196-.148a4.448 4.448 0 00-.416-.263l-.084-.044.115-.114.126-.142a3.026 3.026 0 00.702-1.94A3.05 3.05 0 008.596 2.8zm.061 1.487a1.484 1.484 0 011.48 1.49 1.484 1.484 0 01-1.48 1.488 1.484 1.484 0 01-1.48-1.49 1.484 1.484 0 011.48-1.488z" fill="#FF9200" opacity=".74"/></svg>