<svg class="icon" viewBox="0 0 1024 1024" xmlns="http://www.w3.org/2000/svg" width="200" height="200"><defs><style/></defs><path d="M665.6 460.8C724.114 416.914 768 343.771 768 256 768 117.029 650.971 0 512 0S256 117.029 256 256c0 80.457 43.886 153.6 102.4 204.8C153.6 512 0 680.229 0 877.714 0 972.8 226.743 1024 512 1024s512-58.514 512-146.286C1024 680.23 870.4 512 665.6 460.8zM329.143 256C329.143 153.6 409.6 73.143 512 73.143S694.857 153.6 694.857 256 614.4 438.857 512 438.857 329.143 358.4 329.143 256zM512 950.857c-285.257 0-416.914-51.2-438.857-80.457C73.143 672.914 270.629 512 512 512s438.857 160.914 438.857 358.4C928.914 899.657 782.63 950.857 512 950.857z"/></svg>