<svg width="24" height="24" xmlns="http://www.w3.org/2000/svg"><path d="M4.767 18.808c-1.963-.31-3.267-.934-3.267-1.866 0-2.473 1.469-4.597 3.56-5.49a3.5 3.5 0 013.248-6.175A4.498 4.498 0 0112.22 3c1.64 0 3.076.878 3.862 2.19a3.5 3.5 0 013.043 6.247c2.11.884 3.595 3.018 3.595 5.505 0 .895-1.203 1.506-3.038 1.828-.38 1.356-3.615 2.23-7.462 2.23-3.862 0-7.036-.836-7.454-2.192zm-.013-1.016a7.5 7.5 0 013.534-5.68A4.63 4.63 0 007.27 12c-2.63 0-4.77 2.21-4.77 4.942 0 .033.163.191.544.367.423.194 1.014.362 1.71.483zm4.78-6.297c.124-.047.25-.091.377-.132A4.512 4.512 0 019.39 11a3.51 3.51 0 01-.335.29c.12.04.238.084.355.133a.5.5 0 01.123.072zm-1.621-5.3a2.5 2.5 0 10.776 4.093A4.48 4.48 0 017.72 7.5a4.5 4.5 0 01.192-1.305zm7.212 5.109a3.507 3.507 0 01-.228-.186c-.117.087-.24.169-.366.245.079.025.157.052.235.08a5.627 5.627 0 01.359-.14zm.973.775a7.5 7.5 0 013.586 5.673c.602-.117 1.115-.27 1.492-.443.382-.176.545-.334.545-.367 0-2.733-2.14-4.942-4.77-4.942a4.64 4.64 0 00-.853.079zm2.62 6.242a6.5 6.5 0 00-12.997.179c0 .65 2.955 1.5 6.5 1.5 3.5 0 6.5-.874 6.5-1.5a6.63 6.63 0 00-.003-.18zM16.5 6.105c.144.44.22.908.22 1.395 0 1.12-.408 2.145-1.086 2.932a2.5 2.5 0 10.866-4.327zM12.22 11a3.5 3.5 0 100-7 3.5 3.5 0 000 7z" fill="#979797"/></svg>