<svg width="60" height="60" xmlns="http://www.w3.org/2000/svg"><g fill="#FFF" fill-rule="nonzero"><path d="M30 26.1a9.1 9.1 0 1 1 0-18.2 9.1 9.1 0 0 1 0 18.2zm0-2.2a6.9 6.9 0 1 0 0-13.8 6.9 6.9 0 0 0 0 13.8zM46 30.1a6.1 6.1 0 1 1 0-12.2 6.1 6.1 0 0 1 0 12.2zm0-2.2a3.9 3.9 0 1 0 0-7.8 3.9 3.9 0 0 0 0 7.8zM13 30.1a6.1 6.1 0 1 1 0-12.2 6.1 6.1 0 0 1 0 12.2zm0-2.2a3.9 3.9 0 1 0 0-7.8 3.9 3.9 0 0 0 0 7.8z"/><path d="M47.1 50a1.1 1.1 0 0 1-1.1 1.1H13a1.1 1.1 0 0 1-1.1-1.1c0-14.342 7.76-26.1 17.6-26.1 9.84 0 17.6 11.758 17.6 26.1zM29.5 26.1c-8.153 0-15.01 10.045-15.384 22.8h30.768c-.375-12.755-7.231-22.8-15.384-22.8z"/><path d="M45.75 30.1c-1.805 0-3.518.689-5.02 2.02l-1.46-1.647c1.895-1.678 4.121-2.573 6.48-2.573 7.172 0 12.35 7.965 12.35 19.1a1.1 1.1 0 0 1-1.1 1.1H45.357v-2.2h10.525c-.311-9.463-4.634-15.8-10.132-15.8zM13.717 45.9v2.2H2A1.1 1.1 0 0 1 .9 47c0-11.135 5.144-19.1 12.273-19.1 2.4 0 4.661.938 6.57 2.69l-1.487 1.622c-1.515-1.392-3.252-2.112-5.083-2.112-5.453 0-9.746 6.337-10.055 15.8h10.6z"/></g></svg>