<svg class="icon" width="200" height="200" viewBox="0 0 1024 1024" xmlns="http://www.w3.org/2000/svg"><path d="M853.204 823.57C841.497 685.09 746.811 570.504 618.47 529.066a193.877 193.877 0 0 0 89.293-163.362c0-107.76-87.859-195.038-195.72-195.038s-195.687 87.279-195.687 195.038a193.877 193.877 0 0 0 89.293 163.362c-127.864 41.439-223.028 156.024-234.77 294.503 0 2.458-.478 4.437 0 7.85a24.303 24.303 0 0 0 23.927 21.914H828.8a24.303 24.303 0 0 0 23.927-21.947c.99-3.414.478-5.36.478-7.817z" fill="#ACD8F9"/></svg>