<svg width="19" height="17" xmlns="http://www.w3.org/2000/svg"><defs><filter color-interpolation-filters="auto" id="a"><feColorMatrix in="SourceGraphic" values="0 0 0 0 0.090196 0 0 0 0 0.101961 0 0 0 0 0.113725 0 0 0 1.000000 0"/></filter></defs><g transform="translate(-833 -16)" filter="url(#a)" fill="none" fill-rule="evenodd" opacity=".6"><path d="M846.489 16.4c.665 0 1.292.296 1.692.798l3.23 4.057c.59.74.564 1.766-.062 2.479l-6.93 8.132c-.746.85-2.081.968-2.981.262a2.062 2.062 0 0 1-.289-.274l-6.85-8.17a1.912 1.912 0 0 1-.101-2.404l2.945-4.018a2.156 2.156 0 0 1 1.741-.862h7.605zm0 1.5h-7.605a.546.546 0 0 0-.368.141l-.067.074-2.946 4.019a.477.477 0 0 0-.03.523l.056.078 6.85 8.17a.554.554 0 0 0 .75.067l.068-.064 6.93-8.132a.478.478 0 0 0 .069-.536l-.054-.084-3.23-4.056a.534.534 0 0 0-.325-.191l-.098-.009zm-5.623 5.238.075.079 2.114 2.52 1.843-2.39c.232-.3.658-.364.991-.163l.089.062c.315.25.402.68.22 1.002l-.057.085-2.259 2.931c-.32.416-.933.474-1.368.129l-.08-.071-.074-.079-2.58-3.074c-.281-.336-.25-.821.07-1.084.294-.241.729-.212 1.016.053z" fill="#1875F0" fill-rule="nonzero"/></g></svg>