<svg width="24" height="24" xmlns="http://www.w3.org/2000/svg"><path d="M18.5 17.971a.5.5 0 1 1 1 0V20a.5.5 0 0 1-.5.5H3a.5.5 0 0 1-.5-.5V9a.5.5 0 0 1 .235-.424l8-5a.5.5 0 0 1 .53 0l8 5A.5.5 0 0 1 19.5 9v2.015a.5.5 0 1 1-1 0V9.277L11 4.59 3.5 9.277V19.5h15v-1.529zM6.5 13.5a2 2 0 1 1 0-4 2 2 0 0 1 0 4zm0-1a1 1 0 1 0 0-2 1 1 0 0 0 0 2zm0 6a2 2 0 1 1 0-4 2 2 0 0 1 0 4zm0-1a1 1 0 1 0 0-2 1 1 0 0 0 0 2zm5 1a2 2 0 1 1 0-4 2 2 0 0 1 0 4zm0-1a1 1 0 1 0 0-2 1 1 0 0 0 0 2zm4.621-1.5H21.5a.5.5 0 1 1 0 1h-5.207l.475.475a.5.5 0 0 1-.707.707l-1.415-1.414a.5.5 0 0 1 0-.707l1.415-1.415a.5.5 0 0 1 .707.708L16.12 16zm4.586-3l-.646-.646a.5.5 0 1 1 .707-.708l1.414 1.415a.5.5 0 0 1 0 .707l-1.414 1.414a.5.5 0 1 1-.707-.707l.475-.475H15.5a.5.5 0 1 1 0-1h5.207z" fill="#979797"/></svg>