<svg width="54" height="48" xmlns="http://www.w3.org/2000/svg"><path d="M40.9 37.08a1.1 1.1 0 0 1 2.2 0v3.795a3.1 3.1 0 0 1-3.1 3.1H4a3.1 3.1 0 0 1-3.1-3.1V14.136a3.1 3.1 0 0 1 1.725-2.778l18-8.905a3.1 3.1 0 0 1 2.75 0l18 8.905a3.1 3.1 0 0 1 1.725 2.778v3.983a1.1 1.1 0 0 1-2.2 0v-3.983a.9.9 0 0 0-.5-.806l-18-8.905a.9.9 0 0 0-.8 0l-18 8.905a.9.9 0 0 0-.5.806v26.739a.9.9 0 0 0 .9.9h36a.9.9 0 0 0 .9-.9V37.08zM22 38.1a4.1 4.1 0 1 1 0-8.2 4.1 4.1 0 0 1 0 8.2zm0-2.2a1.9 1.9 0 1 0 0-3.8 1.9 1.9 0 0 0 0 3.8zm-10 2.2a4.1 4.1 0 1 1 0-8.2 4.1 4.1 0 0 1 0 8.2zm0-2.2a1.9 1.9 0 1 0 0-3.8 1.9 1.9 0 0 0 0 3.8zm0-7.8a4.1 4.1 0 1 1 0-8.2 4.1 4.1 0 0 1 0 8.2zm0-2.2a1.9 1.9 0 1 0 0-3.8 1.9 1.9 0 0 0 0 3.8zm31.796 5.389c-1.091-.293-3.006-.528-5.714-.697v3.099c0 .945-1.113 1.45-1.824.828l-8-7a1.1 1.1 0 0 1 0-1.656l8-7c.711-.622 1.824-.117 1.824.828v3.055c4.154.927 7.231 2.043 9.252 3.378 2.261 1.492 4.264 3.955 6.03 7.37.495.958-.538 1.982-1.491 1.478-3.885-2.054-6.6-3.287-8.077-3.683zm.57-2.125c1.15.308 2.831 1.004 5.063 2.091-1.048-1.435-2.152-2.533-3.307-3.295-1.884-1.244-5.014-2.338-9.365-3.25a1.1 1.1 0 0 1-.875-1.076v-1.519l-5.23 4.576 5.23 4.576v-1.839a1.1 1.1 0 0 1 1.156-1.098c3.47.177 5.897.45 7.328.834z" fill="#FFF" fill-rule="nonzero"/></svg>