<svg width="24" height="24" xmlns="http://www.w3.org/2000/svg"><path d="M14.128 20.5a.5.5 0 0 1 0 1H5.077c-.863 0-1.577-.663-1.577-1.5V5c0-.837.714-1.5 1.577-1.5h11.846c.863 0 1.577.663 1.577 1.5v8.607a.5.5 0 0 1-1 0V5c0-.268-.25-.5-.577-.5H5.077c-.327 0-.577.232-.577.5v15c0 .268.25.5.577.5h9.051zM6.5 7h9a.5.5 0 1 1 0 1h-9a.5.5 0 0 1 0-1zm0 3h9a.5.5 0 1 1 0 1h-9a.5.5 0 1 1 0-1zm0 3h9a.5.5 0 1 1 0 1h-9a.5.5 0 1 1 0-1zm0 3H12a.5.5 0 1 1 0 1H6.5a.5.5 0 1 1 0-1zm12.434 3.255 1.538 1.515a.496.496 0 0 1 .003.705l-.003.003a.5.5 0 0 1-.704.002l-1.546-1.523a3 3 0 1 1 .712-.702zM16.5 19.5a2 2 0 1 0 0-4 2 2 0 0 0 0 4z" fill="#979797"/></svg>