<svg width="54" height="48" xmlns="http://www.w3.org/2000/svg"><g fill="#FFF"><path d="M36.03 31.276c1.43-.384 3.857-.656 7.327-.834a1.1 1.1 0 0 1 1.156 1.098v1.84l5.23-4.577-5.23-4.576v1.52c0 .52-.365.97-.875 1.076-4.351.91-7.481 2.005-9.365 3.249-1.155.763-2.26 1.86-3.307 3.296 2.232-1.088 3.913-1.784 5.064-2.092zm.569 2.125c-1.478.396-4.192 1.629-8.077 3.684-.952.503-1.986-.52-1.491-1.478 1.767-3.416 3.77-5.878 6.03-7.371 2.02-1.334 5.098-2.45 9.252-3.377v-3.056c0-.945 1.113-1.45 1.824-.828l8 7a1.1 1.1 0 0 1 0 1.656l-8 7c-.71.622-1.824.117-1.824-.828v-3.099c-2.707.169-4.623.405-5.714.697z"/><path d="M40.9 38.08a1.1 1.1 0 0 1 2.2 0v3.795a3.1 3.1 0 0 1-3.1 3.1H4a3.1 3.1 0 0 1-3.1-3.1V15.136a3.1 3.1 0 0 1 1.725-2.778l18-8.905a3.1 3.1 0 0 1 2.75 0l18 8.905a3.1 3.1 0 0 1 1.725 2.778v3.983a1.1 1.1 0 0 1-2.2 0v-3.983a.9.9 0 0 0-.5-.806l-18-8.905a.9.9 0 0 0-.8 0l-18 8.905a.9.9 0 0 0-.5.806v26.739a.9.9 0 0 0 .9.9h36a.9.9 0 0 0 .9-.9V38.08z"/><path d="M22 39.1a4.1 4.1 0 1 1 0-8.2 4.1 4.1 0 0 1 0 8.2zm0-2.2a1.9 1.9 0 1 0 0-3.8 1.9 1.9 0 0 0 0 3.8zm-10 2.2a4.1 4.1 0 1 1 0-8.2 4.1 4.1 0 0 1 0 8.2zm0-2.2a1.9 1.9 0 1 0 0-3.8 1.9 1.9 0 0 0 0 3.8zm0-7.8a4.1 4.1 0 1 1 0-8.2 4.1 4.1 0 0 1 0 8.2zm0-2.2a1.9 1.9 0 1 0 0-3.8 1.9 1.9 0 0 0 0 3.8z"/></g></svg>