<svg width="24" height="24" xmlns="http://www.w3.org/2000/svg"><path d="M18.5 17.971a.5.5 0 111 0V20a.5.5 0 01-.5.5H3a.5.5 0 01-.5-.5V9a.5.5 0 01.235-.424l8-5a.5.5 0 01.53 0l8 5A.5.5 0 0119.5 9v1a.5.5 0 11-1 0v-.723L11 4.59 3.5 9.277V19.5h15v-1.529zM6.5 13.5a2 2 0 110-4 2 2 0 010 4zm0-1a1 1 0 100-2 1 1 0 000 2zm0 6a2 2 0 110-4 2 2 0 010 4zm0-1a1 1 0 100-2 1 1 0 000 2zm5 1a2 2 0 110-4 2 2 0 010 4zm0-1a1 1 0 100-2 1 1 0 000 2zm5.556-2.667a8.973 8.973 0 00-1.39 1.363c.451-.223.898-.42 1.34-.592.829-.321 1.714-.58 2.656-.778a.5.5 0 01.603.489v.478L22.058 14l-1.793-1.793v.886a.5.5 0 01-.42.494c-.994.16-1.922.575-2.789 1.246zm-.612-.79c.875-.678 1.817-1.133 2.82-1.362V11a.5.5 0 01.854-.354l3 3a.5.5 0 010 .708l-3 3a.5.5 0 01-.853-.354v-1.058c-.666.164-1.298.362-1.897.594-1 .388-2.033.92-3.097 1.596-.443.281-.966-.224-.698-.677.861-1.457 1.817-2.596 2.87-3.412z" fill="#979797"/></svg>