<svg width="80" height="80" xmlns="http://www.w3.org/2000/svg"><path d="M40 0C17.908 0 0 17.908 0 40c0 22.09 17.908 40 40 40 22.09 0 40-17.91 40-40C80 17.908 62.09 0 40 0zm0 76.8C19.677 76.8 3.2 60.323 3.2 40 3.2 19.677 19.677 3.2 40 3.2c20.323 0 36.8 16.477 36.8 36.8 0 20.323-16.477 36.8-36.8 36.8zm13.85-33.492c-.818 0-1.643-.82-1.643-1.656 0-.825.825-1.655 1.643-1.655 1.239 0 2.07.83 2.07 1.655-.001.837-.831 1.656-2.07 1.656m-9.096 0c-.823 0-1.654-.82-1.654-1.656 0-.825.83-1.655 1.654-1.655 1.25 0 2.07.83 2.07 1.655 0 .837-.82 1.656-2.07 1.656m18.605 2.071c0-6.617-6.615-12.01-14.045-12.01-7.867 0-14.064 5.393-14.064 12.01 0 6.629 6.197 12.012 14.064 12.012 1.647 0 3.308-.416 4.962-.831l4.535 2.486-1.244-4.136c3.32-2.493 5.792-5.798 5.792-9.53M27.804 32.128c-1.239 0-2.49-.831-2.49-2.072 0-1.245 1.251-2.065 2.49-2.065 1.24 0 2.064.82 2.064 2.065 0 1.24-.825 2.072-2.064 2.072m11.573-4.137c1.245 0 2.07.82 2.07 2.065 0 1.24-.825 2.072-2.07 2.072-1.24 0-2.483-.831-2.483-2.072 0-1.245 1.243-2.065 2.483-2.065m8.89 4.487c.537 0 1.067.04 1.593.098-1.43-6.668-8.554-11.623-16.684-11.623-9.09 0-16.535 6.201-16.535 14.076 0 4.546 2.477 8.278 6.616 11.173l-1.654 4.98 5.78-2.902c2.07.41 3.729.831 5.793.831.519 0 1.033-.025 1.544-.066a12.342 12.342 0 0 1-.51-3.468c0-7.23 6.203-13.099 14.058-13.099" fill="#20335D"/></svg>