<svg width="24" height="24" xmlns="http://www.w3.org/2000/svg"><path d="M12.5 22a9.5 9.5 0 1 1 0-19 9.5 9.5 0 0 1 0 19zm0-1a8.5 8.5 0 1 0 0-17 8.5 8.5 0 0 0 0 17zm2.872-7.97c.279 0 .466-.185.466-.373 0-.185-.187-.372-.466-.372-.184 0-.37.187-.37.372 0 .188.186.373.37.373zm-2.047 0c.282 0 .466-.185.466-.373 0-.185-.184-.372-.466-.372-.185 0-.372.187-.372.372a.4.4 0 0 0 .372.373zm4.187.466c0 .84-.557 1.583-1.303 2.144l.28.93-1.021-.559c-.372.094-.746.187-1.116.187-1.77 0-3.165-1.21-3.165-2.702 0-1.49 1.394-2.703 3.165-2.703 1.671 0 3.16 1.214 3.16 2.703zm-8-2.982c.279 0 .464-.187.464-.466 0-.28-.185-.464-.464-.464s-.56.184-.56.464.281.466.56.466zm2.604-.93c-.28 0-.559.184-.559.464s.28.466.559.466c.28 0 .465-.187.465-.466 0-.28-.185-.464-.465-.464zm2 1.01c-1.767 0-3.163 1.32-3.163 2.947 0 .27.042.53.115.78-.115.009-.23.015-.348.015-.464 0-.837-.095-1.303-.187l-1.3.652.372-1.12C7.557 13.03 7 12.19 7 11.167 7 9.395 8.675 8 10.72 8c1.83 0 3.432 1.115 3.754 2.615a3.236 3.236 0 0 0-.358-.022z" fill="#979797"/></svg>