<svg width="24" height="24" xmlns="http://www.w3.org/2000/svg"><path d="M19.059 19.386v2.001a.62.62 0 0 1-.628.613H5.57a.62.62 0 0 1-.628-.613v-2H19.06zm.47-5.813c.26 0 .471.21.471.47v4.575c0 .26-.21.47-.47.47H4.47a.47.47 0 0 1-.47-.47v-4.575c0-.26.21-.47.47-.47h15.06zm-8.45 1.364c-.738 0-1.246.515-1.246 1.401 0 .883.508 1.423 1.246 1.423s1.246-.54 1.246-1.423-.508-1.401-1.246-1.401zm-4.247.051h-.568l.538 2.722h.682l.305-1.346c.045-.214.082-.423.12-.63h.015c.034.207.075.416.12.63l.313 1.346h.693l.515-2.722h-.53l-.219 1.328-.124.868h-.019c-.06-.294-.116-.589-.177-.868l-.323-1.328h-.475l-.324 1.328c-.06.283-.12.577-.177.868h-.015c-.041-.29-.086-.581-.128-.868l-.222-1.328zm7.01 0h-.971v2.722h.557v-1.03h.388l.572 1.03h.621l-.651-1.115c.32-.12.53-.375.53-.783 0-.625-.462-.824-1.046-.824zm2.36 0h-.764v2.722h.795c.82 0 1.348-.456 1.348-1.372 0-.92-.528-1.35-1.378-1.35zm-5.123.416c.414 0 .678.35.678.934 0 .581-.264.952-.678.952-.414 0-.678-.371-.678-.952 0-.585.264-.934.678-.934zm5.09.018c.52 0 .843.25.843.916 0 .662-.324.934-.843.934h-.173v-1.85zm-2.38-.003c.358 0 .554.099.554.393 0 .29-.196.438-.554.438h-.36v-.831zM15.026 3a.31.31 0 0 1 .313.306v2.88c0 .169.14.306.314.306h3.092a.31.31 0 0 1 .314.307v6.459L4.94 13.254V3.613A.62.62 0 0 1 5.57 3h9.457zm.739.204c.04 0 .078.015.107.042l2.896 2.7a.157.157 0 0 1-.107.272h-2.896a.157.157 0 0 1-.157-.157v-2.7c0-.087.07-.157.157-.157z" fill="#2C85DD" fill-rule="nonzero"/></svg>