<svg width="24" height="24" xmlns="http://www.w3.org/2000/svg"><path d="M19.059 18.775v2.049a.628.628 0 01-.628.627H5.57a.627.627 0 01-.628-.627v-2.048H19.06zm.47-5.951c.26 0 .471.21.471.47V18c0 .26-.21.47-.47.47H4.47A.47.47 0 014 18v-4.706c0-.26.21-.47.47-.47h15.06zm-7.264 1.102c-.704 0-1.295.538-1.295 1.457 0 .93.572 1.434 1.276 1.434.361 0 .659-.143.888-.41l-.293-.346c-.15.162-.339.275-.576.275-.44 0-.727-.366-.727-.972 0-.598.316-.96.738-.96.21 0 .373.098.512.234l.294-.354a1.136 1.136 0 00-.817-.358zm-4.017.053h-1.71v2.786H8.29v-.467H7.096v-.746h.979v-.466h-.98v-.644h1.153v-.463zm.982 0h-.617l.734 1.348-.783 1.438h.591l.298-.618c.067-.143.131-.29.203-.459h.015c.083.17.147.316.218.46l.313.617h.617l-.783-1.412.734-1.374h-.587l-.264.572a8.95 8.95 0 00-.184.44h-.019c-.083-.173-.143-.308-.207-.44l-.279-.572zm6.062 0h-1.71v2.786h1.751v-.467H14.14v-.746h.978v-.466h-.978v-.644h1.152v-.463zm1.163 0h-.557v2.786h1.686v-.467h-1.13v-2.32zM15.025 2c.174 0 .314.14.314.314V5.26c0 .174.14.314.314.314h3.092c.173 0 .314.14.314.314V12.5L4.94 12.498v-9.87c0-.347.281-.628.628-.628h9.457zm.74.21c.04 0 .079.015.108.043l2.903 2.77a.157.157 0 01-.109.271h-2.902a.157.157 0 01-.157-.157v-2.77c0-.087.07-.157.157-.157z" fill="#5CCB1B"/></svg>