<svg width="20" height="20" xmlns="http://www.w3.org/2000/svg"><path d="M2.87 16.823a1.834 1.834 0 0 1-1.855-1.86V4.037c0-1.046.812-1.86 1.856-1.86h1.624V1.015h.928v1.162H12.5V1.015h.928v1.162h1.624c1.044 0 1.856.814 1.856 1.86v3.72H1.943v7.322c0 .465.348.93.928.93h6.032c.232 0 .464.233.464.465 0 .233-.232.465-.464.465l-6.032-.116zm0-13.716c-.463 0-.927.349-.927.93v2.79h13.921v-2.79c0-.465-.348-.93-.928-.93h-1.624V4.85h-.928V3.107H5.423V4.85h-.928V3.107H2.87zm1.045 6.51h3.712v.93H3.915v-.93zm0 3.486h3.712v.93H3.915v-.93zm10.209.93V11.36h.928v1.743h1.74v.93h-2.668zm.464 3.952c-1.16 0-2.32-.464-3.132-1.278-.812-.814-1.277-1.976-1.277-3.139 0-1.162.465-2.324 1.277-3.138.812-.814 1.972-1.279 3.132-1.279 1.16 0 2.32.465 3.132 1.279.812.814 1.276 1.976 1.276 3.138 0 1.163-.464 2.325-1.276 3.139-.812.814-1.856 1.278-3.132 1.278zm0-8.02c-1.972 0-3.596 1.627-3.596 3.603 0 1.976 1.624 3.604 3.596 3.604s3.596-1.628 3.596-3.604c0-1.976-1.624-3.603-3.596-3.603z" fill="#324A59" fill-rule="nonzero"/></svg>