<svg width="42" height="42" xmlns="http://www.w3.org/2000/svg"><path d="M21 0c11.598 0 21 9.402 21 21s-9.402 21-21 21S0 32.598 0 21 9.402 0 21 0zm0 2C10.507 2 2 10.507 2 21s8.507 19 19 19 19-8.507 19-19S31.493 2 21 2zm-7.636 25.165v6.168H9.545c-.327 0-.545-.22-.545-.55.218-2.644 1.964-4.406 4.364-5.618zm14.181-.44c2.946 1.101 5.128 3.084 5.455 6.058 0 .33-.218.55-.545.55h-4.91zm0-9.913c0 2.643-1.527 5.617-3.818 6.939-.327.22-.545.55-.545.88 0 .662.436 1.102.982 1.212.763.22 1.527.33 2.29.551v6.94h-12v-6.61c1.091-.33 2.182-.66 3.382-.88.546 0 .982-.551.982-1.102 0-.44-.218-.771-.545-.991-2.291-1.432-3.818-4.296-3.818-6.94zM21 8c3.273 0 5.89 2.423 6.436 5.507h1.2c.655 0 1.091.44 1.091 1.102 0 .66-.436 1.101-1.09 1.101H13.363c-.655 0-1.091-.44-1.091-1.101s.436-1.102 1.09-1.102h1.2C15.11 10.423 17.728 8 21 8z" fill="#979797"/></svg>