<svg width="24" height="24" xmlns="http://www.w3.org/2000/svg"><path d="M16.827 8.783h.9c.491 0 .818-.33.818-.826 0-.496-.327-.827-.818-.827h-.9C16.418 4.817 14.455 3 12 3S7.582 4.817 7.173 7.13h-.9c-.491 0-.818.33-.818.827 0 .495.327.826.818.826h10.554zM3 21.587c0 .248.164.413.41.413h2.863v-4.626c-1.8.909-3.11 2.23-3.273 4.213zm13.91-4.544V22h3.68c.246 0 .41-.165.41-.413-.245-2.23-1.882-3.717-4.09-4.544zm-2.865-2.23c1.719-.991 2.864-3.222 2.864-5.204H7.091c0 1.982 1.145 4.13 2.864 5.204a.87.87 0 01.409.744c0 .413-.328.826-.737.826-.9.165-1.718.413-2.536.66V22h9v-5.204c-.573-.166-1.146-.248-1.718-.413a.896.896 0 01-.737-.91c0-.247.164-.495.41-.66z" fill="#979797"/></svg>