<svg width="205" height="215" xmlns="http://www.w3.org/2000/svg"><path d="M157.477 65.435h10.25c5.591 0 9.318-3.74 9.318-9.348 0-5.609-3.727-9.348-9.318-9.348h-10.25C152.818 20.565 130.454 0 102.5 0 74.545 0 52.182 20.565 47.523 46.74h-10.25c-5.591 0-9.318 3.738-9.318 9.347s3.727 9.348 9.318 9.348h120.204zM0 210.326C0 213.13 1.864 215 4.66 215h32.613v-52.348c-20.5 10.283-35.41 25.24-37.273 47.674zm158.409-51.413V215h41.932c2.795 0 4.659-1.87 4.659-4.674-2.795-25.24-21.432-42.065-46.591-51.413zm-32.614-25.24c19.569-11.216 32.614-36.456 32.614-58.89H46.591c0 22.434 13.045 46.739 32.614 58.89 2.795 1.87 4.659 4.675 4.659 8.414 0 4.674-3.727 9.348-8.387 9.348-10.25 1.87-19.568 4.674-28.886 7.478V215h102.5v-58.891c-6.523-1.87-13.045-2.805-19.568-4.674-4.66-.935-8.386-4.674-8.386-10.283 0-2.804 1.863-5.609 4.659-7.478z" fill="#979797" fill-rule="nonzero"/></svg>