<svg width="24" height="24" xmlns="http://www.w3.org/2000/svg"><path d="M3.427 21.37A2.201 2.201 0 0 1 1.2 19.138V6.027c0-1.256.975-2.232 2.227-2.232h1.95V2.4H6.49v1.395h8.492V2.4h1.114v1.395h1.949a2.2 2.2 0 0 1 2.227 2.232v4.463H2.314v8.788c0 .558.417 1.116 1.113 1.116h7.24c.278 0 .556.279.556.558s-.278.558-.556.558l-7.24-.14zm0-16.46c-.556 0-1.113.42-1.113 1.117v3.347h16.705V6.027c0-.558-.417-1.116-1.113-1.116h-1.95v2.092h-1.113V4.911H6.49v2.092H5.376V4.911H3.427zm1.253 7.812h4.455v1.116H4.68v-1.116zm0 4.185h4.455v1.116H4.68v-1.116zm12.251 1.116v-3.209h1.114v2.093h2.088v1.116h-3.202zm.557 4.742c-1.392 0-2.784-.558-3.759-1.534-.974-.977-1.531-2.372-1.531-3.766 0-1.395.557-2.79 1.531-3.767.975-.976 2.367-1.534 3.76-1.534 1.391 0 2.783.558 3.758 1.534.974.977 1.531 2.372 1.531 3.767 0 1.394-.557 2.79-1.531 3.766-.975.976-2.228 1.534-3.759 1.534zm0-9.624c-2.367 0-4.316 1.952-4.316 4.324 0 2.37 1.95 4.324 4.316 4.324 2.367 0 4.316-1.953 4.316-4.324 0-2.372-1.95-4.324-4.316-4.324z" fill="#979797"/></svg>