<svg width="32" height="32" xmlns="http://www.w3.org/2000/svg"><path d="M21.49 21.311A9.965 9.965 0 0 0 24.666 14c0-5.523-4.477-10-10-10s-10 4.477-10 10 4.477 10 10 10c1.99 0 3.888-.58 5.51-1.654l.699-.462.613-.573zm2.729 2.924l.05-.047 4.176 4.176a1 1 0 0 1-1.414 1.414l-5.657-5.657a1.009 1.009 0 0 1-.093-.107A11.944 11.944 0 0 1 14.667 26c-6.628 0-12-5.373-12-12s5.372-12 12-12c6.627 0 12 5.373 12 12 0 3.463-1.467 6.583-3.813 8.773l1.367 1.367-.002.095zM19.667 13a1 1 0 0 1 0 2h-10a1 1 0 0 1 0-2h10z" fill="#FFF"/></svg>