<svg width="32" height="32" xmlns="http://www.w3.org/2000/svg"><path d="M21.822 21.311A9.965 9.965 0 0 0 25 14c0-5.523-4.477-10-10-10S5 8.477 5 14s4.477 10 10 10c1.99 0 3.889-.58 5.51-1.654l.699-.462.613-.573zm2.73 2.924l.05-.047 4.176 4.176a1 1 0 0 1-1.414 1.414l-5.657-5.657a1.009 1.009 0 0 1-.093-.107A11.944 11.944 0 0 1 15 26C8.373 26 3 20.627 3 14S8.373 2 15 2s12 5.373 12 12c0 3.463-1.467 6.583-3.813 8.773l1.367 1.367-.002.095zM14 13V9a1 1 0 0 1 2 0v4h4a1 1 0 0 1 0 2h-4v4a1 1 0 0 1-2 0v-4h-4a1 1 0 0 1 0-2h4z" fill="#FFF"/></svg>