<?xml version="1.0" standalone="no"?>
  <!DOCTYPE svg PUBLIC "-//W3C//DTD SVG 1.1//EN" "http://www.w3.org/Graphics/SVG/1.1/DTD/svg11.dtd" >
  <svg>
  <metadata>
  Created by font-carrier
  </metadata>
  <defs>
  <font id="iconfont" horiz-adv-x="1024" vert-adv-y="1024" >
    <font-face
      
      font-family="iconfont"
      
      font-weight="400"
      
      font-stretch="normal"
      
      units-per-em="1024"
      
      ascent="812"
      
      descent="-212"
      
    />
      <missing-glyph />

      
      <glyph glyph-name="x" unicode="&#x78;" horiz-adv-x="100"
        d="M20 20 L50 20 L50 -20 Z" />
      

      
      <glyph glyph-name="uni1001" unicode="&#x1001;" d="M221.8667 654.9867A47.7867-47.7867 0 0 0 174.08 607.2V436.5333A47.7867-47.7867 0 0 0 221.8667 388.7467H392.5333A47.7867-47.7867 0 0 0 440.32 436.5333V607.2A47.7867-47.7867 0 0 0 392.5333 654.9867H221.8667ZM221.8667 695.9467H392.5333A88.7467-88.7467 0 0 1 481.28 607.2V436.5333A88.7467-88.7467 0 0 1 392.5333 347.7867H221.8667A88.7467-88.7467 0 0 1 133.12 436.5333V607.2A88.7467-88.7467 0 0 1 221.8667 695.9467ZM221.8667 245.3867A47.7867-47.7867 0 0 0 174.08 197.6V26.9333A47.7867-47.7867 0 0 0 221.8667-20.8533H392.5333A47.7867-47.7867 0 0 0 440.32 26.9333V197.6A47.7867-47.7867 0 0 0 392.5333 245.3867H221.8667ZM221.8667 286.3467H392.5333A88.7467-88.7467 0 0 1 481.28 197.6V26.9333A88.7467-88.7467 0 0 1 392.5333-61.8133H221.8667A88.7467-88.7467 0 0 1 133.12 26.9333V197.6A88.7467-88.7467 0 0 1 221.8667 286.3467ZM631.4667 654.9867A47.7867-47.7867 0 0 0 583.68 607.2V436.5333A47.7867-47.7867 0 0 0 631.4667 388.7467H802.1333A47.7867-47.7867 0 0 0 849.92 436.5333V607.2A47.7867-47.7867 0 0 0 802.1333 654.9867H631.4667ZM631.4667 695.9467H802.1333A88.7467-88.7467 0 0 1 890.88 607.2V436.5333A88.7467-88.7467 0 0 1 802.1333 347.7867H631.4667A88.7467-88.7467 0 0 1 542.72 436.5333V607.2A88.7467-88.7467 0 0 1 631.4667 695.9467ZM750.592 242.6048A47.7867-47.7867 0 0 0 683.008 242.6048L586.4619 146.0587A47.7867-47.7867 0 0 0 586.4619 78.4747L683.008-18.0715A47.7867-47.7867 0 0 0 750.592-18.0715L847.1381 78.4747A47.7867-47.7867 0 0 0 847.1381 146.0587L750.592 242.6048ZM779.5541 271.5669L876.1003 175.0208A88.7467-88.7467 0 0 1 876.1003 49.5125L779.5541-47.0336A88.7467-88.7467 0 0 1 654.0459-47.0336L557.4997 49.5125A88.7467-88.7467 0 0 1 557.4997 175.0208L654.0459 271.5669A88.7467-88.7467 0 0 1 779.5541 271.5669Z"  horiz-adv-x="1024" vert-adv-y="1024"  />

      
      <glyph glyph-name="uni1002" unicode="&#x1002;" d="M192 660A40-40 0 0 0 152 620V428C152 405.92 169.92 388 192 388H384C406.08 388 424 405.92 424 428V620A40-40 0 0 0 384 660H192ZM192 708H384C432.64 708 472 668.576 472 620V428C472 379.36 432.576 340 384 340H192C143.36 340 104 379.424 104 428V620C104 668.64 143.424 708 192 708ZM192 212A40-40 0 0 0 152 172V-20C152-42.08 169.92-60 192-60H384C406.08-60 424-42.08 424-20V172A40-40 0 0 0 384 212H192ZM192 260H384C432.64 260 472 220.576 472 172V-20C472-68.64 432.576-108 384-108H192C143.36-108 104-68.576 104-20V172C104 220.64 143.424 260 192 260ZM640 660A40-40 0 0 0 600 620V428C600 405.92 617.92 388 640 388H832C854.08 388 872 405.92 872 428V620A40-40 0 0 0 832 660H640ZM640 708H832C880.64 708 920 668.576 920 620V428C920 379.36 880.576 340 832 340H640C591.36 340 552 379.424 552 428V620C552 668.64 591.424 708 640 708ZM640 212A40-40 0 0 0 600 172V-20C600-42.08 617.92-60 640-60H832C854.08-60 872-42.08 872-20V172A40-40 0 0 0 832 212H640ZM640 260H832C880.64 260 920 220.576 920 172V-20C920-68.64 880.576-108 832-108H640C591.36-108 552-68.576 552-20V172C552 220.64 591.424 260 640 260Z"  horiz-adv-x="1024" vert-adv-y="1024"  />

      
      <glyph glyph-name="uni1003" unicode="&#x1003;" d="M850.688-29.6256H822.016V396C822.016 552.3648 695.04 681.0816 531.712 698.08V726.5984C531.712 745.5424 515.2768 760.8 494.9504 760.8 474.5728 760.8 458.0864 745.4912 458.0864 726.5984V698.08C294.7584 681.0816 167.7824 552.3648 167.7824 396V-29.6256H139.264C118.8864-29.6256 102.4512-44.8832 102.4512-63.776 102.4512-82.72 118.8864-97.9776 139.264-97.9776H421.376V-143.5968C421.376-181.4336 454.2976-212 495.0016-212 535.6544-212 568.576-181.4336 568.576-143.5968V-98.0288H850.688C871.0656-98.0288 887.552-82.6688 887.552-63.776 887.552-44.8832 871.0656-29.6256 850.688-29.6256ZM756.6336-17.44H233.2672V399.9936C233.2672 527.6864 350.3616 631.1104 494.8992 631.1104 639.488 631.1104 756.6336 527.6864 756.6336 399.9936V-17.44Z"  horiz-adv-x="1024" vert-adv-y="1024"  />

      
      <glyph glyph-name="uni1004" unicode="&#x1004;" d="M540.1429 288.9143C534.4571 300.2857 528.7714 305.9714 517.4 317.3429 511.7143 323.0286 500.3429 328.7143 494.6571 334.4 500.3429 340.0857 506.0286 340.0857 506.0286 345.7714 511.7143 351.4571 511.7143 357.1429 517.4 362.8286 517.4 368.5143 523.0857 374.2 523.0857 385.5714V408.3143C523.0857 425.3714 517.4 442.4286 511.7143 459.4857 506.0286 476.5429 494.6571 487.9143 488.9714 499.2857 477.6 510.6571 466.2286 516.3429 454.8571 522.0286 443.4857 527.7143 426.4286 527.7143 415.0571 527.7143H284.2857V78.5429H426.4286C443.4857 78.5429 460.5429 84.2286 477.6 89.9143 494.6571 95.6 506.0286 106.9714 517.4 118.3429 528.7714 129.7143 540.1429 146.7714 545.8286 163.8286 551.5143 180.8857 557.2 197.9429 557.2 220.6857 557.2 232.0571 557.2 249.1143 551.5143 260.4857 545.8286 271.8571 545.8286 283.2286 540.1429 288.9143ZM369.5714 448.1143H398C409.3714 448.1143 420.7429 442.4286 426.4286 436.7429 437.8 431.0571 437.8 419.6857 437.8 402.6286S432.1143 374.2 426.4286 368.5143C420.7429 357.1429 409.3714 357.1429 398 357.1429H369.5714V448.1143ZM466.2286 192.2571C460.5429 186.5714 460.5429 180.8857 454.8571 175.2 449.1714 169.5143 443.4857 169.5143 437.8 163.8286 432.1143 163.8286 426.4286 158.1429 415.0571 158.1429H369.5714V271.8571H415.0571C432.1143 271.8571 443.4857 266.1714 454.8571 254.8 466.2286 243.4286 471.9143 232.0571 471.9143 209.3143 471.9143 209.3143 466.2286 197.9429 466.2286 192.2571ZM1216.7429 357.1429V271.8571C1205.3714 283.2286 1199.6857 300.2857 1188.3143 317.3429 1176.9429 334.4 1165.5714 345.7714 1154.2 357.1429L1023.4286 527.7143H949.5143V78.5429H1040.4857V362.8286L1074.6 311.6571C1085.9714 294.6 1097.3429 277.5429 1114.4 260.4857L1262.2286 67.1714H1307.7143V522.0286H1216.7429V357.1429ZM1478.2857 812H113.7143C51.1714 812 0 760.8286 0 698.2857V-97.7143C0-160.2571 51.1714-211.4286 113.7143-211.4286H1478.2857C1540.8286-211.4286 1592-160.2571 1592-97.7143V698.2857C1592 760.8286 1540.8286 812 1478.2857 812ZM1478.2857-40.8571C1478.2857-74.9714 1455.5429-97.7143 1421.4286-97.7143H170.5714C136.4571-97.7143 113.7143-74.9714 113.7143-40.8571V641.4286C113.7143 675.5429 136.4571 698.2857 170.5714 698.2857H1421.4286C1455.5429 698.2857 1478.2857 675.5429 1478.2857 641.4286V-40.8571ZM585.6286 442.4286H699.3429V78.5429H796V442.4286H909.7143V527.7143H585.6286Z"  horiz-adv-x="1592" vert-adv-y="1024"  />

      
      <glyph glyph-name="uni1005" unicode="&#x1005;" d="M201.1429 300H274.2857C285.2571 300 292.5714 307.3143 292.5714 318.2857V354.8571C292.5714 365.8286 285.2571 373.1429 274.2857 373.1429H201.1429C190.1714 373.1429 182.8571 365.8286 182.8571 354.8571V318.2857C182.8571 307.3143 190.1714 300 201.1429 300ZM384 300H822.8571C833.8286 300 841.1429 307.3143 841.1429 318.2857V354.8571C841.1429 365.8286 833.8286 373.1429 822.8571 373.1429H384C373.0286 373.1429 365.7143 365.8286 365.7143 354.8571V318.2857C365.7143 307.3143 373.0286 300 384 300ZM822.8571 7.4286H749.7143C738.7429 7.4286 731.4286 0.1143 731.4286-10.8571V-47.4286C731.4286-58.4 738.7429-65.7143 749.7143-65.7143H822.8571C833.8286-65.7143 841.1429-58.4 841.1429-47.4286V-10.8571C841.1429 0.1143 833.8286 7.4286 822.8571 7.4286ZM950.8571 738.8571H804.5714V775.4286C804.5714 793.7143 789.9429 812 768 812S731.4286 797.3714 731.4286 775.4286V738.8571H292.5714V775.4286C292.5714 793.7143 277.9429 812 256 812S219.4286 797.3714 219.4286 775.4286V738.8571H73.1429C32.9143 738.8571 0 705.9429 0 665.7143V-138.8571C0-179.0857 32.9143-212 73.1429-212H950.8571C991.0857-212 1024-179.0857 1024-138.8571V665.7143C1024 705.9429 991.0857 738.8571 950.8571 738.8571ZM950.8571-102.2857C950.8571-124.2286 936.2286-138.8571 914.2857-138.8571H109.7143C87.7714-138.8571 73.1429-124.2286 73.1429-102.2857V446.2857H950.8571V-102.2857ZM950.8571 519.4286H73.1429V629.1429C73.1429 651.0857 87.7714 665.7143 109.7143 665.7143H219.4286V629.1429C219.4286 610.8571 234.0571 592.5714 256 592.5714S292.5714 607.2 292.5714 629.1429V665.7143H731.4286V629.1429C731.4286 610.8571 746.0571 592.5714 768 592.5714S804.5714 607.2 804.5714 629.1429V665.7143H914.2857C936.2286 665.7143 950.8571 651.0857 950.8571 629.1429V519.4286ZM201.1429-65.7143H640C650.9714-65.7143 658.2857-58.4 658.2857-47.4286V-10.8571C658.2857 0.1143 650.9714 7.4286 640 7.4286H201.1429C190.1714 7.4286 182.8571 0.1143 182.8571-10.8571V-47.4286C182.8571-58.4 190.1714-65.7143 201.1429-65.7143ZM201.1429 117.1429H822.8571C833.8286 117.1429 841.1429 124.4571 841.1429 135.4286V172C841.1429 182.9714 833.8286 190.2857 822.8571 190.2857H201.1429C190.1714 190.2857 182.8571 182.9714 182.8571 172V135.4286C182.8571 124.4571 190.1714 117.1429 201.1429 117.1429Z"  horiz-adv-x="1024" vert-adv-y="1024"  />

      
      <glyph glyph-name="uni1006" unicode="&#x1006;" d="M950.8571 812H73.1429C32.9143 812 0 779.0857 0 738.8571V-138.8571C0-179.0857 32.9143-212 73.1429-212H950.8571C991.0857-212 1024-179.0857 1024-138.8571V738.8571C1024 779.0857 991.0857 812 950.8571 812ZM950.8571-102.2857C950.8571-124.2286 936.2286-138.8571 914.2857-138.8571H109.7143C87.7714-138.8571 73.1429-124.2286 73.1429-102.2857V702.2857C73.1429 724.2286 87.7714 738.8571 109.7143 738.8571H914.2857C936.2286 738.8571 950.8571 724.2286 950.8571 702.2857V-102.2857ZM720.4571 468.2286L460.8 208.5714 332.8 336.5714C318.1714 351.2 296.2286 351.2 281.6 336.5714 266.9714 321.9429 266.9714 300 281.6 285.3714L435.2 131.7714C442.5143 124.4571 449.8286 120.8 460.8 120.8 471.7714 120.8 479.0857 124.4571 486.4 131.7714L771.6571 417.0286C786.2857 431.6571 786.2857 453.6 771.6571 468.2286 757.0286 479.2 735.0857 479.2 720.4571 468.2286Z"  horiz-adv-x="1024" vert-adv-y="1024"  />

      
      <glyph glyph-name="uni1007" unicode="&#x1007;" d="M512 812C229.2267 812 0 582.7733 0 300S229.2267-212 512-212 1024 17.2267 1024 300 794.7733 812 512 812ZM821.504 435.7227L405.696 31.0293A32.0853-32.0853 0 0 1 360.3413 31.0293L201.4933 182.88A32.0853-32.0853 0 0 1 246.848 228.2347L383.0827 98.9973 776.1493 481.0773A32.0853-32.0853 0 0 1 821.504 435.7227Z"  horiz-adv-x="1024" vert-adv-y="1024"  />

      
      <glyph glyph-name="uni1008" unicode="&#x1008;" d="M488.0696 138.5753A37.8435-37.8435 0 0 1 435.9569 139.911L303.3266 272.519A37.8435-37.8435 0 1 1 356.8417 326.023L462.8814 219.9722 663.0623 420.153A37.8435-37.8435 0 1 1 716.5663 366.649L491.6202 141.703A38.2108-38.2108 0 0 1 488.0696 138.5642ZM512-212C229.2313-212 0 17.2313 0 300S229.2313 812 512 812 1024 582.7687 1024 300 794.7687-212 512-212ZM512-100.6957C733.2953-100.6957 912.6957 78.7047 912.6957 300S733.2953 700.6957 512 700.6957 111.3043 521.2953 111.3043 300 290.7047-100.6957 512-100.6957Z"  horiz-adv-x="1024" vert-adv-y="1024"  />

      
      <glyph glyph-name="uni1009" unicode="&#x1009;" d="M512-207.1951C231.8835-207.1951 4.8049 19.8835 4.8049 300S231.8835 807.1951 512 807.1951 1019.1951 580.1165 1019.1951 300 792.1165-207.1951 512-207.1951ZM512-138.0357C753.9134-138.0357 950.0357 58.0866 950.0357 300S753.9134 738.0357 512 738.0357 73.9643 541.9134 73.9643 300 270.0866-138.0357 512-138.0357ZM662.7643 424.9149A40.343-40.343 0 0 1 719.8195 367.8597L487.1746 135.2148A40.343-40.343 0 0 1 431.0121 134.3483L294.0849 263.0441A40.343-40.343 0 0 1 349.3547 321.8453L457.7805 219.9179 662.7643 424.9017Z"  horiz-adv-x="1024" vert-adv-y="1024"  />

      
      <glyph glyph-name="uni100A" unicode="&#x100A;" d="M307.2 709.6V735.2A76.8-76.8 0 0 1 384 812H947.2A76.8-76.8 0 0 1 1024 735.2V-32.8A76.8-76.8 0 0 1 947.2-109.6H716.8V-135.2A76.8-76.8 0 0 1 640-212H76.8A76.8-76.8 0 0 1 0-135.2V632.8A76.8-76.8 0 0 1 76.8 709.6H307.2ZM358.4 709.6H640A76.8-76.8 0 0 1 716.8 632.8V-58.4H947.2A25.6-25.6 0 0 0 972.8-32.8V735.2A25.6-25.6 0 0 0 947.2 760.8H384A25.6-25.6 0 0 0 358.4 735.2V709.6ZM76.8 658.4A25.6-25.6 0 0 0 51.2 632.8V-135.2A25.6-25.6 0 0 0 76.8-160.8H640A25.6-25.6 0 0 0 665.6-135.2V632.8A25.6-25.6 0 0 0 640 658.4H76.8ZM153.6 453.6H563.2A25.6-25.6 0 0 1 563.2 402.4H153.6A25.6-25.6 0 0 1 153.6 453.6ZM153.6 274.4H563.2A25.6-25.6 0 0 1 563.2 223.2H153.6A25.6-25.6 0 0 1 153.6 274.4ZM153.6 95.2H563.2A25.6-25.6 0 0 1 563.2 44H153.6A25.6-25.6 0 0 1 153.6 95.2Z"  horiz-adv-x="1024" vert-adv-y="1024"  />

      
      <glyph glyph-name="uni100B" unicode="&#x100B;" d="M512-180A480-480 0 1 1 512 780 480-480 0 0 1 512-180ZM512-116A416-416 0 1 0 512 716 416-416 0 0 0 512-116ZM738.304 332A32-32 0 1 1 738.304 268H480V631.84A32-32 0 0 1 544 631.84V332H738.304Z"  horiz-adv-x="1024" vert-adv-y="1024"  />

      
      <glyph glyph-name="uni100C" unicode="&#x100C;" d="M271.7867 438.6667C242.944 388.6613 196.9067 355.2107 153.0453 352.0533A365.9093-365.9093 0 0 0 153.0453 247.9467C196.9067 244.7893 242.944 211.3387 271.8293 161.3333 300.672 111.328 306.6453 54.7947 287.4453 15.2A362.24-362.24 0 0 0 377.6-36.9387C402.2613-0.5013 454.2293 22.6667 512 22.6667 569.7707 22.6667 621.7387-0.5013 646.4-36.9387A362.24-362.24 0 0 0 736.5547 15.2C717.3547 54.7947 723.328 111.328 752.1707 161.3333 781.056 211.3387 827.0933 244.7893 870.9547 247.9467A365.9093-365.9093 0 0 0 870.9547 352.0533C827.0933 355.2107 781.056 388.6613 752.1707 438.6667 723.328 488.672 717.3547 545.2053 736.5547 584.8A362.24-362.24 0 0 0 646.4 636.9387C621.7387 600.5013 569.7707 577.3333 512 577.3333 454.2293 577.3333 402.2613 600.5013 377.6 636.9387A362.24-362.24 0 0 0 287.4453 584.8C306.6453 545.2053 300.672 488.672 271.8293 438.6667ZM245.4187 605.3227A404.9067-404.9067 0 0 1 380.8427 683.616 21.3333-21.3333 0 0 1 407.7227 670.8587C418.2187 642.6133 460.928 620 512 620 563.072 620 605.7813 642.6133 616.2773 670.8587A21.3333-21.3333 0 0 1 643.1573 683.6587 404.9067-404.9067 0 0 1 778.5813 605.3227 21.3333-21.3333 0 0 1 781.0133 575.6693C761.8133 552.416 763.6053 504.2027 789.12 460 814.6773 415.7973 855.552 390.112 885.2907 395.1467A21.3333-21.3333 0 0 1 909.7813 378.208 407.2533-407.2533 0 0 1 909.7813 221.792 21.3333-21.3333 0 0 1 885.2907 204.8533C855.552 209.888 814.6773 184.2027 789.12 140 763.6053 95.7973 761.8133 47.584 781.0133 24.3307A21.3333-21.3333 0 0 1 778.5813-5.3227 404.9067-404.9067 0 0 1 643.1573-83.616 21.3333-21.3333 0 0 1 616.2773-70.8587C605.7813-42.6133 563.072-20 512-20 460.928-20 418.2187-42.6133 407.7227-70.8587A21.3333-21.3333 0 0 1 380.8427-83.6587 404.9067-404.9067 0 0 1 245.4187-5.3227 21.3333-21.3333 0 0 1 242.9867 24.3307C262.1867 47.584 260.3947 95.7973 234.88 140 209.3227 184.2027 168.448 209.888 138.7093 204.8533A21.3333-21.3333 0 0 1 114.2187 221.792 407.2533-407.2533 0 0 1 114.2187 378.208 21.3333-21.3333 0 0 1 138.7093 395.1467C168.448 390.112 209.3227 415.7973 234.88 460 260.3947 504.2027 262.1867 552.416 242.9867 575.6693A21.3333-21.3333 0 0 1 245.4187 605.3227ZM512 150.6667A149.3333-149.3333 0 1 1 512 449.3333 149.3333-149.3333 0 0 1 512 150.6667ZM512 193.3333A106.6667-106.6667 0 1 0 512 406.6667 106.6667-106.6667 0 0 0 512 193.3333Z"  horiz-adv-x="1024" vert-adv-y="1024"  />

      
      <glyph glyph-name="uni100D" unicode="&#x100D;" d="M841.1429-29.1429H914.2857V-102.2857H841.1429V-29.1429ZM694.8571-29.1429H768V-102.2857H694.8571V-29.1429ZM548.5714-29.1429H621.7143V-102.2857H548.5714V-29.1429ZM402.2857-29.1429H475.4286V-102.2857H402.2857V-29.1429ZM109.7143-29.1429H182.8571V-102.2857H109.7143V-29.1429ZM109.7143 702.2857H182.8571V629.1429H109.7143V702.2857ZM256-29.1429H329.1429V-102.2857H256V-29.1429ZM109.7143 117.1429H182.8571V44H109.7143V117.1429ZM109.7143 263.4286H182.8571V190.2857H109.7143V263.4286ZM109.7143 409.7143H182.8571V336.5714H109.7143V409.7143ZM109.7143 556H182.8571V482.8571H109.7143V556ZM841.1429 117.1429H914.2857V44H841.1429V117.1429ZM841.1429 263.4286H914.2857V190.2857H841.1429V263.4286ZM841.1429 409.7143H914.2857V336.5714H841.1429V409.7143ZM841.1429 556H914.2857V482.8571H841.1429V556ZM841.1429 702.2857H914.2857V629.1429H841.1429V702.2857ZM694.8571 702.2857H768V629.1429H694.8571V702.2857ZM548.5714 702.2857H621.7143V629.1429H548.5714V702.2857ZM402.2857 702.2857H475.4286V629.1429H402.2857V702.2857ZM256 702.2857H329.1429V629.1429H256V702.2857ZM950.8571 812H73.1429C32.9143 812 0 779.0857 0 738.8571V-138.8571C0-179.0857 32.9143-212 73.1429-212H950.8571C991.0857-212 1024-179.0857 1024-138.8571V738.8571C1024 779.0857 991.0857 812 950.8571 812ZM950.8571-102.2857C950.8571-124.2286 936.2286-138.8571 914.2857-138.8571H109.7143C87.7714-138.8571 73.1429-124.2286 73.1429-102.2857V702.2857C73.1429 724.2286 87.7714 738.8571 109.7143 738.8571H914.2857C936.2286 738.8571 950.8571 724.2286 950.8571 702.2857V-102.2857Z"  horiz-adv-x="1024" vert-adv-y="1024"  />

      
      <glyph glyph-name="uni100E" unicode="&#x100E;" d="M758.592 154.4L686.336 231.84A74.944-74.944 0 0 1 619.776 227.744L483.84 88.48C485.44 82.528 486.272 76.256 486.272 69.856A73.6-73.6 0 0 1 412.032-2.848 74.24-74.24 0 0 1 343.36 42.208 72-72 0 0 1 361.536 123.552L270.144 243.744C261.824 240.544 252.736 238.816 243.264 238.816A74.24-74.24 0 0 1 174.72 284C163.2 311.264 169.6 342.624 190.912 363.488A75.264-75.264 0 0 1 271.872 379.168C299.648 367.776 317.696 341.152 317.568 311.648 317.568 294.816 311.68 279.328 301.888 266.976L397.376 141.6A75.456-75.456 0 0 1 463.232 122.976L588.672 252A72-72 0 0 1 596.224 346.272 75.456-75.456 0 0 1 677.248 362.144C704.96 350.88 723.136 324.256 723.136 294.752 723.136 282.08 719.808 270.176 713.984 259.744L792.512 175.52A75.52-75.52 0 0 1 842.432 173.088C870.144 161.824 888.256 135.2 888.256 105.76 888.256 65.44 854.976 32.8 814.016 32.8A74.24-74.24 0 0 1 745.408 77.792 71.936-71.936 0 0 1 758.592 154.336ZM844.48-147.68H179.776C116.224-147.616 64.704-97.12 64.448-34.72V404.512C64.448 467.104 116.032 517.792 179.776 517.984H844.48C908.288 517.984 960 467.168 960 404.512V-34.72C959.744-97.184 908.16-147.68 844.48-147.68ZM179.776 479.136A75.264-75.264 0 0 0 104 404.512V-34.72C104-75.808 137.92-109.152 179.776-109.28H844.48C864.64-109.28 883.968-101.408 898.24-87.456 912.448-73.44 920.448-54.496 920.448-34.72V404.512C920.448 445.728 886.4 479.136 844.48 479.136H179.776ZM243.2 345.632C224 345.632 208.512 330.4 208.512 311.584 208.512 292.768 224.064 277.472 243.2 277.472 262.4 277.472 277.952 292.768 277.952 311.584A33.6-33.6 0 0 0 267.84 335.712 34.816-34.816 0 0 0 243.2 345.632ZM411.904 103.904C392.704 103.904 377.216 88.672 377.216 69.856 377.216 51.04 392.768 35.744 411.904 35.744 431.104 35.744 446.656 51.04 446.656 69.856A33.6-33.6 0 0 0 436.544 93.984 34.816-34.816 0 0 0 411.904 103.904ZM649.024 328.736A34.752-34.752 0 0 0 616.768 307.744 33.6-33.6 0 0 0 624.256 270.496 35.2-35.2 0 0 0 662.144 263.2 34.112-34.112 0 0 0 683.52 294.816 34.432-34.432 0 0 0 648.96 328.736ZM813.888 139.68A34.752-34.752 0 0 0 781.12 119.328 33.664-33.664 0 0 0 788.032 81.824 35.2-35.2 0 0 0 826.048 74.08 34.112-34.112 0 0 0 847.552 105.824 34.368-34.368 0 0 0 813.888 139.68ZM826.752 558.624H190.272A19.776-19.776 0 0 1 172.352 578.208C172.352 588.256 180.032 596.64 190.272 597.728H826.816C837.056 596.64 844.736 588.256 844.736 578.208A19.776-19.776 0 0 1 826.816 558.624ZM753.536 644.576H263.488A19.584-19.584 0 0 1 243.648 664.032C243.648 674.72 252.608 683.424 263.488 683.424H753.6C764.48 683.424 773.44 674.72 773.44 664.032A19.584-19.584 0 0 1 753.6 644.576Z"  horiz-adv-x="1024" vert-adv-y="1024"  />

      
      <glyph glyph-name="uni100F" unicode="&#x100F;" d="M387.264 153.696A25.92-25.92 0 0 1 389.632 188.704L448.832 246.432 344.96 313.952A25.792-25.792 0 0 1 335.36 346.4L359.68 400.352 74.624 344.928 131.712 51.168 424.064 108.064 387.328 153.696ZM494.208 107.104A26.432-26.432 0 0 1 477.824 64.736L114.944-5.792A26.816-26.816 0 0 1 83.264 14.944L16 360.48A26.816-26.816 0 0 1 37.76 391.52L400.32 461.92C421.76 466.144 439.04 445.28 430.208 425.632L394.176 345.76 506.688 272.672C520.832 263.52 522.688 243.936 510.528 232.096L444.992 168.16 494.272 107.04ZM532.928 198.624L631.552 237.216 553.024 364.384A25.792-25.792 0 0 1 556.864 396.512L624 462.304A27.392-27.392 0 0 1 649.344 469.216L1038.464 379.424A26.816-26.816 0 0 1 1059.072 347.552L979.84 4.576A26.816-26.816 0 0 1 947.456-15.008L558.272 74.848A27.328-27.328 0 0 1 538.048 93.792L517.184 167.328A25.92-25.92 0 0 1 532.928 198.56ZM575.936 158.176L586.048 122.592 932.8 42.592 1000.128 334.048 652.224 414.368 610.432 373.472 694.4 237.472C703.04 223.52 696.96 205.472 681.6 199.52L575.936 158.176ZM370.368 538.4A25.856-25.856 0 0 1 374.592 575.52 27.776-27.776 0 0 1 412.864 571.36L445.568 531.552A25.856-25.856 0 0 1 441.344 494.432 27.776-27.776 0 0 1 403.072 498.656L370.368 538.4ZM648.384 538.4L615.68 498.656A27.776-27.776 0 0 1 577.408 494.496 25.856-25.856 0 0 1 573.184 531.616L605.888 571.36A27.776-27.776 0 0 1 644.16 575.52 25.856-25.856 0 0 1 648.384 538.4ZM480.512 588.64C480.512 603.232 492.672 615.072 507.712 615.072S534.912 603.232 534.912 588.64V534.112C534.912 519.52 522.752 507.68 507.712 507.68A26.816-26.816 0 0 1 480.512 534.112V588.64Z"  horiz-adv-x="1088" vert-adv-y="1024"  />

      
      <glyph glyph-name="uni1010" unicode="&#x1010;" d="M512.512 523.232L524.992 500.192 499.584 493.536A48.832-48.832 0 0 0 493.696 491.616L329.536 425.312 321.28 429.216A117.12-117.12 0 0 0 270.72 440.608C206.08 440.608 153.6 388.384 153.6 324 153.6 266.848 195.2 218.4 251.264 209.056L260.864 207.456 396.8-26.848H167.36A13.76-13.76 0 0 0 153.6-40.544V-109.152C153.6-116.704 159.744-122.848 167.36-122.848H787.712A13.76-13.76 0 0 0 801.472-109.152V-40.48A13.76-13.76 0 0 0 787.712-26.784H508.16L353.28 240.16 362.112 251.168A115.584-115.584 0 0 0 387.648 331.488L386.688 346.272 538.752 407.712A39.424-39.424 0 0 0 548.608 413.472L567.424 428.448 581.504 404.128C585.344 397.6 593.792 395.36 600.384 399.136L660.032 433.44A13.696-13.696 0 0 0 665.152 452.192L596.16 570.848A13.824-13.824 0 0 0 577.344 575.904L517.632 541.6A13.696-13.696 0 0 0 512.448 523.232ZM705.6 428.192A54.72-54.72 0 0 1 680.768 397.728L621.12 363.488A55.36-55.36 0 0 1 556.48 370.336L554.368 369.504 429.184 318.944A156.416-156.416 0 0 1 402.944 236.896L532.096 14.304H787.712A55.04-55.04 0 0 1 842.816-40.544V-109.152A55.04-55.04 0 0 1 787.712-164H167.36A55.04-55.04 0 0 1 112.256-109.152V-40.48A55.04-55.04 0 0 1 167.36 14.368H325.184L234.56 170.528A157.952-157.952 0 0 1 112.256 324.128 158.08-158.08 0 0 1 270.72 481.76C291.456 481.76 311.68 477.728 330.496 470.112L469.504 526.24A54.784-54.784 0 0 1 497.024 577.248L556.672 611.552A55.36-55.36 0 0 1 618.88 606.688L644.416 681.568A24.128-24.128 0 0 1 668.48 697.824L837.12 689.504A24.064-24.064 0 1 1 834.688 641.568L684.288 648.992 652.544 556 692.8 486.688A24.32-24.32 0 0 1 694.4 486.048L782.08 446.624 879.68 560.544A24.064-24.064 0 0 1 916.16 529.376L806.848 401.696A24.128-24.128 0 0 1 778.688 395.296L705.536 428.192ZM270.784 268A55.04-55.04 0 0 0 325.888 322.848 55.04-55.04 0 0 0 270.784 377.696 55.04-55.04 0 0 0 215.616 322.848 55.04-55.04 0 0 0 270.784 268ZM270.784 309.152A13.76-13.76 0 0 1 256.96 322.848 13.76-13.76 0 0 1 284.544 322.848 13.76-13.76 0 0 1 270.784 309.152Z"  horiz-adv-x="1024" vert-adv-y="1024"  />

      
      <glyph glyph-name="uni1011" unicode="&#x1011;" d="M893.344 165.6A34.656-34.656 0 1 1 962.656 165.6V-84C962.656-103.136 947.136-118.656 928-118.656H96A34.656-34.656 0 0 1 61.344-84V165.6A34.656-34.656 0 1 1 130.656 165.6V-49.344H893.344V165.6ZM539.328 238.72L703.648 403.008A41.6-41.6 0 0 1 762.464 344.192L527.136 108.864A41.6-41.6 0 0 1 468.32 108.864L232.96 344.16A41.6-41.6 0 1 1 291.776 402.976L456.096 238.688V706.4A41.6-41.6 0 1 1 539.296 706.4V238.72Z"  horiz-adv-x="1024" vert-adv-y="1024"  />

      
      <glyph glyph-name="uni1012" unicode="&#x1012;" d="M461.1483-109.1515V189.1242L392.8326 149.6855A6.3972-6.3972 0 0 1 386.4354 160.7654L461.1483 203.8953V321.7956L340.881 252.3605A6.3972-6.3972 0 0 1 334.4838 263.4404L461.1483 336.5668V503.9558L172.6091 337.3728A11.7964-11.7964 0 0 0 168.291 321.2519L421.9783-118.1523A11.7964-11.7964 0 0 0 438.0992-122.4704L461.1483-109.1643ZM462.1015-123.3788L444.49-133.544A24.5908-24.5908 0 0 1 410.8983-124.5431L157.2111 314.8547A24.5908-24.5908 0 0 1 166.212 348.4464L461.1483 518.7269V600.8925A31.986-31.986 0 0 1 493.1343 632.8785H1017.7044A31.986-31.986 0 0 1 1049.6903 600.8925V-115.5935A31.986-31.986 0 0 1 1017.7044-147.5794H493.1343A31.9988-31.9988 0 0 1 462.1015-123.3788ZM1164.8335 780.014V812A6.3972-6.3972 0 1 1 1177.6279 812V780.014H1209.6139A6.3972-6.3972 0 1 1 1209.6139 767.2196H1177.6279V735.2336A6.3972-6.3972 0 1 1 1164.8335 735.2336V767.2196H1132.8475A6.3972-6.3972 0 1 1 1132.8475 780.014H1164.8335ZM1254.3942 607.2897V639.2757A6.3972-6.3972 0 1 1 1267.1886 639.2757V607.2897H1299.1746A6.3972-6.3972 0 1 1 1299.1746 594.4953H1267.1886V562.5093A6.3972-6.3972 0 1 1 1254.3942 562.5093V594.4953H1222.4082A6.3972-6.3972 0 1 1 1222.4082 607.2897H1254.3942ZM1126.4503 600.8925A31.986-31.986 0 1 1 1126.4503 664.8645 31.986-31.986 0 0 1 1126.4503 600.8925ZM1126.4503 613.6869A19.1916-19.1916 0 1 0 1126.4503 652.0701 19.1916-19.1916 0 0 0 1126.4503 613.6869ZM694.1214 364.8808C690.8972 363.339 686.9245 364.4969 685.2421 367.4588 683.566 370.4271 684.8199 374.0863 688.044 375.6344L690.4878 376.8115C691.5561 377.3233 692.4389 377.7455 693.3473 378.1613A105.8096-105.8096 0 0 1 700.4482 381.1424C715.2641 386.708 734.1039 389.785 761.2472 389.785 781.9869 389.785 798.8755 387.9427 812.2136 384.6353 822.6922 382.0444 830.4776 378.6603 835.5122 375.0267 838.3718 372.9604 838.8707 369.1541 836.6317 366.5184 834.3927 363.8828 830.2537 363.4222 827.3942 365.4949 823.8437 368.0538 817.6512 370.7406 808.7975 372.9348 796.6429 375.9415 780.8866 377.6688 761.2472 377.6688 735.7351 377.6688 718.5779 374.8668 705.4188 369.9154 703.3078 369.1221 701.3246 368.2841 699.2263 367.3181 698.4011 366.9407 697.5887 366.5504 696.5843 366.0706L694.1214 364.8808ZM557.1062 114.7056H953.7324A6.3972-6.3972 0 1 1 953.7324 101.9112H557.1062A6.3972-6.3972 0 1 1 557.1062 114.7056ZM557.1062-13.2383H953.7324A6.3972-6.3972 0 1 1 953.7324-26.0327H557.1062A6.3972-6.3972 0 1 1 557.1062-13.2383ZM557.1062 242.6495H953.7324A6.3972-6.3972 0 1 1 953.7324 229.8551H557.1062A6.3972-6.3972 0 0 1 557.1062 242.6495ZM493.1343 620.0841A19.1916-19.1916 0 0 0 473.9427 600.8925V-115.5935A19.1916-19.1916 0 0 0 493.1343-134.785H1017.7044A19.1916-19.1916 0 0 0 1036.896-115.5935V600.8925A19.1916-19.1916 0 0 0 1017.7044 620.0841H493.1343ZM611.2649 499.5226A6.3972-6.3972 0 0 1 618.0971 510.3466L682.0691 469.9547A6.3972-6.3972 0 0 1 682.2098 459.2266L618.2378 416.455A6.3972-6.3972 0 0 1 611.1242 427.0871L666.9077 464.3891 611.2649 499.5226ZM899.4458 499.2219L842.8818 465.3167 899.5865 429.3133A6.3972-6.3972 0 1 1 892.7287 418.5085L827.2726 460.071A6.3972-6.3972 0 0 1 827.4134 470.9527L892.8631 510.1995A6.3972-6.3972 0 0 1 899.4458 499.2219ZM57.7923 326.0306A6.3972-6.3972 0 0 1 65.6288 330.5534L115.06 317.3112A6.3972-6.3972 0 1 1 111.7526 304.9518L62.3151 318.194A6.3972-6.3972 0 0 1 57.7923 326.0306ZM158.273 432.9085A6.3972-6.3972 0 0 1 166.1096 428.3857L179.3518 378.9546A6.3972-6.3972 0 0 1 166.9988 375.6408L153.7566 425.072A6.3972-6.3972 0 0 1 158.273 432.9085ZM79.8562 410.851A6.3972-6.3972 0 0 1 88.9018 410.851L134.13 365.6164A6.3972-6.3972 0 0 1 125.0908 356.5708L79.8562 401.799A6.3972-6.3972 0 0 1 79.8562 410.851Z"  horiz-adv-x="1369" vert-adv-y="1024"  />

      
      <glyph glyph-name="uni1013" unicode="&#x1013;" d="M157.4444 723.4375A68.8819-68.8819 0 0 0 88.5625 654.5556V-53.9444C88.5625-91.9673 119.4216-122.8264 157.4444-122.8264H1259.5556A68.8819-68.8819 0 0 0 1328.4375-53.9444V654.5556A68.8819-68.8819 0 0 0 1259.5556 723.4375H157.4444ZM157.4444 812H1259.5556A157.4444-157.4444 0 0 1 1417 654.5556V-53.9444A157.4444-157.4444 0 0 1 1259.5556-211.3889H157.4444A157.4444-157.4444 0 0 1 0-53.9444V654.5556A157.4444-157.4444 0 0 1 157.4444 812ZM54.7907 695.9634L102.6538 770.4347 698.1087 387.6872A21.8061-21.8061 0 0 0 722.5126 387.6872L1314.1888 770.4347 1362.3668 696.1209 770.6906 313.3734A110.2111-110.2111 0 0 1 650.2456 313.216L54.7907 695.9634ZM832.3301 389.5766L899.5588 447.2012 1371.8922-103.8543 1304.6634-161.479 832.3301 389.5766ZM112.3366-161.479L45.1078-103.8543 517.4412 447.2012 584.6699 389.5766 112.3366-161.479Z"  horiz-adv-x="1417" vert-adv-y="1024"  />

      
      <glyph glyph-name="uni1014" unicode="&#x1014;" d="M323.2256 217.3361L21.8789 417.9644 55.4517 468.4044 476.27 188.2361A16.4361-16.4361 0 0 0 493.6222 188.0206L917.7278 459.5128 950.3844 408.48 668.3839 227.9522 955.1806-117.9067 908.5128-156.545 616.9739 195.0261 525.9017 136.7183A77.6-77.6 0 0 1 443.5594 137.2033L374.3122 183.3322 58.2-158.7006V-158.7544L13.6878-117.5833 323.2256 217.3361ZM60.625 456.6567V-104.1111C60.625-130.1394 81.7494-151.2639 107.7778-151.2639H862.2222A47.1528-47.1528 0 0 0 909.375-104.1111V456.6567L511.6211 728.5261A47.1528-47.1528 0 0 0 458.3789 728.5261L60.625 456.6567ZM23.4417 504.7256L424.2133 778.5889A107.7778-107.7778 0 0 1 545.8944 778.5889L946.5583 504.7256A53.8889-53.8889 0 0 1 970.0539 460.2133V-104.1111A107.7778-107.7778 0 0 1 862.2761-211.8889H107.7778A107.7778-107.7778 0 0 1 0-104.1111V460.2133A53.8889-53.8889 0 0 1 23.4956 504.7256H23.4417Z"  horiz-adv-x="970" vert-adv-y="1024"  />

      
      <glyph glyph-name="uni1015" unicode="&#x1015;" d="M835.84-148H188.16A123.52-123.52 0 0 1 64.704-24.608V624.608A123.52-123.52 0 0 1 188.16 748H835.968A123.52-123.52 0 0 1 959.36 624.608V-24.608A123.52-123.52 0 0 1 835.84-148ZM188.16 697.504A72.96-72.96 0 0 0 115.2 624.608V-24.608C115.2-64.864 147.84-97.504 188.16-97.568H835.84A72.96-72.96 0 0 0 908.8-24.608V624.608A72.96-72.96 0 0 0 835.84 697.568H188.16ZM559.68 583.392C598.976 583.392 630.848 553.312 630.848 516.192 630.848 479.072 598.976 448.992 559.68 448.992H464.832C425.472 448.992 393.664 479.072 393.664 516.192 393.664 553.312 425.472 583.392 464.832 583.392H559.68ZM559.68 493.792C572.736 493.792 583.36 503.904 583.36 516.192A23.104-23.104 0 0 0 559.68 538.592H464.832C451.712 538.592 441.088 528.544 441.088 516.192 441.088 503.904 451.712 493.792 464.768 493.792H559.68ZM559.68 359.392C598.976 359.392 630.848 329.376 630.848 292.256S598.976 225.056 559.68 225.056H464.832C425.472 225.056 393.664 255.2 393.664 292.256 393.664 329.376 425.472 359.456 464.832 359.456H559.68ZM559.68 269.792C572.736 269.792 583.36 280.032 583.36 292.256A23.104-23.104 0 0 0 559.68 314.656H464.832C451.712 314.656 441.088 304.608 441.088 292.256 441.088 279.968 451.712 269.856 464.768 269.856H559.68ZM559.68 135.52C598.976 135.52 630.848 105.44 630.848 68.32 630.848 31.2 598.976 1.12 559.68 1.12H464.832C425.472 1.12 393.664 31.2 393.664 68.32 393.664 105.44 425.472 135.52 464.832 135.52H559.68ZM559.68 45.92A23.04-23.04 0 0 0 583.36 68.32 23.104-23.104 0 0 0 559.68 90.72H464.832C451.712 90.72 441.088 80.544 441.088 68.32 441.088 55.968 451.712 45.92 464.768 45.92H559.68ZM298.688 90.72V135.52L369.92 68.32 298.752 1.12V45.92C220.16 45.92 156.416 106.08 156.416 180.32 156.416 254.496 220.16 314.656 298.752 314.656H346.112V269.856H298.752A97.088-97.088 0 0 0 231.552 243.616 86.784-86.784 0 0 0 203.84 180.256C203.84 156.32 213.76 133.856 231.616 116.896 249.792 99.936 273.856 90.528 298.688 90.656ZM725.76 538.592C804.352 538.592 868.032 478.432 868.032 404.192 868.032 330.016 804.288 269.792 725.76 269.792V224.992L654.528 292.192 725.696 359.392V314.592C750.656 314.464 774.592 323.872 792.832 340.832 810.688 357.792 820.544 380.256 820.544 404.192A86.4-86.4 0 0 0 792.832 467.552 97.472-97.472 0 0 0 725.76 493.792H678.272V538.592H725.76Z"  horiz-adv-x="1024" vert-adv-y="1024"  />

      
      <glyph glyph-name="uni1016" unicode="&#x1016;" d="M494.848 402.7413L895.9147 790.752A76.8-76.8 0 0 1 1001.984 790.752 70.9973-70.9973 0 0 1 1001.984 688.0107L600.9173 300 1001.984-88.0107A70.9973-70.9973 0 0 1 1001.984-190.752 76.8-76.8 0 0 1 895.8293-190.752L494.7627 197.2587 128.1707-157.472A76.8-76.8 0 0 1 22.016-157.472 70.9973-70.9973 0 0 1 22.016-54.7307L388.608 300 22.016 654.7307A70.9973-70.9973 0 0 1 22.016 757.472 76.8-76.8 0 0 1 128.1707 757.472L494.848 402.7413Z"  horiz-adv-x="1024" vert-adv-y="1024"  />

      
      <glyph glyph-name="uni1017" unicode="&#x1017;" d="M266.656 492V108H778.656V492H266.656ZM234.656 556H810.656A32-32 0 0 1 842.656 524V76A32-32 0 0 1 810.656 44H234.656A32-32 0 0 1 202.656 76V524A32-32 0 0 1 234.656 556ZM937.6 652H777.6A32-32 0 1 1 777.6 716H969.6A32-32 0 0 1 1001.6 684V492A32-32 0 0 1 937.6 492V652ZM942.24-52V108A32-32 0 0 1 1006.24 108V-84A32-32 0 0 1 974.24-116H782.24A32-32 0 0 1 782.24-52H942.24ZM106.656-52H266.656A32-32 0 0 1 266.656-116H74.656A32-32 0 0 1 42.656-84V108A32-32 0 0 1 106.656 108V-52ZM106.656 652V492A32-32 0 0 1 42.656 492V684A32-32 0 0 1 74.656 716H266.656A32-32 0 1 1 266.656 652H106.656Z"  horiz-adv-x="1024" vert-adv-y="1024"  />

      
      <glyph glyph-name="uni1018" unicode="&#x1018;" d="M920.896 248.48C927.424 242.08 938.112 242.08 944.64 248.48L954.112 257.696A16.128-16.128 0 0 0 958.464 273.504L914.24 434.592A16.128-16.128 0 0 0 909.376 444.64L845.44 506.912A16.32-16.32 0 0 0 840.448 510.112C839.552 511.648 838.848 513.312 837.568 514.592L743.36 606.432C741.632 608.096 739.52 609.056 737.408 610.144A22.208-22.208 0 0 0 732.928 616.544L715.392 633.696A23.04-23.04 0 0 0 683.392 634.08L638.208 590.048 546.944 679.008A17.088-17.088 0 0 0 529.472 682.848 16.448-16.448 0 0 0 518.336 669.216C514.24 632.416 541.12 580.128 585.024 538.208L560.96 514.784C517.952 557.28 464.32 583.776 426.624 579.744A16.768-16.768 0 0 0 412.608 568.864 16.128-16.128 0 0 0 416.576 551.904L507.776 462.944 356.224 315.104A21.76-21.76 0 0 0 356.608 283.936L366.656 274.144 72.896-12.256C62.016-22.816 61.248-39.264 71.168-48.992L165.312-140.768C175.232-150.368 192.128-149.664 202.944-139.104L493.696 144.416A43.968-43.968 0 0 0 542.912 152.352 41.408-41.408 0 0 0 552.384 197.984L619.264 263.264 671.232 212.512A16.64-16.64 0 0 0 681.024 207.904L846.784 164.64A17.088-17.088 0 0 0 863.04 168.864L872.448 178.08A16.128-16.128 0 0 0 872.448 201.248L712.256 357.408 760.704 404.768 920.896 248.48ZM833.6 472.16L882.048 424.864 916.608 298.976 786.304 426.08 833.6 472.16ZM387.968 299.744L543.488 451.424A16.128-16.128 0 0 0 543.488 474.528L485.248 531.296C503.552 521.056 520.256 508.448 535.04 493.792 539.52 489.376 543.808 484.896 547.84 480.352A16.384-16.384 0 0 0 559.872 474.72 17.024-17.024 0 0 0 572.416 479.52L621.248 527.136A16.192-16.192 0 0 0 620.352 551.136 261.312-261.312 0 0 1 606.592 563.552 228.288-228.288 0 0 1 568.064 612.064L626.304 555.296C632.896 548.896 643.584 548.896 650.112 555.296L699.2 603.168 701.632 600.736 390.464 297.376 387.968 299.744ZM691.52 239.072L631.168 297.952A17.088-17.088 0 0 0 607.36 297.952L519.104 211.872A16.128-16.128 0 0 0 519.104 188.704 9.152-9.152 0 0 1 518.72 175.904 9.728-9.728 0 0 1 505.6 175.52L484.16 196.448 656.96 364.96 820.672 205.344 691.52 239.072ZM668.8 399.712A17.088-17.088 0 0 0 645.056 399.712L448.448 208.032A16.128-16.128 0 0 0 448.448 184.864L468.096 165.728 183.296-111.904 100.736-31.456 250.624 114.656 263.104 102.496A17.152-17.152 0 0 0 286.592 102.752 16.128-16.128 0 0 0 286.848 125.664L274.368 137.824 293.952 156.896 306.432 144.736A17.152-17.152 0 0 0 329.92 145.056 16.128-16.128 0 0 0 330.176 167.968L317.76 180.128 337.28 199.136 349.76 186.976A17.152-17.152 0 0 0 373.248 187.296 16.128-16.128 0 0 0 373.504 210.208L361.088 222.368 406.272 266.4 725.44 577.568 808 497.12 688.448 380.64 668.8 399.712Z"  horiz-adv-x="1024" vert-adv-y="1024"  />

      
      <glyph glyph-name="uni1019" unicode="&#x1019;" d="M839.424-99.168A128.64-128.64 0 0 1 656.832-36.704H192.896A25.6-25.6 0 0 1 167.168-11.104V103.072A25.6-25.6 0 0 1 218.624 103.072V14.496H647.232A128.128-128.128 0 0 1 734.336 133.28V239.584A25.6-25.6 0 0 1 785.792 239.584V139.744A128.256-128.256 0 0 1 904.32 12C904.32-17.12 894.592-43.936 878.08-65.44L959.36-151.584A25.536-25.536 0 0 1 958.272-187.744 25.792-25.792 0 0 1 921.92-186.592L839.424-99.232ZM499.712 402.4C499.712 420.64 521.856 429.792 534.848 416.864L671.936 280.352A20.416-20.416 0 0 1 671.936 251.36L534.848 114.848A20.608-20.608 0 0 1 499.648 129.312V198.368C449.408 197.088 327.808 197.408 132.352 199.328A20.48-20.48 0 0 1 112 219.808V319.136A20.48-20.48 0 0 1 132.928 339.616C331.072 336.224 457.024 335.648 499.648 337.568V402.4ZM540.864 352.928V319.2A20.48-20.48 0 0 1 525.632 299.36C507.392 294.56 388.992 294.432 153.152 298.336V240.096C374.144 238.048 497.344 238.112 518.144 240.224A20.48-20.48 0 0 1 540.864 219.872V178.848L628.352 265.888 540.8 352.992ZM470.464 629.856L167.936 386.912A25.6-25.6 0 0 1 151.936 381.28L101.248 381.408A25.792-25.792 0 0 1 75.52 407.136 25.6-25.6 0 0 1 101.12 432.736L142.72 432.608 454.272 682.848A25.6-25.6 0 0 1 486.4 682.72L805.888 425.44 847.616 425.376C861.824 425.376 873.344 413.856 873.344 399.648A25.6-25.6 0 0 1 847.744 374.048L796.992 374.176A25.792-25.792 0 0 1 780.864 379.872L470.464 629.856ZM775.68-64.8C818.304-64.8 852.864-30.368 852.864 12 852.864 54.432 818.304 88.8 775.68 88.8 733.12 88.8 698.56 54.432 698.56 12 698.56-30.368 733.12-64.8 775.68-64.8Z"  horiz-adv-x="1024" vert-adv-y="1024"  />

      
      <glyph glyph-name="uni101A" unicode="&#x101A;" d="M1478.2857 812H113.7143C51.1714 812 0 760.8286 0 698.2857V-97.7143C0-160.2571 51.1714-211.4286 113.7143-211.4286H1478.2857C1540.8286-211.4286 1592-160.2571 1592-97.7143V698.2857C1592 760.8286 1540.8286 812 1478.2857 812ZM1478.2857-40.8571C1478.2857-74.9714 1455.5429-97.7143 1421.4286-97.7143H170.5714C136.4571-97.7143 113.7143-74.9714 113.7143-40.8571V641.4286C113.7143 675.5429 136.4571 698.2857 170.5714 698.2857H1421.4286C1455.5429 698.2857 1478.2857 675.5429 1478.2857 641.4286V-40.8571ZM284.2857 584.5714C250.1714 584.5714 227.4286 561.8286 227.4286 527.7143V72.8571C227.4286 44.4286 250.1714 16 284.2857 16S341.1429 38.7429 341.1429 72.8571V527.7143C341.1429 556.1429 318.4 584.5714 284.2857 584.5714Z"  horiz-adv-x="1592" vert-adv-y="1024"  />

      
      <glyph glyph-name="uni101B" unicode="&#x101B;" d="M588.4587-143.7333H86.0843C37.8197-143.7333 0-89.8027 0-20.9899V689.2565C0 758.0693 37.8197 812 86.0843 812H720.6912C768.9557 812 806.7755 758.0693 806.7755 689.2565V387.3813C806.7755 373.0453 796.1941 361.3717 783.0869 361.3717 769.9797 361.3717 759.3984 372.9771 759.3984 387.3813V689.2565C759.3984 730.8992 738.9867 759.8443 720.6912 759.8443H86.0843C67.7888 759.8443 47.3771 730.8992 47.3771 689.2565V-20.9899C47.3771-62.6325 67.7888-91.5776 86.0843-91.5776H588.5269C601.4976-91.5776 612.1472-103.2512 612.1472-117.6555S601.5659-143.7333 588.4587-143.7333ZM400.9984 465.5467H614.1269C629.5552 465.5467 644.7787 463.9765 645.3931 440.3563 646.0757 416.736 631.3301 413.5275 615.6288 413.5275 474.5899 413.3909 333.5509 413.3227 192.4437 413.664 177.7664 413.664 161.9285 414.3467 161.5189 439.0592 161.1093 466.4341 178.2443 465.4784 194.0821 465.4784 263.0315 465.7515 331.9808 465.6149 400.9301 465.5467ZM401.2032 594.7072V594.5707C472.2005 594.5707 543.2661 594.7072 614.3317 594.4341 629.8283 594.4341 644.7104 590.6795 645.0517 567.7419 645.2565 544.0533 630.4427 541.8005 614.6731 541.8005H479.9147C384.8875 541.8005 289.792 541.9371 194.7648 541.7323 174.9675 541.7323 157.6277 544.3947 162.1333 574.7051 165.2736 595.936 181.248 594.4341 194.4235 594.5024 263.3728 594.9803 332.3221 594.7072 401.2715 594.7072ZM449.9456 136.5696C426.0523 136.5696 291.9083 137.2523 268.0149 137.2523H190.0544C174.0117 137.2523 160.9045 140.9387 161.3824 164.6955 161.792 186.2677 173.9435 190.2272 188.6891 190.2272 239.5477 190.432 400.7253 189.8176 451.6523 189.5445 466.6027 189.5445 479.0955 184.1515 479.4368 163.808 479.7781 141.0752 466.0565 136.5696 449.9456 136.5013ZM189.7131 82.5024C214.6987 82.6389 239.6843 82.5024 264.7381 82.5024 290.816 82.5024 424.4139 79.6352 450.4235 79.6352 464.4181 79.6352 475.6821 75.2661 476.3648 56.288 477.0475 36.2176 465.9883 27.8891 450.6965 27.7525 398.6091 27.0699 238.9333 29.8688 186.8459 30.3467 171.7589 30.5515 160.768 37.2416 161.4507 58.4043 162.2699 80.7275 175.3088 82.3659 189.7131 82.5024ZM185.344 292.832H266.3765C292.3861 292.832 428.9877 292.4224 454.9973 292.6272 469.4699 292.6955 479.5733 287.1659 479.232 268.256 478.9589 251.6672 470.016 245.0453 456.7723 245.0453 402.7051 245.0453 238.0459 245.2501 184.0469 245.3867 171.0763 245.3867 162.2016 250.9163 161.6555 268.256 161.1093 287.8485 170.9397 292.832 185.344 292.832ZM891.904-65.0901C909.1072-47.8869 921.8048-26.8608 929.9968-2.08A252.8597-252.8597 0 0 0 933.6832 141.0752 177.6981-177.6981 0 0 0 906.6496 199.1019 138.24-138.24 0 0 0 859.3408 240.5397C840.0896 251.0528 817.152 256.2411 790.528 256.2411S740.9664 251.0528 721.7152 240.5397A138.24-138.24 0 0 0 674.4064 199.1019 177.4933-177.4933 0 0 0 647.3728 141.0752 252.8597-252.8597 0 0 0 647.3728 10.1397 177.4933-177.4933 0 0 0 674.4064-47.8869C686.6944-65.0901 702.464-78.88 721.7152-89.3248 740.9664-99.8379 763.904-105.0261 790.528-105.0261 811.4176-105.0261 831.6928-100.9301 851.3536-92.7381 819.2-71.0293 808.2091-52.0512 818.5856-35.8037 828.8256-19.4197 853.3333-29.2501 891.904-65.0901ZM895.5904-127.7589C866.0992-144.9621 831.0784-153.5637 790.528-153.5637 755.712-153.5637 725.1968-147.3515 698.9824-134.8587A190.1227-190.1227 0 0 1 633.2416-84.1365 217.4976-217.4976 0 0 1 593.6469-10.7499 282.6923-282.6923 0 0 1 580.4032 75.6075C580.4032 105.5083 584.7723 134.3168 593.5787 161.8965 602.4533 189.6128 615.6288 214.0523 633.2416 235.3515 650.8544 256.6507 672.768 273.6491 698.9824 286.3467 725.1968 299.0443 755.712 305.3931 790.528 305.3931S855.8592 299.0443 882.0736 286.3467C908.288 273.6491 930.2016 256.6507 947.8144 235.3515S978.6027 189.6128 987.4091 161.8965C996.2837 134.2485 1000.6528 105.5083 1000.6528 75.6075 1000.6528 42.0203 995.1232 10.0715 984.064-20.2389A212.9237-212.9237 0 0 1 934.2976-98.8821C973.9605-129.6021 987.9552-151.3109 976.2816-164.0768 964.5397-176.8427 937.6427-164.7595 895.5904-127.7589Z"  horiz-adv-x="1024" vert-adv-y="1024"  />

      
      <glyph glyph-name="uni101C" unicode="&#x101C;" d="M888.832 489.12L895.04 483.424V-69.984C895.04-113.12 856.96-148 809.92-148H213.184C166.144-148 128-113.12 128-70.112V670.048C128 713.12 166.144 748 213.248 748H625.792L888.832 489.12ZM639.36 676.704V533.792C639.36 512.288 658.496 494.816 682.048 494.816H825.92L639.36 676.704ZM818.88 354.208C818.88 353.568 818.88 352.8 819.008 352.032 818.88 351.904 818.88 351.712 818.88 351.52V351.008L818.752 350.368 818.624 349.984V220.256C818.624 208.352 806.784 198.752 792.192 198.752 777.6 198.752 765.824 208.352 765.824 220.256V300.64L764.736 299.808 690.496 239.264A18.816-18.816 0 0 1 689.152 238.112L565.568 137.44A29.44-29.44 0 0 1 546.624 131.104 29.44-29.44 0 0 1 527.68 137.44L422.4 223.136 250.048 82.656A29.44-29.44 0 0 1 231.424 76.384 29.44-29.44 0 0 1 212.736 82.656C202.432 91.232 202.432 104.544 212.736 113.12L403.456 268.576A29.888-29.888 0 0 1 422.336 274.912C429.504 274.912 436.288 272.608 441.216 268.512L546.496 182.752 580.032 210.08 579.84 210.272 726.592 329.952 728.704 331.68H630.08C615.488 331.68 603.712 341.28 603.712 353.184 603.712 365.024 615.488 374.688 630.08 374.688H793.792L794.432 374.624A1.984-1.984 0 0 0 795.072 374.496H795.776L796.288 374.432C796.544 374.304 796.864 374.304 797.12 374.24H797.504C797.824 374.24 798.144 374.112 798.336 374.048H798.784L799.616 373.792 800 373.664 800.704 373.472 801.28 373.344 801.92 373.088 802.432 372.896 803.072 372.704 803.712 372.512 804.224 372.32 804.864 372.064 805.248 371.872 806.016 371.488 806.336 371.296 807.104 370.912 807.424 370.72 808.064 370.272C808.256 370.272 808.32 370.08 808.448 370.016L809.088 369.632A2.112-2.112 0 0 1 809.536 369.312L810.048 368.992C810.688 368.48 811.328 368.032 811.84 367.456L812.288 367.072A1.92-1.92 0 0 0 812.672 366.688L813.184 366.176A1.28-1.28 0 0 1 813.504 365.856L814.016 365.344 814.272 365.024 814.784 364.448 814.976 364.192 815.424 363.552 815.68 363.232C815.68 363.104 815.936 362.912 816 362.72L816.256 362.336 816.448 361.76 816.704 361.312 817.024 360.8C817.024 360.608 817.152 360.48 817.216 360.288L817.408 359.84 817.664 359.264 817.792 358.944 818.048 358.304 818.112 357.92C818.24 357.728 818.24 357.472 818.304 357.28L818.368 356.96A1.984-1.984 0 0 1 818.56 356.256L818.624 355.808 818.688 355.232C818.816 355.04 818.816 354.912 818.816 354.72V354.208ZM852.544-69.984L852.48 455.776H682.048C634.944 455.776 596.8 490.656 596.8 533.664V709.024H213.248C189.696 709.024 170.624 691.552 170.624 669.984V-69.92C170.624-91.424 189.696-108.896 213.248-108.896H809.856C833.472-108.896 852.544-91.488 852.544-69.92Z"  horiz-adv-x="1024" vert-adv-y="1024"  />

      
      <glyph glyph-name="uni101D" unicode="&#x101D;" d="M512 709.6A91.3067-91.3067 0 0 0 470.7669 699.8379L127.7269 528.352A45.8752-45.8752 0 0 0 102.4 487.392V-52.8704C102.4-78.1973 122.88-98.6773 148.2069-98.6773H875.7931C901.12-98.6773 921.6-78.1973 921.6-52.8704V487.392A45.8752-45.8752 0 0 0 896.2731 528.352L553.2331 699.8379A91.3067-91.3067 0 0 0 512 709.6M512 661.8133C518.8949 661.8133 525.7216 660.1749 531.8656 657.1029L873.8133 487.392V69.8731L875.7931-50.8907H755.2341L150.1867-52.8704 149.0944 485.6171 492.1344 657.1029C498.2784 660.1749 505.1051 661.8133 512 661.8133M320.7509 201.4229C275.5755 201.4229 238.9333 238.7819 238.9333 284.8448 238.9333 330.9248 275.5755 368.2667 320.7509 368.2667 365.9435 368.2667 402.5856 330.9248 402.5856 284.8448 402.5856 238.7648 365.9435 201.4229 320.7509 201.4229ZM320.7509 326.5557C298.2059 326.5557 279.8421 307.8507 279.8421 284.8448 279.8421 261.856 298.2059 243.1339 320.7509 243.1339 343.3131 243.1339 361.6768 261.856 361.6768 284.8448 361.6768 307.8507 343.3131 326.5557 320.7509 326.5557ZM320.7509-3.3771C275.5755-3.3771 238.9333 33.9819 238.9333 80.0448 238.9333 126.1248 275.5755 163.4667 320.7509 163.4667 365.9435 163.4667 402.5856 126.1248 402.5856 80.0448 402.5856 33.9648 365.9435-3.3771 320.7509-3.3771ZM320.7509 121.7557C298.2059 121.7557 279.8421 103.0507 279.8421 80.0448 279.8421 57.056 298.2059 38.3339 320.7509 38.3339 343.3131 38.3339 361.6768 57.056 361.6768 80.0448 361.6768 103.0507 343.3131 121.7557 320.7509 121.7557ZM525.5509-3.3771C480.3755-3.3771 443.7333 33.9819 443.7333 80.0448 443.7333 126.1248 480.3755 163.4667 525.5509 163.4667 570.7435 163.4667 607.3856 126.1248 607.3856 80.0448 607.3856 33.9648 570.7435-3.3771 525.5509-3.3771ZM525.5509 121.7557C503.0059 121.7557 484.6421 103.0507 484.6421 80.0448 484.6421 57.056 503.0059 38.3339 525.5509 38.3339 548.1131 38.3339 566.4768 57.056 566.4768 80.0448 566.4768 103.0507 548.1131 121.7557 525.5509 121.7557Z"  horiz-adv-x="1024" vert-adv-y="1024"  />

      
      <glyph glyph-name="uni101E" unicode="&#x101E;" d="M512 748A99.84-99.84 0 0 0 466.88 737.312L91.712 549.792A50.176-50.176 0 0 0 64 504.992V-85.984C64-113.696 86.4-136.096 114.112-136.096H909.888C937.6-136.096 960-113.696 960-85.984V504.928A50.176-50.176 0 0 0 932.288 549.728L557.12 737.248A99.84-99.84 0 0 0 512 748M512 695.712C519.552 695.712 527.04 693.92 533.76 690.592L907.712 504.992V48.288L909.888-83.808H778.048L116.288-85.984 115.072 503.008 490.24 690.528A48.704-48.704 0 0 1 512 695.776ZM302.848 192.16C352.256 192.16 392.32 233.056 392.32 283.424 392.32 333.792 352.256 374.688 302.848 374.688 253.376 374.688 213.312 333.792 213.312 283.424 213.312 233.056 253.376 192.16 302.848 192.16ZM302.848 329.056C327.488 329.056 347.584 308.576 347.584 283.424A45.248-45.248 0 0 1 302.784 237.792 45.184-45.184 0 0 1 258.112 283.424C258.112 308.576 278.144 329.056 302.848 329.056ZM302.848-31.84C352.256-31.84 392.32 9.056 392.32 59.424 392.32 109.792 352.256 150.688 302.848 150.688 253.376 150.688 213.312 109.792 213.312 59.424 213.312 9.056 253.376-31.84 302.848-31.84ZM302.848 105.056C327.488 105.056 347.584 84.576 347.584 59.424A45.248-45.248 0 0 1 302.784 13.792 45.184-45.184 0 0 1 258.112 59.424C258.112 84.576 278.144 105.056 302.848 105.056ZM526.848-31.84C576.256-31.84 616.32 9.056 616.32 59.424 616.32 109.792 576.256 150.688 526.848 150.688 477.376 150.688 437.312 109.792 437.312 59.424 437.312 9.056 477.376-31.84 526.848-31.84ZM526.848 105.056C551.488 105.056 571.584 84.576 571.584 59.424A45.248-45.248 0 0 1 526.784 13.792 45.184-45.184 0 0 1 482.112 59.424C482.112 84.576 502.144 105.056 526.848 105.056Z"  horiz-adv-x="1024" vert-adv-y="1024"  />

      
      <glyph glyph-name="uni101F" unicode="&#x101F;" d="M512-126.6667C276.352-126.6667 85.3333 64.352 85.3333 300S276.352 726.6667 512 726.6667 938.6667 535.648 938.6667 300 747.648-126.6667 512-126.6667ZM512-81.7387A381.7387-381.7387 0 1 0 512 681.7387 381.7387-381.7387 0 0 0 512-81.7387ZM569.7707 164.5333A21.3333-21.3333 0 0 1 539.5627 134.368L388.736 285.2373A21.3333-21.3333 0 0 1 388.736 315.4027L539.5627 466.2293A21.3333-21.3333 0 0 1 569.7707 436.064L434.0053 300.2987 569.7707 164.5333Z"  horiz-adv-x="1024" vert-adv-y="1024"  />

      
      <glyph glyph-name="uni1020" unicode="&#x1020;" d="M514.1541 545.6178C440.3039 545.6178 380.4389 605.2086 380.4389 678.7053 380.4389 752.2081 440.3039 811.7928 514.1541 811.7928 588.0042 811.7928 647.8692 752.2081 647.8692 678.7053 647.6986 605.2756 587.9311 545.7884 514.1541 545.6178ZM229.3688 439.8913C161.8683 439.8913 107.1464 494.3572 107.1464 561.5408S161.8683 683.1781 229.3688 683.1781C296.8692 683.1781 351.585 628.7183 351.585 561.5347 351.4875 494.3938 296.8266 439.9887 229.3688 439.8913ZM108.5297 164.7341C64.8984 164.7341 25.5694 190.9006 8.8847 231.0219A106.9758-106.9758 0 0 1 32.3091 348.0097 108.2189-108.2189 0 0 1 149.8697 371.2147C190.1677 354.5666 216.4134 315.3959 216.3769 271.9719 216.2367 212.765 168.0169 164.8194 108.5297 164.7341ZM229.387-107.6566C178.9125-107.6566 137.9991-66.9381 137.9991-16.7013S178.9125 74.2602 229.387 74.2602 320.775 33.5356 320.775-16.7013C320.6775-66.8955 279.8189-107.5591 229.387-107.6627ZM514.1541-211.75C470.1267-211.75 434.4356-176.2234 434.4356-132.4094 434.4356-88.5953 470.1267-53.0687 514.1541-53.0687 558.1753-53.0687 593.8664-88.5953 593.8664-132.4094 593.8664-176.2234 558.1753-211.75 514.1541-211.75ZM803.1319-77.6387C767.5261-77.6387 738.66-48.9128 738.66-13.4716 738.66 21.9636 767.5261 50.6895 803.1319 50.6895 838.7316 50.6895 867.5977 21.9636 867.5977-13.4777 867.4941-48.8702 838.695-77.5412 803.1258-77.6387ZM921.4116 218.9928C892.2225 219.005 868.5605 242.5756 868.5727 271.6306 868.5848 300.6917 892.253 324.238 921.4481 324.2319 950.6433 324.2319 974.3114 300.6734 974.3114 271.6123A52.4672-52.4672 0 0 1 958.8333 234.3978 52.9669-52.9669 0 0 1 921.442 218.9928H921.4177ZM761.9869 557.6225A40.9988-40.9988 0 0 1 795.015 597.89 41.1816-41.1816 0 0 1 841.1142 573.4784 40.8403-40.8403 0 0 1 826.02 523.7169 41.2852-41.2852 0 0 1 774.0464 528.7747 40.4198-40.4198 0 0 1 761.9869 557.6225Z"  horiz-adv-x="975" vert-adv-y="1024"  />

      
      <glyph glyph-name="uni1021" unicode="&#x1021;" d="M725.3333-20H832V589.8347L222.1653-20H298.6667V1.3333A21.3333-21.3333 0 1 1 341.3333 1.3333V-20H426.6667V1.3333A21.3333-21.3333 0 1 1 469.3333 1.3333V-20H554.6667V1.3333A21.3333-21.3333 0 1 1 597.3333 1.3333V-20H682.6667V1.3333A21.3333-21.3333 0 1 1 725.3333 1.3333V-20ZM874.6667 641.3333V-41.3333A21.3333-21.3333 0 0 1 853.3333-62.6667H170.6667A21.3333-21.3333 0 0 1 155.5627-26.2293L838.2293 656.4373A21.3333-21.3333 0 0 1 874.6667 641.3333ZM538.8373 108H704V273.2907L538.8373 108ZM746.6667 324.832V86.6667A21.3333-21.3333 0 0 1 725.3333 65.3333H487.3387A21.3333-21.3333 0 0 1 472.2773 101.728L710.2293 339.8933A21.3333-21.3333 0 0 1 746.6667 324.832Z"  horiz-adv-x="1024" vert-adv-y="1024"  />

      
      <glyph glyph-name="uni1022" unicode="&#x1022;" d="M959.296 292.512V520.672H959.104C955.84 646.496 756.864 748 511.616 748 266.496 748 67.456 646.496 64.192 520.672H64V95.072C64-41.248 260.608-148 511.616-148 762.624-148 959.296-41.248 959.296 95.072V286.304C959.552 288.416 959.872 290.4 960 292.448H959.296ZM717.376 598.688C748.224 598.688 773.312 573.408 773.312 542.176A56.256-56.256 0 0 1 717.312 486.688 56.256-56.256 0 0 1 661.312 542.176C661.312 557.152 667.264 571.552 677.76 582.112A55.744-55.744 0 0 1 717.312 598.688ZM682.368 410.016H340.928V449.248L511.68 449.504C578.496 449.376 635.456 449.248 682.368 449.248V410.016ZM358.4 564.064A56-56 0 1 1 254.912 521.184 56-56 0 0 1 358.4 564.064ZM511.616-95.904C275.2-95.904 116.352 2.848 116.352 95.072V187.744C330.112 71.2 491.136 87.904 514.048 87.904 536.96 87.904 730.176 80.224 911.744 187.744L906.944 95.072C906.944 2.848 748.096-95.904 511.616-95.904ZM906.944 247.328C735.04 152.16 622.464 152.16 511.616 152.16 400.768 152.16 288.128 152.16 116.352 247.328V409.44C191.552 336.672 340.352 287.2 511.616 287.2 682.944 287.2 831.68 336.672 906.944 409.44V247.392ZM512.96 333.344C302.848 333.344 116.352 417.568 116.352 519.968 116.352 622.368 302.848 698.272 512.96 698.272 723.136 698.272 909.632 598.368 909.632 519.968S723.2 333.28 512.96 333.28Z"  horiz-adv-x="1024" vert-adv-y="1024"  />

      
      <glyph glyph-name="uni1023" unicode="&#x1023;" d="M235.52 658.4H788.48V709.6A20.48-20.48 0 0 0 768 730.08H256A20.48-20.48 0 0 0 235.52 709.6V658.4ZM788.48 596.96H235.52V95.2H788.48V596.96ZM788.48 33.76H235.52V-109.6C235.52-120.864 244.736-130.08 256-130.08H768A20.48-20.48 0 0 0 788.48-109.6V33.76ZM512-109.6A51.2-51.2 0 1 1 512-7.2 51.2-51.2 0 0 1 512-109.6ZM256 791.52H768A81.92-81.92 0 0 1 849.92 709.6V-109.6A81.92-81.92 0 0 1 768-191.52H256A81.92-81.92 0 0 1 174.08-109.6V709.6A81.92-81.92 0 0 1 256 791.52Z"  horiz-adv-x="1024" vert-adv-y="1024"  />

      
      <glyph glyph-name="uni1024" unicode="&#x1024;" d="M1478.2857 812H113.7143C51.1714 812 0 760.8286 0 698.2857V-97.7143C0-160.2571 51.1714-211.4286 113.7143-211.4286H1478.2857C1540.8286-211.4286 1592-160.2571 1592-97.7143V698.2857C1592 760.8286 1540.8286 812 1478.2857 812ZM1478.2857-40.8571C1478.2857-74.9714 1455.5429-97.7143 1421.4286-97.7143H170.5714C136.4571-97.7143 113.7143-74.9714 113.7143-40.8571V641.4286C113.7143 675.5429 136.4571 698.2857 170.5714 698.2857H1421.4286C1455.5429 698.2857 1478.2857 675.5429 1478.2857 641.4286V-40.8571ZM403.6857 476.5429C380.9429 465.1714 363.8857 453.8 341.1429 448.1143V374.2C380.9429 385.5714 415.0571 402.6286 437.8 425.3714V72.8571H506.0286V510.6571H454.8571C443.4857 504.9714 420.7429 487.9143 403.6857 476.5429ZM756.2 215C796 243.4286 830.1143 266.1714 841.4857 283.2286 869.9143 311.6571 881.2857 351.4571 881.2857 385.5714 881.2857 425.3714 869.9143 453.8 841.4857 482.2286 813.0571 504.9714 778.9429 516.3429 739.1429 516.3429 693.6571 516.3429 653.8571 499.2857 631.1143 470.8571 602.6857 442.4286 591.3143 402.6286 591.3143 351.4571H659.5429C659.5429 385.5714 665.2286 414 682.2857 431.0571 693.6571 448.1143 716.4 459.4857 739.1429 459.4857S784.6286 453.8 796 442.4286C807.3714 431.0571 813.0571 414 813.0571 391.2571S801.6857 345.7714 784.6286 323.0286C773.2571 311.6571 756.2 294.6 727.7714 271.8571 676.6 237.7429 648.1714 209.3143 631.1143 192.2571 602.6857 158.1429 591.3143 118.3429 591.3143 78.5429H886.9714V141.0857H676.6C687.9714 163.8286 716.4 186.5714 756.2 215ZM1171.2571 311.6571C1216.7429 328.7143 1239.4857 357.1429 1239.4857 408.3143 1239.4857 448.1143 1228.1143 476.5429 1199.6857 499.2857 1171.2571 522.0286 1137.1429 533.4 1097.3429 533.4S1023.4286 522.0286 995 499.2857C966.5714 476.5429 949.5143 442.4286 949.5143 396.9429H1017.7429C1017.7429 425.3714 1029.1143 442.4286 1040.4857 453.8 1051.8571 465.1714 1074.6 470.8571 1097.3429 470.8571S1142.8286 465.1714 1154.2 453.8C1165.5714 442.4286 1171.2571 425.3714 1171.2571 402.6286S1165.5714 362.8286 1154.2 351.4571C1142.8286 340.0857 1120.0857 334.4 1097.3429 334.4H1068.9143V283.2286H1097.3429C1125.7714 283.2286 1142.8286 277.5429 1159.8857 266.1714 1176.9429 254.8 1182.6286 237.7429 1182.6286 209.3143 1182.6286 186.5714 1176.9429 169.5143 1159.8857 158.1429 1142.8286 141.0857 1125.7714 135.4 1097.3429 135.4 1074.6 135.4 1051.8571 141.0857 1040.4857 158.1429 1023.4286 175.2 1017.7429 197.9429 1012.0571 226.3714H943.8286C949.5143 175.2 966.5714 141.0857 995 112.6571 1023.4286 89.9143 1057.5429 78.5429 1103.0286 78.5429 1148.5143 78.5429 1188.3143 89.9143 1216.7429 118.3429 1245.1714 146.7714 1256.5429 175.2 1256.5429 215 1256.5429 243.4286 1250.8571 260.4857 1233.8 277.5429 1216.7429 288.9143 1194 305.9714 1171.2571 311.6571Z"  horiz-adv-x="1592" vert-adv-y="1024"  />

      
      <glyph glyph-name="uni1025" unicode="&#x1025;" d="M194.1333 681.8667V515.4667H957.8667V681.8667H194.1333ZM192 728.8H960C984.7467 728.8 1004.8 708.7467 1004.8 684V513.3333A44.8-44.8 0 0 1 960 468.5333H192A44.8-44.8 0 0 1 147.2 513.3333V684C147.2 708.7467 167.2533 728.8 192 728.8ZM405.3333 338.4A23.4667-23.4667 0 0 1 405.3333 385.3333H746.6667A23.4667-23.4667 0 0 1 746.6667 338.4H405.3333ZM236.8 468.5333V3.4667H915.2V468.5333H236.8ZM962.1333 515.4667V1.3333A44.8-44.8 0 0 1 917.3333-43.4667H234.6667A44.8-44.8 0 0 1 189.8667 1.3333V515.4667H962.1333Z"  horiz-adv-x="1152" vert-adv-y="1024"  />

      
      <glyph glyph-name="uni1026" unicode="&#x1026;" d="M512-105.3333A405.3333-405.3333 0 1 1 512 705.3333 405.3333-405.3333 0 0 1 512-105.3333ZM512-62.6667A362.6667-362.6667 0 1 0 512 662.6667 362.6667-362.6667 0 0 0 512-62.6667ZM633.6 293.6L475.7333 419.8933V167.3067L633.6 293.6ZM660.224 260.32L502.3573 134.0267A42.6667-42.6667 0 0 1 433.0667 167.3067V419.8933A42.6667-42.6667 0 0 1 502.4 453.1733L660.2667 326.9227A42.6667-42.6667 0 0 1 660.2667 260.2773Z"  horiz-adv-x="1024" vert-adv-y="1024"  />

      
      <glyph glyph-name="uni1027" unicode="&#x1027;" d="M576 364H960A64-64 0 0 1 960 236H576V-148A64-64 0 0 1 448-148V236H64A64-64 0 0 1 64 364H448V748A64-64 0 0 1 576 748V364Z"  horiz-adv-x="1024" vert-adv-y="1024"  />

      
      <glyph glyph-name="uni1028" unicode="&#x1028;" d="M302.912 120.8H840.512V150.688H302.912V120.8ZM302.912 180.512H840.512V210.4H302.912V180.512ZM302.912 31.2H840.512V61.088H302.912V31.2ZM302.912 270.112H840.512V300H302.912V270.112ZM233.856 359.712H192.768A9.344-9.344 0 0 0 183.488 350.432V279.456C183.488 274.336 187.648 270.112 192.768 270.112H233.856C238.976 270.112 243.2 274.336 243.2 279.456V350.432A9.344-9.344 0 0 0 233.856 359.712ZM233.856 61.088H192.768A9.344-9.344 0 0 0 183.488 51.744V-19.168C183.488-24.352 187.648-28.512 192.768-28.512H233.856C238.976-28.512 243.2-24.352 243.2-19.168V51.68A9.344-9.344 0 0 0 233.856 61.024ZM302.976 329.888H840.576V359.712H302.976V329.888ZM302.976-28.512H840.576V1.312H302.976V-28.512ZM233.792 210.4H192.704A9.344-9.344 0 0 0 183.424 201.056V130.144C183.424 125.024 187.584 120.8 192.704 120.8H233.792C238.912 120.8 243.136 124.96 243.136 130.144V201.056A9.344-9.344 0 0 0 233.792 210.4ZM870.4 748H153.6A89.6-89.6 0 0 0 64 658.4V-58.4A89.6-89.6 0 0 0 153.6-148H870.4A89.6-89.6 0 0 0 960-58.4V658.4A89.6-89.6 0 0 0 870.4 748ZM904-64.032A27.968-27.968 0 0 1 876.032-92H147.968A28.032-28.032 0 0 1 120-64.032V664.032C120 679.456 132.544 692 147.968 692H876.032C891.456 692 904 679.456 904 664.032V-64.032ZM202.112 628.512A18.688-18.688 0 0 0 183.488 609.888V438.112C183.488 427.872 191.808 419.488 202.112 419.488H821.888C832.128 419.488 840.576 427.808 840.576 438.112V609.888A18.688-18.688 0 0 0 821.888 628.512H202.112ZM213.312 598.688H289.344C304.384 598.688 316.48 594.912 325.696 587.424A38.464-38.464 0 0 1 339.456 555.872C339.456 544.224 335.36 534.112 327.168 525.408 318.976 516.768 306.368 512.48 289.344 512.48H236.224V449.312H213.312V598.688ZM370.368 598.688H446.4C461.44 598.688 473.536 594.912 482.752 587.424A38.464-38.464 0 0 1 496.512 555.872C496.512 544.224 492.416 534.112 484.224 525.408 476.032 516.768 463.424 512.48 446.4 512.48H393.28V449.312H370.368V598.688ZM574.4 598.688H600.256L661.504 449.312H636.48L619.328 494.112H552.512L534.272 449.312H510.72L574.336 598.688ZM684.48 598.688H760.512C775.552 598.688 787.648 594.912 796.864 587.424A38.336-38.336 0 0 1 810.688 555.872C810.688 544.224 806.592 534.112 798.336 525.408 790.144 516.768 777.536 512.48 760.576 512.48H707.456V449.312H684.544V598.688ZM316.352 555.808C316.352 566.688 311.744 574.176 302.528 578.144A55.68-55.68 0 0 0 281.728 581.344H236.224V529.504H281.728C291.968 529.504 300.352 531.424 306.752 535.328 313.152 539.168 316.352 546.016 316.352 555.808ZM473.408 555.808C473.408 566.688 468.8 574.176 459.648 578.144A55.68-55.68 0 0 0 438.784 581.344H393.28V529.504H438.784C449.088 529.504 457.408 531.424 463.808 535.328 470.208 539.168 473.408 546.016 473.408 555.808ZM611.968 510.56L586.368 576.48 559.104 510.56H611.968ZM787.584 555.744C787.584 566.752 782.976 574.176 773.76 578.144A55.68-55.68 0 0 0 752.96 581.344H707.392V529.504H752.96C763.2 529.504 771.52 531.424 777.92 535.328 784.32 539.168 787.52 546.016 787.52 555.808Z"  horiz-adv-x="1024" vert-adv-y="1024"  />

      
      <glyph glyph-name="uni1029" unicode="&#x1029;" d="M679.68-148H208.704C163.456-148 128-97.44 128-32.928V632.928C128 697.44 163.456 748 208.704 748H803.648C848.896 748 884.352 697.44 884.352 632.928V349.92C884.352 336.48 874.432 325.536 862.144 325.536 849.856 325.536 839.936 336.416 839.936 349.92V632.928C839.936 671.968 820.8 699.104 803.648 699.104H208.704C191.552 699.104 172.416 671.968 172.416 632.928V-32.928C172.416-71.968 191.552-99.104 208.704-99.104H679.744C691.904-99.104 701.888-110.048 701.888-123.552S691.968-148 679.68-148ZM830.848-67.36A25.088-25.088 0 0 1 805.248-43.488C804.608-16.48 803.776 24.352 837.632 46.304 881.472 74.784 907.648 111.008 907.648 143.2 907.648 186.592 869.568 221.92 822.72 221.92S737.792 186.592 737.792 143.2C737.792 139.808 737.984 136.544 738.432 133.28 740.352 119.904 730.432 107.68 716.416 105.888A25.472-25.472 0 0 1 687.616 126.88 117.504-117.504 0 0 1 686.464 143.2C686.464 213.472 747.584 270.624 822.72 270.624 897.792 270.624 958.912 213.472 958.912 143.264 958.912 73.568 894.336 24.096 866.56 6.048 856.448-0.48 856.064-21.472 856.512-42.592A24.96-24.96 0 0 1 831.36-67.36H830.848ZM833.92-147.04A24.96-24.96 0 0 1 808.32-122.72V-105.76C808.32-92.32 819.776-81.44 833.92-81.44 848.064-81.44 859.52-92.32 859.52-105.76V-122.656C859.52-136.096 848.064-147.04 833.92-147.04ZM503.936 423.2H703.744C718.208 423.2 732.48 421.728 733.056 399.584 733.696 377.44 719.872 374.432 705.152 374.432 572.928 374.304 440.704 374.24 308.416 374.56 294.656 374.56 279.808 375.2 279.424 398.368 279.04 424.032 295.104 423.136 309.952 423.136 374.592 423.392 439.232 423.264 503.872 423.2ZM504.128 544.288V544.16C570.688 544.16 637.312 544.288 703.936 544.032 718.464 544.032 732.416 540.512 732.736 519.008 732.928 496.8 719.04 494.688 704.256 494.688H577.92C488.832 494.688 399.68 494.816 310.592 494.624 292.032 494.624 275.776 497.12 280 525.536 282.944 545.44 297.92 544.032 310.272 544.096 374.912 544.544 439.552 544.288 504.192 544.288ZM549.824 114.784C527.424 114.784 401.664 115.424 379.264 115.424H306.176C291.136 115.424 278.848 118.88 279.296 141.152 279.68 161.376 291.072 165.088 304.896 165.088 352.576 165.28 503.68 164.704 551.424 164.448 565.44 164.448 577.152 159.392 577.472 140.32 577.792 119.008 564.928 114.784 549.824 114.72ZM305.856 64.096C329.28 64.224 352.704 64.096 376.192 64.096 400.64 64.096 525.888 61.408 550.272 61.408 563.392 61.408 573.952 57.312 574.592 39.52 575.232 20.704 564.864 12.896 550.528 12.768 501.696 12.128 352 14.752 303.168 15.2 289.024 15.392 278.72 21.664 279.36 41.504 280.128 62.432 292.352 63.968 305.856 64.096ZM301.76 261.28H377.728C402.112 261.28 530.176 260.896 554.56 261.088 568.128 261.152 577.6 255.968 577.28 238.24 577.024 222.688 568.64 216.48 556.224 216.48 505.536 216.48 351.168 216.672 300.544 216.8 288.384 216.8 280.064 221.984 279.552 238.24 279.04 256.608 288.256 261.28 301.76 261.28Z"  horiz-adv-x="1024" vert-adv-y="1024"  />

      
      <glyph glyph-name="uni102A" unicode="&#x102A;" d="M716.864 644H768C816.64 644 856 604.576 856 556V-20C856-68.64 816.576-108 768-108H192C143.36-108 104-68.576 104-20V556C104 604.64 143.424 644 192 644H241.408A56-56 0 0 1 296.064 687.52H363.52C367.552 741.728 404.672 772 468.16 772 531.584 772 572.48 742.496 585.408 687.52H662.208C688.832 687.52 711.168 668.96 716.8 644ZM718.272 596V567.52A56-56 0 0 1 662.272 511.52H296.064A56-56 0 0 1 240.064 567.52V596H192A40-40 0 0 0 152 556V-20C152-42.08 169.92-60 192-60H768C790.08-60 808-42.08 808-20V556A40-40 0 0 0 768 596H718.272ZM296.064 639.52A8-8 0 0 0 288.064 631.52V567.52C288.064 563.104 291.648 559.52 296.064 559.52H662.272A8-8 0 0 0 670.272 567.52V631.52A8-8 0 0 0 662.272 639.52H565.056A24-24 0 0 1 541.184 661.28C537.024 705.056 515.264 724 468.224 724 422.976 724 407.616 707.872 411.904 665.952A24-24 0 0 1 387.968 639.52H296.064ZM619.072 380.704A24-24 0 0 1 653.504 347.296L456.96 144.416A24-24 0 0 1 425.408 141.856L305.728 230.496A24-24 0 1 1 334.272 269.088L437.12 192.928 619.072 380.64Z"  horiz-adv-x="1024" vert-adv-y="1024"  />

      
      <glyph glyph-name="uni102B" unicode="&#x102B;" d="M668.6037-109.6H243.5072C202.6667-109.6 170.6667-63.4005 170.6667-4.4181V604.4181C170.6667 663.4005 202.6667 709.6 243.5072 709.6H780.4928C821.3333 709.6 853.3333 663.4005 853.3333 604.4181V345.6704C853.3333 333.3312 844.3563 323.3131 833.28 323.3131S813.2267 333.3312 813.2267 345.6704V604.4181C813.2267 640.0704 795.9893 664.9195 780.4928 664.9195H243.5072C228.0107 664.9195 210.7733 640.0704 210.7733 604.4181V-4.4181C210.7733-40.0704 228.0107-64.9195 243.5072-64.9195H668.6037C679.68-64.9195 688.6571-74.9205 688.6571-87.2597S679.68-109.6 668.6037-109.6ZM509.952 409.1072C451.6011 409.1243 393.2501 409.2267 334.8992 409.056 321.4677 409.0048 306.9952 409.8752 307.3536 385.9477 307.6779 364.4096 321.0752 363.8635 333.5168 363.8293 452.8811 363.5392 572.2283 363.5904 691.5755 363.6587 704.8704 363.6757 717.3291 366.4747 716.7829 387.1083 716.2368 407.7077 703.3685 409.056 690.3296 409.0731 630.1867 409.1243 570.0779 409.0901 509.952 409.1072ZM510.1568 521.8155C451.8229 521.8155 393.4891 522.0373 335.1552 521.6107 324.0277 521.5424 310.528 522.8907 307.8485 504.3392 304.0256 477.8688 318.6859 475.4965 335.4624 475.5477 415.8805 475.7525 496.3157 475.616 576.7509 475.616 614.7584 475.616 652.7659 475.7013 690.7733 475.6672 704.1024 475.6672 716.6805 477.5787 716.4416 498.2464 716.2027 518.2656 703.6075 521.5083 690.4832 521.5595 630.3744 521.8155 570.2656 521.6789 510.1739 521.6789V521.8155ZM551.3899 121.9947C565.0432 121.9947 576.6144 125.92 576.3243 145.7515 576.0683 163.5349 565.4869 168.2112 552.8405 168.2795 509.7301 168.4501 373.3675 169.0133 330.2741 168.8427 317.8325 168.7915 307.5584 165.3611 307.2171 146.5365 306.8245 125.8347 317.9008 122.6432 331.4517 122.592 353.4507 122.5237 375.4325 122.5749 397.4315 122.5579 417.6555 122.5579 531.1488 121.9776 551.3728 121.9947ZM331.1616 74.8053C319.0443 74.72 307.9509 73.2523 307.3024 53.7963 306.688 35.3472 316.0064 29.4592 328.7893 29.3397 372.8725 28.9131 507.9723 26.4555 552.0555 27.0187 564.9749 27.1893 574.3275 34.4256 573.7301 51.9531 573.1669 68.5077 563.6096 72.3307 551.8165 72.3136 529.7664 72.3136 416.7168 74.7712 394.6667 74.8053 373.504 74.8395 352.3413 74.9419 331.1787 74.8053ZM327.5093 258.3573C315.3237 258.3915 306.9952 253.9712 307.4731 236.8875 307.8827 221.8005 315.392 216.9877 326.4171 216.9536 372.1387 216.8341 511.4539 216.6123 557.1925 216.6805 568.4224 216.6976 575.9317 222.4491 576.2048 236.8875 576.5291 253.408 567.9275 258.2549 555.6565 258.1696 533.6747 257.9989 418.0992 258.3403 396.1003 258.3403 373.2309 258.3403 350.3616 258.2891 327.5093 258.3403ZM793.6 197.6C831.2491 197.6 861.8667 166.88 861.8667 129.3333S831.2491 61.0667 793.6 61.0667C756.0533 61.0667 725.3333 91.6843 725.3333 129.3333 725.3333 166.88 755.9509 197.6 793.6 197.6ZM793.6 100.6272C808.7552 100.6272 821.8283 113.3077 821.8283 128.8555 821.8283 144.4032 809.1477 157.0837 793.6 157.0837 778.0523 157.0837 765.3717 144.4032 765.3717 128.8555 765.3717 113.3077 778.0523 100.6272 793.6 100.6272ZM967.4069 164.4395C968.192 160.3605 971.4517 143.072 972.8 129.1285 972.8 114.3147 969.9328 95.8997 969.1477 93.8176 966.6901 79.0037 957.3205 69.5659 945.0837 69.5659H943.0187C924.672 69.5659 909.1925 53.9499 909.1925 35.4496 909.1925 30.9611 911.6501 24.8 912.4352 22.7179 918.1696 9.9861 913.7152-5.5445 902.2805-13.8048L901.0859-14.5899 857.8901-38.8587H857.088C852.6507-40.5312 848.9131-41.3333 844.4587-41.3333 835.584-41.3333 826.5899-37.6469 820.8725-31.0933 815.1552-25.3931 800.9387-13.856 792.7637-13.856 785.7664-13.856 771.9595-24.1131 765.4571-31.0933 759.8251-37.6469 750.8309-41.3333 741.8539-41.3333 737.3312-41.3333 733.2864-40.9408 729.6341-38.8587L728.4395-38.0565 686.5067-14.2656H685.7216C673.4848-5.6299 668.9621 10.3957 674.6795 23.1104 675.8741 24.7317 677.9221 31.3707 677.9221 35.8592 677.9221 54.3424 662.4427 69.9584 644.096 69.9584H642.9013C630.6816 69.9584 620.5099 80.2837 618.0523 94.2272 618.0523 95.4219 614.4 113.9221 614.4 129.5381S618.0523 164.0469 618.0523 164.8491C620.5099 179.6629 629.8795 189.1008 642.1163 189.1008H644.1813C662.528 189.1008 678.0075 204.7168 678.0075 223.2171 678.0075 227.7056 675.9595 233.4571 674.7648 235.9488 669.0304 248.6805 673.4848 264.2112 684.9195 272.4715L686.1141 273.2565 730.112 297.5253H730.8971C735.3344 299.1979 739.0891 300 743.5264 300 751.6331 300 760.5931 297.1157 766.3275 290.5451 772.0448 285.5957 785.4592 274.5365 793.6341 274.5365 801.3483 274.5365 815.1552 285.5957 820.48 290.5451A32.0853-32.0853 0 0 1 843.2811 300C847.8037 300 851.8485 299.6075 855.5008 297.5253L856.6955 296.7232 899.4133 272.9323H899.8229C911.9744 264.2965 916.4971 248.2709 910.7797 235.5563 909.5851 233.0645 907.52 227.296 907.52 222.8075 907.52 204.3243 922.9995 188.7083 941.3461 188.7083H942.5408C955.1701 188.7083 964.9323 179.2533 967.4069 164.4395ZM867.5669 35.9275C867.5669 72.4501 894.4981 103.2725 929.4336 108.5632 930.7136 114.3147 931.4987 122.08 931.4987 128.2581 931.4987 134.4021 930.2357 142.1845 929.4507 147.9531A74.3424-74.3424 0 0 1 867.5669 221.0496C867.5669 228.4224 868.7616 235.7781 870.8267 240.7445L844.7829 255.5584A150.2549-150.2549 0 0 1 833.8261 246.5131C819.9339 237.0581 806.5195 231.6992 793.8901 231.6992 781.2608 231.6992 767.744 237.0581 753.9371 247.3152A77.7387-77.7387 0 0 1 742.5024 256.3605L715.1787 240.7445C717.2267 234.976 718.4213 228.0128 718.4213 221.0496 718.4213 185.3461 691.5925 153.7216 656.5717 147.9531A100.3861-100.3861 0 0 0 654.5067 128.2581C654.5067 122.08 655.7696 114.3147 656.5547 108.5632A74.3424-74.3424 0 0 1 718.4384 35.4496C718.4384 28.4864 717.2437 20.7211 715.1787 15.7547L740.0277 1.8283C742.8949 4.3029 746.6325 7.5968 751.0699 10.8736 764.9792 21.9157 779.1787 26.8821 791.808 26.8821 805.2395 26.8821 819.5243 21.9328 833.3483 10.8736 838.2635 7.1872 842.3253 3.9104 844.7829 1.4187L870.8267 16.2325A59.8528-59.8528 0 0 1 867.584 35.9275Z"  horiz-adv-x="1024" vert-adv-y="1024"  />

      
      <glyph glyph-name="uni102C" unicode="&#x102C;" d="M608.64-148H143.68C99.008-148 64-97.44 64-32.928V632.928C64 697.44 99.008 748 143.68 748H731.008C775.68 748 810.688 697.44 810.688 632.928V349.92C810.688 336.48 800.832 325.536 788.736 325.536 776.576 325.536 766.784 336.416 766.784 349.92V632.928C766.784 671.968 747.968 699.104 730.944 699.104H143.744C126.784 699.104 107.904 671.968 107.904 632.928V-32.928C107.904-71.968 126.784-99.104 143.744-99.104H608.64C620.736-99.104 630.528-110.048 630.528-123.552S620.8-148 608.64-148ZM435.072 423.2H632.384C646.656 423.2 660.736 421.728 661.312 399.584 661.952 377.44 648.256 374.432 633.792 374.432 503.232 374.304 372.672 374.24 242.112 374.56 228.544 374.56 213.824 375.2 213.504 398.368 213.12 424.032 228.928 423.136 243.584 423.136 307.456 423.392 371.264 423.264 435.072 423.2ZM435.328 544.288V544.16C501.056 544.16 566.784 544.288 632.512 544.032 646.912 544.032 660.672 540.512 660.928 519.008 661.184 496.8 647.488 494.688 632.896 494.688H508.16C420.16 494.688 332.16 494.816 244.224 494.624 225.92 494.624 209.856 497.12 214.016 525.536 216.96 545.44 231.744 544.032 243.904 544.096 307.712 544.544 371.52 544.288 435.328 544.288ZM480.384 114.784C458.304 114.784 334.144 115.424 312.064 115.424H239.808C224.96 115.424 212.864 118.88 213.248 141.152 213.632 161.376 224.896 165.088 238.528 165.088 285.632 165.28 434.816 164.704 481.92 164.448 495.744 164.448 507.328 159.392 507.648 140.32 507.968 119.008 495.296 114.784 480.32 114.72ZM239.552 64.096C262.72 64.224 285.824 64.096 308.992 64.096 333.12 64.096 456.832 61.408 480.896 61.408 493.76 61.408 504.256 57.312 504.832 39.52 505.472 20.704 495.232 12.896 481.152 12.768 432.896 12.128 285.184 14.752 236.928 15.2 222.976 15.392 212.736 21.664 213.44 41.504 214.144 62.432 226.24 63.968 239.552 64.096ZM235.52 261.28H310.528C334.592 261.28 460.992 260.896 485.056 261.088 498.496 261.152 507.904 255.968 507.52 238.24 507.264 222.688 499.008 216.48 486.72 216.48 436.736 216.48 284.352 216.672 234.304 216.8 222.272 216.8 214.08 221.984 213.632 238.24 213.12 256.608 222.208 261.28 235.52 261.28ZM939.136 157.6C939.968 152.992 943.616 133.664 945.024 118.048 945.024 101.472 941.888 80.928 941.056 78.56 938.304 61.984 928 51.424 914.56 51.424H912.256A38.208-38.208 0 0 0 875.008 13.28C875.008 8.288 877.76 1.376 878.592-0.992A34.24-34.24 0 0 1 867.456-41.824L866.176-42.72 818.56-69.856H817.664A36.608-36.608 0 0 1 803.776-72.608 34.56-34.56 0 0 1 777.856-61.152C771.52-54.752 755.904-41.952 746.88-41.952 739.2-41.952 723.968-53.344 716.8-61.152A34.24-34.24 0 0 1 690.88-72.672 25.92-25.92 0 0 1 677.44-69.856L676.096-68.96 629.952-42.336H629.056A35.008-35.008 0 0 1 616.896-0.544 34.56-34.56 0 0 0 620.48 13.728 38.208-38.208 0 0 0 583.232 51.872H581.952C568.512 51.872 557.312 63.392 554.56 79.008 554.56 80.352 550.528 101.024 550.528 118.496S554.56 157.152 554.56 158.048C557.312 174.56 567.616 185.184 581.056 185.184H583.36A38.208-38.208 0 0 0 620.544 223.328 39.552-39.552 0 0 0 616.96 237.536 34.24-34.24 0 0 1 628.16 278.368L629.44 279.264 677.888 306.464H678.784A36.608-36.608 0 0 1 692.672 309.216C701.632 309.216 711.488 306.016 717.76 298.656 724.096 293.088 738.88 280.736 747.84 280.736 756.352 280.736 771.52 293.088 777.408 298.656A35.072-35.072 0 0 1 802.496 309.216C807.488 309.216 811.904 308.768 815.936 306.464L817.216 305.568 864.256 278.944H864.704A35.072-35.072 0 0 1 876.8 237.088 39.552-39.552 0 0 0 873.216 222.88C873.216 202.208 890.24 184.736 910.464 184.736H911.744C925.632 184.736 936.384 174.112 939.136 157.6ZM829.248 13.792A81.92-81.92 0 0 1 897.344 95.072C898.752 101.472 899.584 110.176 899.584 117.088 899.584 124 898.176 132.64 897.344 139.104A82.752-82.752 0 0 1 829.248 220.896C829.248 229.152 830.528 237.408 832.832 242.912L804.16 259.552A148.032-148.032 0 0 1 792.064 249.376C776.768 238.816 761.984 232.8 748.096 232.8 734.208 232.8 719.296 238.816 704.128 250.272A85.76-85.76 0 0 1 691.52 260.384L661.44 242.912C663.744 236.512 665.088 228.704 665.088 220.896 665.088 180.96 635.52 145.568 596.992 139.104A112.64-112.64 0 0 0 594.688 117.088C594.688 110.176 596.096 101.472 596.992 95.072 635.52 88.608 665.088 54.112 665.088 13.28 665.088 5.472 663.808-3.232 661.504-8.736L688.832-24.352C692.032-21.536 696.064-17.888 700.992-14.24 716.288-1.888 731.904 3.68 745.792 3.68 760.576 3.68 776.32-1.888 791.552-14.24 796.992-18.336 801.408-21.984 804.16-24.8L832.832-8.16A67.968-67.968 0 0 1 829.248 13.792ZM746.816 195.296C788.032 195.296 821.632 160.736 821.632 118.624 821.632 76.384 788.032 41.952 746.752 41.952 705.6 41.952 672 76.32 672 118.624 672 160.8 705.536 195.296 746.816 195.296ZM746.816 86.368C763.456 86.368 777.728 100.576 777.728 118.048A31.36-31.36 0 0 0 746.816 149.792 31.36-31.36 0 0 0 715.84 118.048 31.36-31.36 0 0 0 746.816 86.368Z"  horiz-adv-x="1024" vert-adv-y="1024"  />

      
      <glyph glyph-name="uni102D" unicode="&#x102D;" d="M716.288 76H738.432V471.712H716.288V76ZM690.432 524H764.288C778.56 524 790.144 512.288 790.144 497.888V49.888C790.144 35.424 778.624 23.712 764.288 23.712H690.432A25.984-25.984 0 0 1 664.64 49.888V497.888C664.64 512.288 676.16 524 690.432 524ZM468.928 374.688H542.72C556.992 374.688 568.576 362.976 568.576 348.512V49.888A26.048-26.048 0 0 1 542.72 23.712H468.928A25.984-25.984 0 0 1 443.072 49.888V348.512C443.072 362.976 454.592 374.688 468.928 374.688ZM494.72 76H516.864V322.4H494.72V76ZM476.672 443.744A27.648-27.648 0 0 1 429.376 463.584V673.248C429.376 688.736 441.792 701.28 457.088 701.28S484.736 688.736 484.736 673.248V531.104L644.992 693.024A27.52-27.52 0 0 1 664.576 701.28H886.08C901.44 701.28 913.792 688.736 913.792 673.248V-73.376A27.84-27.84 0 0 1 886.08-101.408H73.856A27.84-27.84 0 0 1 46.144-73.376V76A28.16-28.16 0 0 1 54.272 95.84L184.704 227.68V584.16C184.704 599.648 197.12 612.192 212.416 612.192H320C335.36 612.192 347.712 599.648 347.712 584.224V322.464A27.84-27.84 0 0 1 320 294.56 27.84-27.84 0 0 1 292.352 322.592V556.192H240.128V216.096A28.16-28.16 0 0 1 232 196.256L101.568 64.416V-45.344H858.432V645.344H676.032L476.8 443.744Z"  horiz-adv-x="1024" vert-adv-y="1024"  />

      
      <glyph glyph-name="uni102E" unicode="&#x102E;" d="M885.632-63.968L967.36-150.944A25.856-25.856 0 1 1 929.6-186.336L846.784-98.016A129.28-129.28 0 0 1 661.184-29.472H253.248A149.568-149.568 0 0 1 103.68 120.096V558.688A149.568-149.568 0 0 1 253.248 708.256H691.84A149.568-149.568 0 0 1 841.408 558.688V129.376A129.28-129.28 0 0 1 885.568-63.968ZM792.96 143.072V558.688A101.12-101.12 0 0 0 691.904 659.744H253.312A101.12-101.12 0 0 0 152.256 558.688V120.096C152.256 64.288 197.504 18.976 253.312 18.976H653.632A129.28-129.28 0 0 1 792.96 143.136ZM782.72-63.264A77.568-77.568 0 1 0 782.72 91.808 77.568-77.568 0 0 0 782.72-63.264ZM509.44 546.144C539.904 546.144 564.608 522.848 564.608 494.112 564.608 465.312 539.904 442.016 509.44 442.016H435.84C405.376 442.016 380.736 465.376 380.736 494.112 380.736 522.848 405.376 546.144 435.84 546.144H509.44ZM509.44 476.704A17.92-17.92 0 0 0 527.808 494.112C527.808 503.648 519.552 511.392 509.44 511.392H435.84C425.728 511.392 417.472 503.648 417.472 494.112 417.472 484.512 425.728 476.704 435.84 476.704H509.44ZM509.44 372.576C539.904 372.576 564.608 349.344 564.608 320.544 564.608 291.744 539.904 268.512 509.44 268.512H435.84C405.376 268.512 380.736 291.872 380.736 320.544 380.736 349.344 405.376 372.576 435.84 372.576H509.44ZM509.44 303.2C519.552 303.2 527.808 311.072 527.808 320.544 527.808 330.144 519.552 337.888 509.44 337.888H435.84C425.728 337.888 417.472 330.144 417.472 320.608 417.472 311.008 425.728 303.2 435.84 303.2H509.44ZM509.44 199.136C539.904 199.136 564.608 175.776 564.608 147.04 564.608 118.24 539.904 94.944 509.44 94.944H435.84C405.376 94.944 380.736 118.304 380.736 147.04 380.736 175.84 405.376 199.136 435.84 199.136H509.44ZM509.44 129.696C519.552 129.696 527.808 137.504 527.808 146.976A17.92-17.92 0 0 0 509.44 164.384H435.84C425.728 164.384 417.472 156.576 417.472 147.04 417.472 137.504 425.728 129.696 435.84 129.696H509.44ZM307.2 164.384V199.136L362.432 147.04 307.264 94.944V129.696C246.336 129.696 196.992 176.288 196.992 233.824 196.992 291.296 246.4 337.888 307.264 337.888H344V303.2H307.2A75.2-75.2 0 0 0 255.168 282.912 67.264-67.264 0 0 0 233.664 233.824C233.664 215.264 241.344 197.856 255.168 184.672 269.248 171.552 287.872 164.256 307.2 164.384ZM638.08 511.456C699.008 511.456 748.352 464.8 748.352 407.328 748.352 349.792 699.008 303.2 638.08 303.2V268.448L582.976 320.544 638.016 372.576V337.888A75.52-75.52 0 0 0 690.112 358.24 66.944-66.944 0 0 0 690.112 456.416 75.52-75.52 0 0 0 638.08 476.704H601.344V511.456H638.144Z"  horiz-adv-x="1024" vert-adv-y="1024"  />

      
      <glyph glyph-name="uni102F" unicode="&#x102F;" d="M688.256 527.328V671.84C688.256 678.56 693.504 684 699.968 684H737.92A12.16-12.16 0 0 1 749.696 671.84V493.088C759.488 485.664 768.768 477.536 777.472 468.768A254.976-254.976 0 0 1 853.824 284.768C853.824 234.912 831.744 173.024 804.608 130.08L943.68-10.912C960.64-28.064 962.304-45.28 945.344-62.432 945.344-60.768 933.504-69.344 921.664-69.344A48.384-48.384 0 0 1 891.136-57.312L753.728 80.224A251.904-251.904 0 0 1 596.032 25.184 253.376-253.376 0 0 1 414.592 100.832 251.776-251.776 0 0 1 353.792 195.36H340.224A11.968-11.968 0 0 1 328.512 207.52V671.84C328.512 678.56 333.76 684 340.224 684H357.376C360.576 684 363.52 682.72 365.696 680.416A12.352-12.352 0 0 1 369.152 671.776V407.328A268.352-268.352 0 0 1 417.408 471.584V671.84C417.408 678.496 422.72 683.936 429.184 683.936H500.864C507.52 683.936 512.704 678.432 512.64 671.776V530.592C532.032 537.184 552.192 541.472 572.864 543.264V671.84C572.864 678.56 578.112 684 584.64 684H584.896C591.424 684 596.608 678.496 596.672 671.84V544.352C608.576 544.352 620.288 543.52 631.744 541.92V671.84C631.744 678.56 637.056 684 643.52 684H651.328C657.728 684 663.104 678.496 663.04 671.84V535.52C671.616 533.28 680 530.528 688.256 527.328ZM594.368 97.44A184.32-184.32 0 0 0 726.592 152.48 186.496-186.496 0 0 0 780.864 286.496C780.864 336.416 762.24 384.48 726.592 420.576A181.888-181.888 0 0 0 594.368 475.616C545.152 475.616 497.728 456.672 462.08 420.576A186.944-186.944 0 0 0 407.808 286.496C407.808 236.64 426.496 188.576 462.08 152.416 497.664 118.048 545.152 97.376 594.368 97.376ZM109.888 195.296H75.776A11.968-11.968 0 0 1 64 207.456V671.712C64 678.432 69.248 683.872 75.776 683.872H109.824C116.352 683.872 121.6 678.432 121.6 671.712V207.328A11.84-11.84 0 0 1 109.824 195.168ZM251.52 684C254.656 684 257.664 682.72 259.84 680.416A12.416-12.416 0 0 1 263.296 671.776V207.52C263.296 200.8 257.984 195.36 251.52 195.36H193.6A11.968-11.968 0 0 1 181.888 207.52V671.84C181.888 678.56 187.136 684 193.6 684H251.52Z"  horiz-adv-x="1024" vert-adv-y="1024"  />

      
      <glyph glyph-name="uni1030" unicode="&#x1030;" d="M538.432 368.928C538.432 388.64 562.56 398.56 576.704 384.608L726.016 236.896A21.952-21.952 0 0 1 726.016 205.536L576.64 57.888C562.56 43.936 538.368 53.792 538.368 73.568V148.192C483.584 146.784 351.232 147.168 138.368 149.216A22.272-22.272 0 0 1 116.224 171.36V278.88C116.224 291.232 126.464 301.216 139.008 301.024 354.688 297.312 491.904 296.736 538.368 298.784V368.928ZM583.232 315.424V278.816A22.208-22.208 0 0 1 566.592 257.44C546.816 252.192 417.856 252.064 161.088 256.288V193.312C401.728 191.072 535.872 191.136 558.528 193.44A22.336-22.336 0 0 1 583.232 171.36V127.008L678.464 221.216 583.232 315.424ZM794.176 192.8C794.176 208.16 806.72 220.512 822.144 220.512 837.632 220.512 850.176 208.096 850.176 192.8V-79.84A27.84-27.84 0 0 1 822.144-107.552H201.856A27.84-27.84 0 0 1 173.824-79.84V45.152C173.824 60.448 186.368 72.8 201.856 72.8 217.28 72.8 229.824 60.448 229.824 45.152V-52.128H794.176V192.8ZM505.792 615.84L178.368 353.12A27.52-27.52 0 0 1 160.896 347.104L105.984 347.424A28.16-28.16 0 0 1 77.952 375.392 27.52-27.52 0 0 1 105.664 403.104L150.784 402.848 488.064 673.248A27.84-27.84 0 0 1 522.944 673.056L870.592 392.736 915.904 392.416A28.16-28.16 0 0 1 943.872 364.448 27.52-27.52 0 0 1 916.224 336.736L861.056 337.056A28.16-28.16 0 0 1 843.584 343.328L505.792 615.776Z"  horiz-adv-x="1024" vert-adv-y="1024"  />

      
      <glyph glyph-name="uni1031" unicode="&#x1031;" d="M678.912 19.168C774.592 83.104 831.424 187.36 831.424 298.464V632.736C831.424 636.448 828.544 640.096 824 641.376L532.352 722.848A15.36-15.36 0 0 0 524.032 722.784L248.576 641.888C243.712 640.416 240.64 636.512 240.64 632.288V298.208C240.64 187.296 297.408 83.168 392.896 19.296L527.744-70.816A15.104-15.104 0 0 0 544.256-70.816L678.912 19.168ZM571.52-111.776A64.32-64.32 0 0 1 500.352-111.776L365.504-21.6C256.512 51.296 191.36 170.72 191.36 298.208V632.288A59.52-59.52 0 0 1 234.688 689.12L510.208 770.016C521.792 773.408 534.08 773.472 545.664 770.208L837.248 688.736A58.624-58.624 0 0 1 880.64 632.736V298.464C880.64 170.72 815.488 51.232 706.24-21.728L571.52-111.776ZM648.704 223.008L593.728 266.528 557.76 223.648 603.392 187.68A161.984-161.984 0 0 1 534.336 172.384C488.896 172.384 451.52 188.704 422.144 221.28 392.768 253.92 378.048 299.232 378.048 357.408 378.048 415.712 392.832 461.152 422.272 493.728 451.776 526.112 489.536 542.368 535.552 542.368 580.8 542.368 617.984 526.112 647.168 493.728 676.288 461.152 690.88 415.712 690.88 357.408 690.88 301.152 676.8 256.352 648.704 223.008ZM761.536 134.56L694.336 187.04C734.016 231.456 753.728 288.224 753.728 357.408 753.728 428.64 733.312 485.92 692.48 529.248 651.584 572.576 599.104 594.272 535.04 594.272 470.592 594.272 417.92 572.576 376.832 529.248 335.872 485.92 315.264 428.64 315.264 357.408 315.264 286.368 335.808 229.088 376.832 185.696 417.856 142.24 470.592 120.48 534.976 120.48 577.664 120.48 616 130.848 649.984 151.456L725.568 91.744 761.536 134.624Z"  horiz-adv-x="1024" vert-adv-y="1024"  />

      
      <glyph glyph-name="uni1032" unicode="&#x1032;" d="M512 812C229.2053 812 0 582.7947 0 300S229.2053-212 512-212 1024 17.2053 1024 300 794.7947 812 512 812ZM505.4933-0.5867A43.3067-43.3067 0 1 1 505.536 86.0267 43.3067-43.3067 0 0 1 505.4933-0.5867ZM691.3067 421.0027C688.8107 374.7093 674.6027 338.208 603.6053 267.1893 567.5947 231.2 544.896 204.192 542.592 180.4907A36.0107-36.0107 0 0 1 506.7947 148C505.6 148 504.4053 148.1067 503.1893 148.2133A36.032-36.032 0 0 1 470.8907 187.5947C475.7973 237.5147 512.4053 277.792 552.704 318.0907 617.1947 382.6027 618.304 403.104 619.392 424.8 620.6933 450.1013 611.392 474.592 593.0027 493.92A112.3627-112.3627 0 0 0 511.808 528.48H511.5947A107.6693-107.6693 0 0 0 404.288 421.0027 35.968-35.968 0 1 1 332.3093 421.0027 178.3467-178.3467 0 0 1 384.704 547.808 178.2613-178.2613 0 0 1 511.4027 600.5013 184.7893-184.7893 0 0 1 645.2053 543.4987C677.4187 509.792 693.696 466.2933 691.2853 421.0027Z"  horiz-adv-x="1024" vert-adv-y="1024"  />

      
      <glyph glyph-name="uni1033" unicode="&#x1033;" d="M725.3333 27.9573A21.3333-21.3333 0 1 1 768 27.9573V-62.6667A64-64 0 0 1 704-126.6667H277.3333A64-64 0 0 1 213.3333-62.6667V620A64-64 0 0 1 277.3333 684H704A64-64 0 0 1 768 620V529.2907A21.3333-21.3333 0 1 1 725.3333 529.2907V620A21.3333-21.3333 0 0 0 704 641.3333H277.3333A21.3333-21.3333 0 0 0 256 620V-62.6667A21.3333-21.3333 0 0 0 277.3333-84H704A21.3333-21.3333 0 0 0 725.3333-62.6667V27.9573ZM781.9947 321.3333L669.0987 434.2293A21.3333-21.3333 0 0 1 699.264 464.4373L850.1333 313.568A21.3333-21.3333 0 0 1 850.1333 283.4027L699.264 132.5333A21.3333-21.3333 0 0 1 669.0987 162.6987L785.024 278.6667H384A21.3333-21.3333 0 1 1 384 321.3333H781.9947Z"  horiz-adv-x="1024" vert-adv-y="1024"  />

      
      <glyph glyph-name="uni1034" unicode="&#x1034;" d="M329.1429 300C329.1429 199.0103 411.0103 117.1429 512 117.1429S694.8571 199.0103 694.8571 300 612.9897 482.8571 512 482.8571 329.1429 400.9897 329.1429 300ZM512 812C230.4 812 0 581.6 0 300S230.4-212 512-212 1024 18.4 1024 300 793.6 812 512 812ZM512-138.8571C270.6286-138.8571 73.1429 58.6286 73.1429 300S270.6286 738.8571 512 738.8571 950.8571 541.3714 950.8571 300 753.3714-138.8571 512-138.8571Z"  horiz-adv-x="1024" vert-adv-y="1024"  />

      
      <glyph glyph-name="uni1035" unicode="&#x1035;" d="M832 684A32-32 0 0 0 800 716H288A32-32 0 0 0 256 684V-100.768L532.48 9.696A32-32 0 0 1 556.288 9.696L832-100.64V684ZM235.84-177.696A32-32 0 0 1 192-148V684A96-96 0 0 1 288 780H800A96-96 0 0 1 896 684V-148A32-32 0 0 1 852.096-177.696L544.384-54.56 235.904-177.76ZM384 620H704A32-32 0 1 1 704 556H384A32-32 0 0 1 384 620ZM384 428H704A32-32 0 1 1 704 364H384A32-32 0 0 1 384 428ZM384 236H704A32-32 0 1 1 704 172H384A32-32 0 0 1 384 236Z"  horiz-adv-x="1024" vert-adv-y="1024"  />

      
      <glyph glyph-name="uni1036" unicode="&#x1036;" d="M877.3806 330.9289A383.95-383.95 0 1 0 757.5882 39.4926 54.85-54.85 0 1 1 832.9887-40.2227 493.65-493.65 0 1 1 987.1537 330.8558H1038.4933A36.5667-36.5667 0 0 1 1064.3094 268.4731L945.7603 149.9239A36.5667-36.5667 0 0 1 894.055 149.9239L775.5059 268.4731A36.5667-36.5667 0 0 1 801.3219 330.9289H877.3806Z"  horiz-adv-x="1097" vert-adv-y="1024"  />

      
      <glyph glyph-name="uni1037" unicode="&#x1037;" d="M710.144 344.544C710.144 364.192 734.272 373.984 748.416 360.096L897.728 213.088A21.76-21.76 0 0 1 897.728 181.92L748.416 34.848C734.336 20.96 710.144 30.816 710.144 50.464V124.768C655.36 123.36 523.008 123.744 310.144 125.792A22.208-22.208 0 0 1 288 147.872V254.816C288 267.168 298.24 277.088 310.784 276.896 526.528 273.248 663.68 272.672 710.144 274.72V344.48ZM754.944 291.296V254.816A22.144-22.144 0 0 1 738.368 233.568C718.528 228.32 589.632 228.192 332.8 232.416V169.696C573.44 167.456 707.584 167.52 730.24 169.824A22.272-22.272 0 0 1 754.944 147.872V103.712L850.24 197.472 754.944 291.296ZM229.824 191.328V-52.512H794.176V44.256C794.176 59.488 806.72 71.84 822.144 71.84 837.632 71.84 850.176 59.488 850.176 44.32V-80.16C850.176-95.392 837.632-107.68 822.144-107.68H201.856A27.776-27.776 0 0 1 173.824-80.16V191.328C173.824 206.56 186.368 218.848 201.856 218.848 217.28 218.848 229.824 206.56 229.824 191.328ZM505.28 612.96L179.136 351.648A27.392-27.392 0 0 1 161.728 345.696L106.944 346.08A28.288-28.288 0 0 1 78.912 374.112 27.264-27.264 0 0 1 106.432 401.632L151.552 401.312 487.424 670.368A27.776-27.776 0 0 1 522.24 670.112L869.76 389.6 914.944 389.28C930.304 389.152 942.848 376.608 942.912 361.248A27.264-27.264 0 0 1 915.392 333.728L860.352 334.112A28.16-28.16 0 0 1 842.944 340.384L505.28 612.96Z"  horiz-adv-x="1024" vert-adv-y="1024"  />

      
      <glyph glyph-name="uni1038" unicode="&#x1038;" d="M950.8571 812H73.1429C32.9143 812 0 779.0857 0 738.8571V629.1429C0 588.9143 32.9143 556 73.1429 556H950.8571C991.0857 556 1024 588.9143 1024 629.1429V738.8571C1024 779.0857 991.0857 812 950.8571 812ZM950.8571 647.4286C950.8571 636.4571 943.5429 629.1429 932.5714 629.1429H91.4286C80.4571 629.1429 73.1429 636.4571 73.1429 647.4286V720.5714C73.1429 731.5429 80.4571 738.8571 91.4286 738.8571H932.5714C943.5429 738.8571 950.8571 731.5429 950.8571 720.5714V647.4286ZM804.5714 519.4286H73.1429C32.9143 519.4286 0 486.5143 0 446.2857V-138.8571C0-179.0857 32.9143-212 73.1429-212H804.5714C844.8-212 877.7143-179.0857 877.7143-138.8571V446.2857C877.7143 486.5143 844.8 519.4286 804.5714 519.4286ZM804.5714-102.2857C804.5714-124.2286 786.2857-138.8571 768-138.8571H109.7143C91.4286-138.8571 73.1429-124.2286 73.1429-102.2857V409.7143C73.1429 431.6571 91.4286 446.2857 109.7143 446.2857H768C786.2857 446.2857 804.5714 431.6571 804.5714 409.7143V-102.2857ZM676.5714 44H201.1429C190.1714 44 182.8571 36.6857 182.8571 25.7143V-10.8571C182.8571-21.8286 190.1714-29.1429 201.1429-29.1429H676.5714C687.5429-29.1429 694.8571-21.8286 694.8571-10.8571V25.7143C694.8571 36.6857 687.5429 44 676.5714 44ZM676.5714 336.5714H201.1429C190.1714 336.5714 182.8571 329.2571 182.8571 318.2857V281.7143C182.8571 270.7429 190.1714 263.4286 201.1429 263.4286H676.5714C687.5429 263.4286 694.8571 270.7429 694.8571 281.7143V318.2857C694.8571 329.2571 687.5429 336.5714 676.5714 336.5714ZM676.5714 190.2857H201.1429C190.1714 190.2857 182.8571 182.9714 182.8571 172V135.4286C182.8571 124.4571 190.1714 117.1429 201.1429 117.1429H676.5714C687.5429 117.1429 694.8571 124.4571 694.8571 135.4286V172C694.8571 182.9714 687.5429 190.2857 676.5714 190.2857Z"  horiz-adv-x="1024" vert-adv-y="1024"  />

      
      <glyph glyph-name="uni1039" unicode="&#x1039;" d="M153.6 684A25.6-25.6 0 0 0 128 658.4V402.4A25.6-25.6 0 0 0 153.6 376.8H409.6A25.6-25.6 0 0 0 435.2 402.4V658.4A25.6-25.6 0 0 0 409.6 684H153.6ZM153.6 735.2H409.6A76.8-76.8 0 0 1 486.4 658.4V402.4A76.8-76.8 0 0 1 409.6 325.6H153.6A76.8-76.8 0 0 1 76.8 402.4V658.4A76.8-76.8 0 0 1 153.6 735.2ZM230.4 607.2H332.8A25.6-25.6 0 0 1 358.4 581.6V479.2A25.6-25.6 0 0 1 332.8 453.6H230.4A25.6-25.6 0 0 1 204.8 479.2V581.6A25.6-25.6 0 0 1 230.4 607.2ZM230.4 146.4H332.8A25.6-25.6 0 0 1 358.4 120.8V18.4A25.6-25.6 0 0 1 332.8-7.2H230.4A25.6-25.6 0 0 1 204.8 18.4V120.8A25.6-25.6 0 0 1 230.4 146.4ZM691.2 607.2H793.6A25.6-25.6 0 0 1 819.2 581.6V479.2A25.6-25.6 0 0 1 793.6 453.6H691.2A25.6-25.6 0 0 1 665.6 479.2V581.6A25.6-25.6 0 0 1 691.2 607.2ZM153.6 223.2A25.6-25.6 0 0 0 128 197.6V-58.4A25.6-25.6 0 0 0 153.6-84H409.6A25.6-25.6 0 0 0 435.2-58.4V197.6A25.6-25.6 0 0 0 409.6 223.2H153.6ZM153.6 274.4H409.6A76.8-76.8 0 0 1 486.4 197.6V-58.4A76.8-76.8 0 0 1 409.6-135.2H153.6A76.8-76.8 0 0 1 76.8-58.4V197.6A76.8-76.8 0 0 1 153.6 274.4ZM614.4 684A25.6-25.6 0 0 0 588.8 658.4V402.4A25.6-25.6 0 0 0 614.4 376.8H870.4A25.6-25.6 0 0 0 896 402.4V658.4A25.6-25.6 0 0 0 870.4 684H614.4ZM614.4 735.2H870.4A76.8-76.8 0 0 1 947.2 658.4V402.4A76.8-76.8 0 0 1 870.4 325.6H614.4A76.8-76.8 0 0 1 537.6 402.4V658.4A76.8-76.8 0 0 1 614.4 735.2ZM870.4 248.8A25.6-25.6 0 1 1 921.6 248.8V179.7312A25.6-25.6 0 0 1 870.4 179.7312V248.8ZM870.4 94.7904A25.6-25.6 0 1 1 921.6 94.7904V-109.6A25.6-25.6 0 1 1 870.4-109.6V94.7904ZM614.4-109.6A25.6-25.6 0 1 1 563.2-109.6V121.056A25.6-25.6 0 1 1 614.4 121.056V-109.6ZM614.4 195.2448A25.6-25.6 0 1 1 563.2 195.2448V248.8A25.6-25.6 0 1 1 614.4 248.8V195.2448ZM768-109.6A25.6-25.6 0 1 1 716.8-109.6V16.1472A25.6-25.6 0 1 1 768 16.1472V-109.6ZM768 93.3056A25.6-25.6 0 1 1 716.8 93.3056V248.8A25.6-25.6 0 1 1 768 248.8V93.3056Z"  horiz-adv-x="1024" vert-adv-y="1024"  />

      
      <glyph glyph-name="uni103A" unicode="&#x103A;" d="M512 812C229.2224 812 0 582.7776 0 300 0 17.248 229.2224-212 512-212 794.752-212 1024 17.248 1024 300 1024 582.7776 794.752 812 512 812ZM512-171.04C251.8656-171.04 40.96 39.8656 40.96 300 40.96 560.1344 251.8656 771.04 512 771.04 772.1344 771.04 983.04 560.1344 983.04 300 983.04 39.8656 772.1344-171.04 512-171.04ZM598.4512 490.1056C696.2304 473.6832 765.12 430.6112 805.1456 360.864 820.6848 333.792 826.8416 271.0848 805.1456 228.7424 731.8016 85.5488 596.288 20.2048 398.6176 32.7104L425.5488 97.0944C327.7696 113.5168 258.88 156.5888 218.8544 226.336 203.3152 253.408 197.1584 316.1152 218.8544 358.4576 292.1984 501.6512 427.712 566.9952 625.3824 554.4896L598.4512 490.1056ZM547.0208 374.6752C340.9152 367.904 235.4176 350.7008 230.5152 323.0528 225.5872 295.2768 316.416 278.8672 503.0016 273.8624L476.9792 212.5248C683.0848 219.296 788.5824 236.4992 793.4848 264.1472 798.4128 291.9232 707.584 308.3328 520.9984 313.3376L547.0208 374.6752Z"  horiz-adv-x="1024" vert-adv-y="1024"  />

      
      <glyph glyph-name="uni103B" unicode="&#x103B;" d="M239.488 206.304V305.824A25.6-25.6 0 0 1 265.344 331.296C279.616 331.296 291.2 319.904 291.2 305.824V199.968C341.376 183.072 377.728 136.608 378.752 81.632H809.536V169.824C809.536 183.904 821.12 195.296 835.392 195.296 849.664 195.296 861.248 183.904 861.248 169.824V56.16C861.248 42.08 849.728 30.624 835.392 30.624H369.088C361.344 12.064 349.248-4.192 334.208-17.12L409.856-122.72A25.28-25.28 0 0 1 403.712-158.304 26.112-26.112 0 0 1 367.68-152.096L288.96-42.208A130.752-130.752 0 0 1 249.536-48.288C178.176-48.288 120.32 8.8 120.32 79.2 120.32 146.272 172.8 201.248 239.488 206.304ZM257.088 155.36A77.056-77.056 0 0 0 171.968 79.2C171.968 36.96 206.72 2.72 249.536 2.72 292.416 2.72 327.104 36.96 327.104 79.2A76.8-76.8 0 0 0 265.344 154.08 26.112-26.112 0 0 1 257.088 155.36ZM729.408 447.584C729.408 465.76 751.68 474.848 764.672 461.984L902.528 325.984A20.224-20.224 0 0 1 902.528 297.184L764.672 161.12C751.68 148.32 729.408 157.408 729.408 175.584V244.32C678.848 243.04 556.608 243.36 360.128 245.28A20.48-20.48 0 0 1 339.648 265.632V364.64C339.648 376.032 349.184 385.184 360.768 384.992 559.872 381.6 686.528 381.088 729.408 382.944V447.584ZM770.752 398.304V364.64A20.48-20.48 0 0 1 755.392 344.928C737.152 340.064 618.112 339.936 380.992 343.84V285.856C603.2 283.744 726.976 283.808 747.968 285.92 760.128 287.2 770.752 277.728 770.752 265.632V224.8L858.688 311.584 770.752 398.304ZM540.48 695.584L238.848 453.856A25.344-25.344 0 0 1 222.848 448.352L172.16 448.672A26.112-26.112 0 0 1 146.304 474.528 25.28-25.28 0 0 1 171.776 500L213.376 499.744 524.096 748.64A25.664-25.664 0 0 1 556.288 748.384L877.12 489.504 918.848 489.248A26.112-26.112 0 0 1 944.704 463.392 25.28-25.28 0 0 1 919.232 437.856L868.416 438.24A25.984-25.984 0 0 1 852.288 444L540.48 695.52Z"  horiz-adv-x="1024" vert-adv-y="1024"  />

      
      <glyph glyph-name="uni103C" unicode="&#x103C;" d="M512 332.9076L972.7767 793.7076A23.2727-23.2727 0 1 1 1005.6844 760.7767L544.9076 300 1005.7076-160.7767A23.2727-23.2727 0 1 1 972.7767-193.6844L512 267.0924 51.2233-193.7076A23.2727-23.2727 0 0 1 18.3156-160.7767L479.0924 300 18.2924 760.7767A23.2727-23.2727 0 0 1 51.2465 793.6844L512 332.9076Z"  horiz-adv-x="1024" vert-adv-y="1024"  />

      
      <glyph glyph-name="uni103D" unicode="&#x103D;" d="M1280 812H512C230.4 812 0 581.6 0 300S230.4-212 512-212H1280C1561.6-212 1792 18.4 1792 300S1561.6 812 1280 812ZM1280-84H512C300.8-84 128 88.8 128 300S300.8 684 512 684H1280C1491.2 684 1664 511.2 1664 300S1491.2-84 1280-84ZM192 300C192 123.268 335.268-20 512-20S832 123.268 832 300 688.732 620 512 620 192 476.732 192 300Z"  horiz-adv-x="1792" vert-adv-y="1024"  />

      
      <glyph glyph-name="uni103E" unicode="&#x103E;" d="M630 24.5V-133H866.25V24.5H630ZM630 103.25H866.25V260.75H630V103.25ZM1181.25 24.5H945V-133H1102.5A78.75-78.75 0 0 0 1181.25-54.25V24.5ZM1181.25 103.25V260.75H945V103.25H1181.25ZM315 24.5V-133H551.25V24.5H315ZM315 103.25H551.25V260.75H315V103.25ZM866.25 339.5V497H630V339.5H866.25ZM945 339.5H1181.25V497H945V339.5ZM866.25 733.25H630V575.75H866.25V733.25ZM945 733.25V575.75H1181.25V654.5A78.75-78.75 0 0 0 1102.5 733.25H945ZM551.25 339.5V497H315V339.5H551.25ZM551.25 733.25H315V575.75H551.25V733.25ZM157.5 812H1102.5A157.5-157.5 0 0 1 1260 654.5V-54.25A157.5-157.5 0 0 1 1102.5-211.75H157.5A157.5-157.5 0 0 1 0-54.25V654.5A157.5-157.5 0 0 1 157.5 812Z"  horiz-adv-x="1260" vert-adv-y="1024"  />

      
      <glyph glyph-name="uni103F" unicode="&#x103F;" d="M472.5 24.5V-133H787.5V24.5H472.5ZM472.5 103.25H787.5V260.75H472.5V103.25ZM1181.25 24.5H866.25V-133H1102.5A78.75-78.75 0 0 0 1181.25-54.25V24.5ZM1181.25 103.25V260.75H866.25V103.25H1181.25ZM78.75 24.5V-54.25A78.75-78.75 0 0 0 157.5-133H393.75V24.5H78.75ZM78.75 103.25H393.75V260.75H78.75V103.25ZM787.5 497H472.5V339.5H787.5V497ZM866.25 497V339.5H1181.25V497H866.25ZM393.75 497H78.75V339.5H393.75V497ZM157.5 812H1102.5A157.5-157.5 0 0 1 1260 654.5V-54.25A157.5-157.5 0 0 1 1102.5-211.75H157.5A157.5-157.5 0 0 1 0-54.25V654.5A157.5-157.5 0 0 1 157.5 812Z"  horiz-adv-x="1260" vert-adv-y="1024"  />

      
      <glyph glyph-name="uni1040" unicode="&#x1040;" d="M1209.9286 812H93.0714C41.8821 812 0 770.1179 0 718.9286V-118.7143C0-169.9036 41.8821-211.7857 93.0714-211.7857H1209.9286C1261.1179-211.7857 1303-169.9036 1303-118.7143V718.9286C1303 770.1179 1261.1179 812 1209.9286 812ZM1209.9286-72.1786C1209.9286-95.4464 1191.3143-118.7143 1163.3929-118.7143H139.6071C111.6857-118.7143 93.0714-100.1 93.0714-72.1786V672.3929C93.0714 695.6607 111.6857 718.9286 139.6071 718.9286H1163.3929C1191.3143 718.9286 1209.9286 700.3143 1209.9286 672.3929V-72.1786ZM232.6786 625.8571C204.7571 625.8571 186.1429 607.2429 186.1429 579.3214V207.0357C186.1429 183.7679 204.7571 160.5 232.6786 160.5S279.2143 179.1143 279.2143 207.0357V579.3214C279.2143 602.5893 260.6 625.8571 232.6786 625.8571ZM1116.8571-72.1786C1144.7786-72.1786 1163.3929-53.5643 1163.3929-25.6429V160.5L930.7143-72.1786H1116.8571Z"  horiz-adv-x="1303" vert-adv-y="1024"  />

      
      <glyph glyph-name="uni1041" unicode="&#x1041;" d="M1126.9913 778.4525A68.9063-68.9063 0 0 1 1233.6975 691.2763L548.73-146.86 37.0912 228.7775A68.9063-68.9063 0 0 1 118.6763 339.815L524.8688 41.6675 1126.9125 778.4525Z"  horiz-adv-x="1260" vert-adv-y="1024"  />

      
      </font>
</defs>
</svg>
